<svg xmlns="http://www.w3.org/2000/svg" viewBox="0 -0.5 16 16" shape-rendering="crispEdges">
<metadata>Made with Pixels to Svg https://codepen.io/shshaw/pen/XbxvNj</metadata>
<path stroke="#d82800" d="M2 0h1M6 0h1M2 1h1M7 1h1M10 1h1M5 2h1M7 2h2M11 2h1M13 2h1M5 3h5M11 3h1M13 3h1M3 4h1M5 4h7M1 5h1M3 5h2M6 5h3M10 5h2M13 5h1M1 6h4M6 6h4M11 6h4M0 7h1M2 7h6M9 7h1M11 7h4M0 8h1M2 8h4M7 8h1M9 8h1M12 8h3M0 9h5M6 9h1M13 9h1M15 9h1M0 10h4M11 10h1M13 10h3M1 11h2M13 11h3M1 12h2M12 12h3M2 13h2M12 13h3M2 14h3M10 14h4M4 15h7" />
<path stroke="#fc9838" d="M12 1h1M2 3h1M9 5h1M14 5h1M5 6h1M10 6h1M8 7h1M10 7h1M6 8h1M8 8h1M10 8h2M5 9h1M7 9h6M4 10h4M9 10h2M12 10h1M3 11h3M7 11h1M9 11h1M11 11h2M3 12h2M10 12h2M4 13h2M10 13h2M5 14h5" />
<path stroke="#fcfcfc" d="M8 10h1M6 11h1M8 11h1M10 11h1M5 12h5M6 13h4" />
</svg>