<svg xmlns="http://www.w3.org/2000/svg" width="846.4" height="30">
  <style>/* .bar_piece {
	transition: 0.1s transform ease-in-out;
	transform-origin: center center;
	transform-box: fill-box;
}

.bar_piece:hover {
	transform: scaleY(1.1);
}
 */

text {
	font-family: -apple-system,BlinkMacSystemFont,"Segoe UI","Noto Sans",Helvetica,Arial,sans-serif,"Apple Color Emoji","Segoe UI Emoji";
	font-size: 13px;
}</style>
  <mask id="bar_border_radius">
    <rect width="846.4" height="8" fill="#fff" rx="4.0" />
  </mask>
  <g mask="url(#bar_border_radius)" transform="translate(0,0)">
    <rect class="bar_piece" x="0.0" width="281.354" height="8" fill="#f34b7d" />
    <rect class="bar_piece" x="281.354" width="275.424" height="8" fill="#3572A5" />
    <rect class="bar_piece" x="556.778" width="112.355" height="8" fill="#e34c26" />
    <rect class="bar_piece" x="669.133" width="51.301" height="8" fill="#b07219" />
    <rect class="bar_piece" x="720.434" width="38.761" height="8" fill="#4F5D95" />
    <rect class="bar_piece" x="759.195" width="23.429" height="8" fill="#A97BFF" />
    <rect class="bar_piece" x="782.624" width="22.757" height="8" fill="#f1e05a" />
    <rect class="bar_piece" x="805.381" width="12.991" height="8" fill="#663399" />
    <rect class="bar_piece" x="818.372" width="8.979" height="8" fill="#c6538c" />
    <rect class="bar_piece" x="827.351" width="4.257" height="8" fill="#db5855" />
    <rect class="bar_piece" x="831.608" width="3.799" height="8" fill="#DA3434" />
    <rect class="bar_piece" x="835.407" width="2.896" height="8" fill="#555555" />
    <rect class="bar_piece" x="838.303" width="2.345" height="8" fill="#74283c" />
    <rect class="bar_piece" x="840.648" width="1.812" height="8" fill="#C1F12E" />
    <rect class="bar_piece" x="842.46" width="1.598" height="8" fill="#DAE1C2" />
    <rect class="bar_piece" x="844.058" width="1.408" height="8" fill="#89e051" />
    <rect class="bar_piece" x="845.466" width="0.496" height="8" fill="#3D6117" />
    <rect class="bar_piece" x="845.962" width="0.203" height="8" fill="#427819" />
    <rect class="bar_piece" x="846.165" width="0.161" height="8" fill="#5e5086" />
    <rect class="bar_piece" x="846.326" width="0.074" height="8" fill="#6E4C13" />
  </g>
  <g transform="translate(0,24)">
    <text x="127.677" fill="rgb(139, 148, 158)">C++</text>
    <text x="399.066" fill="rgb(139, 148, 158)">Python</text>
    <text x="595.955" fill="rgb(139, 148, 158)">HTML</text>
    <text x="682.783" fill="rgb(139, 148, 158)">Java</text>
    <text x="727.814" fill="rgb(139, 148, 158)">PHP</text>
  </g>
</svg>