<svg xmlns="http://www.w3.org/2000/svg" width="846.4" height="30">
  <style>/* .bar_piece {
	transition: 0.1s transform ease-in-out;
	transform-origin: center center;
	transform-box: fill-box;
}

.bar_piece:hover {
	transform: scaleY(1.1);
}
 */

text {
	font-family: -apple-system,BlinkMacSystemFont,"Segoe UI","Noto Sans",Helvetica,Arial,sans-serif,"Apple Color Emoji","Segoe UI Emoji";
	font-size: 13px;
}</style>
  <mask id="bar_border_radius">
    <rect width="846.4" height="8" fill="#fff" rx="4.0" />
  </mask>
  <g mask="url(#bar_border_radius)" transform="translate(0,0)">
    <rect class="bar_piece" x="0.0" width="282.906" height="8" fill="#f34b7d" />
    <rect class="bar_piece" x="282.906" width="276.611" height="8" fill="#3572A5" />
    <rect class="bar_piece" x="559.517" width="107.445" height="8" fill="#e34c26" />
    <rect class="bar_piece" x="666.962" width="51.584" height="8" fill="#b07219" />
    <rect class="bar_piece" x="718.546" width="38.975" height="8" fill="#4F5D95" />
    <rect class="bar_piece" x="757.521" width="23.559" height="8" fill="#A97BFF" />
    <rect class="bar_piece" x="781.08" width="22.882" height="8" fill="#f1e05a" />
    <rect class="bar_piece" x="803.962" width="13.063" height="8" fill="#663399" />
    <rect class="bar_piece" x="817.025" width="9.028" height="8" fill="#c6538c" />
    <rect class="bar_piece" x="826.053" width="4.28" height="8" fill="#db5855" />
    <rect class="bar_piece" x="830.333" width="3.821" height="8" fill="#DA3434" />
    <rect class="bar_piece" x="834.154" width="2.912" height="8" fill="#555555" />
    <rect class="bar_piece" x="837.066" width="2.357" height="8" fill="#74283c" />
    <rect class="bar_piece" x="839.423" width="1.822" height="8" fill="#C1F12E" />
    <rect class="bar_piece" x="841.245" width="1.607" height="8" fill="#DAE1C2" />
    <rect class="bar_piece" x="842.852" width="1.416" height="8" fill="#89e051" />
    <rect class="bar_piece" x="844.268" width="1.355" height="8" fill="#5e5086" />
    <rect class="bar_piece" x="845.623" width="0.499" height="8" fill="#3D6117" />
    <rect class="bar_piece" x="846.122" width="0.204" height="8" fill="#427819" />
    <rect class="bar_piece" x="846.326" width="0.074" height="8" fill="#6E4C13" />
  </g>
  <g transform="translate(0,24)">
    <text x="128.453" fill="rgb(139, 148, 158)">C++</text>
    <text x="401.212" fill="rgb(139, 148, 158)">Python</text>
    <text x="596.239" fill="rgb(139, 148, 158)">HTML</text>
    <text x="680.754" fill="rgb(139, 148, 158)">Java</text>
    <text x="726.033" fill="rgb(139, 148, 158)">PHP</text>
  </g>
</svg>