<svg xmlns="http://www.w3.org/2000/svg" width="846.4" height="30"><style>/* .bar_piece {
	transition: 0.1s transform ease-in-out;
	transform-origin: center center;
	transform-box: fill-box;
}

.bar_piece:hover {
	transform: scaleY(1.1);
}
 */

text {
	font-family: -apple-system,BlinkMacSystemFont,"Segoe UI","Noto Sans",Helvetica,Arial,sans-serif,"Apple Color Emoji","Segoe UI Emoji";
	font-size: 13px;
}</style><mask id="bar_border_radius"><rect width="846.4" height="8" fill="#fff" rx="4.0" /></mask><g mask="url(#bar_border_radius)" transform="translate(0,0)"><rect class="bar_piece" x="0.0" width="281.666" height="8" fill="#f34b7d" /><rect class="bar_piece" x="281.666" width="275.729" height="8" fill="#3572A5" /><rect class="bar_piece" x="557.395" width="112.64" height="8" fill="#e34c26" /><rect class="bar_piece" x="670.035" width="51.358" height="8" fill="#b07219" /><rect class="bar_piece" x="721.393" width="38.804" height="8" fill="#4F5D95" /><rect class="bar_piece" x="760.197" width="23.455" height="8" fill="#A97BFF" /><rect class="bar_piece" x="783.652" width="22.782" height="8" fill="#f1e05a" /><rect class="bar_piece" x="806.434" width="13.006" height="8" fill="#663399" /><rect class="bar_piece" x="819.44" width="7.89" height="8" fill="#c6538c" /><rect class="bar_piece" x="827.33" width="4.262" height="8" fill="#db5855" /><rect class="bar_piece" x="831.592" width="3.803" height="8" fill="#DA3434" /><rect class="bar_piece" x="835.395" width="2.899" height="8" fill="#555555" /><rect class="bar_piece" x="838.294" width="2.348" height="8" fill="#74283c" /><rect class="bar_piece" x="840.642" width="1.814" height="8" fill="#C1F12E" /><rect class="bar_piece" x="842.456" width="1.599" height="8" fill="#DAE1C2" /><rect class="bar_piece" x="844.055" width="1.41" height="8" fill="#89e051" /><rect class="bar_piece" x="845.465" width="0.497" height="8" fill="#3D6117" /><rect class="bar_piece" x="845.962" width="0.203" height="8" fill="#427819" /><rect class="bar_piece" x="846.165" width="0.161" height="8" fill="#5e5086" /><rect class="bar_piece" x="846.326" width="0.074" height="8" fill="#6E4C13" /></g><g transform="translate(0,24)"><text x="127.833" fill="rgb(139, 148, 158)">C++</text><text x="399.531" fill="rgb(139, 148, 158)">Python</text><text x="596.715" fill="rgb(139, 148, 158)">HTML</text><text x="683.714" fill="rgb(139, 148, 158)">Java</text><text x="728.795" fill="rgb(139, 148, 158)">PHP</text></g></svg>