<svg xmlns="http://www.w3.org/2000/svg" width="846.4" height="30">
  <style>/* .bar_piece {
	transition: 0.1s transform ease-in-out;
	transform-origin: center center;
	transform-box: fill-box;
}

.bar_piece:hover {
	transform: scaleY(1.1);
}
 */

text {
	font-family: -apple-system,BlinkMacSystemFont,"Segoe UI","Noto Sans",Helvetica,Arial,sans-serif,"Apple Color Emoji","Segoe UI Emoji";
	font-size: 13px;
}</style>
  <mask id="bar_border_radius">
    <rect width="846.4" height="8" fill="#fff" rx="4.0" />
  </mask>
  <g mask="url(#bar_border_radius)" transform="translate(0,0)">
    <rect class="bar_piece" x="0.0" width="284.756" height="8" fill="#f34b7d" />
    <rect class="bar_piece" x="284.756" width="274.982" height="8" fill="#3572A5" />
    <rect class="bar_piece" x="559.738" width="110.623" height="8" fill="#e34c26" />
    <rect class="bar_piece" x="670.361" width="51.897" height="8" fill="#b07219" />
    <rect class="bar_piece" x="722.258" width="38.098" height="8" fill="#4F5D95" />
    <rect class="bar_piece" x="760.356" width="23.188" height="8" fill="#A97BFF" />
    <rect class="bar_piece" x="783.544" width="23.054" height="8" fill="#f1e05a" />
    <rect class="bar_piece" x="806.598" width="12.881" height="8" fill="#663399" />
    <rect class="bar_piece" x="819.479" width="7.746" height="8" fill="#c6538c" />
    <rect class="bar_piece" x="827.225" width="4.184" height="8" fill="#db5855" />
    <rect class="bar_piece" x="831.409" width="3.753" height="8" fill="#DA3434" />
    <rect class="bar_piece" x="835.162" width="2.862" height="8" fill="#555555" />
    <rect class="bar_piece" x="838.024" width="2.305" height="8" fill="#74283c" />
    <rect class="bar_piece" x="840.329" width="1.952" height="8" fill="#C1F12E" />
    <rect class="bar_piece" x="842.281" width="1.624" height="8" fill="#89e051" />
    <rect class="bar_piece" x="843.905" width="1.571" height="8" fill="#DAE1C2" />
    <rect class="bar_piece" x="845.476" width="0.487" height="8" fill="#3D6117" />
    <rect class="bar_piece" x="845.963" width="0.2" height="8" fill="#427819" />
    <rect class="bar_piece" x="846.163" width="0.158" height="8" fill="#5e5086" />
    <rect class="bar_piece" x="846.321" width="0.073" height="8" fill="#6E4C13" />
    <rect class="bar_piece" x="846.394" width="0.006" height="8" fill="#012456" />
  </g>
  <g transform="translate(0,24)">
    <text x="129.378" fill="rgb(139, 148, 158)">C++</text>
    <text x="402.247" fill="rgb(139, 148, 158)">Python</text>
    <text x="598.049" fill="rgb(139, 148, 158)">HTML</text>
    <text x="684.309" fill="rgb(139, 148, 158)">Java</text>
    <text x="729.307" fill="rgb(139, 148, 158)">PHP</text>
  </g>
</svg>