<svg xmlns="http://www.w3.org/2000/svg" viewBox="0 0 100 100">
  <path fill="#FFF" d="M50 0c27.553 0 50 22.447 50 50 0 17.165-8.011 25.264-18.134 25.264-5.898 0-11.004-3.081-13.908-7.659-4.578 4.666-10.916 7.57-17.958 7.57-13.908 0-25.176-11.268-25.176-25.176S36.092 24.823 50 24.823s25.176 11.268 25.176 25.176v8.187c0 4.137 2.905 7.042 6.69 7.042 4.489 0 8.187-3.785 8.187-15.229C90.053 27.904 72.095 9.946 50 9.946S9.947 27.905 9.947 50 27.905 90.053 50 90.053c12.764 0 21.567-6.338 21.567-6.338l6.602 7.57S66.902 100 50 100C22.447 100 0 77.553 0 50S22.447 0 50 0ZM34.771 50c0 8.363 6.778 15.229 15.229 15.229 8.363 0 15.229-6.866 15.229-15.229 0-8.451-6.866-15.229-15.229-15.229A15.178 15.178 0 0 0 34.771 50Z"/>
</svg>
