<?xml version="1.0" encoding="UTF-8"?><svg id="a" xmlns="http://www.w3.org/2000/svg" viewBox="0 0 512 512"><path d="m72.47,397.243l52.027-104.054,26.82,13.41-52.027,104.054-26.82-13.41Z" fill="#dadaeb"/><path d="m360.264,306.57l26.82-13.41,52.027,104.053-26.82,13.41-52.027-104.053Zm-95.927,90.756l52.028-104.055,26.82,13.41-52.028,104.055-26.82-13.41Zm.053-282.604l26.82-13.41,52.028,104.054-26.82,13.41-52.028-104.054Z" fill="#b5b4d9"/><path d="m168.483,205.415l52.027-104.053,26.82,13.41-52.027,104.053-26.82-13.41Z" fill="#dadaeb"/><path d="m256,0l-30.167,64.089,30.167,64.088c35.395,0,64.089-28.693,64.089-64.089S291.395,0,256,0Z" fill="#625fb2"/><path d="m191.911,64.089c0,35.395,28.693,64.089,64.089,64.089V0c-35.395,0-64.089,28.693-64.089,64.089h0Zm-127.823,319.734l-30.167,64.089,30.167,64.088c35.395,0,64.089-28.693,64.089-64.089s-28.693-64.088-64.089-64.088Z" fill="#7e7bc6"/><path d="m0,447.911c0,35.396,28.693,64.089,64.088,64.089v-128.177c-35.395,0-64.088,28.693-64.088,64.088Z" fill="#9997cf"/><path d="m447.911,383.823l-30.167,64.089,30.167,64.088c35.396,0,64.089-28.693,64.089-64.089s-28.693-64.088-64.089-64.088Z" fill="#eca647"/><path d="m383.823,447.911c0,35.395,28.693,64.089,64.089,64.089v-128.177c-35.396,0-64.089,28.693-64.089,64.088Z" fill="#edcb4c"/><path d="m256,383.823l-30.167,64.089,30.167,64.088c35.395,0,64.089-28.693,64.089-64.089s-28.694-64.088-64.089-64.088Z" fill="#eca647"/><path d="m191.911,447.911c0,35.396,28.694,64.089,64.089,64.089v-128.177c-35.395,0-64.089,28.693-64.089,64.088h0Z" fill="#edcb4c"/><path d="m351.956,191.911l-30.167,64.089,30.167,64.089c35.395,0,64.089-28.693,64.089-64.089s-28.694-64.089-64.089-64.089h0Z" fill="#ea3838"/><path d="m287.867,256c0,35.395,28.693,64.089,64.089,64.089v-128.178c-35.396,0-64.089,28.694-64.089,64.089Z" fill="#ec564c"/><path d="m160.044,191.911l-30.166,64.089,30.167,64.089c35.395,0,64.089-28.693,64.089-64.089s-28.694-64.089-64.09-64.089h0Z" fill="#47449d"/><path d="m95.956,256c0,35.395,28.693,64.089,64.089,64.089v-128.178c-35.396,0-64.089,28.694-64.089,64.089Z" fill="#625fb2"/></svg>