<?xml version="1.0" encoding="UTF-8"?><svg id="a" xmlns="http://www.w3.org/2000/svg" viewBox="0 0 512 512"><path d="m217.913.55h-113.142c-8.597,0-15.567,6.969-15.567,15.567v198.324c0,8.597,6.969,15.567,15.567,15.567h113.142c8.597,0,15.567-6.969,15.567-15.567h0V16.117c0-8.597-6.969-15.567-15.567-15.567Zm-31.274,177.697h-50.593V52.312h50.593v125.935Zm104.275-111.064c-6.078-6.079-6.078-15.934,0-22.013l40.608-40.608C334.441,1.641,338.401,0,342.53,0c.089.004.143,0,.216,0h15.926c8.597,0,15.567,6.969,15.567,15.567v167.6h25.153c8.597,0,15.567,6.969,15.567,15.567h0v15.708c0,8.597-6.969,15.567-15.567,15.567h-97.15c-8.597,0-15.567-6.969-15.567-15.567h0v-15.708c0-8.597,6.969-15.567,15.567-15.567h25.153v-108.239l-3.362,3.364c-6.078,6.08-15.934,6.081-22.014.003,0,0-.002-.002-.003-.003l-11.102-11.108h0Zm116.315,215.36h-113.142c-8.597,0-15.567,6.969-15.567,15.567v198.324c0,8.597,6.969,15.567,15.567,15.567h113.142c8.597,0,15.567-6.969,15.567-15.567v-198.324c0-8.597-6.969-15.567-15.567-15.567h0Zm-31.272,177.697h-50.595v-125.935h50.595v125.935Zm-150.31,20.486v15.708c0,8.597-6.969,15.567-15.567,15.567h-97.15c-8.597,0-15.567-6.969-15.567-15.567v-15.708c0-8.597,6.969-15.567,15.567-15.567h25.153v-108.241l-3.364,3.364c-6.074,6.079-15.926,6.084-22.006.01-.003-.003-.006-.006-.01-.01l-11.106-11.108c-6.078-6.079-6.078-15.934,0-22.013l40.608-40.608c2.919-2.92,6.878-4.56,11.007-4.56h16.141c8.597,0,15.567,6.969,15.567,15.567h0v167.6h25.153c8.597-.003,15.569,6.963,15.573,15.56v.006h0Z" fill="#38c1a1"/></svg>