<svg xmlns="http://www.w3.org/2000/svg" version="1.1" xmlns:xlink="http://www.w3.org/1999/xlink" xmlns:svgjs="http://svgjs.com/svgjs" width="512" height="512" x="0" y="0" viewBox="0 0 512 512" style="enable-background:new 0 0 512 512" xml:space="preserve"><g><path d="M60 486c-22.091 0-40-17.909-40-40v-20c0-22.091 17.909-40 40-40s40 17.909 40 40v20c0 22.091-17.909 40-40 40zM256 306c-22.091 0-40-17.909-40-40v-20c0-22.091 17.909-40 40-40s40 17.909 40 40v20c0 22.091-17.909 40-40 40zM452 486c-22.091 0-40-17.909-40-40v-20c0-22.091 17.909-40 40-40s40 17.909 40 40v20c0 22.091-17.909 40-40 40zM216 386h40v100M216 486h80M20 206h40v100M20 306h80M412 206h40v100M412 306h80M60 126c-22.091 0-40-17.909-40-40V66c0-22.091 17.909-40 40-40s40 17.909 40 40v20c0 22.091-17.909 40-40 40zM452 126c-22.091 0-40-17.909-40-40V66c0-22.091 17.909-40 40-40s40 17.909 40 40v20c0 22.091-17.909 40-40 40zM216 26h40v100M216 126h80" style="stroke-width:40;stroke-linecap:round;stroke-linejoin:round;stroke-miterlimit:10;" fill="none" stroke="#000000" stroke-width="40" stroke-linecap="round" stroke-linejoin="round" stroke-miterlimit="10" data-original="#000000"/></g></svg>