<svg xmlns="http://www.w3.org/2000/svg" viewBox="0 0 131.921 100">
  <path fill="#FFF" d="M84.531 0a76.852 76.852 0 0 0-3.499 7.077 101.92 101.92 0 0 0-30.203 0A70.764 70.764 0 0 0 47.33 0 109.982 109.982 0 0 0 20.1 8.392C2.895 33.886-1.762 58.721.553 83.215a109.432 109.432 0 0 0 33.386 16.759 80.12 80.12 0 0 0 7.156-11.523c-3.894-1.447-7.656-3.262-11.26-5.367.947-.684 1.868-1.394 2.762-2.078a78.39 78.39 0 0 0 66.746 0 34.184 34.184 0 0 0 2.762 2.078 71.584 71.584 0 0 1-11.286 5.393A80.065 80.065 0 0 0 97.975 100a109.373 109.373 0 0 0 33.386-16.732c2.735-28.414-4.683-53.039-19.601-74.849A108.21 108.21 0 0 0 84.558.053L84.532 0ZM44.042 68.14c-6.498 0-11.892-5.893-11.892-13.181s5.183-13.207 11.865-13.207 11.997 5.946 11.892 13.207c-.105 7.261-5.235 13.181-11.865 13.181Zm43.831 0c-6.525 0-11.865-5.893-11.865-13.181s5.183-13.207 11.865-13.207 11.971 5.946 11.865 13.207c-.105 7.261-5.235 13.181-11.865 13.181Z"/>
</svg>
