<?xml version="1.0" encoding="UTF-8"?>
<svg id="Main_layer" data-name="Main layer" xmlns="http://www.w3.org/2000/svg" viewBox="0 0 303 100">
  <path id="Label_Background" data-name="Label Background" d="M50,0h203C280.596,0,303,22.404,303,50h0c0,27.596-22.404,50-50,50H50V0h0Z" fill="#a31b00"/>
  <path id="Shadow" d="M50,100h.021c27.603,0,49.979-22.386,49.979-50h0C100,22.386,77.624,0,50.021,0h-.021" fill="none" stroke="#6b0300" stroke-miterlimit="10" stroke-width="3"/>
  <g id="Logo">
    <circle cx="50" cy="50" r="50" fill="#c71610"/>
    <path d="M48.064,20.061c17.403-1.101,31.936,12.766,31.936,29.939,0,10.299-4.807,15.158-10.88,15.158-3.539,0-6.602-1.849-8.345-4.595-3.15,3.211-7.689,5.031-12.661,4.427-6.863-.833-12.376-6.417-13.126-13.29-1.033-9.466,6.68-17.411,16.074-16.77,7.976.544,14.044,7.432,14.044,15.427v4.554c0,2.482,1.743,4.225,4.014,4.225,2.368,0,4.369-1.755,4.818-6.844,1.1-12.46-7.214-23.732-19.527-25.93-15.192-2.713-28.442,8.937-28.442,23.638,0,13.257,10.775,24.032,24.032,24.032,4.865,0,8.771-1.535,10.973-2.654,1.216-.618,2.691-.319,3.588.709h0c1.274,1.461.854,3.744-.875,4.62-2.939,1.489-7.729,3.293-13.686,3.293-17.173,0-31.04-14.533-29.939-31.936.944-14.919,13.084-27.058,28.002-28.002ZM40.863,50c0,5.018,4.067,9.137,9.137,9.137,5.018,0,9.137-4.12,9.137-9.137,0-5.071-4.12-9.137-9.137-9.137-5.03-.017-9.12,4.047-9.137,9.076,0,.02,0,.041,0,.061Z" fill="#fff"/>
  </g>
  <text id="Label" transform="translate(120.932 70.657)" fill="#fff" font-family="ArialMT, Arial" font-size="55"><tspan x="0" y="0">Email</tspan></text>
</svg>