<?xml version="1.0" encoding="UTF-8"?>
<svg id="Discord" xmlns="http://www.w3.org/2000/svg" viewBox="0 0 100 100">
  <g id="Logo">
    <circle cx="50" cy="50" r="50" fill="#5865f2"/>
    <path id="Discord-Symbol-Blurple" d="M58.171,28c-.567,1.007-1.077,2.049-1.54,3.114-4.399-.66-8.879-.66-13.289,0-.451-1.065-.972-2.107-1.54-3.114-4.133.706-8.161,1.945-11.981,3.693-7.571,11.217-9.62,22.145-8.601,32.922,4.434,3.276,9.4,5.776,14.69,7.374,1.192-1.597,2.246-3.299,3.149-5.07-1.713-.637-3.369-1.435-4.954-2.361.417-.301.822-.614,1.215-.915,9.295,4.376,20.061,4.376,29.368,0,.394.324.799.637,1.215.915-1.586.938-3.241,1.725-4.966,2.373.903,1.771,1.956,3.473,3.149,5.07,5.29-1.597,10.256-4.086,14.69-7.362,1.204-12.502-2.061-23.337-8.624-32.933-3.808-1.748-7.837-2.987-11.969-3.681l-.012-.023ZM40.356,57.982c-2.859,0-5.232-2.593-5.232-5.8s2.28-5.811,5.221-5.811,5.279,2.616,5.232,5.811c-.046,3.195-2.304,5.8-5.221,5.8ZM59.641,57.982c-2.871,0-5.221-2.593-5.221-5.8s2.28-5.811,5.221-5.811,5.267,2.616,5.221,5.811c-.046,3.195-2.304,5.8-5.221,5.8Z" fill="#fff"/>
  </g>
</svg>