<?xml version="1.0" encoding="UTF-8"?>
<svg id="Email" xmlns="http://www.w3.org/2000/svg" viewBox="0 0 302.999 100">
  <path id="Label_Background" data-name="Label Background" d="M50,0h203C280.596,0,303,22.404,303,50h0c0,27.596-22.404,50-50,50H50V0h0Z" fill="#a31b00"/>
  <path id="Shadow" d="M50,100h.021c27.603,0,49.979-22.386,49.979-50h0C100,22.386,77.624,0,50.021,0h-.021" fill="none" stroke="#6b0300" stroke-miterlimit="10" stroke-width="3"/>
  <g id="Logo">
    <circle cx="50" cy="50" r="50" fill="#c71610"/>
    <path d="M48.193,22.057c16.243-1.028,29.807,11.915,29.807,27.943,0,9.612-4.486,14.148-10.155,14.148-3.303,0-6.162-1.725-7.788-4.289-2.94,2.997-7.176,4.695-11.817,4.132-6.406-.778-11.551-5.989-12.251-12.404-.964-8.835,6.235-16.251,15.002-15.652,7.444.508,13.108,6.937,13.108,14.399v4.251c0,2.317,1.627,3.944,3.746,3.944,2.21,0,4.078-1.638,4.497-6.388,1.026-11.629-6.733-22.149-18.225-24.202-14.179-2.532-26.546,8.341-26.546,22.062,0,12.373,10.056,22.43,22.43,22.43,4.541,0,8.186-1.432,10.241-2.477,1.135-.577,2.512-.297,3.348.662h0c1.189,1.363.797,3.495-.817,4.312-2.743,1.39-7.214,3.073-12.773,3.073-16.028,0-28.971-13.564-27.943-29.807.881-13.924,12.212-25.255,26.136-26.136ZM41.472,50c0,4.683,3.796,8.528,8.528,8.528,4.683,0,8.528-3.845,8.528-8.528,0-4.733-3.845-8.528-8.528-8.528-4.694-.016-8.512,3.777-8.528,8.471,0,.019,0,.038,0,.057Z" fill="#fff"/>
  </g>
  <text id="Label" transform="translate(120.932 70.698)" fill="#fff" font-family="ArialMT, Arial" font-size="55"><tspan x="0" y="0">Email</tspan></text>
</svg>