<?xml version="1.0" encoding="UTF-8"?>
<svg id="Telegram" xmlns="http://www.w3.org/2000/svg" xmlns:xlink="http://www.w3.org/1999/xlink" viewBox="0 0 388 100">
  <defs>
    <linearGradient id="linear-gradient" x1="50" y1="100" x2="50" y2="0" gradientUnits="userSpaceOnUse">
      <stop offset="0" stop-color="#1d93d2"/>
      <stop offset="1" stop-color="#38b0e3"/>
    </linearGradient>
  </defs>
  <path id="Label_Background" data-name="Label Background" d="M50,0h288C365.596,0,388,22.404,388,50h0c0,27.596-22.404,50-50,50H50V0h0Z" fill="#0b7fb2"/>
  <path id="Shadow" d="M50,100h.021c27.603,0,49.979-22.386,49.979-50h0C100,22.386,77.624,0,50.021,0h-.021" fill="none" stroke="#135475" stroke-miterlimit="10" stroke-width="3"/>
  <g id="Logo">
    <circle cx="50" cy="50" r="50" fill="url(#linear-gradient)"/>
    <path d="M33.845,53.655l5.932,16.419s.742,1.536,1.536,1.536,12.606-12.288,12.606-12.288l13.136-25.371-32.998,15.466-.212,4.237Z" fill="#c8daea"/>
    <path d="M41.711,57.866l-1.139,12.103s-.477,3.708,3.231,0,7.256-6.568,7.256-6.568" fill="#a9c6d8"/>
    <path d="M33.953,54.241l-12.201-3.976s-1.457-.591-.989-1.933c.097-.277.291-.512.874-.918,2.704-1.884,50.044-18.9,50.044-18.9,0,0,1.337-.45,2.127-.151.361.137.591.291.786.856.071.205.111.642.106,1.077-.004.313-.042.604-.071,1.059-.288,4.652-8.915,39.372-8.915,39.372,0,0-.516,2.032-2.366,2.101-.674.025-1.493-.111-2.472-.953-3.629-3.122-16.175-11.553-18.947-13.407-.156-.104-.201-.24-.227-.373-.039-.195.173-.438.173-.438,0,0,21.844-19.417,22.425-21.455.045-.158-.124-.236-.353-.168-1.451.534-26.602,16.416-29.378,18.169-.162.103-.618.036-.618.036Z" fill="#fff"/>
  </g>
  <text id="Label" transform="translate(123.871 70.803)" fill="#fff" font-family="ArialMT, Arial" font-size="55"><tspan x="0" y="0" letter-spacing="-.111em">T</tspan><tspan x="27.5" y="0">elegram </tspan></text>
</svg>