<?xml version="1.0" encoding="UTF-8"?><svg id="a" xmlns="http://www.w3.org/2000/svg" viewBox="0 0 737.525 1000"><path d="m415.238,478.14c48.263,55.554-12.651,105.518-12.651,105.518,0,0,122.491-63.22,66.231-142.416-52.527-73.821-92.818-110.495,125.277-236.967-.008-.008-342.352,85.468-178.858,273.865h.001ZM468.818,0s103.883,103.95-98.558,263.745c-162.35,128.231-37.014,201.322-.05,284.865-94.784-85.501-164.307-160.782-117.671-230.829C321.011,214.96,510.735,165.095,468.818,0h0Z" fill="#dd3740" fill-rule="evenodd"/><path d="m237.509,773.341s-38.192,22.223,27.209,29.731c79.254,9.05,119.736,7.748,207.045-8.768,0,0,22.986,14.393,55.073,26.844-195.78,83.891-443.084-4.853-289.328-47.807h.001Zm-23.932-109.475s-42.846,31.713,22.614,38.483c84.663,8.743,151.491,9.457,267.204-12.808,0,0,15.977,16.218,41.12,25.077-236.677,69.226-500.272,5.45-330.938-50.751h0Zm460.586,190.455s28.271,23.31-31.141,41.336c-112.975,34.218-470.301,44.538-569.556,1.36-35.654-15.529,31.24-37.056,52.286-41.601,21.95-4.745,34.476-3.882,34.476-3.882-39.677-27.939-256.461,54.874-110.097,78.632,399.109,64.713,727.542-29.134,624.031-75.845h0Zm-418.28-303.894s-181.736,43.178-64.347,58.872c49.582,6.628,148.347,5.101,240.418-2.621,75.223-6.313,150.728-19.818,150.728-19.818,0,0-26.504,11.373-45.708,24.463-184.581,48.553-541.102,25.939-438.455-23.692,86.787-41.983,157.364-37.205,157.364-37.205h0Zm326.044,182.226c187.618-97.471,100.872-191.16,40.307-178.534-14.807,3.094-21.452,5.765-21.452,5.765,0,0,5.525-8.644,16.027-12.36,119.794-42.1,211.907,124.199-38.623,190.056-.008,0,2.879-2.605,3.741-4.927h0Zm-307.586,264.208c180.061,11.514,456.622-6.396,463.184-91.615,0,0-12.592,32.302-148.829,57.927-153.706,28.935-343.315,25.567-455.734,7.009,0,0,23.036,19.063,141.379,26.678h0Z" fill="#3e96e5" fill-rule="evenodd"/></svg>