<svg xmlns="http://www.w3.org/2000/svg" viewBox="0 0 100 100">
  <path fill="#FFF" d="M92.857 0H7.121C3.192 0 0 3.237 0 7.21v85.58C0 96.763 3.192 100 7.121 100h85.737c3.929 0 7.143-3.237 7.143-7.21V7.21C100 3.237 96.786 0 92.857 0ZM30.223 85.714H15.402V37.991h14.844v47.723h-.022Zm-7.411-54.241c-4.754 0-8.594-3.862-8.594-8.594s3.839-8.594 8.594-8.594 8.594 3.862 8.594 8.594-3.839 8.594-8.594 8.594Zm62.969 54.241H70.96V62.5c0-5.536-.112-12.656-7.701-12.656-7.723 0-8.906 6.027-8.906 12.254v23.616H39.532V37.991h14.219v6.518h.201c1.987-3.75 6.83-7.701 14.04-7.701 15 0 17.79 9.888 17.79 22.746v26.161Z"/>
</svg>
