<?xml version="1.0" encoding="UTF-8"?><svg id="a" xmlns="http://www.w3.org/2000/svg" viewBox="0 0 512 512"><path d="m512,180.706v-60.235h-30.118v30.118h-45.176v-75.294h-75.294V30.118h15.059V0h-45.176v75.294h-30.118V15.059h-30.118v60.235h-30.118V15.059h-30.118v60.235h-30.118V0h-60.235v30.118h30.118v45.176h-75.294v75.294H30.118v-30.118H0v60.235h75.294v31.122H15.059v30.118h60.235v29.114H15.059v30.118h60.235v30.118H0v60.235h30.118v-30.118h45.176v75.294h75.294v45.176h-30.118v30.118h60.235v-75.294h30.118v60.235h30.118v-60.235h30.118v60.235h30.118v-60.235h30.118v75.294h60.235v-30.118h-30.118v-45.176h75.294v-75.294h45.176v30.118h30.118v-60.235h-75.294v-30.118h60.235v-30.118h-60.235v-29.114h60.235v-30.118h-60.235v-31.122h75.294Zm-105.412,225.882h-75.294v-90.353h-108.002c-6.216-17.527-22.955-30.118-42.586-30.118-24.911,0-45.176,20.266-45.176,45.176s20.265,45.176,45.176,45.176c19.632,0,36.369-12.59,42.586-30.118h77.884v60.235H105.412V105.412h75.294v120.471h77.884c6.216,17.527,22.955,30.118,42.586,30.118,24.911,0,45.176-20.265,45.176-45.176s-20.265-45.176-45.176-45.176c-19.632,0-36.37,12.59-42.586,30.118h-47.767v-90.353h195.765v301.176Zm-210.824-75.294c0,8.304-6.755,15.059-15.059,15.059s-15.059-6.754-15.059-15.059,6.755-15.059,15.059-15.059,15.059,6.755,15.059,15.059Zm90.353-120.471c0-8.303,6.754-15.059,15.059-15.059s15.059,6.755,15.059,15.059-6.754,15.059-15.059,15.059-15.059-6.755-15.059-15.059Z" fill="#ffb446"/></svg>