<svg xmlns="http://www.w3.org/2000/svg" viewBox="0 0 100 100">
  <circle cx="50" cy="50" r="50" fill="#FFF"/>
  <path fill="#26A5E4" d="M22.633 49.472c14.576-6.351 24.296-10.537 29.159-12.56 13.886-5.775 16.771-6.779 18.651-6.812.414-.007 1.338.095 1.938.581.506.41.645.965.712 1.354s.15 1.276.084 1.968c-.752 7.906-4.008 27.092-5.665 35.947-.701 3.747-2.081 5.003-3.417 5.126-2.904.267-5.108-1.919-7.921-3.762-4.401-2.885-6.887-4.68-11.158-7.495-4.937-3.253-1.736-5.041 1.077-7.963.736-.765 13.53-12.401 13.777-13.457.031-.132.06-.624-.233-.884s-.724-.171-1.035-.1c-.441.1-7.471 4.747-21.09 13.94-1.995 1.37-3.803 2.038-5.422 2.003-1.785-.039-5.219-1.009-7.772-1.839-3.131-1.018-5.62-1.556-5.403-3.285.113-.9 1.353-1.821 3.72-2.762Z"/>
</svg>
