<svg xmlns="http://www.w3.org/2000/svg" viewBox="0 0 100 100">
  <path fill="#FFF" d="M0 48C0 25.373 0 14.059 7.03 7.03 14.058 0 25.372 0 48 0h4c22.627 0 33.941 0 40.97 7.03C100 14.058 100 25.372 100 48v4c0 22.627 0 33.941-7.03 40.97C85.942 100 74.628 100 52 100h-4c-22.627 0-33.941 0-40.97-7.03C0 85.942 0 74.628 0 52v-4Z"/>
  <path fill="#07F" d="M53.208 72.042c-22.791 0-35.791-15.625-36.333-41.625h11.417C28.667 49.5 37.083 57.584 43.75 59.25V30.417H54.5v16.458c6.584-.708 13.5-8.208 15.833-16.458h10.75c-1.792 10.167-9.292 17.667-14.625 20.75 5.333 2.5 13.876 9.042 17.126 20.875H71.75C69.208 64.125 62.875 58 54.5 57.167v14.875h-1.292Z"/>
</svg>
