<?xml version="1.0" encoding="UTF-8"?>
<svg id="LinkedIn" xmlns="http://www.w3.org/2000/svg" viewBox="0 0 372 100">
  <path id="Label_Background" data-name="Label Background" d="M52,100c91.333,0,182.667,0,274,0,21.578-.006,32.248-.307,38.97-7.029,7.424-5.959,7.162-24.441,7.029-44.97,0-22.597,0-33.94-7.029-40.97C358.248.308,347.578.007,326,0c-91.333-.001-182.667,0-274,0v100Z" fill="#0959aa"/>
  <text id="Label" transform="translate(128.03 70.803)" fill="#fff" font-family="ArialMT, Arial" font-size="55"><tspan x="0" y="0">LinkedIn</tspan></text>
  <path id="Shadow" d="M52,0,52,0C74.627,0,85.941,0,92.971,7.029c7.029,7.029,7.029,18.343,7.029,40.971v4c0,22.627,0,33.941-7.029,40.971-7.029,7.029-18.343,7.029-40.971,7.029" fill="none" stroke="#042d55" stroke-miterlimit="10" stroke-width="4"/>
  <g id="Logo">
    <path d="M0,48C0,25.373,0,14.059,7.029,7.029,14.059,0,25.373,0,48,0h4C74.627,0,85.941,0,92.971,7.029c7.029,7.029,7.029,18.343,7.029,40.971v4c0,22.627,0,33.941-7.029,40.971-7.029,7.029-18.343,7.029-40.971,7.029h-4c-22.627,0-33.941,0-40.971-7.029C0,85.941,0,74.627,0,52v-4Z" fill="#0a66c2"/>
    <polygon points="36.167 77.499 24.777 77.499 24.777 40.753 36.185 40.753 36.185 77.499 36.168 77.499 36.167 77.499" fill="#fff"/>
    <ellipse cx="30.472" cy="29.117" rx="6.605" ry="6.617" fill="#fff"/>
    <path d="M78.866,77.499h-11.391v-17.874c0-4.263-.086-9.745-5.919-9.745-5.935,0-6.845,4.641-6.845,9.435v18.184h-11.391v-36.746h10.928v5.019h.154c1.527-2.887,5.249-5.93,10.79-5.93,11.528,0,13.672,7.614,13.672,17.514v20.144h0Z" fill="#fff"/>
  </g>
</svg>