<?xml version="1.0" encoding="UTF-8"?>
<svg id="Steam" xmlns="http://www.w3.org/2000/svg" xmlns:xlink="http://www.w3.org/1999/xlink" viewBox="0 0 100 100">
  <defs>
    <linearGradient id="Steam_gradient" data-name="Steam gradient" x1="50" y1="0" x2="50" y2="100" gradientUnits="userSpaceOnUse">
      <stop offset="0" stop-color="#111d2e"/>
      <stop offset=".212" stop-color="#051839"/>
      <stop offset=".407" stop-color="#0a1b48"/>
      <stop offset=".581" stop-color="#132e62"/>
      <stop offset=".738" stop-color="#144b7e"/>
      <stop offset=".873" stop-color="#136497"/>
      <stop offset="1" stop-color="#1387b8"/>
    </linearGradient>
  </defs>
  <g id="Logo">
    <circle cx="50" cy="50" r="50" fill="url(#Steam_gradient)"/>
    <path d="M79.832,23.831c-2.63-2.639-5.984-4.44-9.637-5.175s-7.442-.371-10.889,1.045c-3.447,1.416-6.396,3.822-8.476,6.913-2.08,3.091-3.197,6.729-3.211,10.454v.248l-11.908,17.258h-.791c-2.843-.006-5.621.853-7.965,2.462L.177,45.954H.177c-.107,1.336-.177,2.682-.177,4.046,0,4.734.672,9.309,1.902,13.649l19.18,7.912c.685,3.446,2.628,6.514,5.452,8.606,2.824,2.092,6.326,3.058,9.823,2.71,3.497-.348,6.74-1.986,9.095-4.593,2.356-2.608,3.656-5.998,3.647-9.512v-.666l16.946-12.119h.429c3.727,0,7.369-1.104,10.469-3.172,3.099-2.068,5.516-5.008,6.945-8.449,1.429-3.44,1.807-7.227,1.084-10.882s-2.511-7.014-5.141-9.653ZM44.762,72.632c-.766,1.911-2.072,3.557-3.757,4.739-1.686,1.182-3.679,1.847-5.737,1.915-2.058.069-4.091-.463-5.852-1.53-1.761-1.067-3.173-2.623-4.064-4.479l6.146,2.541c1.915.797,4.068.801,5.985.011,1.917-.79,3.442-2.309,4.239-4.223.797-1.914.801-4.066.011-5.983-.79-1.917-2.31-3.441-4.224-4.238l-6.338-2.62c1.926-.727,4.023-.877,6.033-.433,2.011.444,3.848,1.463,5.289,2.933,1.441,1.47,2.423,3.328,2.826,5.346.403,2.019.21,4.111-.556,6.021ZM66.517,49.639c-6.936,0-12.559-5.623-12.559-12.559s5.623-12.559,12.559-12.559,12.559,5.623,12.559,12.559-5.623,12.559-12.559,12.559Z" fill="#fff"/>
    <circle cx="66.515" cy="37.06" r="9.462" fill="#fff"/>
  </g>
</svg>