<?xml version="1.0" encoding="UTF-8"?>
<svg xmlns="http://www.w3.org/2000/svg" viewBox="0 0 1920 426">
  <defs>
    <style>
      .c {
        fill: #fc9838;
      }

      .d {
        fill: #161b21;
      }

      .e {
        fill: #d82800;
      }

      .f {
        fill: #fcfcfc;
      }
    </style>
  </defs>
  <g id="a" data-name="fire_right_left">
    <path class="d" d="m1382.07978,356.46173h-6.51593v-18.82715c0-.55231-.44769-1-1-1h-15.03192c-.55231,0-1,.44769-1,1v3.95679h-5.51599v-17.82715h5.51599v8.91357c0,.55231.44769,1,1,1h7.51593c.55231,0,1-.44769,1-1v-9.91357c0-.55231-.44769-1-1-1h-6.51593v-3.95679c0-.55231-.44769-1-1-1h-7.51599c-.55231,0-1,.44769-1,1v3.95679h-5.51593v-3.95679c0-.55231-.44769-1-1-1h-7.51599c-.55231,0-1,.44769-1,1v4.95679c0,.55225.44769,1,1,1h6.51599v7.91357h-5.51599v-3.95679c0-.55231-.44769-1-1-1h-6.51593v-3.95679c0-.55231-.44769-1-1-1h-6.51599v-3.95679c0-.55231-.44769-1-1-1h-6.51593v-3.95673c0-.55231-.44769-1-1-1h-7.51593c-.55231,0-1,.44769-1,1v4.95673c0,.55225.44769,1,1,1h6.51593v7.91357h-5.51593v-3.95679c0-.55231-.44769-1-1-1h-7.51599c-.55231,0-1,.44769-1,1v13.87036h-5.51593v-3.95679c0-.55231-.44769-1-1-1h-6.51599v-3.95679c0-.55231-.44769-1-1-1h-7.51593c-.55231,0-1,.44769-1,1v4.95679c0,.55231.44769,1,1,1h6.51593v7.91357h-5.51593v-3.95679c0-.55231-.44769-1-1-1h-7.51599c-.55231,0-1,.44769-1,1v8.91357h-6.51593c-.55231,0-1,.44769-1,1v19.82709c0,.55231.44769,1,1,1h6.51593v8.91357c0,.55225.44769,1,1,1h6.51599v8.91357c0,.55231.44769,1,1,1h14.03192v3.95679c0,.55225.44769,1,1,1h52.61169c.55231,0,1-.44775,1-1v-3.95679h21.54785c.55231,0,1-.44769,1-1v-3.95679h6.51599c.55231,0,1-.44775,1-1v-8.91357h6.51593c.55231,0,1-.44769,1-1v-14.8703c0-.55231-.44769-1-1-1Zm-8.51593,2v2.95673h-5.51599v-2.95673h5.51599Zm-97.70746-9.91357v7.91357h-5.51599v-7.91357h5.51599Zm30.06384-9.91357v2.95679h-5.51599v-2.95679h5.51599Z"/>
    <rect class="d" x="1275.85639" y="311.85071" width="9.51593" height="11.91351" rx="1" ry="1"/>
    <path class="e" d="m1344.50001,317.80743v4.95679h-7.51599v-4.95679h7.51599Zm-37.57977-4.95673v4.95673h7.51593v-4.95673h-7.51593Zm67.64362,44.61102v4.95673h-7.51599v-4.95673h7.51599v-14.87036h-7.51599v-4.95679h-7.51593v4.95679h-7.51599v-19.82715h-7.51593v9.91357h-7.51599v-4.95679h-7.51593v-4.95679h-7.51599v-4.95679h-7.51593v9.91357h-7.51593v-4.95679h-7.51599v14.87036h7.51599v9.91357h-7.51599v-9.91357h-7.51593v-4.95679h-7.51599v9.91357h-7.51593v-4.95679h-7.51599v9.91357h7.51599v9.91357h-7.51599v-9.91357h-7.51593v19.82709h7.51593v9.91357h7.51599v9.91357h15.03192v4.95679h52.61169v-4.95679h22.54785v-4.95679h7.51599v-9.91357h7.51593v-14.8703h-7.51593Zm-7.51598-34.69747h-7.51596v9.91356h7.51596v-9.91356Zm-82.67553-9.91356h-7.51596v9.91356h7.51596v-9.91356Z"/>
    <path class="c" d="m1336.98404,382.24562v4.95678h-37.57978v-4.95678h-7.51596v-4.95678h-7.51596v-9.91356h7.51596v-4.95678h7.51596v-4.95678h7.51596v4.95678h7.51596v-4.95678h-7.51596v-4.95678h7.51596v4.95678h7.51596v-9.91356h7.51596v9.91356h7.51596v-14.87034h-7.51596v-4.95678h7.51596v4.95678h7.51596v9.91356h7.51596v4.95678h7.51596v14.87034h-7.51596v9.91356h-15.03191m-30.06383-34.69746h-7.51596v-4.95678h7.51596v4.95678Zm67.64361-4.95678h-7.51596v-4.95678h7.51596v4.95678Zm-90.19148-9.91356h-7.51596v-4.95678h7.51596v4.95678Zm75.15957-9.91356h-7.51596v-4.95678h7.51596v4.95678Z"/>
    <rect class="e" x="1344.5" y="362.4185" width="7.51596" height="4.95678"/>
    <path class="f" d="m1336.98404,382.24562h-30.06383v-4.95678h-7.51596v-4.95678h7.51596v-4.95678h7.51596v4.95678h7.51596v-9.91356h7.51596v9.91356h7.51596v9.91356Zm7.51596-9.91356h-7.51596v-4.95678h7.51596v4.95678Z"/>
  </g>
  <g id="b" data-name="fire_right_right">
    <path class="d" d="m1382.07981,346.5484h-6.51611v-8.91406c0-.55231-.44769-1-1-1h-7.51562c-.55231,0-1,.44769-1,1v3.95703h-5.51611v-7.91406h6.51562c.55231,0,1-.44775,1-1v-4.95605c0-.55231-.44769-1-1-1h-7.51562c-.55231,0-1,.44769-1,1v3.95605h-6.51611c-.55231,0-1,.44769-1,1v3.95703h-5.51611v-13.87012c0-.55231-.44769-1-1-1h-7.51562c-.55231,0-1,.44769-1,1v3.95703h-5.51611v-7.91406h6.51611c.55231,0,1-.44769,1-1v-4.95605c0-.55231-.44769-1-1-1h-7.51611c-.55231,0-1,.44769-1,1v3.95605h-6.51611c-.55231,0-1,.44769-1,1v3.95703h-6.51562c-.55231,0-1,.44769-1,1v3.95703h-6.51611c-.55231,0-1,.44769-1,1v3.95605h-5.51611v-7.91309h6.51611c.55231,0,1-.44775,1-1v-4.95703c0-.55231-.44769-1-1-1h-7.51611c-.55231,0-1,.44769-1,1v3.95703h-5.51562v-3.95703c0-.55231-.44769-1-1-1h-7.51611c-.55231,0-1,.44769-1,1v3.95703h-6.51611c-.55231,0-1,.44769-1,1v9.91309c0,.55225.44769,1,1,1h7.51611c.55231,0,1-.44775,1-1v-8.91309h5.51611v17.82715h-5.51611v-3.95703c0-.55231-.44769-1-1-1h-15.03223c-.2652,0-.51959.10535-.70709.29291-.18756.1875-.29291.44189-.29291.70709l.00049,18.82715h-6.51611c-.55231,0-1,.44769-1,1v14.87012c0,.55225.44769,1,1,1h6.51611v8.91406c0,.55231.44769,1,1,1h6.51562v3.95703c0,.55225.44769,1,1,1h21.54785v3.95605c0,.55225.44769,1,1,1h52.61182c.55231,0,1-.44775,1-1v-3.95605h14.03223c.55231,0,1-.44775,1-1v-8.91406h6.51562c.55231,0,1-.44775,1-1v-8.91309h6.51611c.55231,0,1-.44775,1-1v-19.82715c0-.55231-.44769-1-1-1Zm-8.51611,2v7.91309h-5.51562v-7.91309h5.51562Zm-97.70752,9.91309v2.95703h-5.51562v-2.95703h5.51562Zm62.12793-16.87012v-2.95703h5.51562v2.95703h-5.51562Z"/>
    <rect class="d" x="1358.53196" y="311.85114" width="9.51562" height="11.91309" rx="1" ry="1"/>
    <path class="e" d="m1382.07963,347.5481v19.82709h-7.51593v9.91357h-7.51593v9.91357h-15.03192v4.95679h-52.61169v-4.95679h-22.54791v-4.95679h-7.51593v-9.91357h-7.51599v-14.8703h7.51599v4.95673h7.51593v-4.95673h-7.51593v-14.87036h7.51593v-4.95679h7.51599v4.95679h7.51593v-19.82715h7.51599v9.91357h7.51593v-4.95679h7.51593v-4.95679h7.51599v-4.95679h7.51593v9.91357h7.51599v-4.95679h7.51593v14.87036h-7.51593v9.91357h7.51593v-9.91357h7.51599v-4.95679h7.51593v9.91357h7.51599v-4.95679h7.51593v9.91357h-7.51593v9.91357h7.51593v-9.91357h7.51593Zm-97.70742-24.7839h-7.51596v9.91356h7.51596v-9.91356Zm82.67553-9.91356h-7.51596v9.91356h7.51596v-9.91356Zm-60.12766,4.95678h-7.51596v4.95678h7.51596v-4.95678Zm30.06383-4.95678h-7.51596v4.95678h7.51596v-4.95678Z"/>
    <path class="c" d="m1344.49987,387.20234h-37.57979v-4.95678h-15.03191v-9.91356h-7.51596v-14.87034h7.51596v-4.95678h7.51596v-9.91356h7.51596v14.87034h7.51596v-9.91356h7.51596v9.91356h7.51596v4.95678h7.51596v-4.95678h-7.51596v-4.95678h7.51596v4.95678h7.51596v4.95678h7.51596v4.95678h7.51596v9.91356h-7.51596v4.95678h-7.51596v4.95678Zm0-39.65424h-7.51596v-4.95678h7.51596v4.95678Zm-30.06383-4.95678h-7.51596v-4.95678h7.51596v4.95678Zm-37.57979,0h-7.51596v-4.95678h7.51596v4.95678Zm90.19149-9.91356h-7.51596v-4.95678h7.51596v4.95678Zm-75.15957-9.91356h-7.51596v-4.95678h7.51596v4.95678Z"/>
    <rect class="e" x="1291.88817" y="362.41844" width="7.51596" height="4.95678"/>
    <polygon class="f" points="1336.98391 382.24556 1306.92008 382.24556 1306.92008 372.332 1299.40413 372.332 1299.40413 367.37522 1306.92008 367.37522 1306.92008 372.332 1314.43604 372.332 1314.43604 362.41844 1321.952 362.41844 1321.952 372.332 1329.46796 372.332 1329.46796 367.37522 1336.98391 367.37522 1336.98391 372.332 1344.49987 372.332 1344.49987 377.28878 1336.98391 377.28878 1336.98391 382.24556"/>
  </g>
</svg>