<svg xmlns="http://www.w3.org/2000/svg" viewBox="0 0 1920 430">
  <!-- Background -->
  <defs>
    <style>
      svg {
        <!-- background-color: #22272E; -->
        <!-- background-color: #0D1117; -->
      }
    </style>
  </defs>

  <!-- <rect fill="#f00" class="tmp_background" width="1920" height="430"/> -->

  <!-- Rocks -->
  <defs>
    <style>
      .rocks {
        fill: #501700;

        stroke: #270d03;
        stroke-width: 2px;
        paint-order: stroke fill;
        stroke-linecap: round;
        stroke-linejoin: round;
      }
    </style>
  </defs>

  <g id="rocks">
    <path class="rocks" d="m1436.172,108.505v-22.103h-10.957v16.075h-4.966v-10.047h-8.957v-10.047h-14.928v-5.023h-15.933v5.023h-4.976v16.075h-9.952v28.131h8.957v6.028h5.971v4.019h-34.832v9.042h-8.957v11.051h8.966v-6.028h5.961v5.023h15.933v-4.019h14.928v-6.028h-6.966v-4.019h6.966v-5.023h7.961v-10.047h6.966v-14.065h7.952v39.182h15.933v-5.023h5.971v-20.093h8.957v-11.051h-9.952v-4.019h-20.899v-3.014h30.851Zm120.418,0v-22.103h-10.957v16.075h-4.966v-10.047h-8.957v-10.047h-14.928v-5.023h-15.933v5.023h-4.976v16.075h-9.952v28.131h8.957v6.028h5.971v4.019h-34.832v9.042h-8.957v11.051h8.966v-6.028h5.961v5.023h15.933v-4.019h14.928v-6.028h-6.966v-4.019h6.966v-5.023h7.961v-10.047h6.966v-14.065h7.952v39.182h15.933v-5.023h5.971v-20.093h8.957v-11.051h-9.952v-4.019h-20.899v-3.014h30.851ZM1500.85,1v4.023h-4.976v16.075h-9.952v28.131h8.957v6.028h5.971v4.019h-34.831v9.042h-8.957v9.042h-30.851v6.028h14.928v9.042h8.957v10.047h-8.957v24.112h8.957v10.047h-7.962v14.065h8.953v-13.06h6.979v-11.052h8.957v-10.047h5.971v-34.152h-6.966v-9.049h5.961v5.023h15.933v-4.019h14.928v-6.028h-6.966v-4.019h6.966v-5.023h7.962v-10.047h6.967v-14.065h7.951v39.182h15.933v-5.023h5.972v-20.093h8.957v-11.051h-9.952v-4.019h-20.899v-3.014h30.852V9.042h-10.957v16.075h-4.967v-10.047h-8.956V5.023h-14.928V1h-15.934Zm176.159,107.505v-22.103h-10.957v16.075h-4.966v-10.047h-8.957v-10.047h-14.928v-5.023h-15.933v5.023h-4.977v16.075h-9.951v28.131h8.956v6.028h5.972v4.019h-34.832v9.042h-8.957v11.051h8.967v-6.028h5.962v5.023h15.933v-4.019h14.928v-6.028h-6.967v-4.019h6.967v-5.023h7.961v-10.047h6.967v-14.065h7.952v39.182h15.933v-5.023h5.971v-20.093h8.957v-11.051h-9.952v-4.019h-20.898v-3.014h30.851ZM1426.211,1v5.028h14.928v9.042h8.957v10.047h-8.957v24.112h8.957v10.047h-7.962v14.065h8.953v-13.06h6.979v-11.052h8.957v-10.047h5.971V5.03h-6.966V1h-39.817Zm315.475,0v4.023s-4.976,0-4.976,0v16.075s-9.952,0-9.952,0v28.131s8.957,0,8.957,0v6.028s5.971,0,5.971,0v4.019s-34.831,0-34.831,0v9.042s-8.957,0-8.957,0v9.042s-30.851,0-30.851,0v6.028s14.928,0,14.928,0v9.042s8.957,0,8.957,0v10.047s-8.957,0-8.957,0v24.112s8.957,0,8.957,0v10.047s-7.962,0-7.962,0v14.065s8.953,0,8.953,0v-13.06s6.98,0,6.98,0v-11.052s8.957,0,8.957,0v-10.047s5.971,0,5.971,0v-34.152s-6.966,0-6.966,0v-9.049s5.961,0,5.961,0v5.023s15.933,0,15.933,0v-4.019s14.928,0,14.928,0v-6.028s-6.966,0-6.966,0v-4.019s6.966,0,6.966,0v-5.023s7.962,0,7.962,0v-10.047s6.967,0,6.967,0v-14.065s7.951,0,7.951,0v39.182s15.933,0,15.933,0v-5.023s5.972,0,5.972,0v-20.093s8.957,0,8.957,0v-11.051s-9.952,0-9.952,0v-4.019s-20.899,0-20.899,0v-3.014s30.852,0,30.852,0V9.042s-10.957,0-10.957,0v16.075s-4.967,0-4.967,0v-10.047s-8.956,0-8.956,0V5.023s-14.928,0-14.928,0V1s-15.934,0-15.934,0Zm-120.418-.003v4.023s-4.976,0-4.976,0v16.075s-9.952,0-9.952,0v28.131s8.957,0,8.957,0v6.028s5.971,0,5.971,0v4.019s-34.831,0-34.831,0v9.042s-8.957,0-8.957,0v9.042s-30.851,0-30.851,0v6.028s14.928,0,14.928,0v9.042s8.957,0,8.957,0v10.047s-8.957,0-8.957,0v24.112s8.957,0,8.957,0v10.047s-7.962,0-7.962,0v14.065s8.953,0,8.953,0v-13.06s6.98,0,6.98,0v-11.052s8.957,0,8.957,0v-10.047s5.971,0,5.971,0v-34.152s-6.966,0-6.966,0v-9.049s5.961,0,5.961,0v5.023s15.933,0,15.933,0v-4.019s14.928,0,14.928,0v-6.028s-6.966,0-6.966,0v-4.019s6.966,0,6.966,0v-5.023s7.962,0,7.962,0v-10.047s6.967,0,6.967,0v-14.065s7.951,0,7.951,0v39.182s15.933,0,15.933,0v-5.023s5.972,0,5.972,0v-20.093s8.957,0,8.957,0v-11.051s-9.952,0-9.952,0v-4.019s-20.899,0-20.899,0v-3.014s30.852,0,30.852,0V9.039s-10.957,0-10.957,0v16.075s-4.967,0-4.967,0v-10.047s-8.956,0-8.956,0V5.021s-14.928,0-14.928,0V.997s-15.934,0-15.934,0Zm45.779.003v5.028s14.928,0,14.928,0v9.042s8.957,0,8.957,0v10.047s-8.957,0-8.957,0v24.112s8.957,0,8.957,0v10.047s-7.962,0-7.962,0v14.065s8.953,0,8.953,0v-13.06s6.979,0,6.979,0v-11.052s8.957,0,8.957,0v-10.047s5.971,0,5.971,0V5.03s-6.966,0-6.966,0V1s-39.817,0-39.817,0Zm-286.615,0v4.023s-4.976,0-4.976,0v16.075s-9.952,0-9.952,0v28.131s8.957,0,8.957,0v6.028s5.971,0,5.971,0v4.019s-34.831,0-34.831,0v9.042s-8.957,0-8.957,0v9.042s-30.851,0-30.851,0v6.028s14.928,0,14.928,0v9.042s8.957,0,8.957,0v10.047s-8.957,0-8.957,0v24.112s8.957,0,8.957,0v10.047s-7.962,0-7.962,0v14.065s8.953,0,8.953,0v-13.06s6.98,0,6.98,0v-11.052s8.957,0,8.957,0v-10.047s5.971,0,5.971,0v-34.152s-6.966,0-6.966,0v-9.049s5.961,0,5.961,0v5.023s15.933,0,15.933,0v-4.019s14.928,0,14.928,0v-6.028s-6.966,0-6.966,0v-4.019s6.966,0,6.966,0v-5.023s7.962,0,7.962,0v-10.047s6.967,0,6.967,0v-14.065s7.951,0,7.951,0v39.182s15.933,0,15.933,0v-5.023s5.972,0,5.972,0v-20.093s8.957,0,8.957,0v-11.051s-9.952,0-9.952,0v-4.019s-20.899,0-20.899,0v-3.014s30.852,0,30.852,0V9.042s-10.957,0-10.957,0v16.075s-4.967,0-4.967,0v-10.047s-8.956,0-8.956,0V5.023s-14.928,0-14.928,0V1s-15.934,0-15.934,0Zm407.034,0v5.028s14.928,0,14.928,0v9.042s8.957,0,8.957,0v10.047h-8.957s0,24.112,0,24.112h8.957v10.047h-7.962s0,14.065,0,14.065h8.953s0-13.06,0-13.06h6.979s0-11.052,0-11.052h8.957s0-10.047,0-10.047h5.971s0-34.152,0-34.152h-6.966V.999s-39.817,0-39.817,0Zm-602.092,0v5.028s14.928,0,14.928,0v9.042s8.957,0,8.957,0v10.047s-8.957,0-8.957,0v24.112s8.957,0,8.957,0v10.047s-7.962,0-7.962,0v14.065s8.953,0,8.953,0v-13.06s6.98,0,6.98,0v-11.052s8.957,0,8.957,0v-10.047s5.971,0,5.971,0V5.03s-6.966,0-6.966,0V1s-39.817,0-39.817,0Zm9.961,107.505v-22.103h-10.957v16.075h-4.966v-10.047h-8.957v-10.047h-14.928v-5.023h-15.933v5.023h-4.976v16.075h-9.952v28.131h8.957v6.028h5.971v4.019h-34.832v9.042h-8.957v11.051h8.966v-6.028h5.961v5.023h15.933v-4.019h14.928v-6.028h-6.966v-4.019h6.966v-5.023h7.961v-10.047h6.966v-14.065h7.952v39.182h15.933v-5.023h5.971v-20.093h8.957v-11.051h-9.952v-4.019h-20.899v-3.014h30.851Zm-120.418,0v-22.103h-10.957v16.075h-4.966v-10.047h-8.957v-10.047h-14.928v-5.023h-15.933v5.023h-4.976v16.075h-9.952v28.131h8.957v6.028h5.971v4.019h-34.832v9.042h-8.957v11.051h8.966v-6.028h5.961v5.023h15.933v-4.019h14.928v-6.028h-6.966v-4.019h6.966v-5.023h7.961v-10.047h6.966v-14.065h7.952v39.182h15.933v-5.023h5.971v-20.093h8.957v-11.051h-9.952v-4.019h-20.899v-3.014h30.851ZM1139.595,1v4.023s-4.976,0-4.976,0v16.075s-9.952,0-9.952,0v28.131s8.957,0,8.957,0v6.028s5.971,0,5.971,0v4.019s-34.831,0-34.831,0v9.042s-8.957,0-8.957,0v9.042s-30.851,0-30.851,0v6.028s14.928,0,14.928,0v9.042s8.957,0,8.957,0v10.047s-8.957,0-8.957,0v24.112s8.957,0,8.957,0v10.047s-7.962,0-7.962,0v14.065s8.953,0,8.953,0v-13.06s6.98,0,6.98,0v-11.052s8.957,0,8.957,0v-10.047s5.971,0,5.971,0v-34.152s-6.966,0-6.966,0v-9.049s5.961,0,5.961,0v5.023s15.933,0,15.933,0v-4.019s14.928,0,14.928,0v-6.028s-6.966,0-6.966,0v-4.019s6.966,0,6.966,0v-5.023s7.962,0,7.962,0v-10.047s6.967,0,6.967,0v-14.065s7.951,0,7.951,0v39.182s15.933,0,15.933,0v-5.023s5.972,0,5.972,0v-20.093s8.957,0,8.957,0v-11.051s-9.952,0-9.952,0v-4.019s-20.899,0-20.899,0v-3.014s30.852,0,30.852,0V9.042s-10.957,0-10.957,0v16.075s-4.967,0-4.967,0v-10.047s-8.956,0-8.956,0V5.023s-14.928,0-14.928,0V1s-15.934,0-15.934,0Zm120.418,0v4.023s-4.976,0-4.976,0v16.075s-9.952,0-9.952,0v28.131s8.957,0,8.957,0v6.028s5.971,0,5.971,0v4.019s-34.831,0-34.831,0v9.042s-8.957,0-8.957,0v9.042s-30.851,0-30.851,0v6.028s14.928,0,14.928,0v9.042s8.957,0,8.957,0v10.047s-8.957,0-8.957,0v24.112s8.957,0,8.957,0v10.047s-7.962,0-7.962,0v14.065s8.953,0,8.953,0v-13.06s6.98,0,6.98,0v-11.052s8.957,0,8.957,0v-10.047s5.971,0,5.971,0v-34.152s-6.966,0-6.966,0v-9.049s5.961,0,5.961,0v5.023s15.933,0,15.933,0v-4.019s14.928,0,14.928,0v-6.028s-6.966,0-6.966,0v-4.019s6.966,0,6.966,0v-5.023s7.962,0,7.962,0v-10.047s6.967,0,6.967,0v-14.065s7.951,0,7.951,0v39.182s15.933,0,15.933,0v-5.023s5.972,0,5.972,0v-20.093s8.957,0,8.957,0v-11.051s-9.952,0-9.952,0v-4.019s-20.899,0-20.899,0v-3.014s30.852,0,30.852,0V9.042s-10.957,0-10.957,0v16.075s-4.967,0-4.967,0v-10.047s-8.956,0-8.956,0V5.023s-14.928,0-14.928,0V1s-15.934,0-15.934,0Zm55.74,107.505v-22.103h-10.957v16.075h-4.966v-10.047h-8.957v-10.047h-14.928v-5.023h-15.933v5.023h-4.976v16.075h-9.952v28.131h8.957v6.028h5.971v4.019h-34.832v9.042h-8.957v11.051h8.966v-6.028h5.961v5.023h15.933v-4.019h14.928v-6.028h-6.966v-4.019h6.966v-5.023h7.961v-10.047h6.966v-14.065h7.952v39.182h15.933v-5.023h5.971v-20.093h8.957v-11.051h-9.952v-4.019h-20.899v-3.014h30.851Zm-9.961-107.505v5.028s14.928,0,14.928,0v9.042s8.957,0,8.957,0v10.047s-8.957,0-8.957,0v24.112s8.957,0,8.957,0v10.047s-7.962,0-7.962,0v14.065s8.953,0,8.953,0v-13.06s6.979,0,6.979,0v-11.052s8.957,0,8.957,0v-10.047s5.971,0,5.971,0V5.03s-6.966,0-6.966,0V1s-39.817,0-39.817,0Zm612.053,262.224v-22.103h-10.957v16.075h-4.967v-10.047h-8.956v-10.047h-14.929v-5.023h-15.933v5.023h-4.976v16.075h-9.952v28.131h8.957v6.028h5.971v4.019h-34.831v9.042h-8.957v9.042h-30.851v6.028h14.928v9.042h8.956v10.047h-8.956v24.112h8.956v10.047h-7.961v14.065h8.953v-13.06h6.979v-11.052h8.957v-10.047h5.971v-34.152h-6.966v-9.049h5.961v5.023h15.933v-4.019h14.928v-6.028h-6.966v-4.019h6.966v-5.023h7.962v-10.047h6.967v-14.065h7.951v39.182h15.933v-5.023h5.972v-20.093h8.957v-11.051h-9.952v-4.019h-20.899v-3.014h30.852ZM22.004,425.981h5.971v-34.152h-6.966v-9.049h5.961v5.023h15.933v-4.019h14.928v-6.028h-6.967v-4.019h6.967v-5.023h7.961v-10.047h6.966v-14.065h7.952v39.182h15.933v-5.023h5.971v-20.094h8.957v-11.051h-9.952v-4.019h-20.899v-3.014h30.851v-22.103h-10.957v16.075h-4.966v-10.047h-8.957v-10.047h-14.928v-5.023h-15.933v5.023h-4.976v16.075h-9.952v28.131h8.957v6.028h5.971v4.019H20.999v9.042h-8.957v9.042H1v15.07h4.076v10.047H1v17.084h21.004v-3.019ZM1,368.715v14.065s5.068,0,5.068,0v-13.06s6.98,0,6.98,0v-11.052s8.957,0,8.957,0v-10.047s5.971,0,5.971,0v-34.152s-6.966,0-6.966,0v-9.049s5.961,0,5.961,0v5.023s15.933,0,15.933,0v-4.019s14.928,0,14.928,0v-6.028s-6.967,0-6.967,0v-4.019s6.967,0,6.967,0v-5.023s7.961,0,7.961,0v-10.047s6.966,0,6.966,0v-14.065s7.952,0,7.952,0v39.182s15.933,0,15.933,0v-5.023s5.971,0,5.971,0v-20.093s8.957,0,8.957,0v-11.051s-9.952,0-9.952,0v-4.019s-20.899,0-20.899,0v-3.014s30.851,0,30.851,0v-22.103s-10.957,0-10.957,0v16.075s-4.966,0-4.966,0v-10.047s-8.957,0-8.957,0v-10.047s-14.928,0-14.928,0v-5.023s-15.933,0-15.933,0v5.023s-4.976,0-4.976,0v16.075s-9.952,0-9.952,0v28.131s8.957,0,8.957,0v6.028s5.971,0,5.971,0v4.019s-34.832,0-34.832,0v9.042s-8.957,0-8.957,0v9.042s-11.043,0-11.043,0v15.07s4.076,0,4.076,0v10.047s-4.076,0-4.076,0v24.112s4.076,0,4.076,0v10.047s-4.076,0-4.076,0Zm0-77.36v14.065s5.068,0,5.068,0v-13.06s6.979,0,6.979,0v-11.052s8.957,0,8.957,0v-10.047s5.971,0,5.971,0v-34.152s-6.966,0-6.966,0v-9.049h5.961s0,5.023,0,5.023h15.933s0-4.019,0-4.019h14.928s0-6.028,0-6.028h-6.967s0-4.019,0-4.019h6.967s0-5.023,0-5.023h7.961s0-10.047,0-10.047h6.966s0-14.065,0-14.065h7.952s0,39.182,0,39.182h15.933s0-5.023,0-5.023h5.971s0-20.093,0-20.093h8.957s0-11.051,0-11.051h-9.952s0-4.019,0-4.019h-20.899s0-3.014,0-3.014h30.851s0-22.103,0-22.103h-10.957s0,16.075,0,16.075h-4.966s0-10.047,0-10.047h-8.957s0-10.047,0-10.047h-14.928s0-5.023,0-5.023h-15.933s0,5.023,0,5.023h-4.976s0,16.075,0,16.075h-9.952s0,28.131,0,28.131h8.957s0,6.028,0,6.028h5.971s0,4.019,0,4.019H20.999s0,9.042,0,9.042h-8.957s0,9.042,0,9.042H1s0,15.07,0,15.07h4.076s0,10.047,0,10.047H1s0,24.112,0,24.112h4.076s0,10.047,0,10.047H1Zm1796.427,137.645v-4.023h-9.952v-4.019h-20.898v-3.014h30.851v-22.103h-10.956v16.075h-4.967v-10.047h-8.957v-10.047h-14.928v-5.023h-15.933v5.023h-4.976v16.075h-9.952v21.103h31.855v-7.037h7.952v7.037h30.86ZM1907.884,6.028h11.116V1h-11.116v5.028Zm-.995,405.888h-4.967v-10.047h-8.956v-10.047h-14.929v-5.023h-15.933v5.023h-4.976v16.075h-9.952v21.103h31.856v-7.037h7.951v7.037h30.861v-4.023h-9.952v-4.019h-20.899v-3.014h30.852v-22.103h-10.957v16.075Zm-124.39-105.491v-5.023h5.972v-20.093h8.956v-11.051h-9.952v-4.019h-20.898v-3.014h30.851v-22.103h-10.956v16.075h-4.967v-10.047h-8.957v-10.047h-14.928v-5.023h-15.933v5.023h-4.976v16.075h-9.952v28.131h8.957v6.028h5.971v4.019h-34.832v9.042h-8.956v9.042h-15.924v15.07h8.957v10.047h-8.957v24.112h8.957v10.047h-7.961v14.065h8.953v-13.06h6.98v-11.052h8.956v-10.047h5.972v-34.152h-6.967v-9.049h5.962v5.023h15.933v-4.019h14.928v-6.028h-6.966v-4.019h6.966v-5.023h7.962v-10.047h6.966v-14.065h7.952v39.182h15.933ZM1064.956,1v5.028s14.928,0,14.928,0v9.042s8.957,0,8.957,0v10.047s-8.957,0-8.957,0v24.112s8.957,0,8.957,0v10.047s-7.962,0-7.962,0v14.065s8.953,0,8.953,0v-13.06s6.979,0,6.979,0v-11.052s8.957,0,8.957,0v-10.047s5.971,0,5.971,0V5.03s-6.966,0-6.966,0V1s-39.817,0-39.817,0Zm617.019,256.196v24.112h8.957v10.047h-7.961v14.065h8.953v-13.06h6.98v-11.052h8.956v-10.047h5.972v-34.152h-6.967v-9.049h5.962v5.023h15.933v-4.019h14.928v-6.028h-6.966v-4.019h6.966v-5.023h7.962v-10.047h6.966v-14.065h7.952v39.182h15.933v-5.023h5.972v-20.093h8.956v-11.051h-9.952v-4.019h-20.898v-3.014h30.851v-22.103h-10.956v16.075h-4.967v-10.047h-8.957v-10.047h-14.928v-5.023h-15.933v5.023h-4.976v16.075h-9.952v28.131h8.957v6.028h5.971v4.019h-34.832v9.042h-8.956v9.042h-15.924v15.07h8.957v10.047h-8.957Zm235.871-71.332v-22.103h-10.957v16.075h-4.967v-10.047h-8.956v-10.047h-14.929v-5.023h-15.933v5.023h-4.976v16.075h-9.952v28.131h8.957v6.028h5.971v4.019h-34.831v9.042h-8.957v9.042h-30.851v6.028h14.928v9.042h8.956v10.047h-8.956v24.112h8.956v10.047h-7.961v14.065h8.953v-13.06h6.979v-11.052h8.957v-10.047h5.971v-34.152h-6.966v-9.049h5.961v5.023h15.933v-4.019h14.928v-6.028h-6.966v-4.019h6.966v-5.023h7.962v-10.047h6.967v-14.065h7.951v39.182h15.933v-5.023h5.972v-20.093h8.957v-11.051h-9.952v-4.019h-20.899v-3.014h30.852ZM1,59.276v14.065h5.068v-13.06h6.979v-11.052h8.957v-10.047h5.971V5.03h-6.966V1H1v14.07h4.076v10.047H1v24.112h4.076v10.047H1Zm1916.846,49.229v-22.103h-10.957v16.075s-4.967,0-4.967,0v-10.047h-8.956s0-10.047,0-10.047h-14.929s0-5.023,0-5.023h-15.933v5.023s-4.976,0-4.976,0v16.075s-9.952,0-9.952,0v28.131h8.957s0,6.028,0,6.028h5.971s0,4.019,0,4.019h-34.831v9.042s-8.957,0-8.957,0v9.042s-30.851,0-30.851,0v6.028h14.928s0,9.042,0,9.042h8.956s0,10.047,0,10.047h-8.956v24.112h8.956s0,10.047,0,10.047h-7.961v14.065h8.953v-13.06s6.979,0,6.979,0v-11.052s8.957,0,8.957,0v-10.047s5.971,0,5.971,0v-34.152h-6.966s0-9.049,0-9.049h5.961s0,5.023,0,5.023h15.933v-4.019s14.928,0,14.928,0v-6.028h-6.966s0-4.019,0-4.019h6.966v-5.023s7.962,0,7.962,0v-10.047s6.967,0,6.967,0v-14.065s7.951,0,7.951,0v39.182h15.933v-5.023s5.972,0,5.972,0v-20.093s8.957,0,8.957,0v-11.051h-9.952s0-4.019,0-4.019h-20.899s0-3.014,0-3.014h30.852ZM1862.105.999v4.023s-4.976,0-4.976,0v16.075s-9.952,0-9.952,0v28.131s8.957,0,8.957,0v6.028s5.971,0,5.971,0v4.019s-34.831,0-34.831,0v9.042s-8.957,0-8.957,0v9.042s-30.851,0-30.851,0v6.028s14.928,0,14.928,0v9.042s8.957,0,8.957,0v10.047s-8.957,0-8.957,0v24.112s8.957,0,8.957,0v10.047s-7.962,0-7.962,0v14.065s8.953,0,8.953,0v-13.06s6.98,0,6.98,0v-11.052s8.957,0,8.957,0v-10.047s5.971,0,5.971,0v-34.152s-6.966,0-6.966,0v-9.049s5.961,0,5.961,0v5.023s15.933,0,15.933,0v-4.019s14.928,0,14.928,0v-6.028s-6.966,0-6.966,0v-4.019s6.966,0,6.966,0v-5.023s7.962,0,7.962,0v-10.047s6.967,0,6.967,0v-14.065s7.951,0,7.951,0v39.182s15.933,0,15.933,0v-5.023s5.972,0,5.972,0v-20.093s8.957,0,8.957,0v-11.051s-9.952,0-9.952,0v-4.019s-20.899,0-20.899,0v-3.014s30.852,0,30.852,0V9.041s-10.957,0-10.957,0v16.075s-4.967,0-4.967,0v-10.047s-8.956,0-8.956,0V5.022s-14.928,0-14.928,0V.999s-15.934,0-15.934,0ZM231.989,429v-4.023h-9.952v-4.019h-20.899v-3.014h30.851v-22.103h-10.957v16.075h-4.966v-10.047h-8.957v-10.047h-14.928v-5.023h-15.933v5.023h-4.976v16.075h-9.952v21.103h31.855v-7.037h7.952v7.037h30.86ZM222.028,1v5.028s14.928,0,14.928,0v9.042s8.957,0,8.957,0v10.047s-8.957,0-8.957,0v24.112s8.957,0,8.957,0v10.047s-7.962,0-7.962,0v14.065s8.953,0,8.953,0v-13.06s6.979,0,6.979,0v-11.052s8.957,0,8.957,0v-10.047s5.971,0,5.971,0V5.03s-6.966,0-6.966,0V1s-39.817,0-39.817,0Zm16.928,153.72h-16.928v6.028h16.928v-6.028Zm-21.895,151.706v-5.023h5.971v-20.093h8.957v-11.051h-9.952v-4.019h-20.899v-3.014h30.851v-22.103h-10.957v16.075h-4.966v-10.047h-8.957v-10.047h-14.928v-5.023h-15.933v5.023h-4.976v16.075h-9.952v28.131h8.957v6.028h5.971v4.019h-34.832v9.042h-8.957v9.042h-30.851v6.028h14.928v9.042h8.957v10.047h-8.957v24.112h8.957v10.047h-7.961v14.065h8.953v-13.06h6.979v-11.052h8.957v-10.047h5.971v-34.152h-6.967v-9.049h5.962v5.023h15.933v-4.019h14.928v-6.028h-6.966v-4.019h6.966v-5.023h7.961v-10.047h6.966v-14.065h7.952v39.182h15.933ZM101.61,1v5.028s14.928,0,14.928,0v9.042s8.957,0,8.957,0v10.047s-8.957,0-8.957,0v24.112s8.957,0,8.957,0v10.047s-7.962,0-7.962,0v14.065s8.953,0,8.953,0v-13.06h6.979v-11.052s8.957,0,8.957,0v-10.047s5.971,0,5.971,0V5.03h-6.966V1s-39.817,0-39.817,0Zm14.928,256.196v24.112h8.957v10.047h-7.961v14.065h8.953v-13.06h6.979v-11.052h8.957v-10.047h5.971v-34.152h-6.967v-9.049h5.962v5.023h15.933v-4.019h14.928v-6.028h-6.966v-4.019h6.966v-5.023h7.961v-10.047h6.966v-14.065h7.952v39.182h15.933v-5.023h5.971v-20.093h8.957v-11.051h-9.952v-4.019h-20.899v-3.014h30.851v-22.103h-10.957v16.075h-4.966v-10.047h-8.957v-10.047h-14.928v-5.023h-15.933v5.023h-4.976v16.075h-9.952v28.131h8.957v6.028h5.971v4.019h-34.832v9.042h-8.957v9.042h-30.851v6.028h14.928v9.042h8.957v10.047h-8.957Zm0,154.72v17.084h25.885v-3.019h5.971v-34.152h-6.967v-9.049h5.962v5.023h15.933v-4.019h14.928v-6.028h-6.966v-4.019h6.966v-5.023h7.961v-10.047h6.966v-14.065h7.952v39.182h15.933v-5.023h5.971v-20.094h8.957v-11.051h-9.952v-4.019h-20.899v-3.014h30.851v-22.103h-10.957v16.075h-4.966v-10.047h-8.957v-10.047h-14.928v-5.023h-15.933v5.023h-4.976v16.075h-9.952v28.131h8.957v6.028h5.971v4.019h-34.832v9.042h-8.957v9.042h-30.851v6.028h14.928v9.042h8.957v10.047h-8.957Zm122.418-179.836h-16.928v6.028h16.928v-6.028Zm0,77.36h-16.928v6.028h16.928v-6.028Zm1668.928-77.36v6.028h11.116v-6.028h-11.116Zm0-77.36v6.028h11.116v-6.028h-11.116Zm0,154.72v6.028h11.116v-6.028h-11.116Zm0-232.079v6.028h11.116v-6.028h-11.116Zm-200.024,348.622h5.972v-34.152h-6.967v-9.049h5.962v5.023h15.933v-4.019h14.928v-6.028h-6.966v-4.019h6.966v-5.023h7.962v-10.047h6.966v-14.065h7.952v39.182h15.933v-5.023h5.972v-20.094h8.956v-11.051h-9.952v-4.019h-20.898v-3.014h30.851v-22.103h-10.956v16.075h-4.967v-10.047h-8.957v-10.047h-14.928v-5.023h-15.933v5.023h-4.976v16.075h-9.952v28.131h8.957v6.028h5.971v4.019h-34.832v9.042h-8.956v9.042h-15.924v15.07h8.957v10.047h-8.957v17.084h25.885v-3.019Zm-1485.831-33.154h16.928v-6.028h-16.928v6.028Zm1696.972-6.028h-11.116v6.028h11.116v-6.028ZM1019.176,1v4.023h-4.976s0,16.075,0,16.075h-9.952s0,28.131,0,28.131h8.957s0,6.028,0,6.028h5.971v4.019s-34.831,0-34.831,0v9.042s-8.957,0-8.957,0v9.042s-30.851,0-30.851,0v6.028s14.928,0,14.928,0v9.042s8.957,0,8.957,0v10.047s-8.957,0-8.957,0v24.112s8.957,0,8.957,0v10.047s-7.962,0-7.962,0v14.065s8.953,0,8.953,0v-13.06s6.979,0,6.979,0v-11.052s8.957,0,8.957,0v-10.047s5.971,0,5.971,0v-34.152s-6.966,0-6.966,0v-9.049s5.961,0,5.961,0v5.023s15.933,0,15.933,0v-4.019s14.928,0,14.928,0v-6.028s-6.966,0-6.966,0v-4.019s6.966,0,6.966,0v-5.023s7.962,0,7.962,0v-10.047s6.967,0,6.967,0v-14.065s7.951,0,7.951,0v39.182s15.933,0,15.933,0v-5.023s5.972,0,5.972,0v-20.093s8.957,0,8.957,0v-11.051s-9.952,0-9.952,0v-4.019s-20.899,0-20.899,0v-3.014s30.852,0,30.852,0V9.042s-10.957,0-10.957,0v16.075s-4.967,0-4.967,0v-10.047s-8.956,0-8.956,0V5.024s-14.928,0-14.928,0V1s-15.934,0-15.934,0Zm783.217,410.916v17.084h25.885v-3.019h5.971v-34.152h-6.966v-9.049h5.961v5.023h15.933v-4.019h14.928v-6.028h-6.966v-4.019h6.966v-5.023h7.962v-10.047h6.967v-14.065h7.951v39.182h15.933v-5.023h5.972v-20.094h8.957v-11.051h-9.952v-4.019h-20.899v-3.014h30.852v-22.103h-10.957v16.075h-4.967v-10.047h-8.956v-10.047h-14.929v-5.023h-15.933v5.023h-4.976v16.075h-9.952v28.131h8.957v6.028h5.971v4.019h-34.831v9.042h-8.957v9.042h-30.851v6.028h14.928v9.042h8.956v10.047h-8.956ZM824.12,1v5.028s14.928,0,14.928,0v9.042s8.957,0,8.957,0v10.047s-8.957,0-8.957,0v24.112s8.957,0,8.957,0v10.047s-7.962,0-7.962,0v14.065s8.953,0,8.953,0v-13.06s6.979,0,6.979,0v-11.052s8.957,0,8.957,0v-10.047s5.971,0,5.971,0V5.03s-6.966,0-6.966,0V1s-39.817,0-39.817,0Zm-45.779,0v4.023s-4.976,0-4.976,0v16.075s-9.952,0-9.952,0v28.131s8.957,0,8.957,0v6.028s5.971,0,5.971,0v4.019s-34.831,0-34.831,0v9.042s-8.957,0-8.957,0v9.042s-30.851,0-30.851,0v6.028s14.928,0,14.928,0v9.042s8.957,0,8.957,0v10.047s-8.957,0-8.957,0v24.112s8.957,0,8.957,0v10.047s-7.962,0-7.962,0v14.065s8.953,0,8.953,0v-13.06s6.98,0,6.98,0v-11.052s8.957,0,8.957,0v-10.047s5.971,0,5.971,0v-34.152s-6.966,0-6.966,0v-9.049s5.961,0,5.961,0v5.023s15.933,0,15.933,0v-4.019s14.928,0,14.928,0v-6.028s-6.966,0-6.966,0v-4.019s6.966,0,6.966,0v-5.023s7.962,0,7.962,0v-10.047s6.967,0,6.967,0v-14.065s7.951,0,7.951,0v39.182s15.933,0,15.933,0v-5.023s5.972,0,5.972,0v-20.093s8.957,0,8.957,0v-11.051s-9.952,0-9.952,0v-4.019s-20.899,0-20.899,0v-3.014s30.852,0,30.852,0V9.042s-10.957,0-10.957,0v16.075s-4.967,0-4.967,0v-10.047s-8.956,0-8.956,0V5.023s-14.928,0-14.928,0V1s-15.934,0-15.934,0Zm-64.678,107.505v-22.103h-10.957v16.075h-4.966v-10.047h-8.957v-10.047h-14.928v-5.023h-15.933v5.023h-4.976v16.075h-9.952v28.131h8.957v6.028h5.971v4.019h-34.832v9.042h-8.957v11.051h8.966v-6.028h5.961v5.023h15.933v-4.019h14.928v-6.028h-6.966v-4.019h6.966v-5.023h7.961v-10.047h6.966v-14.065h7.952v39.182h15.933v-5.023h5.971v-20.093h8.957v-11.051h-9.952v-4.019h-20.899v-3.014h30.851ZM657.922,1v4.023s-4.976,0-4.976,0v16.075s-9.952,0-9.952,0v28.131s8.957,0,8.957,0v6.028s5.971,0,5.971,0v4.019s-34.831,0-34.831,0v9.042s-8.957,0-8.957,0v9.042s-30.851,0-30.851,0v6.028s14.928,0,14.928,0v9.042s8.957,0,8.957,0v10.047s-8.957,0-8.957,0v24.112s8.957,0,8.957,0v10.047s-7.962,0-7.962,0v14.065s8.953,0,8.953,0v-13.06s6.98,0,6.98,0v-11.052s8.957,0,8.957,0v-10.047s5.971,0,5.971,0v-34.152s-6.966,0-6.966,0v-9.049s5.961,0,5.961,0v5.023s15.933,0,15.933,0v-4.019s14.928,0,14.928,0v-6.028s-6.966,0-6.966,0v-4.019s6.966,0,6.966,0v-5.023s7.962,0,7.962,0v-10.047s6.967,0,6.967,0v-14.065s7.951,0,7.951,0v39.182s15.933,0,15.933,0v-5.023s5.972,0,5.972,0v-20.093s8.957,0,8.957,0v-11.051s-9.952,0-9.952,0v-4.019s-20.899,0-20.899,0v-3.014s30.852,0,30.852,0V9.042s-10.957,0-10.957,0v16.075s-4.967,0-4.967,0v-10.047s-8.956,0-8.956,0V5.023s-14.928,0-14.928,0V1s-15.934,0-15.934,0Zm45.779,0v5.028s14.928,0,14.928,0v9.042s8.957,0,8.957,0v10.047h-8.957s0,24.112,0,24.112h8.957v10.047h-7.962s0,14.065,0,14.065h8.953s0-13.06,0-13.06h6.979s0-11.052,0-11.052h8.957s0-10.047,0-10.047h5.971s0-34.152,0-34.152h-6.966V1s-39.817,0-39.817,0Zm240.837,0v5.028s14.928,0,14.928,0v9.042s8.957,0,8.957,0v10.047s-8.957,0-8.957,0v24.112s8.957,0,8.957,0v10.047s-7.962,0-7.962,0v14.065s8.953,0,8.953,0v-13.06s6.979,0,6.979,0v-11.052s8.957,0,8.957,0v-10.047s5.971,0,5.971,0V5.031s-6.966,0-6.966,0V1s-39.817,0-39.817,0Zm-110.457,107.505v-22.103h-10.957v16.075h-4.966v-10.047h-8.957v-10.047h-14.928v-5.023h-15.933v5.023h-4.976v16.075h-9.952v28.131h8.957v6.028h5.971v4.019h-34.832v9.042h-8.957v11.051h8.966v-6.028h5.961v5.023h15.933v-4.019h14.928v-6.028h-6.966v-4.019h6.966v-5.023h7.961v-10.047h6.966v-14.065h7.952v39.182h15.933v-5.023h5.971v-20.093h8.957v-11.051h-9.952v-4.019h-20.899v-3.014h30.851Zm120.418,0v-22.103h-10.957v16.075h-4.966v-10.047h-8.957v-10.047h-14.928v-5.023h-15.933v5.023h-4.976v16.075h-9.952v28.131h8.957v6.028h5.971v4.019h-34.832v9.042h-8.957v11.051h8.966v-6.028h5.961v5.023h15.933v-4.019h14.928v-6.028h-6.966v-4.019h6.966v-5.023h7.961v-10.047h6.966v-14.065h7.952v39.182h15.933v-5.023h5.971v-20.093h8.957v-11.051h-9.952v-4.019h-20.899v-3.014h30.851ZM898.759,1v4.023s-4.976,0-4.976,0v16.075s-9.952,0-9.952,0v28.131s8.957,0,8.957,0v6.028s5.971,0,5.971,0v4.019s-34.831,0-34.831,0v9.042s-8.957,0-8.957,0v9.042s-30.851,0-30.851,0v6.028s14.928,0,14.928,0v9.042s8.957,0,8.957,0v10.047s-8.957,0-8.957,0v24.112s8.957,0,8.957,0v10.047s-7.962,0-7.962,0v14.065s8.953,0,8.953,0v-13.06s6.98,0,6.98,0v-11.052s8.957,0,8.957,0v-10.047s5.971,0,5.971,0v-34.152s-6.966,0-6.966,0v-9.049s5.961,0,5.961,0v5.023s15.933,0,15.933,0v-4.019s14.928,0,14.928,0v-6.028s-6.966,0-6.966,0v-4.019s6.966,0,6.966,0v-5.023s7.962,0,7.962,0v-10.047s6.967,0,6.967,0v-14.065s7.951,0,7.951,0v39.182s15.933,0,15.933,0v-5.023s5.972,0,5.972,0v-20.093s8.957,0,8.957,0v-11.051s-9.952,0-9.952,0v-4.019s-20.899,0-20.899,0v-3.014s30.852,0,30.852,0V9.042s-10.957,0-10.957,0v16.075s-4.967,0-4.967,0v-10.047s-8.956,0-8.956,0V5.023s-14.928,0-14.928,0V1s-15.934,0-15.934,0Zm-315.476,0v5.028s14.928,0,14.928,0v9.042s8.957,0,8.957,0v10.047s-8.957,0-8.957,0v24.112s8.957,0,8.957,0v10.047s-7.962,0-7.962,0v14.065s8.953,0,8.953,0v-13.06s6.979,0,6.979,0v-11.052s8.957,0,8.957,0v-10.047s5.971,0,5.971,0V5.03s-6.966,0-6.966,0V1s-39.817,0-39.817,0Zm-166.197,0v4.023s-4.976,0-4.976,0v16.075s-9.952,0-9.952,0v28.131s8.957,0,8.957,0v6.028s5.971,0,5.971,0v4.019s-34.831,0-34.831,0v9.042s-8.957,0-8.957,0v9.042s-30.851,0-30.851,0v6.028s14.928,0,14.928,0v9.042s8.957,0,8.957,0v10.047s-8.957,0-8.957,0v24.112s8.957,0,8.957,0v10.047s-7.962,0-7.962,0v14.065s8.953,0,8.953,0v-13.06s6.98,0,6.98,0v-11.052s8.957,0,8.957,0v-10.047s5.971,0,5.971,0v-34.152s-6.966,0-6.966,0v-9.049s5.961,0,5.961,0v5.023s15.933,0,15.933,0v-4.019s14.928,0,14.928,0v-6.028s-6.966,0-6.966,0v-4.019s6.966,0,6.966,0v-5.023s7.962,0,7.962,0v-10.047s6.967,0,6.967,0v-14.065s7.951,0,7.951,0v39.182s15.933,0,15.933,0v-5.023s5.972,0,5.972,0v-20.093s8.957,0,8.957,0v-11.051s-9.952,0-9.952,0v-4.019s-20.899,0-20.899,0v-3.014s30.852,0,30.852,0V9.042s-10.957,0-10.957,0v16.075s-4.967,0-4.967,0v-10.047s-8.956,0-8.956,0V5.023s-14.928,0-14.928,0V1s-15.934,0-15.934,0Zm-64.678,107.505v-22.103h-10.957v16.075h-4.966v-10.047h-8.957v-10.047h-14.928v-5.023h-15.933v5.023h-4.976v16.075h-9.952v28.131h8.957v6.028h5.971v4.019h-34.832v9.042h-8.957v11.051h8.966v-6.028h5.961v5.023h15.933v-4.019h14.928v-6.028h-6.966v-4.019h6.966v-5.023h7.961v-10.047h6.966v-14.065h7.952v39.182h15.933v-5.023h5.971v-20.093h8.957v-11.051h-9.952v-4.019h-20.899v-3.014h30.851ZM462.864,1v5.028s14.928,0,14.928,0v9.042s8.957,0,8.957,0v10.047s-8.957,0-8.957,0v24.112s8.957,0,8.957,0v10.047s-7.962,0-7.962,0v14.065s8.953,0,8.953,0v-13.06s6.979,0,6.979,0v-11.052s8.957,0,8.957,0v-10.047s5.971,0,5.971,0V5.03s-6.966,0-6.966,0V1s-39.817,0-39.817,0Zm-120.418,0v5.028s14.928,0,14.928,0v9.042s8.957,0,8.957,0v10.047h-8.957s0,24.112,0,24.112h8.957v10.047h-7.962s0,14.065,0,14.065h8.953s0-13.06,0-13.06h6.979s0-11.052,0-11.052h8.957s0-10.047,0-10.047h5.971s0-34.152,0-34.152h-6.966V1s-39.817,0-39.817,0Zm195.057,0v4.023s-4.976,0-4.976,0v16.075s-9.952,0-9.952,0v28.131s8.957,0,8.957,0v6.028s5.971,0,5.971,0v4.019s-34.831,0-34.831,0v9.042s-8.957,0-8.957,0v9.042s-30.851,0-30.851,0v6.028s14.928,0,14.928,0v9.042s8.957,0,8.957,0v10.047s-8.957,0-8.957,0v24.112s8.957,0,8.957,0v10.047s-7.962,0-7.962,0v14.065s8.953,0,8.953,0v-13.06s6.98,0,6.98,0v-11.052s8.957,0,8.957,0v-10.047s5.971,0,5.971,0v-34.152s-6.966,0-6.966,0v-9.049s5.961,0,5.961,0v5.023s15.933,0,15.933,0v-4.019s14.928,0,14.928,0v-6.028s-6.966,0-6.966,0v-4.019s6.966,0,6.966,0v-5.023s7.962,0,7.962,0v-10.047s6.967,0,6.967,0v-14.065s7.951,0,7.951,0v39.182s15.933,0,15.933,0v-5.023s5.972,0,5.972,0v-20.093s8.957,0,8.957,0v-11.051s-9.952,0-9.952,0v-4.019s-20.899,0-20.899,0v-3.014s30.852,0,30.852,0V9.042s-10.957,0-10.957,0v16.075s-4.967,0-4.967,0v-10.047s-8.956,0-8.956,0V5.023s-14.928,0-14.928,0V1s-15.934,0-15.934,0Zm-240.836-.002v4.023s-4.976,0-4.976,0v16.075s-9.952,0-9.952,0v28.131s8.957,0,8.957,0v6.028s5.971,0,5.971,0v4.019s-34.831,0-34.831,0v9.042s-8.957,0-8.957,0v9.042s-30.851,0-30.851,0v6.028s14.928,0,14.928,0v9.042s8.957,0,8.957,0v10.047s-8.957,0-8.957,0v24.112s8.957,0,8.957,0v10.047s-7.962,0-7.962,0v14.065s8.953,0,8.953,0v-13.06s6.98,0,6.98,0v-11.052s8.957,0,8.957,0v-10.047s5.971,0,5.971,0v-34.152s-6.966,0-6.966,0v-9.049s5.961,0,5.961,0v5.023s15.933,0,15.933,0v-4.019s14.928,0,14.928,0v-6.028s-6.966,0-6.966,0v-4.019s6.966,0,6.966,0v-5.023s7.962,0,7.962,0v-10.047s6.967,0,6.967,0v-14.065s7.951,0,7.951,0v39.182s15.933,0,15.933,0v-5.023s5.972,0,5.972,0v-20.093s8.957,0,8.957,0v-11.051s-9.952,0-9.952,0v-4.019s-20.899,0-20.899,0v-3.014s30.852,0,30.852,0V9.04s-10.957,0-10.957,0v16.075s-4.967,0-4.967,0v-10.047s-8.956,0-8.956,0V5.022s-14.928,0-14.928,0V.998s-15.934,0-15.934,0Zm296.577,107.506v-22.103h-10.957v16.075h-4.966v-10.047h-8.957v-10.047h-14.928v-5.023h-15.933v5.023h-4.976v16.075h-9.952v28.131h8.957v6.028h5.971v4.019h-34.832v9.042h-8.957v11.051h8.966v-6.028h5.961v5.023h15.933v-4.019h14.928v-6.028h-6.966v-4.019h6.966v-5.023h7.961v-10.047h6.966v-14.065h7.952v39.182h15.933v-5.023h5.971v-20.093h8.957v-11.051h-9.952v-4.019h-20.899v-3.014h30.851Zm-120.418,0v-22.103h-10.957v16.075h-4.966v-10.047h-8.957v-10.047h-14.928v-5.023h-15.933v5.023h-4.976v16.075h-9.952v28.131h8.957v6.028h5.971v4.019h-34.832v9.042h-8.957v11.051h8.966v-6.028h5.961v5.023h15.933v-4.019h14.928v-6.028h-6.966v-4.019h6.966v-5.023h7.961v-10.047h6.966v-14.065h7.952v39.182h15.933v-5.023h5.971v-20.093h8.957v-11.051h-9.952v-4.019h-20.899v-3.014h30.851ZM176.249.998v4.023s-4.976,0-4.976,0v16.075s-9.952,0-9.952,0v28.131s8.957,0,8.957,0v6.028s5.971,0,5.971,0v4.019s-34.831,0-34.831,0v9.042s-8.957,0-8.957,0v9.042s-30.851,0-30.851,0v6.028s14.928,0,14.928,0v9.042s8.957,0,8.957,0v10.047s-8.957,0-8.957,0v24.112s8.957,0,8.957,0v10.047s-7.962,0-7.962,0v14.065s8.953,0,8.953,0v-13.06h6.98v-11.052s8.957,0,8.957,0v-10.047s5.971,0,5.971,0v-34.152s-6.966,0-6.966,0v-9.049s5.961,0,5.961,0v5.023s15.933,0,15.933,0v-4.019s14.928,0,14.928,0v-6.028s-6.966,0-6.966,0v-4.019s6.966,0,6.966,0v-5.023s7.962,0,7.962,0v-10.047s6.967,0,6.967,0v-14.065s7.951,0,7.951,0v39.182s15.933,0,15.933,0v-5.023s5.972,0,5.972,0v-20.093s8.957,0,8.957,0v-11.051s-9.952,0-9.952,0v-4.019s-20.899,0-20.899,0v-3.014s30.852,0,30.852,0V9.04s-10.957,0-10.957,0v16.075s-4.967,0-4.967,0v-10.047s-8.956,0-8.956,0V5.022s-14.928,0-14.928,0V.998s-15.934,0-15.934,0Zm-64.678,428.002v-4.023h-9.952v-4.019h-20.899v-3.014h30.851v-22.103h-10.957v16.075h-4.966v-10.047h-8.957v-10.047h-14.928v-5.023h-15.933v5.023h-4.976v16.075h-9.952v21.103h31.855v-7.037h7.952v7.037h30.86Zm1570.404-249.164v24.112h8.957v10.047h-7.961v14.065h8.953v-13.06h6.98v-11.052h8.956v-10.047h5.972v-34.152h-6.967v-9.049h5.962v5.023h15.933v-4.019h14.928v-6.028h-6.966v-4.019h6.966v-5.023h7.962v-10.047h6.966v-14.065h7.952v39.182h15.933v-5.023h5.972v-20.093h8.956v-11.051h-9.952v-4.019h-20.898v-3.014h30.851v-22.103h-10.956v16.075h-4.967v-10.047h-8.957v-10.047h-14.928v-5.023h-15.933v5.023h-4.976v16.075h-9.952v28.131h8.957v6.028h5.971v4.019h-34.832v9.042h-8.956v9.042h-15.924v15.07h8.957v10.047h-8.957ZM55.831,1v4.023h-4.976v16.075h-9.952v28.131h8.957v6.028h5.971v4.019H20.999v9.042h-8.957v9.042H1v15.07h4.076v10.047H1v24.112h4.076v10.047H1v14.065h5.068v-13.06h6.979v-11.052h8.957v-10.047h5.971v-34.152h-6.966v-9.049h5.961v5.023h15.933v-4.019h14.928v-6.028h-6.967v-4.019h6.967v-5.023h7.961v-10.047h6.966v-14.065h7.952v39.182h15.933v-5.023h5.971v-20.093h8.957v-11.051h-9.952v-4.019h-20.899v-3.014h30.851V9.042h-10.957v16.075h-4.966v-10.047h-8.957V5.023h-14.928V1h-15.933Zm161.23,150.706v-5.023h5.971v-20.093h8.957v-11.051h-9.952v-4.019h-20.899v-3.014h30.851v-22.103h-10.957v16.075h-4.966v-10.047h-8.957v-10.047h-14.928v-5.023h-15.933v5.023h-4.976v16.075h-9.952v28.131h8.957v6.028h5.971v4.019h-34.832v9.042h-8.957v9.042h-30.851v6.028h14.928v9.042h8.957v10.047h-8.957v24.112h8.957v10.047h-7.961v14.065h8.953v-13.06h6.979v-11.052h8.957v-10.047h5.971v-34.152h-6.967v-9.049h5.962v5.023h15.933v-4.019h14.928v-6.028h-6.966v-4.019h6.966v-5.023h7.961v-10.047h6.966v-14.065h7.952v39.182h15.933ZM1,213.995v14.065h5.068v-13.06s6.979,0,6.979,0v-11.052s8.957,0,8.957,0v-10.047s5.971,0,5.971,0v-34.152h-6.966v-9.049h5.961s0,5.023,0,5.023h15.933v-4.019s14.928,0,14.928,0v-6.028h-6.967s0-4.019,0-4.019h6.967v-5.023s7.961,0,7.961,0v-10.047s6.966,0,6.966,0v-14.065s7.952,0,7.952,0v39.182s15.933,0,15.933,0v-5.023s5.971,0,5.971,0v-20.093s8.957,0,8.957,0v-11.051h-9.952s0-4.019,0-4.019h-20.899s0-3.014,0-3.014h30.851s0-22.103,0-22.103h-10.957v16.075s-4.966,0-4.966,0v-10.047h-8.957s0-10.047,0-10.047h-14.928s0-5.023,0-5.023h-15.933v5.023s-4.976,0-4.976,0v16.075s-9.952,0-9.952,0v28.131h8.957s0,6.028,0,6.028h5.971s0,4.019,0,4.019H20.999s0,9.042,0,9.042h-8.957v9.042s-11.043,0-11.043,0v15.07h4.076s0,10.047,0,10.047H1v24.112h4.076s0,10.047,0,10.047H1ZM1546.628,1v5.028s14.928,0,14.928,0v9.042s8.957,0,8.957,0v10.047s-8.957,0-8.957,0v24.112s8.957,0,8.957,0v10.047s-7.962,0-7.962,0v14.065s8.953,0,8.953,0v-13.06s6.979,0,6.979,0v-11.052s8.957,0,8.957,0v-10.047s5.971,0,5.971,0V5.03s-6.966,0-6.966,0V1s-39.817,0-39.817,0Z"/>
  </g>

  <!-- Reveals -->
  <defs>
    <style>
      .reveal_blue {
        fill: #5c94fc;
      }

      .reveal_background {
        fill: none;
        stroke: #161b21;
        stroke-width: 2px;
        stroke-linecap: round;
        stroke-linejoin: round;
      }

      .reveal_white {
        fill: #fcfcfc;
      }
    </style>
  </defs>

  <!-- Old Man -->
  <defs>
    <style>
      .old_man_black {
        fill: #000;
      }

      .old_man_orange {
        fill: #eb9f23;
      }

      .old_man_red {
        fill: #b53220;
      }

      .old_man_white {
        fill: #fefefe;
      }

      .old_man_background {
        fill: none;
        stroke: #161b21;
        stroke-width: 2px;
        stroke-linecap: round;
        stroke-linejoin: round;
      }
    </style>
  </defs>
  <g id="reveal1_center" visibility="hidden">
    <polygon class="reveal_background" points="1013.934 342.16 1013.934 327.16 1006.314 327.16 1006.314 322.16 991.074 322.16 991.074 317.16 983.455 317.16 983.455 312.16 937.737 312.16 937.737 317.16 930.117 317.16 930.117 322.16 914.878 322.16 914.878 327.16 907.258 327.16 907.258 342.16 899.638 342.16 899.638 362.16 907.258 362.16 907.258 372.16 914.878 372.16 914.878 382.16 922.497 382.16 922.497 387.16 930.117 387.16 930.117 392.16 952.976 392.16 952.976 387.16 968.215 387.16 968.215 392.16 991.074 392.16 991.074 387.16 998.694 387.16 998.694 382.16 1006.314 382.16 1006.314 372.16 1013.934 372.16 1013.934 362.16 1021.553 362.16 1021.553 342.16 1013.934 342.16"/>
    <polygon class="reveal_white" points="922.497 382.16 914.878 372.16 907.258 372.16 907.258 362.16 899.638 362.16 899.638 342.16 907.258 342.16 907.258 327.16 914.878 327.16 914.878 322.16 930.117 322.16 930.117 317.16 937.737 317.16 937.737 312.16 983.455 312.16 983.455 317.16 991.074 317.16 991.074 322.16 1006.314 322.16 1006.314 327.16 1013.934 327.16 1013.934 342.16 1021.553 342.16 1021.553 362.16 1013.934 362.16 1013.934 372.16 1006.314 372.16 998.694 382.16 991.074 387.16 991.074 392.16 968.215 392.16 968.215 387.16 952.976 387.16 952.976 392.16 930.117 392.16 930.117 387.16 922.497 382.16"/>
    <path class="reveal_blue" d="m998.694,387.16h-7.62v-5h7.62v5Zm-68.577,0h-7.62v-5h-7.62v-15h7.62v15h7.62v5Zm76.197-5h-7.62v-15h7.62v15Zm-30.479,0h-30.479v-5h-7.62v-10h7.62v5h7.62v5h15.239v-5h7.62v-5h7.62v10h-7.62v5Zm15.239-30h-7.62v-5h7.62v5Zm-53.338,0h-7.62v-5h-7.62v-15h7.62v15h7.62v5Zm60.957-5h-7.62v-15h-7.62v-5h7.62v5h7.62v15Zm-60.957-15h-7.62v-5h7.62v5Z"/>

    <set attributeName="visibility" attributeType="XML" to="visible" begin="0.15s" end="0.1666s" />
  </g>
  <g id="reveal2_center" visibility="hidden">
    <path class="reveal_background" d="m945.356,347.16v5h-7.62v-10h15.239v5h-7.62Zm-7.62,15v-10h-7.62v10h7.62Zm0,5h-7.62v5h7.62v-5h0Zm-22.859-45v10h7.62v-10h-7.62Zm68.577,70h7.62v-5h-7.62v5h0Zm-15.239-15v-5h7.62v-15h-30.479v15h7.62v5h15.239Zm-38.098,15h7.62v-5h-7.62v5h0Zm76.197-70h-7.62v10h7.62v-10h0Zm7.62,25v-5h-7.62v-5h-7.62v-5h-7.62v20h7.62v-5h15.239Zm-45.718-5v5h7.62v5h7.62v-10h-15.239Zm45.718,5v5h-15.239v20h-7.62v5h-7.62v5h7.62v5h7.62v-10h7.62v-5h7.62v-5h-7.62v-5h7.62v-5h7.62v-10h-7.62Zm-30.479,15h7.62v-10h-7.62v10h0Zm-45.718,20v5h7.62v5h7.62v-5h15.239v5h7.62v-5h7.62v-5h-45.718Zm0,0v-5h-7.62v-5h-7.62v-20h-15.239v-5h-7.62v10h7.62v5h7.62v5h-7.62v5h7.62v5h7.62v10h7.62v-5h7.62Zm-15.239-30h7.62v-20h-7.62v5h-7.62v5h-7.62v5h15.239v5h0Zm60.957,15v5h7.62v-5h-7.62Z"/>
    <path class="reveal_background" d="m975.835,317.16v-5h-30.479v5h-15.239v10h7.62v-5h7.62v10h7.62v5h15.239v-5h7.62v-10h7.62v5h7.62v-10h-15.239Zm-7.62,5h-15.239v-5h15.239v5Z"/>
    <path class="reveal_white" d="m991.074,392.16h-7.62v-5h-7.62v5h-7.62v-5h-15.239v5h-7.62v-5h-7.62v-5h-7.62v5h7.62v5h-7.62v-5h-7.62v-10h-7.62v-5h-7.62v-5h7.62v-15h7.62v20h7.62v5h7.62v5h45.718v5h7.62v5Zm7.62-5h-7.62v-5h-7.62v-5h7.62v-5h-7.62v-5h7.62v5h7.62v-20h-7.62v-20h7.62v5h7.62v5h7.62v5h7.62v10h-7.62v-10h-15.239v5h7.62v15h7.62v5h-7.62v5h-7.62v10Zm-30.479-10h-15.239v-5h-7.62v-10h7.62v-5h15.239v5h7.62v10h-7.62v5Zm-30.479-5h-7.62v-5h7.62v5Zm53.338-10h-7.62v-10h-7.62v-5h-7.62v-5h15.239v10h7.62v10Zm-53.338,0h-7.62v-10h-7.62v-5h-15.239v-5h7.62v-5h7.62v-5h-7.62v-10h7.62v10h7.62v20h7.62v10Zm-30.479-5h-7.62v-10h7.62v10Zm38.098-5h-7.62v-10h15.239v5h-7.62v5Zm22.859-15h-15.239v-5h-7.62v-5h7.62v-5h-15.239v5h-7.62v-10h15.239v-5h30.479v5h15.239v10h-7.62v-5h-15.239v-5h-15.239v5h15.239v5h7.62v5h-7.62v5Zm38.098-5h-7.62v-10h7.62v10Z"/>
    <path class="reveal_blue" d="m1013.934,362.16h-7.62v-10h7.62v10Zm-38.098,0h-7.62v-5h7.62v5Zm-22.859,0h-7.62v-5h7.62v5Zm-38.098,0h-7.62v-10h7.62v10Zm60.957-35h-7.62v-5h7.62v5Zm-22.859,0h-7.62v-5h7.62v5Z"/>

    <set attributeName="visibility" attributeType="XML" to="visible" begin="0.1666s" end="0.2666s" />
  </g>
  <g id="reveal3_center" visibility="hidden">
    <path class="reveal_background" d="m983.455,392.16h-15.239v-5h-15.239v-5h15.239v5h15.239v5Zm-30.479,0h-15.239v-5h15.239v5Zm30.479-10h-7.62v-5h7.62v5Zm-38.098,0h-7.62v-5h7.62v5Zm60.957-5h-7.62v-5h7.62v5Zm-83.816,0h-7.62v-5h7.62v5Zm45.718-5h-15.239v-5h15.239v5Zm38.098-5h-7.62v-5h7.62v5Zm-83.816,0h-7.62v-5h7.62v5Zm68.577-5h-7.62v-5h7.62v5Zm-22.859,0h-15.239v-5h15.239v5Zm-30.479,0h-7.62v-5h7.62v5Zm83.816-5h-7.62v-5h7.62v5Zm-114.295,0h-7.62v-5h7.62v5Zm83.816-5h-7.62v-5h7.62v5Zm-15.239,0h-7.62v-5h7.62v5Zm-22.859,0h-7.62v-5h7.62v5Zm-15.239,0h-7.62v-5h7.62v5Zm68.577-5h-7.62v-5h-7.62v-5h7.62v5h7.62v5Zm-83.816,0h-7.62v-5h7.62v5Zm7.62-5h-7.62v-5h7.62v5Zm45.718-5h-30.479v-5h30.479v5Zm30.479-5h-7.62v-5h7.62v5Zm-83.816,0h-7.62v-5h7.62v5Zm68.577-5h-7.62v-5h7.62v5Zm-53.338,0h-7.62v-5h7.62v5Zm38.098-10h-7.62v-5h7.62v5Zm-22.859,0h-7.62v-5h7.62v5Z"/>
    <path class="reveal_white" d="m983.455,392.16h-15.239v-5h-15.239v-5h15.239v5h15.239v5Zm-30.479,0h-15.239v-5h15.239v5Zm30.479-10h-7.62v-5h7.62v5Zm-38.098,0h-7.62v-5h7.62v5Zm60.957-5h-7.62v-5h7.62v5Zm-83.816,0h-7.62v-5h7.62v5Zm45.718-5h-15.239v-5h15.239v5Zm38.098-5h-7.62v-5h7.62v5Zm-83.816,0h-7.62v-5h7.62v5Zm68.577-5h-7.62v-5h7.62v5Zm-22.859,0h-15.239v-5h15.239v5Zm-30.479,0h-7.62v-5h7.62v5Zm83.816-5h-7.62v-5h7.62v5Zm-114.295,0h-7.62v-5h7.62v5Zm83.816-5h-7.62v-5h7.62v5Zm-15.239,0h-7.62v-5h7.62v5Zm-22.859,0h-7.62v-5h7.62v5Zm-15.239,0h-7.62v-5h7.62v5Zm68.577-5h-7.62v-5h-7.62v-5h7.62v5h7.62v5Zm-83.816,0h-7.62v-5h7.62v5Zm7.62-5h-7.62v-5h7.62v5Zm45.718-5h-30.479v-5h30.479v5Zm30.479-5h-7.62v-5h7.62v5Zm-83.816,0h-7.62v-5h7.62v5Zm68.577-5h-7.62v-5h7.62v5Zm-53.338,0h-7.62v-5h7.62v5Zm38.098-10h-7.62v-5h7.62v5Zm-22.859,0h-7.62v-5h7.62v5Z"/>

    <set attributeName="visibility" attributeType="XML" to="visible" begin="0.2666s" end="0.3666s" />
  </g>
  <g id="old_man" visibility="hidden">
    <polygon class="old_man_background" points="998.382 392.16 998.382 387.097 990.757 387.097 990.757 376.972 983.132 376.972 983.132 361.785 990.757 361.785 990.757 376.972 998.382 376.972 998.382 382.035 1006.007 382.035 1006.007 376.972 1013.632 376.972 1013.632 366.847 1021.257 366.847 1021.257 351.66 1013.632 351.66 1013.632 351.66 1013.632 346.597 1006.007 346.597 1006.007 341.535 998.382 341.535 998.382 336.472 990.757 336.472 990.757 316.222 983.132 316.222 983.132 311.16 937.382 311.16 937.382 316.222 929.757 316.222 929.757 336.472 922.132 336.472 922.132 341.535 914.507 341.535 914.507 346.597 906.882 346.597 906.882 351.66 899.257 351.66 899.257 366.847 906.882 366.847 906.882 376.972 914.507 376.972 914.507 382.035 922.132 382.035 922.132 376.972 929.757 376.972 929.757 361.785 937.382 361.785 937.382 376.972 929.757 376.972 929.757 387.097 922.132 387.097 922.132 392.16 998.382 392.16"/>
    <path class="old_man_orange" d="m983.132,392.16v-5.062l-7.625-30.375,38.125,10.125h7.625v-15.188h-7.625l-30.5-15.188,7.625-5.062v-10.125l-7.625-5.062v-5.062h-45.75v5.062l-7.625,5.062v10.125l7.625,5.062-30.5,15.188h-7.625v15.188h7.625l38.125-10.125-7.625,30.375v5.062h15.25l7.625-5.074,7.679,5.074h15.196Z"/>
    <path class="old_man_red" d="m1006.007,346.597v-5.062h-7.625v-5.062h-7.625v-5.062h-7.625l-7.625,10.125h-30.5l-7.625-10.125h-7.625v5.062h-7.625v5.062h-7.625v5.062h-7.625v30.375h7.625v5.062h7.625v-5.062h7.625v-15.188h7.625v15.188h-7.625v10.125h-7.625v5.062h15.25v-5.062h15.25v5.062h15.25v-5.062h15.25v5.062h15.25v-5.062h-7.625v-10.125h-7.625v-15.188h7.625v15.188h7.625v5.062h7.625v-5.062h7.625v-30.375h-7.625Z"/>
    <path class="old_man_white" d="m998.382,346.597v10.125h-7.625v-5.062h-7.625v-5.062h-7.625v15.188h-7.625v5.062h-15.25v-5.062h-7.625v-15.188h-7.625v5.062h-7.625v5.062h-7.625v-10.125h7.625v-10.125h7.625v-5.062h7.625v5.062h30.5v-5.062h7.625v5.062h7.625v10.125h7.625Zm-68.625-25.312v-5.062h7.625v5.062h-7.625Zm15.25-5.062h7.625v5.062h-7.625v-5.062Zm22.875,5.062v-5.062h7.625v5.062h-7.625Zm22.875-5.062v5.062h-7.625v-5.062h7.625Z"/>
    <path class="old_man_black" d="m945.007,341.534h30.5v5.062h-30.5v-5.062Zm7.625-20.25h-7.625v10.125h7.625v-10.125Zm15.25,0v10.125h7.625v-10.125h-7.625Z"/>

    <set attributeName="visibility" attributeType="XML" to="visible" begin="0.3666s" />
  </g>

  <!-- Fires -->
  <defs>
    <style>
      .fire_left_orange {
        fill: #fc9838;
      }

      .fire_left_background {
        fill: #161b21;
      }

      .fire_left_red {
        fill: #d82800;
      }

      .fire_left_white {
        fill: #fcfcfc;
      }
    </style>
  </defs>
  <!-- Fire Left -->
  <g id="reveal1_left" visibility="hidden">
    <path class="reveal_background" d="m659.67417,341.59794h-6.52307v-13.88187c0-.54759-.44116-.99156-.9854-.99156h-6.52307v-3.96625c0-.54759-.44116-.99156-.9854-.99156h-14.03154v-3.96625c0-.54759-.44116-.99156-.9854-.99156h-6.52301v-3.96625c0-.54759-.44116-.99156-.9854-.99156h-45.05084c-.54425,0-.9854.44398-.9854.99156v3.96625h-6.52301c-.54425,0-.9854.44398-.9854.99156v3.96625h-14.03154c-.54425,0-.9854.44398-.9854.99156v3.96625h-6.52307c-.54425,0-.9854.44398-.9854.99156v13.88187h-6.52307c-.54425,0-.9854.44398-.9854.99156v19.83125c0,.54765.44116.99156.9854.99156h6.52307v8.92406c0,.54765.44116.99156.9854.99156h6.52307v8.92406c0,.54765.44116.99156.9854.99156h6.52307v3.96625c0,.54765.44116.99156.9854.99156h6.52307v3.96625c0,.54765.44116.99156.9854.99156h22.52536c.54425,0,.9854-.44392.9854-.99156v-3.96625h13.04614v3.96625c0,.54765.44116.99156.9854.99156h22.52536c.54425,0,.9854-.44392.9854-.99156v-3.96625h6.52307c.54425,0,.9854-.44392.9854-.99156v-3.96625h6.52307c.54425,0,.9854-.44392.9854-.99156v-8.92406h6.52307c.54425,0,.9854-.44392.9854-.99156v-8.92406h6.52307c.54425,0,.9854-.44392.9854-.99156v-19.83125c0-.54759-.44116-.99156-.9854-.99156Z"/>
    <polygon class="reveal_white" points="562.06411 382.252 554.55564 372.33638 547.04718 372.33638 547.04718 362.42077 539.53871 362.42077 539.53871 342.58953 547.04718 342.58953 547.04718 327.7161 554.55564 327.7161 554.55564 322.7583 569.57257 322.7583 569.57257 317.80049 577.08103 317.80049 577.08103 312.84268 622.13182 312.84268 622.13182 317.80049 629.64028 317.80049 629.64028 322.7583 644.65721 322.7583 644.65721 327.7161 652.16568 327.7161 652.16568 342.58953 659.67414 342.58953 659.67414 362.42077 652.16568 362.42077 652.16568 372.33638 644.65721 372.33638 637.14875 382.252 629.64028 387.20981 629.64028 392.16762 607.11489 392.16762 607.11489 387.20981 592.09796 387.20981 592.09796 392.16762 569.57257 392.16762 569.57257 387.20981 562.06411 382.252"/>
    <path class="reveal_blue" d="m637.14875,387.20981h-7.50846v-4.95781h7.50846v4.95781Zm-67.57618,0h-7.50846v-4.95781h-7.50846v-14.87343h7.50846v14.87343h7.50846v4.95781Zm75.08464-4.95781h-7.50846v-14.87343h7.50846v14.87343Zm-30.03386,0h-30.03386v-4.95781h-7.50846v-9.91562h7.50846v4.95781h7.50846v4.95781h15.01693v-4.95781h7.50846v-4.95781h7.50846v9.91562h-7.50846v4.95781Zm15.01693-29.74685h-7.50846v-4.95781h7.50846v4.95781Zm-52.55925,0h-7.50846v-4.95781h-7.50846v-14.87343h7.50846v14.87343h7.50846v4.95781Zm60.06771-4.95781h-7.50846v-14.87343h-7.50846v-4.95781h7.50846v4.95781h7.50846v14.87343Zm-60.06771-14.87343h-7.50846v-4.95781h7.50846v4.95781Z"/>

    <set attributeName="visibility" attributeType="XML" to="visible" begin="0.1666s" end="0.2s" />
  </g>
  <g id="reveal2_left" visibility="hidden">
    <path class="reveal_background" d="m629.64028,316.80889h-14.03154v-3.96625c0-.54765-.44116-.99156-.9854-.99156h-30.03383c-.54425,0-.9854.44392-.9854.99156v3.96625h-14.03154c-.54425,0-.9854.44392-.9854.99156v9.91562c0,.54759.44116.99156.9854.99156h7.50847c.54425,0,.9854-.44398.9854-.99156v-3.96625h5.53767c-.0006,2.17638.00043,6.72678,0,8.92408,0,.54756.44116.99154.98541.99154h6.52307v3.96625c0,.54759.44116.99156.9854.99156h15.01695c.54425,0,.9854-.44398.9854-.99156v-3.96625h6.52301c.54425,0,.9854-.44398.9854-.99156-.00157-2.20255.00113-6.74214,0-8.92406h5.53767v3.96625c0,.54759.44116.99156.9854.99156h7.50847c.54425,0,.9854-.44398.9854-.99156v-9.91562c0-.54765-.44116-.99156-.9854-.99156Zm-23.51076,4.95781h-13.04614v-2.97469h13.04614v2.97469Z"/>
    <path class="reveal_background" d="m583.60409,357.46294c0-.54765.44116-.99156.9854-.99156,8.38161,0,21.65222,0,30.03383,0,.54425,0,.9854.44392.9854.99156v14.87343c0,.54759-.44116.99156-.9854.99156h-6.52301v3.96625c0,.54759-.44116.99156-.9854.99156h-15.01695c-.54425,0-.9854-.44398-.9854-.99156v-3.96625h-6.52307c-.54425,0-.9854-.44398-.9854-.99156v-14.87343Z"/>
    <path class="reveal_background" d="m659.67411,346.55575h-6.52301v-3.96625c0-.54765-.44116-.99156-.9854-.99156h-6.52307v-3.96625c0-.54765-.44116-.99156-.9854-.99156h-6.52307v-2.97469h6.52307c.54425,0,.9854-.44398.9854-.99156v-9.91562c0-.54765-.44116-.99156-.9854-.99156h-7.50847c-.54425,0-.9854.44392-.9854.99156v8.92406h-6.52307c-.54425,0-.9854.44392-.9854.99156v18.83968h-5.53767v-8.92406c0-.54765-.44116-.99156-.9854-.99156h-15.01689c-.54425,0-.9854.44392-.9854.99156v4.95781c0,.54759.44116.99156.9854.99156h6.52301v3.96625c0,.54759.44116.99156.9854.99156h6.52307v8.92406c0,.54759.44116.99156.9854.99156h7.50847c.54425,0,.9854-.44398.9854-.99156v-8.92406h5.53767v17.84812h-5.53767v-3.96625c0-.54765-.44116-.99156-.9854-.99156h-7.50847c-.54425,0-.9854.44392-.9854.99156v4.95781c0,.54759.44116.99156.9854.99156h6.52307v2.97469h-6.52307c-.54425,0-.9854.44392-.9854.99156v3.96625h-43.07997v-3.96625c0-.54765-.44116-.99156-.9854-.99156h-6.52307v-2.97469h6.52307c.54425,0,.9854-.44398.9854-.99156v-4.95781c0-.54765-.44116-.99156-.9854-.99156h-7.50847c-.54425,0-.9854.44392-.9854.99156v3.96625h-5.53767v-17.84812h5.53767v8.92406c0,.54759.44116.99156.9854.99156h7.50847c.54425,0,.9854-.44398.9854-.99156v-8.92406h6.52307c.54425,0,.9854-.44398.9854-.99156v-3.96625h6.52307c.54425,0,.9854-.44398.9854-.99156v-4.95781c0-.54765-.44116-.99156-.9854-.99156h-15.01695c-.54425,0-.9854.44392-.9854.99156v8.92406h-5.53767v-18.83968c0-.54765-.44116-.99156-.9854-.99156h-6.52307v-8.92406c0-.54765-.44116-.99156-.9854-.99156h-7.50841c-.54425,0-.9854.44392-.9854.99156v9.91562c0,.54759.44116.99156.9854.99156h6.52301v2.97469h-6.52301c-.54425,0-.9854.44392-.9854.99156v3.96625h-6.52307c-.54425,0-.9854.44392-.9854.99156v3.96625h-6.52307c-.54425,0-.9854.44392-.9854.99156v9.91562c0,.54759.44116.99156.9854.99156h6.52307v3.96625c0,.54759.44116.99156.9854.99156h6.52307v2.97469h-6.52307c-.54425,0-.9854.44392-.9854.99156v4.95781c0,.54759.44116.99156.9854.99156h6.52307v3.96625c0,.54759.44116.99156.9854.99156h6.52301v8.92406c0,.54759.44116.99156.9854.99156h6.52307v3.96625c0,.54759.44116.99156.9854.99156h7.50847c.54425,0,.9854-.44398.9854-.99156v-3.96625h5.53767v3.96625c0,.54759.44116.99156.9854.99156h7.50847c.54425,0,.9854-.44398.9854-.99156v-3.96625h13.04614v3.96625c0,.54759.44116.99156.9854.99156h7.50841c.54425,0,.9854-.44398.9854-.99156v-3.96625h5.53767v3.96625c0,.54759.44116.99156.9854.99156h7.50847c.54425,0,.9854-.44398.9854-.99156v-3.96625h6.52307c.54425,0,.9854-.44398.9854-.99156v-8.92406h6.52307c.54425,0,.9854-.44398.9854-.99156v-3.96625h6.52307c.54425,0,.9854-.44398.9854-.99156v-4.95781c0-.54765-.44116-.99156-.9854-.99156h-6.52307v-2.97469h6.52307c.54425,0,.9854-.44398.9854-.99156v-3.96625h6.52301c.54425,0,.9854-.44398.9854-.99156v-9.91562c0-.54765-.44116-.99156-.9854-.99156Zm-98.59543,4.95781h-13.04608v-2.97469h13.04608v2.97469Zm15.01695,34.70468h-5.53767v-2.97469h5.53767v2.97469Zm52.55925,0h-5.53767v-2.97469h5.53767v2.97469Zm22.52542-34.70468h-13.04614v-2.97469h13.04614v2.97469Z"/>
    <path class="reveal_white" d="m629.64028,392.16762h-7.50846v-4.95781h-7.50846v4.95781h-7.50846v-4.95781h-15.01693v4.95781h-7.50846v-4.95781h-7.50846v-4.95781h-7.50846v4.95781h7.50846v4.95781h-7.50846v-4.95781h-7.50846v-9.91562h-7.50846v-4.95781h-7.50846v-4.95781h7.50846v-14.87343h7.50846v19.83123h7.50846v4.95781h7.50846v4.95781h45.05079v4.95781h7.50846v4.95781Zm7.50846-4.95781h-7.50846v-4.95781h-7.50846v-4.95781h7.50846v-4.95781h-7.50846v-4.95781h7.50846v4.95781h7.50846v-19.83123h-7.50846v-19.83123h7.50846v4.95781h7.50846v4.95781h7.50846v4.95781h7.50846v9.91562h-7.50846v-9.91562h-15.01693v4.95781h7.50846v14.87343h7.50846v4.95781h-7.50846v4.95781h-7.50846v9.91562Zm-30.03386-9.91562h-15.01693v-4.95781h-7.50846v-9.91562h7.50846v-4.95781h15.01693v4.95781h7.50846v9.91562h-7.50846v4.95781Zm-30.03386-4.95781h-7.50846v-4.95781h7.50846v4.95781Zm52.55925-9.91562h-7.50846v-9.91562h-7.50846v-4.95781h-7.50846v-4.95781h15.01693v9.91562h7.50846v9.91562Zm-52.55925,0h-7.50846v-9.91562h-7.50846v-4.95781h-15.01693v-4.95781h7.50846v-4.95781h7.50846v-4.95781h-7.50846v-9.91562h7.50846v9.91562h7.50846v19.83123h7.50846v9.91562Zm-30.03386-4.95781h-7.50846v-9.91562h7.50846v9.91562Zm37.54232-4.95781h-7.50846v-9.91562h15.01693v4.95781h-7.50846v4.95781Zm22.52539-14.87343h-15.01693v-4.95781h-7.50846v-4.95781h7.50846v-4.95781h-15.01693v4.95781h-7.50846v-9.91562h15.01693v-4.95781h30.03386v4.95781h15.01693v9.91562h-7.50846v-4.95781h-15.01693v-4.95781h-15.01693v4.95781h15.01693v4.95781h7.50846v4.95781h-7.50846v4.95781Zm37.54232-4.95781h-7.50846v-9.91562h7.50846v9.91562Z"/>
    <path class="reveal_blue" d="m652.16568,362.42077h-7.50846v-9.91562h7.50846v9.91562Zm-37.54232,0h-7.50846v-4.95781h7.50846v4.95781Zm-22.52539,0h-7.50846v-4.95781h7.50846v4.95781Zm-37.54232,0h-7.50846v-9.91562h7.50846v9.91562Zm60.06771-34.70466h-7.50846v-4.95781h7.50846v4.95781Zm-22.52539,0h-7.50846v-4.95781h7.50846v4.95781Z"/>

    <set attributeName="visibility" attributeType="XML" to="visible" begin="0.2s" end="0.3s" />
  </g>
  <g id="reveal3_left" visibility="hidden">
    <path class="reveal_background" d="m614.62333,311.8511h-7.50841c-.54425,0-.9854.44395-.9854.99156v4.95781c0,.54765.44116.99156.9854.99156h7.50841c.54425,0,.9854-.44392.9854-.99156v-4.95781c0-.54762-.44116-.99156-.9854-.99156h0Zm-22.52536,0h-7.50847c-.54425,0-.9854.44395-.9854.99156v4.95781c0,.54765.44116.99156.9854.99156h7.50847c.54425,0,.9854-.44392.9854-.99156v-4.95781c0-.54762-.44116-.99156-.9854-.99156h0Zm37.54231,9.91562h-7.50847c-.54425,0-.9854.44395-.9854.99156v4.95781c0,.54765.44116.99156.9854.99156h7.50847c.54425,0,.9854-.44392.9854-.99156v-4.95781c0-.54762-.44116-.99156-.9854-.99156h0Zm-52.55925,0h-7.50847c-.54425,0-.9854.44395-.9854.99156v4.95781c0,.54765.44116.99156.9854.99156h7.50847c.54425,0,.9854-.44392.9854-.99156v-4.95781c0-.54762-.44116-.99156-.9854-.99156h0Zm67.5762,4.95781h-7.50847c-.54425,0-.9854.44395-.9854.99156v4.95781c0,.54765.44116.99156.9854.99156h7.50847c.54425,0,.9854-.44392.9854-.99156v-4.95781c0-.54762-.44116-.99156-.9854-.99156h0Zm-82.59314,0h-7.50841c-.54425,0-.9854.44395-.9854.99156v4.95781c0,.54765.44116.99156.9854.99156h7.50841c.54425,0,.9854-.44392.9854-.99156v-4.95781c0-.54762-.44116-.99156-.9854-.99156h0Zm52.55925,4.95781h-30.03383c-.54425,0-.9854.44395-.9854.99156v4.95781c0,.54765.44116.99156.9854.99156h30.03383c.54425,0,.9854-.44392.9854-.99156v-4.95781c0-.54762-.44116-.99156-.9854-.99156h0Zm22.52542,4.95781h-7.50847c-.54425,0-.9854.44395-.9854.99156v4.95781c0,.54765.44116.99156.9854.99156h6.52307v3.96625c0,.54765.44116.99156.9854.99156h7.50847c.54425,0,.9854-.44392.9854-.99156v-4.95781c0-.54762-.44116-.99156-.9854-.99156h-6.52307v-3.96625c0-.54762-.44116-.99156-.9854-.99156h0Zm-67.5762,0h-7.50847c-.54425,0-.9854.44395-.9854.99156v3.96625h-6.52301c-.54425,0-.9854.44395-.9854.99156v4.95781c0,.54765.44116.99156.9854.99156h7.50841c.54425,0,.9854-.44392.9854-.99156v-3.96625h6.52307c.54425,0,.9854-.44392.9854-.99156v-4.95781c0-.54762-.44116-.99156-.9854-.99156h0Zm60.06773,9.91562h-7.50847c-.54425,0-.9854.44395-.9854.99156v4.95781c0,.54765.44116.99156.9854.99156h7.50847c.54425,0,.9854-.44392.9854-.99156v-4.95781c0-.54762-.44116-.99156-.9854-.99156h0Zm-15.01695,0h-7.50841c-.54425,0-.9854.44395-.9854.99156v4.95781c0,.54765.44116.99156.9854.99156h7.50841c.54425,0,.9854-.44392.9854-.99156v-4.95781c0-.54762-.44116-.99156-.9854-.99156h0Zm-22.52536,0h-7.50847c-.54425,0-.9854.44395-.9854.99156v4.95781c0,.54765.44116.99156.9854.99156h7.50847c.54425,0,.9854-.44392.9854-.99156v-4.95781c0-.54762-.44116-.99156-.9854-.99156h0Zm-15.01695,0h-7.50847c-.54425,0-.9854.44395-.9854.99156v4.95781c0,.54765.44116.99156.9854.99156h7.50847c.54425,0,.9854-.44392.9854-.99156v-4.95781c0-.54762-.44116-.99156-.9854-.99156h0Zm82.59308,4.95781h-7.50841c-.54425,0-.9854.44395-.9854.99156v4.95781c0,.54765.44116.99156.9854.99156h7.50841c.54425,0,.9854-.44392.9854-.99156v-4.95781c0-.54762-.44116-.99156-.9854-.99156h0Zm-112.62692,0h-7.50847c-.54425,0-.9854.44395-.9854.99156v4.95781c0,.54765.44116.99156.9854.99156h7.50847c.54425,0,.9854-.44392.9854-.99156v-4.95781c0-.54762-.44116-.99156-.9854-.99156h0Zm82.59308,4.95781h-7.50847c-.54425,0-.9854.44395-.9854.99156v4.95781c0,.54765.44116.99156.9854.99156h7.50847c.54425,0,.9854-.44392.9854-.99156v-4.95781c0-.54762-.44116-.99156-.9854-.99156h0Zm-22.52536,0h-15.01695c-.54425,0-.9854.44395-.9854.99156v4.95781c0,.54765.44116.99156.9854.99156h15.01695c.54425,0,.9854-.44392.9854-.99156v-4.95781c0-.54762-.44116-.99156-.9854-.99156h0Zm-30.03389,0h-7.50847c-.54425,0-.9854.44395-.9854.99156v4.95781c0,.54765.44116.99156.9854.99156h7.50847c.54425,0,.9854-.44392.9854-.99156v-4.95781c0-.54762-.44116-.99156-.9854-.99156h0Zm67.5762,4.95781h-7.50847c-.54425,0-.9854.44395-.9854.99156v4.95778c0,.54762.44116.99156.9854.99156h7.50847c.54425,0,.9854-.44395.9854-.99156v-4.95778c0-.54762-.44116-.99156-.9854-.99156h0Zm-82.59314,0h-7.50841c-.54425,0-.9854.44395-.9854.99156v4.95778c0,.54762.44116.99156.9854.99156h7.50841c.54425,0,.9854-.44395.9854-.99156v-4.95778c0-.54762-.44116-.99156-.9854-.99156h0Zm45.05084,4.95778h-15.01695c-.54425,0-.9854.44395-.9854.99156v4.95781c0,.54762.44116.99156.9854.99156h15.01695c.54425,0,.9854-.44395.9854-.99156v-4.95781c0-.54762-.44116-.99156-.9854-.99156h0Zm37.54231,4.95781h-7.50847c-.54425,0-.9854.44395-.9854.99156v4.95781c0,.54762.44116.99156.9854.99156h7.50847c.54425,0,.9854-.44395.9854-.99156v-4.95781c0-.54762-.44116-.99156-.9854-.99156h0Zm-82.59314,0h-7.50841c-.54425,0-.9854.44395-.9854.99156v4.95781c0,.54762.44116.99156.9854.99156h7.50841c.54425,0,.9854-.44395.9854-.99156v-4.95781c0-.54762-.44116-.99156-.9854-.99156h0Zm60.06773,4.95781h-7.50847c-.54425,0-.9854.44395-.9854.99156v4.95781c0,.54762.44116.99156.9854.99156h7.50847c.54425,0,.9854-.44395.9854-.99156v-4.95781c0-.54762-.44116-.99156-.9854-.99156h0Zm-37.54231,0h-7.50847c-.54425,0-.9854.44395-.9854.99156v4.95781c0,.54762.44116.99156.9854.99156h7.50847c.54425,0,.9854-.44395.9854-.99156v-4.95781c0-.54762-.44116-.99156-.9854-.99156h0Zm22.52542,4.95781h-15.01695c-.54425,0-.9854.44395-.9854.99156v3.96625h-14.03154c-.54425,0-.9854.44395-.9854.99156v4.95781c0,.54762.44116.99156.9854.99156h15.01695c.54425,0,.9854-.44395.9854-.99156v-3.96625h13.04614v3.96625c0,.54762.44116.99156.9854.99156h15.01689c.54425,0,.9854-.44395.9854-.99156v-4.95781c0-.54762-.44116-.99156-.9854-.99156h-14.03148v-3.96625c0-.54762-.44116-.99156-.9854-.99156h0Z"/>
    <path class="reveal_white" d="m622.13182,392.16762h-15.01693v-4.95781h-15.01693v-4.95781h15.01693v4.95781h15.01693v4.95781Zm-30.03386,0h-15.01693v-4.95781h15.01693v4.95781Zm30.03386-9.91562h-7.50846v-4.95781h7.50846v4.95781Zm-37.54232,0h-7.50846v-4.95781h7.50846v4.95781Zm60.06771-4.95781h-7.50846v-4.95781h7.50846v4.95781Zm-82.59311,0h-7.50846v-4.95781h7.50846v4.95781Zm45.05079-4.95781h-15.01693v-4.95781h15.01693v4.95781Zm37.54232-4.95781h-7.50846v-4.95781h7.50846v4.95781Zm-82.59311,0h-7.50846v-4.95781h7.50846v4.95781Zm67.57618-4.95781h-7.50846v-4.95781h7.50846v4.95781Zm-22.52539,0h-15.01693v-4.95781h15.01693v4.95781Zm-30.03386,0h-7.50846v-4.95781h7.50846v4.95781Zm82.59311-4.95781h-7.50846v-4.95781h7.50846v4.95781Zm-112.62696,0h-7.50846v-4.95781h7.50846v4.95781Zm82.59311-4.95781h-7.50846v-4.95781h7.50846v4.95781Zm-15.01693,0h-7.50846v-4.95781h7.50846v4.95781Zm-22.52539,0h-7.50846v-4.95781h7.50846v4.95781Zm-15.01693,0h-7.50846v-4.95781h7.50846v4.95781Zm67.57618-4.95781h-7.50846v-4.95781h-7.50846v-4.95781h7.50846v4.95781h7.50846v4.95781Zm-82.59311,0h-7.50846v-4.95781h7.50846v4.95781Zm7.50846-4.95781h-7.50846v-4.95781h7.50846v4.95781Zm45.05079-4.95781h-30.03386v-4.95781h30.03386v4.95781Zm30.03386-4.95781h-7.50846v-4.95781h7.50846v4.95781Zm-82.59311,0h-7.50846v-4.95781h7.50846v4.95781Zm67.57618-4.95781h-7.50846v-4.95781h7.50846v4.95781Zm-52.55925,0h-7.50846v-4.95781h7.50846v4.95781Zm37.54232-9.91562h-7.50846v-4.95781h7.50846v4.95781Zm-22.52539,0h-7.50846v-4.95781h7.50846v4.95781Z"/>

    <set attributeName="visibility" attributeType="XML" to="visible" begin="0.3s" end="0.4s" />
  </g>
  <g id="fire_left_left" visibility="hidden">
    <path class="fire_left_background" d="m659.76593,356.4621h-6.51593v-18.82715c0-.55231-.44769-1-1-1h-15.03192c-.55231,0-1,.44769-1,1v3.95679h-5.51599v-17.82715h5.51599v8.91357c0,.55231.44769,1,1,1h7.51593c.55231,0,1-.44769,1-1v-9.91357c0-.55231-.44769-1-1-1h-6.51593v-3.95679c0-.55231-.44769-1-1-1h-7.51599c-.55231,0-1,.44769-1,1v3.95679h-5.51593v-3.95679c0-.55231-.44769-1-1-1h-7.51599c-.55231,0-1,.44769-1,1v4.95679c0,.55225.44769,1,1,1h6.51599v7.91357h-5.51599v-3.95679c0-.55231-.44769-1-1-1h-6.51593v-3.95679c0-.55231-.44769-1-1-1h-6.51599v-3.95679c0-.55231-.44769-1-1-1h-6.51593v-3.95673c0-.55231-.44769-1-1-1h-7.51593c-.55231,0-1,.44769-1,1v4.95673c0,.55225.44769,1,1,1h6.51593v7.91357h-5.51593v-3.95679c0-.55231-.44769-1-1-1h-7.51599c-.55231,0-1,.44769-1,1v13.87036h-5.51593v-3.95679c0-.55231-.44769-1-1-1h-6.51599v-3.95679c0-.55231-.44769-1-1-1h-7.51593c-.55231,0-1,.44769-1,1v4.95679c0,.55231.44769,1,1,1h6.51593v7.91357h-5.51593v-3.95679c0-.55231-.44769-1-1-1h-7.51599c-.55231,0-1,.44769-1,1v8.91357h-6.51593c-.55231,0-1,.44769-1,1v19.82709c0,.55231.44769,1,1,1h6.51593v8.91357c0,.55225.44769,1,1,1h6.51599v8.91357c0,.55231.44769,1,1,1h14.03192v3.95679c0,.55225.44769,1,1,1h52.61169c.55231,0,1-.44775,1-1v-3.95679h21.54785c.55231,0,1-.44769,1-1v-3.95679h6.51599c.55231,0,1-.44775,1-1v-8.91357h6.51593c.55231,0,1-.44769,1-1v-14.8703c0-.55231-.44769-1-1-1Zm-8.51593,2v2.95673h-5.51599v-2.95673h5.51599Zm-97.70746-9.91357v7.91357h-5.51599v-7.91357h5.51599Zm30.06384-9.91357v2.95679h-5.51599v-2.95679h5.51599Z"/>
    <rect class="fire_left_background" x="553.54254" y="311.85107" width="9.51593" height="11.91351" rx="1" ry="1"/>
    <path class="fire_left_red" d="m622.18616,317.8078v4.95679h-7.51599v-4.95679h7.51599Zm-37.57977-4.95673v4.95673h7.51593v-4.95673h-7.51593Zm67.64362,44.61102v4.95673h-7.51599v-4.95673h7.51599v-14.87036h-7.51599v-4.95679h-7.51593v4.95679h-7.51599v-19.82715h-7.51593v9.91357h-7.51599v-4.95679h-7.51593v-4.95679h-7.51599v-4.95679h-7.51593v9.91357h-7.51593v-4.95679h-7.51599v14.87036h7.51599v9.91357h-7.51599v-9.91357h-7.51593v-4.95679h-7.51599v9.91357h-7.51593v-4.95679h-7.51599v9.91357h7.51599v9.91357h-7.51599v-9.91357h-7.51593v19.82709h7.51593v9.91357h7.51599v9.91357h15.03192v4.95679h52.61169v-4.95679h22.54785v-4.95679h7.51599v-9.91357h7.51593v-14.8703h-7.51593Zm-7.51598-34.69747h-7.51596v9.91356h7.51596v-9.91356Zm-82.67553-9.91356h-7.51596v9.91356h7.51596v-9.91356Z"/>
    <path class="fire_left_orange" d="m614.67019,382.24599v4.95678h-37.57978v-4.95678h-7.51596v-4.95678h-7.51596v-9.91356h7.51596v-4.95678h7.51596v-4.95678h7.51596v4.95678h7.51596v-4.95678h-7.51596v-4.95678h7.51596v4.95678h7.51596v-9.91356h7.51596v9.91356h7.51596v-14.87034h-7.51596v-4.95678h7.51596v4.95678h7.51596v9.91356h7.51596v4.95678h7.51596v14.87034h-7.51596v9.91356h-15.03191m-30.06383-34.69746h-7.51596v-4.95678h7.51596v4.95678Zm67.64361-4.95678h-7.51596v-4.95678h7.51596v4.95678Zm-90.19148-9.91356h-7.51596v-4.95678h7.51596v4.95678Zm75.15957-9.91356h-7.51596v-4.95678h7.51596v4.95678Z"/>
    <rect class="fire_left_red" x="622.18615" y="362.41887" width="7.51596" height="4.95678"/>
    <path class="fire_left_white" d="m614.67019,382.24599h-30.06383v-4.95678h-7.51596v-4.95678h7.51596v-4.95678h7.51596v4.95678h7.51596v-9.91356h7.51596v9.91356h7.51596v9.91356Zm7.51596-9.91356h-7.51596v-4.95678h7.51596v4.95678Z"/>

    <animate attributeName="visibility" begin="0.4s" calcMode="discrete" values="visible;hidden" dur="0.2s" repeatCount="indefinite" />
  </g>
  <g id="fire_left_right" visibility="hidden">
    <path class="fire_left_background" d="m659.76611,346.54883h-6.51611v-8.91406c0-.55231-.44769-1-1-1h-7.51562c-.55231,0-1,.44769-1,1v3.95703h-5.51611v-7.91406h6.51562c.55231,0,1-.44775,1-1v-4.95605c0-.55231-.44769-1-1-1h-7.51562c-.55231,0-1,.44769-1,1v3.95605h-6.51611c-.55231,0-1,.44769-1,1v3.95703h-5.51611v-13.87012c0-.55231-.44769-1-1-1h-7.51562c-.55231,0-1,.44769-1,1v3.95703h-5.51611v-7.91406h6.51611c.55231,0,1-.44769,1-1v-4.95605c0-.55231-.44769-1-1-1h-7.51611c-.55231,0-1,.44769-1,1v3.95605h-6.51611c-.55231,0-1,.44769-1,1v3.95703h-6.51562c-.55231,0-1,.44769-1,1v3.95703h-6.51611c-.55231,0-1,.44769-1,1v3.95605h-5.51611v-7.91309h6.51611c.55231,0,1-.44775,1-1v-4.95703c0-.55231-.44769-1-1-1h-7.51611c-.55231,0-1,.44769-1,1v3.95703h-5.51562v-3.95703c0-.55231-.44769-1-1-1h-7.51611c-.55231,0-1,.44769-1,1v3.95703h-6.51611c-.55231,0-1,.44769-1,1v9.91309c0,.55225.44769,1,1,1h7.51611c.55231,0,1-.44775,1-1v-8.91309h5.51611v17.82715h-5.51611v-3.95703c0-.55231-.44769-1-1-1h-15.03223c-.2652,0-.51959.10535-.70709.29291-.18756.1875-.29291.44189-.29291.70709l.00049,18.82715h-6.51611c-.55231,0-1,.44769-1,1v14.87012c0,.55225.44769,1,1,1h6.51611v8.91406c0,.55231.44769,1,1,1h6.51562v3.95703c0,.55225.44769,1,1,1h21.54785v3.95605c0,.55225.44769,1,1,1h52.61182c.55231,0,1-.44775,1-1v-3.95605h14.03223c.55231,0,1-.44775,1-1v-8.91406h6.51562c.55231,0,1-.44775,1-1v-8.91309h6.51611c.55231,0,1-.44775,1-1v-19.82715c0-.55231-.44769-1-1-1Zm-8.51611,2v7.91309h-5.51562v-7.91309h5.51562Zm-97.70752,9.91309v2.95703h-5.51562v-2.95703h5.51562Zm62.12793-16.87012v-2.95703h5.51562v2.95703h-5.51562Z"/>
    <rect class="fire_left_background" x="636.21826" y="311.85156" width="9.51562" height="11.91309" rx="1" ry="1"/>
    <path class="fire_left_red" d="m659.76593,347.54852v19.82709h-7.51593v9.91357h-7.51593v9.91357h-15.03192v4.95679h-52.61169v-4.95679h-22.54791v-4.95679h-7.51593v-9.91357h-7.51599v-14.8703h7.51599v4.95673h7.51593v-4.95673h-7.51593v-14.87036h7.51593v-4.95679h7.51599v4.95679h7.51593v-19.82715h7.51599v9.91357h7.51593v-4.95679h7.51593v-4.95679h7.51599v-4.95679h7.51593v9.91357h7.51599v-4.95679h7.51593v14.87036h-7.51593v9.91357h7.51593v-9.91357h7.51599v-4.95679h7.51593v9.91357h7.51599v-4.95679h7.51593v9.91357h-7.51593v9.91357h7.51593v-9.91357h7.51593Zm-97.70742-24.7839h-7.51596v9.91356h7.51596v-9.91356Zm82.67553-9.91356h-7.51596v9.91356h7.51596v-9.91356Zm-60.12766,4.95678h-7.51596v4.95678h7.51596v-4.95678Zm30.06383-4.95678h-7.51596v4.95678h7.51596v-4.95678Z"/>
    <path class="fire_left_orange" d="m622.18617,387.20277h-37.57979v-4.95678h-15.03191v-9.91356h-7.51596v-14.87034h7.51596v-4.95678h7.51596v-9.91356h7.51596v14.87034h7.51596v-9.91356h7.51596v9.91356h7.51596v4.95678h7.51596v-4.95678h-7.51596v-4.95678h7.51596v4.95678h7.51596v4.95678h7.51596v4.95678h7.51596v9.91356h-7.51596v4.95678h-7.51596v4.95678Zm0-39.65424h-7.51596v-4.95678h7.51596v4.95678Zm-30.06383-4.95678h-7.51596v-4.95678h7.51596v4.95678Zm-37.57979,0h-7.51596v-4.95678h7.51596v4.95678Zm90.19149-9.91356h-7.51596v-4.95678h7.51596v4.95678Zm-75.15957-9.91356h-7.51596v-4.95678h7.51596v4.95678Z"/>
    <rect class="fire_left_red" x="569.57447" y="362.41887" width="7.51596" height="4.95678"/>
    <polygon class="fire_left_white" points="614.67021 382.24599 584.60638 382.24599 584.60638 372.33243 577.09043 372.33243 577.09043 367.37565 584.60638 367.37565 584.60638 372.33243 592.12234 372.33243 592.12234 362.41887 599.6383 362.41887 599.6383 372.33243 607.15426 372.33243 607.15426 367.37565 614.67021 367.37565 614.67021 372.33243 622.18617 372.33243 622.18617 377.28921 614.67021 377.28921 614.67021 382.24599"/>

    <animate attributeName="visibility" begin="0.5s" calcMode="discrete" values="visible;hidden" dur="0.2s" repeatCount="indefinite" />
  </g>


  <!-- Fire Right -->
  <g id="reveal1_right" visibility="hidden">
    <path class="reveal_background" d="m1382.09321,341.59782h-6.53103v-13.88179c0-.54758-.4417-.99156-.98661-.99156h-6.53103v-3.96623c0-.54758-.4417-.99156-.98661-.99156h-14.04868v-3.96623c0-.54758-.4417-.99156-.98661-.99156h-6.53097v-3.96623c0-.54758-.4417-.99156-.98661-.99156h-45.10585c-.54491,0-.98661.44397-.98661.99156v3.96623h-6.53097c-.54491,0-.98661.44397-.98661.99156v3.96623h-14.04868c-.54491,0-.98661.44397-.98661.99156v3.96623h-6.53103c-.54491,0-.98661.44397-.98661.99156v13.88179h-6.53103c-.54491,0-.98661.44397-.98661.99156v19.83113c0,.54764.4417.99156.98661.99156h6.53103v8.92401c0,.54764.4417.99156.98661.99156h6.53103v8.92401c0,.54764.4417.99156.98661.99156h6.53103v3.96623c0,.54764.4417.99156.98661.99156h6.53103v3.96623c0,.54764.4417.99156.98661.99156h22.55287c.54491,0,.98661-.44391.98661-.99156v-3.96623h13.06207v3.96623c0,.54764.4417.99156.98661.99156h22.55287c.54491,0,.98661-.44391.98661-.99156v-3.96623h6.53103c.54491,0,.98661-.44391.98661-.99156v-3.96623h6.53103c.54491,0,.98661-.44391.98661-.99156v-8.92401h6.53103c.54491,0,.98661-.44391.98661-.99156v-8.92401h6.53103c.54491,0,.98661-.44391.98661-.99156v-19.83113c0-.54758-.4417-.99156-.98661-.99156Z"/>
    <polygon class="reveal_white" points="1284.36394 382.25164 1276.84631 372.33608 1269.32868 372.33608 1269.32868 362.42052 1261.81104 362.42052 1261.81104 342.58941 1269.32868 342.58941 1269.32868 327.71607 1276.84631 327.71607 1276.84631 322.75829 1291.88158 322.75829 1291.88158 317.80051 1299.39921 317.80051 1299.39921 312.84273 1344.50501 312.84273 1344.50501 317.80051 1352.02264 317.80051 1352.02264 322.75829 1367.05791 322.75829 1367.05791 327.71607 1374.57554 327.71607 1374.57554 342.58941 1382.09318 342.58941 1382.09318 362.42052 1374.57554 362.42052 1374.57554 372.33608 1367.05791 372.33608 1359.54028 382.25164 1352.02264 387.20942 1352.02264 392.1672 1329.46974 392.1672 1329.46974 387.20942 1314.43448 387.20942 1314.43448 392.1672 1291.88158 392.1672 1291.88158 387.20942 1284.36394 382.25164"/>
    <path class="reveal_blue" d="m1359.54028,387.20942h-7.51763v-4.95778h7.51763v4.95778Zm-67.6587,0h-7.51763v-4.95778h-7.51763v-14.87334h7.51763v14.87334h7.51763v4.95778Zm75.17633-4.95778h-7.51763v-14.87334h7.51763v14.87334Zm-30.07053,0h-30.07053v-4.95778h-7.51763v-9.91556h7.51763v4.95778h7.51763v4.95778h15.03527v-4.95778h7.51763v-4.95778h7.51763v9.91556h-7.51763v4.95778Zm15.03527-29.74667h-7.51763v-4.95778h7.51763v4.95778Zm-52.62343,0h-7.51763v-4.95778h-7.51763v-14.87334h7.51763v14.87334h7.51763v4.95778Zm60.14107-4.95778h-7.51763v-14.87334h-7.51763v-4.95778h7.51763v4.95778h7.51763v14.87334Zm-60.14107-14.87334h-7.51763v-4.95778h7.51763v4.95778Z"/>

    <set attributeName="visibility" attributeType="XML" to="visible" begin="0.1666s" end="0.2166s" />
  </g>
  <g id="reveal2_right" visibility="hidden">
    <path class="reveal_background" d="m1352.02264,316.80892h-14.04868v-3.96623c0-.54764-.4417-.99156-.98661-.99156h-30.07051c-.54491,0-.98661.44391-.98661.99156v3.96623h-14.04868c-.54491,0-.98661.44391-.98661.99156v9.91556c0,.54758.4417.99156.98661.99156h7.51764c.54491,0,.98661-.44397.98661-.99156v-3.96623h5.54443c-.0006,2.17637.00043,6.72674,0,8.92403,0,.54756.4417.99153.98661.99153h6.53103v3.96623c0,.54758.4417.99156.98661.99156h15.03528c.54491,0,.98661-.44397.98661-.99156v-3.96623h6.53097c.54491,0,.98661-.44397.98661-.99156-.00157-2.20254.00113-6.7421,0-8.92401h5.54443v3.96623c0,.54758.4417.99156.98661.99156h7.51764c.54491,0,.98661-.44397.98661-.99156v-9.91556c0-.54764-.4417-.99156-.98661-.99156Zm-23.53947,4.95778h-13.06207v-2.97467h13.06207v2.97467Z"/>
    <path class="reveal_background" d="m1305.93024,357.46273c0-.54764.4417-.99156.98661-.99156,8.39185,0,21.67866,0,30.07051,0,.54491,0,.98661.44391.98661.99156v14.87334c0,.54758-.4417.99156-.98661.99156h-6.53097v3.96623c0,.54758-.4417.99156-.98661.99156h-15.03528c-.54491,0-.98661-.44397-.98661-.99156v-3.96623h-6.53103c-.54491,0-.98661-.44397-.98661-.99156v-14.87334Z"/>
    <path class="reveal_background" d="m1382.09315,346.55561h-6.53097v-3.96623c0-.54764-.4417-.99156-.98661-.99156h-6.53103v-3.96623c0-.54764-.4417-.99156-.98661-.99156h-6.53103v-2.97467h6.53103c.54491,0,.98661-.44397.98661-.99156v-9.91556c0-.54764-.4417-.99156-.98661-.99156h-7.51764c-.54491,0-.98661.44391-.98661.99156v8.92401h-6.53103c-.54491,0-.98661.44391-.98661.99156v18.83957h-5.54443v-8.92401c0-.54764-.4417-.99156-.98661-.99156h-15.03522c-.54491,0-.98661.44391-.98661.99156v4.95778c0,.54758.4417.99156.98661.99156h6.53097v3.96623c0,.54758.4417.99156.98661.99156h6.53103v8.92401c0,.54758.4417.99156.98661.99156h7.51764c.54491,0,.98661-.44397.98661-.99156v-8.92401h5.54443v17.84801h-5.54443v-3.96623c0-.54764-.4417-.99156-.98661-.99156h-7.51764c-.54491,0-.98661.44391-.98661.99156v4.95778c0,.54758.4417.99156.98661.99156h6.53103v2.97467h-6.53103c-.54491,0-.98661.44391-.98661.99156v3.96623h-43.13258v-3.96623c0-.54764-.4417-.99156-.98661-.99156h-6.53103v-2.97467h6.53103c.54491,0,.98661-.44397.98661-.99156v-4.95778c0-.54764-.4417-.99156-.98661-.99156h-7.51764c-.54491,0-.98661.44391-.98661.99156v3.96623h-5.54443v-17.84801h5.54443v8.92401c0,.54758.4417.99156.98661.99156h7.51764c.54491,0,.98661-.44397.98661-.99156v-8.92401h6.53103c.54491,0,.98661-.44397.98661-.99156v-3.96623h6.53103c.54491,0,.98661-.44397.98661-.99156v-4.95778c0-.54764-.4417-.99156-.98661-.99156h-15.03528c-.54491,0-.98661.44391-.98661.99156v8.92401h-5.54443v-18.83957c0-.54764-.4417-.99156-.98661-.99156h-6.53103v-8.92401c0-.54764-.4417-.99156-.98661-.99156h-7.51758c-.54491,0-.98661.44391-.98661.99156v9.91556c0,.54758.4417.99156.98661.99156h6.53097v2.97467h-6.53097c-.54491,0-.98661.44391-.98661.99156v3.96623h-6.53103c-.54491,0-.98661.44391-.98661.99156v3.96623h-6.53103c-.54491,0-.98661.44391-.98661.99156v9.91556c0,.54758.4417.99156.98661.99156h6.53103v3.96623c0,.54758.4417.99156.98661.99156h6.53103v2.97467h-6.53103c-.54491,0-.98661.44391-.98661.99156v4.95778c0,.54758.4417.99156.98661.99156h6.53103v3.96623c0,.54758.4417.99156.98661.99156h6.53097v8.92401c0,.54758.4417.99156.98661.99156h6.53103v3.96623c0,.54758.4417.99156.98661.99156h7.51764c.54491,0,.98661-.44397.98661-.99156v-3.96623h5.54443v3.96623c0,.54758.4417.99156.98661.99156h7.51764c.54491,0,.98661-.44397.98661-.99156v-3.96623h13.06207v3.96623c0,.54758.4417.99156.98661.99156h7.51758c.54491,0,.98661-.44397.98661-.99156v-3.96623h5.54443v3.96623c0,.54758.4417.99156.98661.99156h7.51764c.54491,0,.98661-.44397.98661-.99156v-3.96623h6.53103c.54491,0,.98661-.44397.98661-.99156v-8.92401h6.53103c.54491,0,.98661-.44397.98661-.99156v-3.96623h6.53103c.54491,0,.98661-.44397.98661-.99156v-4.95778c0-.54764-.4417-.99156-.98661-.99156h-6.53103v-2.97467h6.53103c.54491,0,.98661-.44397.98661-.99156v-3.96623h6.53097c.54491,0,.98661-.44397.98661-.99156v-9.91556c0-.54764-.4417-.99156-.98661-.99156Zm-98.71584,4.95778h-13.06201v-2.97467h13.06201v2.97467Zm15.03528,34.70447h-5.54443v-2.97467h5.54443v2.97467Zm52.62344,0h-5.54443v-2.97467h5.54443v2.97467Zm22.55293-34.70447h-13.06207v-2.97467h13.06207v2.97467Z"/>
    <path class="reveal_white" d="m1352.02264,392.1672h-7.51763v-4.95778h-7.51763v4.95778h-7.51763v-4.95778h-15.03527v4.95778h-7.51763v-4.95778h-7.51763v-4.95778h-7.51763v4.95778h7.51763v4.95778h-7.51763v-4.95778h-7.51763v-9.91556h-7.51763v-4.95778h-7.51763v-4.95778h7.51763v-14.87334h7.51763v19.83112h7.51763v4.95778h7.51763v4.95778h45.1058v4.95778h7.51763v4.95778Zm7.51763-4.95778h-7.51763v-4.95778h-7.51763v-4.95778h7.51763v-4.95778h-7.51763v-4.95778h7.51763v4.95778h7.51763v-19.83112h-7.51763v-19.83112h7.51763v4.95778h7.51763v4.95778h7.51763v4.95778h7.51763v9.91556h-7.51763v-9.91556h-15.03527v4.95778h7.51763v14.87334h7.51763v4.95778h-7.51763v4.95778h-7.51763v9.91556Zm-30.07053-9.91556h-15.03527v-4.95778h-7.51763v-9.91556h7.51763v-4.95778h15.03527v4.95778h7.51763v9.91556h-7.51763v4.95778Zm-30.07053-4.95778h-7.51763v-4.95778h7.51763v4.95778Zm52.62343-9.91556h-7.51763v-9.91556h-7.51763v-4.95778h-7.51763v-4.95778h15.03527v9.91556h7.51763v9.91556Zm-52.62343,0h-7.51763v-9.91556h-7.51763v-4.95778h-15.03527v-4.95778h7.51763v-4.95778h7.51763v-4.95778h-7.51763v-9.91556h7.51763v9.91556h7.51763v19.83112h7.51763v9.91556Zm-30.07053-4.95778h-7.51763v-9.91556h7.51763v9.91556Zm37.58817-4.95778h-7.51763v-9.91556h15.03527v4.95778h-7.51763v4.95778Zm22.5529-14.87334h-15.03527v-4.95778h-7.51763v-4.95778h7.51763v-4.95778h-15.03527v4.95778h-7.51763v-9.91556h15.03527v-4.95778h30.07053v4.95778h15.03527v9.91556h-7.51763v-4.95778h-15.03527v-4.95778h-15.03527v4.95778h15.03527v4.95778h7.51763v4.95778h-7.51763v4.95778Zm37.58817-4.95778h-7.51763v-9.91556h7.51763v9.91556Z"/>
    <path class="reveal_blue" d="m1374.57554,362.42052h-7.51763v-9.91556h7.51763v9.91556Zm-37.58817,0h-7.51763v-4.95778h7.51763v4.95778Zm-22.5529,0h-7.51763v-4.95778h7.51763v4.95778Zm-37.58817,0h-7.51763v-9.91556h7.51763v9.91556Zm60.14107-34.70445h-7.51763v-4.95778h7.51763v4.95778Zm-22.5529,0h-7.51763v-4.95778h7.51763v4.95778Z"/>

    <set attributeName="visibility" attributeType="XML" to="visible" begin="0.2166s" end="0.3166s" />
  </g>
  <g id="reveal3_right" visibility="hidden">
    <path class="reveal_background" d="m1336.98735,311.85117h-7.51758c-.54491,0-.98661.44394-.98661.99156v4.95778c0,.54764.4417.99156.98661.99156h7.51758c.54491,0,.98661-.44391.98661-.99156v-4.95778c0-.54761-.4417-.99156-.98661-.99156h0Zm-22.55287,0h-7.51764c-.54491,0-.98661.44394-.98661.99156v4.95778c0,.54764.4417.99156.98661.99156h7.51764c.54491,0,.98661-.44391.98661-.99156v-4.95778c0-.54761-.4417-.99156-.98661-.99156h0Zm37.58815,9.91556h-7.51764c-.54491,0-.98661.44394-.98661.99156v4.95778c0,.54764.4417.99156.98661.99156h7.51764c.54491,0,.98661-.44391.98661-.99156v-4.95778c0-.54761-.4417-.99156-.98661-.99156h0Zm-52.62344,0h-7.51764c-.54491,0-.98661.44394-.98661.99156v4.95778c0,.54764.4417.99156.98661.99156h7.51764c.54491,0,.98661-.44391.98661-.99156v-4.95778c0-.54761-.4417-.99156-.98661-.99156h0Zm67.65872,4.95778h-7.51764c-.54491,0-.98661.44394-.98661.99156v4.95778c0,.54764.4417.99156.98661.99156h7.51764c.54491,0,.98661-.44391.98661-.99156v-4.95778c0-.54761-.4417-.99156-.98661-.99156h0Zm-82.69401,0h-7.51758c-.54491,0-.98661.44394-.98661.99156v4.95778c0,.54764.4417.99156.98661.99156h7.51758c.54491,0,.98661-.44391.98661-.99156v-4.95778c0-.54761-.4417-.99156-.98661-.99156h0Zm52.62344,4.95778h-30.07051c-.54491,0-.98661.44394-.98661.99156v4.95778c0,.54764.4417.99156.98661.99156h30.07051c.54491,0,.98661-.44391.98661-.99156v-4.95778c0-.54761-.4417-.99156-.98661-.99156h0Zm22.55293,4.95778h-7.51764c-.54491,0-.98661.44394-.98661.99156v4.95778c0,.54764.4417.99156.98661.99156h6.53103v3.96623c0,.54764.4417.99156.98661.99156h7.51764c.54491,0,.98661-.44391.98661-.99156v-4.95778c0-.54761-.4417-.99156-.98661-.99156h-6.53103v-3.96623c0-.54761-.4417-.99156-.98661-.99156h0Zm-67.65872,0h-7.51764c-.54491,0-.98661.44394-.98661.99156v3.96623h-6.53097c-.54491,0-.98661.44394-.98661.99156v4.95778c0,.54764.4417.99156.98661.99156h7.51758c.54491,0,.98661-.44391.98661-.99156v-3.96623h6.53103c.54491,0,.98661-.44391.98661-.99156v-4.95778c0-.54761-.4417-.99156-.98661-.99156h0Zm60.14108,9.91556h-7.51764c-.54491,0-.98661.44394-.98661.99156v4.95778c0,.54764.4417.99156.98661.99156h7.51764c.54491,0,.98661-.44391.98661-.99156v-4.95778c0-.54761-.4417-.99156-.98661-.99156h0Zm-15.03528,0h-7.51758c-.54491,0-.98661.44394-.98661.99156v4.95778c0,.54764.4417.99156.98661.99156h7.51758c.54491,0,.98661-.44391.98661-.99156v-4.95778c0-.54761-.4417-.99156-.98661-.99156h0Zm-22.55287,0h-7.51764c-.54491,0-.98661.44394-.98661.99156v4.95778c0,.54764.4417.99156.98661.99156h7.51764c.54491,0,.98661-.44391.98661-.99156v-4.95778c0-.54761-.4417-.99156-.98661-.99156h0Zm-15.03528,0h-7.51764c-.54491,0-.98661.44394-.98661.99156v4.95778c0,.54764.4417.99156.98661.99156h7.51764c.54491,0,.98661-.44391.98661-.99156v-4.95778c0-.54761-.4417-.99156-.98661-.99156h0Zm82.69394,4.95778h-7.51758c-.54491,0-.98661.44394-.98661.99156v4.95778c0,.54764.4417.99156.98661.99156h7.51758c.54491,0,.98661-.44391.98661-.99156v-4.95778c0-.54761-.4417-.99156-.98661-.99156h0Zm-112.76445,0h-7.51764c-.54491,0-.98661.44394-.98661.99156v4.95778c0,.54764.4417.99156.98661.99156h7.51764c.54491,0,.98661-.44391.98661-.99156v-4.95778c0-.54761-.4417-.99156-.98661-.99156h0Zm82.69394,4.95778h-7.51764c-.54491,0-.98661.44394-.98661.99156v4.95778c0,.54764.4417.99156.98661.99156h7.51764c.54491,0,.98661-.44391.98661-.99156v-4.95778c0-.54761-.4417-.99156-.98661-.99156h0Zm-22.55287,0h-15.03528c-.54491,0-.98661.44394-.98661.99156v4.95778c0,.54764.4417.99156.98661.99156h15.03528c.54491,0,.98661-.44391.98661-.99156v-4.95778c0-.54761-.4417-.99156-.98661-.99156h0Zm-30.07057,0h-7.51764c-.54491,0-.98661.44394-.98661.99156v4.95778c0,.54764.4417.99156.98661.99156h7.51764c.54491,0,.98661-.44391.98661-.99156v-4.95778c0-.54761-.4417-.99156-.98661-.99156h0Zm67.65872,4.95778h-7.51764c-.54491,0-.98661.44394-.98661.99156v4.95775c0,.54761.4417.99156.98661.99156h7.51764c.54491,0,.98661-.44394.98661-.99156v-4.95775c0-.54761-.4417-.99156-.98661-.99156h0Zm-82.69401,0h-7.51758c-.54491,0-.98661.44394-.98661.99156v4.95775c0,.54761.4417.99156.98661.99156h7.51758c.54491,0,.98661-.44394.98661-.99156v-4.95775c0-.54761-.4417-.99156-.98661-.99156h0Zm45.10585,4.95775h-15.03528c-.54491,0-.98661.44394-.98661.99156v4.95778c0,.54761.4417.99156.98661.99156h15.03528c.54491,0,.98661-.44394.98661-.99156v-4.95778c0-.54761-.4417-.99156-.98661-.99156h0Zm37.58815,4.95778h-7.51764c-.54491,0-.98661.44394-.98661.99156v4.95778c0,.54761.4417.99156.98661.99156h7.51764c.54491,0,.98661-.44394.98661-.99156v-4.95778c0-.54761-.4417-.99156-.98661-.99156h0Zm-82.69401,0h-7.51758c-.54491,0-.98661.44394-.98661.99156v4.95778c0,.54761.4417.99156.98661.99156h7.51758c.54491,0,.98661-.44394.98661-.99156v-4.95778c0-.54761-.4417-.99156-.98661-.99156h0Zm60.14108,4.95778h-7.51764c-.54491,0-.98661.44394-.98661.99156v4.95778c0,.54761.4417.99156.98661.99156h7.51764c.54491,0,.98661-.44394.98661-.99156v-4.95778c0-.54761-.4417-.99156-.98661-.99156h0Zm-37.58815,0h-7.51764c-.54491,0-.98661.44394-.98661.99156v4.95778c0,.54761.4417.99156.98661.99156h7.51764c.54491,0,.98661-.44394.98661-.99156v-4.95778c0-.54761-.4417-.99156-.98661-.99156h0Zm22.55293,4.95778h-15.03528c-.54491,0-.98661.44394-.98661.99156v3.96623h-14.04868c-.54491,0-.98661.44394-.98661.99156v4.95778c0,.54761.4417.99156.98661.99156h15.03528c.54491,0,.98661-.44394.98661-.99156v-3.96623h13.06207v3.96623c0,.54761.4417.99156.98661.99156h15.03522c.54491,0,.98661-.44394.98661-.99156v-4.95778c0-.54761-.4417-.99156-.98661-.99156h-14.04862v-3.96623c0-.54761-.4417-.99156-.98661-.99156h0Z"/>
    <path class="reveal_white" d="m1344.50501,392.1672h-15.03527v-4.95778h-15.03527v-4.95778h15.03527v4.95778h15.03527v4.95778Zm-30.07053,0h-15.03527v-4.95778h15.03527v4.95778Zm30.07053-9.91556h-7.51763v-4.95778h7.51763v4.95778Zm-37.58817,0h-7.51763v-4.95778h7.51763v4.95778Zm60.14107-4.95778h-7.51763v-4.95778h7.51763v4.95778Zm-82.69397,0h-7.51763v-4.95778h7.51763v4.95778Zm45.1058-4.95778h-15.03527v-4.95778h15.03527v4.95778Zm37.58817-4.95778h-7.51763v-4.95778h7.51763v4.95778Zm-82.69397,0h-7.51763v-4.95778h7.51763v4.95778Zm67.6587-4.95778h-7.51763v-4.95778h7.51763v4.95778Zm-22.5529,0h-15.03527v-4.95778h15.03527v4.95778Zm-30.07053,0h-7.51763v-4.95778h7.51763v4.95778Zm82.69397-4.95778h-7.51763v-4.95778h7.51763v4.95778Zm-112.7645,0h-7.51763v-4.95778h7.51763v4.95778Zm82.69397-4.95778h-7.51763v-4.95778h7.51763v4.95778Zm-15.03527,0h-7.51763v-4.95778h7.51763v4.95778Zm-22.5529,0h-7.51763v-4.95778h7.51763v4.95778Zm-15.03527,0h-7.51763v-4.95778h7.51763v4.95778Zm67.6587-4.95778h-7.51763v-4.95778h-7.51763v-4.95778h7.51763v4.95778h7.51763v4.95778Zm-82.69397,0h-7.51763v-4.95778h7.51763v4.95778Zm7.51763-4.95778h-7.51763v-4.95778h7.51763v4.95778Zm45.1058-4.95778h-30.07053v-4.95778h30.07053v4.95778Zm30.07053-4.95778h-7.51763v-4.95778h7.51763v4.95778Zm-82.69397,0h-7.51763v-4.95778h7.51763v4.95778Zm67.6587-4.95778h-7.51763v-4.95778h7.51763v4.95778Zm-52.62343,0h-7.51763v-4.95778h7.51763v4.95778Zm37.58817-9.91556h-7.51763v-4.95778h7.51763v4.95778Zm-22.5529,0h-7.51763v-4.95778h7.51763v4.95778Z"/>

    <set attributeName="visibility" attributeType="XML" to="visible" begin="0.3166s" end="0.4166s" />
  </g>
  <g id="fire_right_left" visibility="hidden">
    <path class="fire_left_background" d="m1382.07978,356.46173h-6.51593v-18.82715c0-.55231-.44769-1-1-1h-15.03192c-.55231,0-1,.44769-1,1v3.95679h-5.51599v-17.82715h5.51599v8.91357c0,.55231.44769,1,1,1h7.51593c.55231,0,1-.44769,1-1v-9.91357c0-.55231-.44769-1-1-1h-6.51593v-3.95679c0-.55231-.44769-1-1-1h-7.51599c-.55231,0-1,.44769-1,1v3.95679h-5.51593v-3.95679c0-.55231-.44769-1-1-1h-7.51599c-.55231,0-1,.44769-1,1v4.95679c0,.55225.44769,1,1,1h6.51599v7.91357h-5.51599v-3.95679c0-.55231-.44769-1-1-1h-6.51593v-3.95679c0-.55231-.44769-1-1-1h-6.51599v-3.95679c0-.55231-.44769-1-1-1h-6.51593v-3.95673c0-.55231-.44769-1-1-1h-7.51593c-.55231,0-1,.44769-1,1v4.95673c0,.55225.44769,1,1,1h6.51593v7.91357h-5.51593v-3.95679c0-.55231-.44769-1-1-1h-7.51599c-.55231,0-1,.44769-1,1v13.87036h-5.51593v-3.95679c0-.55231-.44769-1-1-1h-6.51599v-3.95679c0-.55231-.44769-1-1-1h-7.51593c-.55231,0-1,.44769-1,1v4.95679c0,.55231.44769,1,1,1h6.51593v7.91357h-5.51593v-3.95679c0-.55231-.44769-1-1-1h-7.51599c-.55231,0-1,.44769-1,1v8.91357h-6.51593c-.55231,0-1,.44769-1,1v19.82709c0,.55231.44769,1,1,1h6.51593v8.91357c0,.55225.44769,1,1,1h6.51599v8.91357c0,.55231.44769,1,1,1h14.03192v3.95679c0,.55225.44769,1,1,1h52.61169c.55231,0,1-.44775,1-1v-3.95679h21.54785c.55231,0,1-.44769,1-1v-3.95679h6.51599c.55231,0,1-.44775,1-1v-8.91357h6.51593c.55231,0,1-.44769,1-1v-14.8703c0-.55231-.44769-1-1-1Zm-8.51593,2v2.95673h-5.51599v-2.95673h5.51599Zm-97.70746-9.91357v7.91357h-5.51599v-7.91357h5.51599Zm30.06384-9.91357v2.95679h-5.51599v-2.95679h5.51599Z"/>
    <rect class="fire_left_background" x="1275.85639" y="311.85071" width="9.51593" height="11.91351" rx="1" ry="1"/>
    <path class="fire_left_red" d="m1344.50001,317.80743v4.95679h-7.51599v-4.95679h7.51599Zm-37.57977-4.95673v4.95673h7.51593v-4.95673h-7.51593Zm67.64362,44.61102v4.95673h-7.51599v-4.95673h7.51599v-14.87036h-7.51599v-4.95679h-7.51593v4.95679h-7.51599v-19.82715h-7.51593v9.91357h-7.51599v-4.95679h-7.51593v-4.95679h-7.51599v-4.95679h-7.51593v9.91357h-7.51593v-4.95679h-7.51599v14.87036h7.51599v9.91357h-7.51599v-9.91357h-7.51593v-4.95679h-7.51599v9.91357h-7.51593v-4.95679h-7.51599v9.91357h7.51599v9.91357h-7.51599v-9.91357h-7.51593v19.82709h7.51593v9.91357h7.51599v9.91357h15.03192v4.95679h52.61169v-4.95679h22.54785v-4.95679h7.51599v-9.91357h7.51593v-14.8703h-7.51593Zm-7.51598-34.69747h-7.51596v9.91356h7.51596v-9.91356Zm-82.67553-9.91356h-7.51596v9.91356h7.51596v-9.91356Z"/>
    <path class="fire_left_orange" d="m1336.98404,382.24562v4.95678h-37.57978v-4.95678h-7.51596v-4.95678h-7.51596v-9.91356h7.51596v-4.95678h7.51596v-4.95678h7.51596v4.95678h7.51596v-4.95678h-7.51596v-4.95678h7.51596v4.95678h7.51596v-9.91356h7.51596v9.91356h7.51596v-14.87034h-7.51596v-4.95678h7.51596v4.95678h7.51596v9.91356h7.51596v4.95678h7.51596v14.87034h-7.51596v9.91356h-15.03191m-30.06383-34.69746h-7.51596v-4.95678h7.51596v4.95678Zm67.64361-4.95678h-7.51596v-4.95678h7.51596v4.95678Zm-90.19148-9.91356h-7.51596v-4.95678h7.51596v4.95678Zm75.15957-9.91356h-7.51596v-4.95678h7.51596v4.95678Z"/>
    <rect class="fire_left_red" x="1344.5" y="362.4185" width="7.51596" height="4.95678"/>
    <path class="fire_left_white" d="m1336.98404,382.24562h-30.06383v-4.95678h-7.51596v-4.95678h7.51596v-4.95678h7.51596v4.95678h7.51596v-9.91356h7.51596v9.91356h7.51596v9.91356Zm7.51596-9.91356h-7.51596v-4.95678h7.51596v4.95678Z"/>

    <animate attributeName="visibility" begin="0.4166s" calcMode="discrete" values="visible;hidden" dur="0.2s" repeatCount="indefinite" />
  </g>
  <g id="fire_right_right" visibility="hidden">
    <path class="fire_left_background" d="m1382.07981,346.5484h-6.51611v-8.91406c0-.55231-.44769-1-1-1h-7.51562c-.55231,0-1,.44769-1,1v3.95703h-5.51611v-7.91406h6.51562c.55231,0,1-.44775,1-1v-4.95605c0-.55231-.44769-1-1-1h-7.51562c-.55231,0-1,.44769-1,1v3.95605h-6.51611c-.55231,0-1,.44769-1,1v3.95703h-5.51611v-13.87012c0-.55231-.44769-1-1-1h-7.51562c-.55231,0-1,.44769-1,1v3.95703h-5.51611v-7.91406h6.51611c.55231,0,1-.44769,1-1v-4.95605c0-.55231-.44769-1-1-1h-7.51611c-.55231,0-1,.44769-1,1v3.95605h-6.51611c-.55231,0-1,.44769-1,1v3.95703h-6.51562c-.55231,0-1,.44769-1,1v3.95703h-6.51611c-.55231,0-1,.44769-1,1v3.95605h-5.51611v-7.91309h6.51611c.55231,0,1-.44775,1-1v-4.95703c0-.55231-.44769-1-1-1h-7.51611c-.55231,0-1,.44769-1,1v3.95703h-5.51562v-3.95703c0-.55231-.44769-1-1-1h-7.51611c-.55231,0-1,.44769-1,1v3.95703h-6.51611c-.55231,0-1,.44769-1,1v9.91309c0,.55225.44769,1,1,1h7.51611c.55231,0,1-.44775,1-1v-8.91309h5.51611v17.82715h-5.51611v-3.95703c0-.55231-.44769-1-1-1h-15.03223c-.2652,0-.51959.10535-.70709.29291-.18756.1875-.29291.44189-.29291.70709l.00049,18.82715h-6.51611c-.55231,0-1,.44769-1,1v14.87012c0,.55225.44769,1,1,1h6.51611v8.91406c0,.55231.44769,1,1,1h6.51562v3.95703c0,.55225.44769,1,1,1h21.54785v3.95605c0,.55225.44769,1,1,1h52.61182c.55231,0,1-.44775,1-1v-3.95605h14.03223c.55231,0,1-.44775,1-1v-8.91406h6.51562c.55231,0,1-.44775,1-1v-8.91309h6.51611c.55231,0,1-.44775,1-1v-19.82715c0-.55231-.44769-1-1-1Zm-8.51611,2v7.91309h-5.51562v-7.91309h5.51562Zm-97.70752,9.91309v2.95703h-5.51562v-2.95703h5.51562Zm62.12793-16.87012v-2.95703h5.51562v2.95703h-5.51562Z"/>
    <rect class="fire_left_background" x="1358.53196" y="311.85114" width="9.51562" height="11.91309" rx="1" ry="1"/>
    <path class="fire_left_red" d="m1382.07963,347.5481v19.82709h-7.51593v9.91357h-7.51593v9.91357h-15.03192v4.95679h-52.61169v-4.95679h-22.54791v-4.95679h-7.51593v-9.91357h-7.51599v-14.8703h7.51599v4.95673h7.51593v-4.95673h-7.51593v-14.87036h7.51593v-4.95679h7.51599v4.95679h7.51593v-19.82715h7.51599v9.91357h7.51593v-4.95679h7.51593v-4.95679h7.51599v-4.95679h7.51593v9.91357h7.51599v-4.95679h7.51593v14.87036h-7.51593v9.91357h7.51593v-9.91357h7.51599v-4.95679h7.51593v9.91357h7.51599v-4.95679h7.51593v9.91357h-7.51593v9.91357h7.51593v-9.91357h7.51593Zm-97.70742-24.7839h-7.51596v9.91356h7.51596v-9.91356Zm82.67553-9.91356h-7.51596v9.91356h7.51596v-9.91356Zm-60.12766,4.95678h-7.51596v4.95678h7.51596v-4.95678Zm30.06383-4.95678h-7.51596v4.95678h7.51596v-4.95678Z"/>
    <path class="fire_left_orange" d="m1344.49987,387.20234h-37.57979v-4.95678h-15.03191v-9.91356h-7.51596v-14.87034h7.51596v-4.95678h7.51596v-9.91356h7.51596v14.87034h7.51596v-9.91356h7.51596v9.91356h7.51596v4.95678h7.51596v-4.95678h-7.51596v-4.95678h7.51596v4.95678h7.51596v4.95678h7.51596v4.95678h7.51596v9.91356h-7.51596v4.95678h-7.51596v4.95678Zm0-39.65424h-7.51596v-4.95678h7.51596v4.95678Zm-30.06383-4.95678h-7.51596v-4.95678h7.51596v4.95678Zm-37.57979,0h-7.51596v-4.95678h7.51596v4.95678Zm90.19149-9.91356h-7.51596v-4.95678h7.51596v4.95678Zm-75.15957-9.91356h-7.51596v-4.95678h7.51596v4.95678Z"/>
    <rect class="fire_left_red" x="1291.88817" y="362.41844" width="7.51596" height="4.95678"/>
    <polygon class="fire_left_white" points="1336.98391 382.24556 1306.92008 382.24556 1306.92008 372.332 1299.40413 372.332 1299.40413 367.37522 1306.92008 367.37522 1306.92008 372.332 1314.43604 372.332 1314.43604 362.41844 1321.952 362.41844 1321.952 372.332 1329.46796 372.332 1329.46796 367.37522 1336.98391 367.37522 1336.98391 372.332 1344.49987 372.332 1344.49987 377.28878 1336.98391 377.28878 1336.98391 382.24556"/>

    <animate attributeName="visibility" begin="0.5166s" calcMode="discrete" values="visible;hidden" dur="0.2s" repeatCount="indefinite" />
  </g>

</svg>
