<?xml version="1.0" encoding="UTF-8"?>
<svg xmlns="http://www.w3.org/2000/svg" viewBox="0 0 1920 430">
  <defs>
    <style>
      .cls-1 {
        fill: #5c94fc;
      }

      .cls-2 {
        fill: none;
      }

      .cls-3 {
        fill: #fcfcfc;
      }
    </style>
  </defs>
  <g id="reveal1_center">
    <polygon class="cls-2" points="1013.934 342.16 1013.934 327.16 1006.314 327.16 1006.314 322.16 991.074 322.16 991.074 317.16 983.455 317.16 983.455 312.16 937.737 312.16 937.737 317.16 930.117 317.16 930.117 322.16 914.878 322.16 914.878 327.16 907.258 327.16 907.258 342.16 899.638 342.16 899.638 362.16 907.258 362.16 907.258 372.16 914.878 372.16 914.878 382.16 922.497 382.16 922.497 387.16 930.117 387.16 930.117 392.16 952.976 392.16 952.976 387.16 968.215 387.16 968.215 392.16 991.074 392.16 991.074 387.16 998.694 387.16 998.694 382.16 1006.314 382.16 1006.314 372.16 1013.934 372.16 1013.934 362.16 1021.553 362.16 1021.553 342.16 1013.934 342.16"/>
    <polygon class="cls-3" points="922.497 382.16 914.878 372.16 907.258 372.16 907.258 362.16 899.638 362.16 899.638 342.16 907.258 342.16 907.258 327.16 914.878 327.16 914.878 322.16 930.117 322.16 930.117 317.16 937.737 317.16 937.737 312.16 983.455 312.16 983.455 317.16 991.074 317.16 991.074 322.16 1006.314 322.16 1006.314 327.16 1013.934 327.16 1013.934 342.16 1021.553 342.16 1021.553 362.16 1013.934 362.16 1013.934 372.16 1006.314 372.16 998.694 382.16 991.074 387.16 991.074 392.16 968.215 392.16 968.215 387.16 952.976 387.16 952.976 392.16 930.117 392.16 930.117 387.16 922.497 382.16"/>
    <path class="cls-1" d="m998.694,387.16h-7.62v-5h7.62v5Zm-68.577,0h-7.62v-5h-7.62v-15h7.62v15h7.62v5Zm76.197-5h-7.62v-15h7.62v15Zm-30.479,0h-30.479v-5h-7.62v-10h7.62v5h7.62v5h15.239v-5h7.62v-5h7.62v10h-7.62v5Zm15.239-30h-7.62v-5h7.62v5Zm-53.338,0h-7.62v-5h-7.62v-15h7.62v15h7.62v5Zm60.957-5h-7.62v-15h-7.62v-5h7.62v5h7.62v15Zm-60.957-15h-7.62v-5h7.62v5Z"/>
  </g>
  <g id="reveal2_center">
    <path class="cls-2" d="m945.356,347.16v5h-7.62v-10h15.239v5h-7.62Zm-7.62,15v-10h-7.62v10h7.62Zm0,5h-7.62v5h7.62v-5h0Zm-22.859-45v10h7.62v-10h-7.62Zm68.577,70h7.62v-5h-7.62v5h0Zm-15.239-15v-5h7.62v-15h-30.479v15h7.62v5h15.239Zm-38.098,15h7.62v-5h-7.62v5h0Zm76.197-70h-7.62v10h7.62v-10h0Zm7.62,25v-5h-7.62v-5h-7.62v-5h-7.62v20h7.62v-5h15.239Zm-45.718-5v5h7.62v5h7.62v-10h-15.239Zm45.718,5v5h-15.239v20h-7.62v5h-7.62v5h7.62v5h7.62v-10h7.62v-5h7.62v-5h-7.62v-5h7.62v-5h7.62v-10h-7.62Zm-30.479,15h7.62v-10h-7.62v10h0Zm-45.718,20v5h7.62v5h7.62v-5h15.239v5h7.62v-5h7.62v-5h-45.718Zm0,0v-5h-7.62v-5h-7.62v-20h-15.239v-5h-7.62v10h7.62v5h7.62v5h-7.62v5h7.62v5h7.62v10h7.62v-5h7.62Zm-15.239-30h7.62v-20h-7.62v5h-7.62v5h-7.62v5h15.239v5h0Zm60.957,15v5h7.62v-5h-7.62Z"/>
    <path class="cls-2" d="m975.835,317.16v-5h-30.479v5h-15.239v10h7.62v-5h7.62v10h7.62v5h15.239v-5h7.62v-10h7.62v5h7.62v-10h-15.239Zm-7.62,5h-15.239v-5h15.239v5Z"/>
    <path class="cls-3" d="m991.074,392.16h-7.62v-5h-7.62v5h-7.62v-5h-15.239v5h-7.62v-5h-7.62v-5h-7.62v5h7.62v5h-7.62v-5h-7.62v-10h-7.62v-5h-7.62v-5h7.62v-15h7.62v20h7.62v5h7.62v5h45.718v5h7.62v5Zm7.62-5h-7.62v-5h-7.62v-5h7.62v-5h-7.62v-5h7.62v5h7.62v-20h-7.62v-20h7.62v5h7.62v5h7.62v5h7.62v10h-7.62v-10h-15.239v5h7.62v15h7.62v5h-7.62v5h-7.62v10Zm-30.479-10h-15.239v-5h-7.62v-10h7.62v-5h15.239v5h7.62v10h-7.62v5Zm-30.479-5h-7.62v-5h7.62v5Zm53.338-10h-7.62v-10h-7.62v-5h-7.62v-5h15.239v10h7.62v10Zm-53.338,0h-7.62v-10h-7.62v-5h-15.239v-5h7.62v-5h7.62v-5h-7.62v-10h7.62v10h7.62v20h7.62v10Zm-30.479-5h-7.62v-10h7.62v10Zm38.098-5h-7.62v-10h15.239v5h-7.62v5Zm22.859-15h-15.239v-5h-7.62v-5h7.62v-5h-15.239v5h-7.62v-10h15.239v-5h30.479v5h15.239v10h-7.62v-5h-15.239v-5h-15.239v5h15.239v5h7.62v5h-7.62v5Zm38.098-5h-7.62v-10h7.62v10Z"/>
    <path class="cls-1" d="m1013.934,362.16h-7.62v-10h7.62v10Zm-38.098,0h-7.62v-5h7.62v5Zm-22.859,0h-7.62v-5h7.62v5Zm-38.098,0h-7.62v-10h7.62v10Zm60.957-35h-7.62v-5h7.62v5Zm-22.859,0h-7.62v-5h7.62v5Z"/>
  </g>
  <g id="reveal3_center">
    <path class="cls-2" d="m983.455,392.16h-15.239v-5h-15.239v-5h15.239v5h15.239v5Zm-30.479,0h-15.239v-5h15.239v5Zm30.479-10h-7.62v-5h7.62v5Zm-38.098,0h-7.62v-5h7.62v5Zm60.957-5h-7.62v-5h7.62v5Zm-83.816,0h-7.62v-5h7.62v5Zm45.718-5h-15.239v-5h15.239v5Zm38.098-5h-7.62v-5h7.62v5Zm-83.816,0h-7.62v-5h7.62v5Zm68.577-5h-7.62v-5h7.62v5Zm-22.859,0h-15.239v-5h15.239v5Zm-30.479,0h-7.62v-5h7.62v5Zm83.816-5h-7.62v-5h7.62v5Zm-114.295,0h-7.62v-5h7.62v5Zm83.816-5h-7.62v-5h7.62v5Zm-15.239,0h-7.62v-5h7.62v5Zm-22.859,0h-7.62v-5h7.62v5Zm-15.239,0h-7.62v-5h7.62v5Zm68.577-5h-7.62v-5h-7.62v-5h7.62v5h7.62v5Zm-83.816,0h-7.62v-5h7.62v5Zm7.62-5h-7.62v-5h7.62v5Zm45.718-5h-30.479v-5h30.479v5Zm30.479-5h-7.62v-5h7.62v5Zm-83.816,0h-7.62v-5h7.62v5Zm68.577-5h-7.62v-5h7.62v5Zm-53.338,0h-7.62v-5h7.62v5Zm38.098-10h-7.62v-5h7.62v5Zm-22.859,0h-7.62v-5h7.62v5Z"/>
    <path class="cls-3" d="m983.455,392.16h-15.239v-5h-15.239v-5h15.239v5h15.239v5Zm-30.479,0h-15.239v-5h15.239v5Zm30.479-10h-7.62v-5h7.62v5Zm-38.098,0h-7.62v-5h7.62v5Zm60.957-5h-7.62v-5h7.62v5Zm-83.816,0h-7.62v-5h7.62v5Zm45.718-5h-15.239v-5h15.239v5Zm38.098-5h-7.62v-5h7.62v5Zm-83.816,0h-7.62v-5h7.62v5Zm68.577-5h-7.62v-5h7.62v5Zm-22.859,0h-15.239v-5h15.239v5Zm-30.479,0h-7.62v-5h7.62v5Zm83.816-5h-7.62v-5h7.62v5Zm-114.295,0h-7.62v-5h7.62v5Zm83.816-5h-7.62v-5h7.62v5Zm-15.239,0h-7.62v-5h7.62v5Zm-22.859,0h-7.62v-5h7.62v5Zm-15.239,0h-7.62v-5h7.62v5Zm68.577-5h-7.62v-5h-7.62v-5h7.62v5h7.62v5Zm-83.816,0h-7.62v-5h7.62v5Zm7.62-5h-7.62v-5h7.62v5Zm45.718-5h-30.479v-5h30.479v5Zm30.479-5h-7.62v-5h7.62v5Zm-83.816,0h-7.62v-5h7.62v5Zm68.577-5h-7.62v-5h7.62v5Zm-53.338,0h-7.62v-5h7.62v5Zm38.098-10h-7.62v-5h7.62v5Zm-22.859,0h-7.62v-5h7.62v5Z"/>
  </g>
</svg>