<?xml version="1.0" encoding="UTF-8"?>
<svg xmlns="http://www.w3.org/2000/svg" viewBox="0 0 1920 430">
  <defs>
    <style>
      .d {
        fill: #5c94fc;
      }

      .e {
        fill: #161b21;
      }

      .f {
        fill: #fcfcfc;
      }
    </style>
  </defs>
  <g id="reveal1_right">
    <path class="reveal_background" d="m1382.09321,341.59782h-6.53103v-13.88179c0-.54758-.4417-.99156-.98661-.99156h-6.53103v-3.96623c0-.54758-.4417-.99156-.98661-.99156h-14.04868v-3.96623c0-.54758-.4417-.99156-.98661-.99156h-6.53097v-3.96623c0-.54758-.4417-.99156-.98661-.99156h-45.10585c-.54491,0-.98661.44397-.98661.99156v3.96623h-6.53097c-.54491,0-.98661.44397-.98661.99156v3.96623h-14.04868c-.54491,0-.98661.44397-.98661.99156v3.96623h-6.53103c-.54491,0-.98661.44397-.98661.99156v13.88179h-6.53103c-.54491,0-.98661.44397-.98661.99156v19.83113c0,.54764.4417.99156.98661.99156h6.53103v8.92401c0,.54764.4417.99156.98661.99156h6.53103v8.92401c0,.54764.4417.99156.98661.99156h6.53103v3.96623c0,.54764.4417.99156.98661.99156h6.53103v3.96623c0,.54764.4417.99156.98661.99156h22.55287c.54491,0,.98661-.44391.98661-.99156v-3.96623h13.06207v3.96623c0,.54764.4417.99156.98661.99156h22.55287c.54491,0,.98661-.44391.98661-.99156v-3.96623h6.53103c.54491,0,.98661-.44391.98661-.99156v-3.96623h6.53103c.54491,0,.98661-.44391.98661-.99156v-8.92401h6.53103c.54491,0,.98661-.44391.98661-.99156v-8.92401h6.53103c.54491,0,.98661-.44391.98661-.99156v-19.83113c0-.54758-.4417-.99156-.98661-.99156Z"/>
    <polygon class="reveal_white" points="1284.36394 382.25164 1276.84631 372.33608 1269.32868 372.33608 1269.32868 362.42052 1261.81104 362.42052 1261.81104 342.58941 1269.32868 342.58941 1269.32868 327.71607 1276.84631 327.71607 1276.84631 322.75829 1291.88158 322.75829 1291.88158 317.80051 1299.39921 317.80051 1299.39921 312.84273 1344.50501 312.84273 1344.50501 317.80051 1352.02264 317.80051 1352.02264 322.75829 1367.05791 322.75829 1367.05791 327.71607 1374.57554 327.71607 1374.57554 342.58941 1382.09318 342.58941 1382.09318 362.42052 1374.57554 362.42052 1374.57554 372.33608 1367.05791 372.33608 1359.54028 382.25164 1352.02264 387.20942 1352.02264 392.1672 1329.46974 392.1672 1329.46974 387.20942 1314.43448 387.20942 1314.43448 392.1672 1291.88158 392.1672 1291.88158 387.20942 1284.36394 382.25164"/>
    <path class="reveal_blue" d="m1359.54028,387.20942h-7.51763v-4.95778h7.51763v4.95778Zm-67.6587,0h-7.51763v-4.95778h-7.51763v-14.87334h7.51763v14.87334h7.51763v4.95778Zm75.17633-4.95778h-7.51763v-14.87334h7.51763v14.87334Zm-30.07053,0h-30.07053v-4.95778h-7.51763v-9.91556h7.51763v4.95778h7.51763v4.95778h15.03527v-4.95778h7.51763v-4.95778h7.51763v9.91556h-7.51763v4.95778Zm15.03527-29.74667h-7.51763v-4.95778h7.51763v4.95778Zm-52.62343,0h-7.51763v-4.95778h-7.51763v-14.87334h7.51763v14.87334h7.51763v4.95778Zm60.14107-4.95778h-7.51763v-14.87334h-7.51763v-4.95778h7.51763v4.95778h7.51763v14.87334Zm-60.14107-14.87334h-7.51763v-4.95778h7.51763v4.95778Z"/>
  </g>
  <g id="reveal2_right">
    <path class="reveal_background" d="m1352.02264,316.80892h-14.04868v-3.96623c0-.54764-.4417-.99156-.98661-.99156h-30.07051c-.54491,0-.98661.44391-.98661.99156v3.96623h-14.04868c-.54491,0-.98661.44391-.98661.99156v9.91556c0,.54758.4417.99156.98661.99156h7.51764c.54491,0,.98661-.44397.98661-.99156v-3.96623h5.54443c-.0006,2.17637.00043,6.72674,0,8.92403,0,.54756.4417.99153.98661.99153h6.53103v3.96623c0,.54758.4417.99156.98661.99156h15.03528c.54491,0,.98661-.44397.98661-.99156v-3.96623h6.53097c.54491,0,.98661-.44397.98661-.99156-.00157-2.20254.00113-6.7421,0-8.92401h5.54443v3.96623c0,.54758.4417.99156.98661.99156h7.51764c.54491,0,.98661-.44397.98661-.99156v-9.91556c0-.54764-.4417-.99156-.98661-.99156Zm-23.53947,4.95778h-13.06207v-2.97467h13.06207v2.97467Z"/>
    <path class="reveal_background" d="m1305.93024,357.46273c0-.54764.4417-.99156.98661-.99156,8.39185,0,21.67866,0,30.07051,0,.54491,0,.98661.44391.98661.99156v14.87334c0,.54758-.4417.99156-.98661.99156h-6.53097v3.96623c0,.54758-.4417.99156-.98661.99156h-15.03528c-.54491,0-.98661-.44397-.98661-.99156v-3.96623h-6.53103c-.54491,0-.98661-.44397-.98661-.99156v-14.87334Z"/>
    <path class="reveal_background" d="m1382.09315,346.55561h-6.53097v-3.96623c0-.54764-.4417-.99156-.98661-.99156h-6.53103v-3.96623c0-.54764-.4417-.99156-.98661-.99156h-6.53103v-2.97467h6.53103c.54491,0,.98661-.44397.98661-.99156v-9.91556c0-.54764-.4417-.99156-.98661-.99156h-7.51764c-.54491,0-.98661.44391-.98661.99156v8.92401h-6.53103c-.54491,0-.98661.44391-.98661.99156v18.83957h-5.54443v-8.92401c0-.54764-.4417-.99156-.98661-.99156h-15.03522c-.54491,0-.98661.44391-.98661.99156v4.95778c0,.54758.4417.99156.98661.99156h6.53097v3.96623c0,.54758.4417.99156.98661.99156h6.53103v8.92401c0,.54758.4417.99156.98661.99156h7.51764c.54491,0,.98661-.44397.98661-.99156v-8.92401h5.54443v17.84801h-5.54443v-3.96623c0-.54764-.4417-.99156-.98661-.99156h-7.51764c-.54491,0-.98661.44391-.98661.99156v4.95778c0,.54758.4417.99156.98661.99156h6.53103v2.97467h-6.53103c-.54491,0-.98661.44391-.98661.99156v3.96623h-43.13258v-3.96623c0-.54764-.4417-.99156-.98661-.99156h-6.53103v-2.97467h6.53103c.54491,0,.98661-.44397.98661-.99156v-4.95778c0-.54764-.4417-.99156-.98661-.99156h-7.51764c-.54491,0-.98661.44391-.98661.99156v3.96623h-5.54443v-17.84801h5.54443v8.92401c0,.54758.4417.99156.98661.99156h7.51764c.54491,0,.98661-.44397.98661-.99156v-8.92401h6.53103c.54491,0,.98661-.44397.98661-.99156v-3.96623h6.53103c.54491,0,.98661-.44397.98661-.99156v-4.95778c0-.54764-.4417-.99156-.98661-.99156h-15.03528c-.54491,0-.98661.44391-.98661.99156v8.92401h-5.54443v-18.83957c0-.54764-.4417-.99156-.98661-.99156h-6.53103v-8.92401c0-.54764-.4417-.99156-.98661-.99156h-7.51758c-.54491,0-.98661.44391-.98661.99156v9.91556c0,.54758.4417.99156.98661.99156h6.53097v2.97467h-6.53097c-.54491,0-.98661.44391-.98661.99156v3.96623h-6.53103c-.54491,0-.98661.44391-.98661.99156v3.96623h-6.53103c-.54491,0-.98661.44391-.98661.99156v9.91556c0,.54758.4417.99156.98661.99156h6.53103v3.96623c0,.54758.4417.99156.98661.99156h6.53103v2.97467h-6.53103c-.54491,0-.98661.44391-.98661.99156v4.95778c0,.54758.4417.99156.98661.99156h6.53103v3.96623c0,.54758.4417.99156.98661.99156h6.53097v8.92401c0,.54758.4417.99156.98661.99156h6.53103v3.96623c0,.54758.4417.99156.98661.99156h7.51764c.54491,0,.98661-.44397.98661-.99156v-3.96623h5.54443v3.96623c0,.54758.4417.99156.98661.99156h7.51764c.54491,0,.98661-.44397.98661-.99156v-3.96623h13.06207v3.96623c0,.54758.4417.99156.98661.99156h7.51758c.54491,0,.98661-.44397.98661-.99156v-3.96623h5.54443v3.96623c0,.54758.4417.99156.98661.99156h7.51764c.54491,0,.98661-.44397.98661-.99156v-3.96623h6.53103c.54491,0,.98661-.44397.98661-.99156v-8.92401h6.53103c.54491,0,.98661-.44397.98661-.99156v-3.96623h6.53103c.54491,0,.98661-.44397.98661-.99156v-4.95778c0-.54764-.4417-.99156-.98661-.99156h-6.53103v-2.97467h6.53103c.54491,0,.98661-.44397.98661-.99156v-3.96623h6.53097c.54491,0,.98661-.44397.98661-.99156v-9.91556c0-.54764-.4417-.99156-.98661-.99156Zm-98.71584,4.95778h-13.06201v-2.97467h13.06201v2.97467Zm15.03528,34.70447h-5.54443v-2.97467h5.54443v2.97467Zm52.62344,0h-5.54443v-2.97467h5.54443v2.97467Zm22.55293-34.70447h-13.06207v-2.97467h13.06207v2.97467Z"/>
    <path class="reveal_white" d="m1352.02264,392.1672h-7.51763v-4.95778h-7.51763v4.95778h-7.51763v-4.95778h-15.03527v4.95778h-7.51763v-4.95778h-7.51763v-4.95778h-7.51763v4.95778h7.51763v4.95778h-7.51763v-4.95778h-7.51763v-9.91556h-7.51763v-4.95778h-7.51763v-4.95778h7.51763v-14.87334h7.51763v19.83112h7.51763v4.95778h7.51763v4.95778h45.1058v4.95778h7.51763v4.95778Zm7.51763-4.95778h-7.51763v-4.95778h-7.51763v-4.95778h7.51763v-4.95778h-7.51763v-4.95778h7.51763v4.95778h7.51763v-19.83112h-7.51763v-19.83112h7.51763v4.95778h7.51763v4.95778h7.51763v4.95778h7.51763v9.91556h-7.51763v-9.91556h-15.03527v4.95778h7.51763v14.87334h7.51763v4.95778h-7.51763v4.95778h-7.51763v9.91556Zm-30.07053-9.91556h-15.03527v-4.95778h-7.51763v-9.91556h7.51763v-4.95778h15.03527v4.95778h7.51763v9.91556h-7.51763v4.95778Zm-30.07053-4.95778h-7.51763v-4.95778h7.51763v4.95778Zm52.62343-9.91556h-7.51763v-9.91556h-7.51763v-4.95778h-7.51763v-4.95778h15.03527v9.91556h7.51763v9.91556Zm-52.62343,0h-7.51763v-9.91556h-7.51763v-4.95778h-15.03527v-4.95778h7.51763v-4.95778h7.51763v-4.95778h-7.51763v-9.91556h7.51763v9.91556h7.51763v19.83112h7.51763v9.91556Zm-30.07053-4.95778h-7.51763v-9.91556h7.51763v9.91556Zm37.58817-4.95778h-7.51763v-9.91556h15.03527v4.95778h-7.51763v4.95778Zm22.5529-14.87334h-15.03527v-4.95778h-7.51763v-4.95778h7.51763v-4.95778h-15.03527v4.95778h-7.51763v-9.91556h15.03527v-4.95778h30.07053v4.95778h15.03527v9.91556h-7.51763v-4.95778h-15.03527v-4.95778h-15.03527v4.95778h15.03527v4.95778h7.51763v4.95778h-7.51763v4.95778Zm37.58817-4.95778h-7.51763v-9.91556h7.51763v9.91556Z"/>
    <path class="reveal_blue" d="m1374.57554,362.42052h-7.51763v-9.91556h7.51763v9.91556Zm-37.58817,0h-7.51763v-4.95778h7.51763v4.95778Zm-22.5529,0h-7.51763v-4.95778h7.51763v4.95778Zm-37.58817,0h-7.51763v-9.91556h7.51763v9.91556Zm60.14107-34.70445h-7.51763v-4.95778h7.51763v4.95778Zm-22.5529,0h-7.51763v-4.95778h7.51763v4.95778Z"/>
  </g>
  <g id="reveal3_right">
    <path class="reveal_background" d="m1336.98735,311.85117h-7.51758c-.54491,0-.98661.44394-.98661.99156v4.95778c0,.54764.4417.99156.98661.99156h7.51758c.54491,0,.98661-.44391.98661-.99156v-4.95778c0-.54761-.4417-.99156-.98661-.99156h0Zm-22.55287,0h-7.51764c-.54491,0-.98661.44394-.98661.99156v4.95778c0,.54764.4417.99156.98661.99156h7.51764c.54491,0,.98661-.44391.98661-.99156v-4.95778c0-.54761-.4417-.99156-.98661-.99156h0Zm37.58815,9.91556h-7.51764c-.54491,0-.98661.44394-.98661.99156v4.95778c0,.54764.4417.99156.98661.99156h7.51764c.54491,0,.98661-.44391.98661-.99156v-4.95778c0-.54761-.4417-.99156-.98661-.99156h0Zm-52.62344,0h-7.51764c-.54491,0-.98661.44394-.98661.99156v4.95778c0,.54764.4417.99156.98661.99156h7.51764c.54491,0,.98661-.44391.98661-.99156v-4.95778c0-.54761-.4417-.99156-.98661-.99156h0Zm67.65872,4.95778h-7.51764c-.54491,0-.98661.44394-.98661.99156v4.95778c0,.54764.4417.99156.98661.99156h7.51764c.54491,0,.98661-.44391.98661-.99156v-4.95778c0-.54761-.4417-.99156-.98661-.99156h0Zm-82.69401,0h-7.51758c-.54491,0-.98661.44394-.98661.99156v4.95778c0,.54764.4417.99156.98661.99156h7.51758c.54491,0,.98661-.44391.98661-.99156v-4.95778c0-.54761-.4417-.99156-.98661-.99156h0Zm52.62344,4.95778h-30.07051c-.54491,0-.98661.44394-.98661.99156v4.95778c0,.54764.4417.99156.98661.99156h30.07051c.54491,0,.98661-.44391.98661-.99156v-4.95778c0-.54761-.4417-.99156-.98661-.99156h0Zm22.55293,4.95778h-7.51764c-.54491,0-.98661.44394-.98661.99156v4.95778c0,.54764.4417.99156.98661.99156h6.53103v3.96623c0,.54764.4417.99156.98661.99156h7.51764c.54491,0,.98661-.44391.98661-.99156v-4.95778c0-.54761-.4417-.99156-.98661-.99156h-6.53103v-3.96623c0-.54761-.4417-.99156-.98661-.99156h0Zm-67.65872,0h-7.51764c-.54491,0-.98661.44394-.98661.99156v3.96623h-6.53097c-.54491,0-.98661.44394-.98661.99156v4.95778c0,.54764.4417.99156.98661.99156h7.51758c.54491,0,.98661-.44391.98661-.99156v-3.96623h6.53103c.54491,0,.98661-.44391.98661-.99156v-4.95778c0-.54761-.4417-.99156-.98661-.99156h0Zm60.14108,9.91556h-7.51764c-.54491,0-.98661.44394-.98661.99156v4.95778c0,.54764.4417.99156.98661.99156h7.51764c.54491,0,.98661-.44391.98661-.99156v-4.95778c0-.54761-.4417-.99156-.98661-.99156h0Zm-15.03528,0h-7.51758c-.54491,0-.98661.44394-.98661.99156v4.95778c0,.54764.4417.99156.98661.99156h7.51758c.54491,0,.98661-.44391.98661-.99156v-4.95778c0-.54761-.4417-.99156-.98661-.99156h0Zm-22.55287,0h-7.51764c-.54491,0-.98661.44394-.98661.99156v4.95778c0,.54764.4417.99156.98661.99156h7.51764c.54491,0,.98661-.44391.98661-.99156v-4.95778c0-.54761-.4417-.99156-.98661-.99156h0Zm-15.03528,0h-7.51764c-.54491,0-.98661.44394-.98661.99156v4.95778c0,.54764.4417.99156.98661.99156h7.51764c.54491,0,.98661-.44391.98661-.99156v-4.95778c0-.54761-.4417-.99156-.98661-.99156h0Zm82.69394,4.95778h-7.51758c-.54491,0-.98661.44394-.98661.99156v4.95778c0,.54764.4417.99156.98661.99156h7.51758c.54491,0,.98661-.44391.98661-.99156v-4.95778c0-.54761-.4417-.99156-.98661-.99156h0Zm-112.76445,0h-7.51764c-.54491,0-.98661.44394-.98661.99156v4.95778c0,.54764.4417.99156.98661.99156h7.51764c.54491,0,.98661-.44391.98661-.99156v-4.95778c0-.54761-.4417-.99156-.98661-.99156h0Zm82.69394,4.95778h-7.51764c-.54491,0-.98661.44394-.98661.99156v4.95778c0,.54764.4417.99156.98661.99156h7.51764c.54491,0,.98661-.44391.98661-.99156v-4.95778c0-.54761-.4417-.99156-.98661-.99156h0Zm-22.55287,0h-15.03528c-.54491,0-.98661.44394-.98661.99156v4.95778c0,.54764.4417.99156.98661.99156h15.03528c.54491,0,.98661-.44391.98661-.99156v-4.95778c0-.54761-.4417-.99156-.98661-.99156h0Zm-30.07057,0h-7.51764c-.54491,0-.98661.44394-.98661.99156v4.95778c0,.54764.4417.99156.98661.99156h7.51764c.54491,0,.98661-.44391.98661-.99156v-4.95778c0-.54761-.4417-.99156-.98661-.99156h0Zm67.65872,4.95778h-7.51764c-.54491,0-.98661.44394-.98661.99156v4.95775c0,.54761.4417.99156.98661.99156h7.51764c.54491,0,.98661-.44394.98661-.99156v-4.95775c0-.54761-.4417-.99156-.98661-.99156h0Zm-82.69401,0h-7.51758c-.54491,0-.98661.44394-.98661.99156v4.95775c0,.54761.4417.99156.98661.99156h7.51758c.54491,0,.98661-.44394.98661-.99156v-4.95775c0-.54761-.4417-.99156-.98661-.99156h0Zm45.10585,4.95775h-15.03528c-.54491,0-.98661.44394-.98661.99156v4.95778c0,.54761.4417.99156.98661.99156h15.03528c.54491,0,.98661-.44394.98661-.99156v-4.95778c0-.54761-.4417-.99156-.98661-.99156h0Zm37.58815,4.95778h-7.51764c-.54491,0-.98661.44394-.98661.99156v4.95778c0,.54761.4417.99156.98661.99156h7.51764c.54491,0,.98661-.44394.98661-.99156v-4.95778c0-.54761-.4417-.99156-.98661-.99156h0Zm-82.69401,0h-7.51758c-.54491,0-.98661.44394-.98661.99156v4.95778c0,.54761.4417.99156.98661.99156h7.51758c.54491,0,.98661-.44394.98661-.99156v-4.95778c0-.54761-.4417-.99156-.98661-.99156h0Zm60.14108,4.95778h-7.51764c-.54491,0-.98661.44394-.98661.99156v4.95778c0,.54761.4417.99156.98661.99156h7.51764c.54491,0,.98661-.44394.98661-.99156v-4.95778c0-.54761-.4417-.99156-.98661-.99156h0Zm-37.58815,0h-7.51764c-.54491,0-.98661.44394-.98661.99156v4.95778c0,.54761.4417.99156.98661.99156h7.51764c.54491,0,.98661-.44394.98661-.99156v-4.95778c0-.54761-.4417-.99156-.98661-.99156h0Zm22.55293,4.95778h-15.03528c-.54491,0-.98661.44394-.98661.99156v3.96623h-14.04868c-.54491,0-.98661.44394-.98661.99156v4.95778c0,.54761.4417.99156.98661.99156h15.03528c.54491,0,.98661-.44394.98661-.99156v-3.96623h13.06207v3.96623c0,.54761.4417.99156.98661.99156h15.03522c.54491,0,.98661-.44394.98661-.99156v-4.95778c0-.54761-.4417-.99156-.98661-.99156h-14.04862v-3.96623c0-.54761-.4417-.99156-.98661-.99156h0Z"/>
    <path class="reveal_white" d="m1344.50501,392.1672h-15.03527v-4.95778h-15.03527v-4.95778h15.03527v4.95778h15.03527v4.95778Zm-30.07053,0h-15.03527v-4.95778h15.03527v4.95778Zm30.07053-9.91556h-7.51763v-4.95778h7.51763v4.95778Zm-37.58817,0h-7.51763v-4.95778h7.51763v4.95778Zm60.14107-4.95778h-7.51763v-4.95778h7.51763v4.95778Zm-82.69397,0h-7.51763v-4.95778h7.51763v4.95778Zm45.1058-4.95778h-15.03527v-4.95778h15.03527v4.95778Zm37.58817-4.95778h-7.51763v-4.95778h7.51763v4.95778Zm-82.69397,0h-7.51763v-4.95778h7.51763v4.95778Zm67.6587-4.95778h-7.51763v-4.95778h7.51763v4.95778Zm-22.5529,0h-15.03527v-4.95778h15.03527v4.95778Zm-30.07053,0h-7.51763v-4.95778h7.51763v4.95778Zm82.69397-4.95778h-7.51763v-4.95778h7.51763v4.95778Zm-112.7645,0h-7.51763v-4.95778h7.51763v4.95778Zm82.69397-4.95778h-7.51763v-4.95778h7.51763v4.95778Zm-15.03527,0h-7.51763v-4.95778h7.51763v4.95778Zm-22.5529,0h-7.51763v-4.95778h7.51763v4.95778Zm-15.03527,0h-7.51763v-4.95778h7.51763v4.95778Zm67.6587-4.95778h-7.51763v-4.95778h-7.51763v-4.95778h7.51763v4.95778h7.51763v4.95778Zm-82.69397,0h-7.51763v-4.95778h7.51763v4.95778Zm7.51763-4.95778h-7.51763v-4.95778h7.51763v4.95778Zm45.1058-4.95778h-30.07053v-4.95778h30.07053v4.95778Zm30.07053-4.95778h-7.51763v-4.95778h7.51763v4.95778Zm-82.69397,0h-7.51763v-4.95778h7.51763v4.95778Zm67.6587-4.95778h-7.51763v-4.95778h7.51763v4.95778Zm-52.62343,0h-7.51763v-4.95778h7.51763v4.95778Zm37.58817-9.91556h-7.51763v-4.95778h7.51763v4.95778Zm-22.5529,0h-7.51763v-4.95778h7.51763v4.95778Z"/>
  </g>
</svg>