<?xml version="1.0" encoding="UTF-8"?>
<svg id="a" data-name="Rock tile" xmlns="http://www.w3.org/2000/svg" width="1920" height="430" viewBox="0 0 1920 430">
  <defs>
    <style>
      .b {
        fill: #501700;
      }
    </style>
  </defs>
  <path class="b" d="m1586.44629,1v4.02484l6.96582.01129v34.14612h-5.9707v10.04675h-8.95703v11.05139l-6.96582.00195-.02637,13.05878h-8.94043v-14.06543h7.96191v-10.04669h-8.95703v-24.11218h8.95703v-10.04669h-8.95703V6.02808h-14.92773V1h39.81738Zm-150.27417,107.5047v-22.10284h-10.95654v16.07477h-4.96631v-10.04669h-8.95703v-10.04675h-14.92773v-5.02338h-15.93262v5.02338h-4.97607v16.07477h-9.95215v28.13086h8.95703v6.02802h5.97119v4.01868h-34.83203v9.04205h-8.95654v11.05145h8.96631v-6.02808h5.96143v5.02338h15.93262v-4.01868h14.92822v-6.02808h-6.96631v-4.01868h6.96631v-5.02338h7.96143v-10.04669h6.96631v-14.06543h7.95215v39.18225h15.93262v-5.02338h5.97119v-20.09344h8.95654v-11.05139h-9.95166v-4.01874h-20.89941v-3.01398h30.85107Zm120.41809,0v-22.10284h-10.95654v16.07477h-4.96631v-10.04669h-8.95703v-10.04675h-14.92773v-5.02338h-15.93262v5.02338h-4.97607v16.07477h-9.95215v28.13086h8.95703v6.02802h5.97119v4.01868h-34.83203v9.04205h-8.95654v11.05145h8.96631v-6.02808h5.96143v5.02338h15.93262v-4.01868h14.92822v-6.02808h-6.96631v-4.01868h6.96631v-5.02338h7.96143v-10.04669h6.96631v-14.06543h7.95215v39.18225h15.93262v-5.02338h5.97119v-20.09344h8.95654v-11.05139h-9.95166v-4.01874h-20.89941v-3.01398h30.85107ZM1500.84961,1v4.02338h-4.97559v16.07477h-9.95215v28.13086h8.95703v6.02802h5.9707v4.01868h-34.83105v9.04205h-8.95703v9.04205h-30.85059v6.02808h14.92773v9.04205h8.95703v10.04669h-8.95703v24.11218h8.95703v10.04669h-7.96191v14.06543h8.94043l.02539-13.05878,6.9668-.00195v-11.05139h8.95703v-10.04675h5.9707v-34.14612l-6.96582-.01129v-9.04352h5.96094v5.02338h15.93262v-4.01868h14.92773v-6.02808h-6.96582v-4.01868h6.96582v-5.02338h7.96191v-10.04669h6.9668v-14.06543h7.95117v39.18225h15.93262v-5.02338h5.97168v-20.09344h8.95703v-11.05145h-9.95215v-4.01868h-20.89941v-3.01398h30.85156V9.04205h-10.95703v16.07477h-4.9668v-10.04669h-8.95605V5.02338h-14.92773V1h-15.93359Zm176.15918,107.5047v-22.10284h-10.95703v16.07477h-4.96582v-10.04669h-8.95703v-10.04675h-14.92773v-5.02338h-15.93262v5.02338h-4.97656v16.07477h-9.95117v28.13086h8.95605v6.02802h5.97168v4.01868h-34.83203v9.04205h-8.95703v11.05145h8.9668v-6.02808h5.96191v5.02338h15.93262v-4.01868h14.92773v-6.02808h-6.9668v-4.01868h6.9668v-5.02338h7.96094v-10.04669h6.9668v-14.06543h7.95215v39.18225h15.93262v-5.02338h5.9707v-20.09344h8.95703v-11.05139h-9.95215v-4.01874h-20.89844v-3.01398h30.85059ZM1426.21094,1v5.02808h14.92773v9.04205h8.95703v10.04669h-8.95703v24.11218h8.95703v10.04669h-7.96191v14.06543h8.94043l.02539-13.05878,6.9668-.00195v-11.05139h8.95703v-10.04675h5.9707V5.03613l-6.96582-.01129V1h-39.81738Zm315.47559,0v4.02338h-4.97559v16.07477h-9.95215v28.13086h8.95703v6.02802h5.9707v4.01868h-34.83203v9.04205h-8.95605v9.04205h-30.85156v6.02808h14.92773v9.04205h8.95703v10.04669h-8.95703v24.11218h8.95703v10.04669h-7.96094v14.06543h8.93945l.02637-13.05878,6.9668-.00195v-11.05139h8.95605v-10.04675h5.97168v-34.14612l-6.9668-.01129v-9.04352h5.96191v5.02338h15.93262v-4.01868h14.92773v-6.02808h-6.96582v-4.01868h6.96582v-5.02338h7.96191v-10.04669h6.96582v-14.06543h7.95215v39.18225h15.93262v-5.02338h5.97168v-20.09344h8.95605v-11.05145h-9.95215v-4.01868h-20.89844v-3.01398h30.85059V9.04205h-10.95605v16.07477h-4.9668v-10.04669h-8.95703V5.02338h-14.92773V1h-15.93262Zm-120.41797,0v4.02338h-4.97656v16.07477h-9.95117v28.13086h8.95605v6.02802h5.97168v4.01868h-34.83203v9.04205h-8.95703v9.04205h-30.85059v6.02808h14.92773v9.04205h8.95703v10.04669h-8.95703v24.11218h8.95703v10.04669h-7.96191v14.06543h8.94043l.02637-13.05878,6.96582-.00195v-11.05139h8.95703v-10.04675h5.9707v-34.14612l-6.96582-.01129v-9.04352h5.96191v5.02338h15.93262v-4.01868h14.92773v-6.02808h-6.9668v-4.01868h6.9668v-5.02338h7.96094v-10.04669h6.9668v-14.06543h7.95215v39.18225h15.93262v-5.02338h5.9707v-20.09344h8.95703v-11.05145h-9.95215v-4.01868h-20.89844v-3.01398h30.85059V9.04205h-10.95703v16.07477h-4.96582v-10.04669h-8.95703V5.02338h-14.92773V1h-15.93262Zm45.77832,0v5.02808h14.92773v9.04205h8.95703v10.04669h-8.95703v24.11218h8.95703v10.04669h-7.96094v14.06543h8.93945l.02637-13.05878,6.9668-.00195v-11.05139h8.95605v-10.04675h5.97168V5.03613l-6.9668-.01129V1h-39.81738Zm-286.61523,0v4.02338h-4.97559v16.07477h-9.95215v28.13086h8.95703v6.02802h5.9707v4.01868h-34.83203v9.04205h-8.95605v9.04205h-30.85156v6.02808h14.92871v9.04205h8.95605v10.04669h-8.95605v24.11218h8.95605v10.04669h-7.96094v14.06543h8.93945l.02637-13.05878,6.9668-.00195v-11.05139h8.95605v-10.04675h5.97168v-34.14612l-6.9668-.01129v-9.04352h5.96191v5.02338h15.93262v-4.01868h14.92773v-6.02808h-6.96582v-4.01868h6.96582v-5.02338h7.96191v-10.04669h6.96582v-14.06543h7.95215v39.18225h15.93262v-5.02338h5.97168v-20.09344h8.95605v-11.05145h-9.95117v-4.01868h-20.89941v-3.01398h30.85059V9.04205h-10.95605v16.07477h-4.9668v-10.04669h-8.95703V5.02338h-14.92773V1h-15.93262Zm407.03418,0v5.02808h14.92773v9.04205h8.95605v10.04669h-8.95605v24.11218h8.95605v10.04669h-7.96094v14.06543h8.94043l.02539-13.05878,6.9668-.00195v-11.05139h8.95703v-10.04675h5.9707V5.03613l-6.96582-.01129V1h-39.81738Zm-602.0918,0v5.02808h14.92773v9.04205h8.95703v10.04669h-8.95703v24.11218h8.95703v10.04669h-7.96191v14.06543h8.94043l.02637-13.05878,6.96582-.00195v-11.05139h8.95703v-10.04675h5.97168V5.03613l-6.9668-.01129V1h-39.81738Zm9.96143,107.5047v-22.10284h-10.95654v16.07477h-4.96631v-10.04669h-8.95703v-10.04675h-14.92773v-5.02338h-15.93262v5.02338h-4.97607v16.07477h-9.95215v28.13086h8.95703v6.02802h5.97119v4.01868h-34.83203v9.04205h-8.95654v11.05145h8.96631v-6.02808h5.96143v5.02338h15.93262v-4.01868h14.92822v-6.02808h-6.96631v-4.01868h6.96631v-5.02338h7.96143v-10.04669h6.96631v-14.06543h7.95215v39.18225h15.93262v-5.02338h5.97119v-20.09344h8.95654v-11.05139h-9.95166v-4.01874h-20.89941v-3.01398h30.85107Zm-120.41797,0v-22.10284h-10.95654v16.07477h-4.96631v-10.04669h-8.95703v-10.04675h-14.92773v-5.02338h-15.93268v5.02338h-4.97607v16.07477h-9.95215v28.13086h8.95703v6.02802h5.97119v4.01868h-34.83203v9.04205h-8.95654v11.05145h8.96631v-6.02808h5.96143v5.02338h15.93262v-4.01868h14.92822v-6.02808h-6.96631v-4.01868h6.96631v-5.02338h7.96149v-10.04669h6.96631v-14.06543h7.95215v39.18225h15.93262v-5.02338h5.97119v-20.09344h8.95654v-11.05139h-9.95166v-4.01874h-20.89941v-3.01398h30.85107ZM1139.5957,1v4.02338h-4.97656v16.07477h-9.95215v28.13086h8.95703v6.02802h5.97168v4.01868h-34.83203v9.04205h-8.95703v9.04205h-30.85059v6.02808h14.92773v9.04205h8.95703v10.04669h-8.95703v24.11218h8.95703v10.04669h-7.96191v14.06543h8.94043l.02637-13.05878,6.96582-.00195v-11.05139h8.95703v-10.04675h5.9707v-34.14612l-6.96582-.01129v-9.04352h5.96094v5.02338h15.93262v-4.01868h14.92871v-6.02808h-6.9668v-4.01868h6.9668v-5.02338h7.96094v-10.04669h6.9668v-14.06543h7.95117v39.18225h15.93359v-5.02338h5.9707v-20.09344h8.95703v-11.05145h-9.95215v-4.01868h-20.89941v-3.01398h30.85156V9.04205h-10.95703v16.07477h-4.9668v-10.04669h-8.95605V5.02338h-14.92773V1h-15.93262Zm120.41797,0v4.02338h-4.97656v16.07477h-9.95117v28.13086h8.95605v6.02802h5.97168v4.01868h-34.83203v9.04205h-8.95703v9.04205h-30.85059v6.02808h14.92773v9.04205h8.95703v10.04669h-8.95703v24.11218h8.95703v10.04669h-7.96191v14.06543h8.94043l.02637-13.05878,6.96582-.00195v-11.05139h8.95703v-10.04675h5.97168v-34.14612l-6.9668-.01129v-9.04352h5.96191v5.02338h15.93262v-4.01868h14.92773v-6.02808h-6.9668v-4.01868h6.9668v-5.02338h7.96094v-10.04669h6.9668v-14.06543h7.95215v39.18225h15.93262v-5.02338h5.9707v-20.09344h8.95703v-11.05145h-9.95215v-4.01868h-20.89844v-3.01398h30.85059V9.04205h-10.95703v16.07477h-4.96582v-10.04669h-8.95703V5.02338h-14.92773V1h-15.93262Zm55.73999,107.5047v-22.10284h-10.95654v16.07477h-4.96631v-10.04669h-8.95703v-10.04675h-14.92773v-5.02338h-15.93262v5.02338h-4.97607v16.07477h-9.95215v28.13086h8.95703v6.02802h5.97119v4.01868h-34.83203v9.04205h-8.95654v11.05145h8.96631v-6.02808h5.96143v5.02338h15.93262v-4.01868h14.92822v-6.02808h-6.96631v-4.01868h6.96631v-5.02338h7.96143v-10.04669h6.96631v-14.06543h7.95215v39.18225h15.93262v-5.02338h5.97119v-20.09344h8.95654v-11.05139h-9.95166v-4.01874h-20.89941v-3.01398h30.85107Zm-9.96167-107.5047v5.02808h14.92871v9.04205h8.95605v10.04669h-8.95605v24.11218h8.95605v10.04669h-7.96094v14.06543h8.93945l.02637-13.05878,6.9668-.00195v-11.05139h8.95605v-10.04675h5.97168V5.03613l-6.9668-.01129V1h-39.81738Zm612.05371,262.2243v-22.10278h-10.95703v16.07477h-4.9668v-10.04675h-8.95605v-10.04669h-14.92871v-5.02338h-15.93262v5.02338h-4.97559v16.07471h-9.95215v28.13086h8.95703v6.02808h5.9707v4.01868h-34.83105v9.04205h-8.95703v9.04205h-30.85059v6.02802h14.92773v9.04205h8.95605v10.04675h-8.95605v24.11212h8.95605v10.04675h-7.96094v14.06543h8.94043l.02539-13.05878,6.9668-.00195v-11.05145h8.95703v-10.04669h5.9707v-34.14709l-6.96582-.00983v-9.04401h5.96094v5.02332h15.93262v-4.01868h14.92773v-6.02802h-6.96582v-4.01868h6.96582v-5.02338h7.96191v-10.04675h6.9668v-14.06543h7.95117v39.18225h15.93262v-5.02338h5.97168v-20.09344h8.95703v-11.05139h-9.95215v-4.01868h-20.89941v-3.01404h30.85156ZM22.00397,425.98132h5.97119v-34.14709l-6.96631-.00983v-9.04401h5.96143v5.02338h15.93262v-4.01874h14.92822v-6.02802h-6.9668v-4.01868h6.9668v-5.02338h7.96143v-10.04675h6.96631v-14.06537h7.95166v39.18219h15.93311v-5.02332h5.9707v-20.09351h8.95703v-11.05139h-9.95215v-4.01868h-20.89893v-3.01404h30.85107v-22.10278h-10.95703v16.07477h-4.96631v-10.04675h-8.95654v-10.04669h-14.92773v-5.02338h-15.93262v5.02338h-4.97607v16.07477h-9.95215v28.1308h8.95703v6.02808h5.97119v4.01868H20.99908v9.04205h-8.95654v9.04205H1v15.07007h4.07623v10.04675H1v17.08411h21.00397v-3.01868ZM1,368.71497v14.06543h5.05475l.02637-13.05878,6.96631-.00195v-11.05145h8.95654v-10.04669h5.97119v-34.14709l-6.96631-.00983v-9.04401h5.96143v5.02332h15.93262v-4.01868h14.92822v-6.02802h-6.9668v-4.01868h6.9668v-5.02338h7.96143v-10.04675h6.96631v-14.06543h7.95166v39.18225h15.93311v-5.02338h5.9707v-20.09344h8.95703v-11.05139h-9.95215v-4.01868h-20.89893v-3.01404h30.85107v-22.10278h-10.95703v16.07477h-4.96631v-10.04675h-8.95654v-10.04669h-14.92773v-5.02338h-15.93262v5.02338h-4.97607v16.07471h-9.95215v28.13086h8.95703v6.02808h5.97119v4.01868H20.99908v9.04205h-8.95654v9.04205H1v15.07007h4.07623v10.04675H1v24.11212h4.07623v10.04675H1Zm0-77.3598v14.06543h5.05475l.02637-13.05878,6.96631-.00201v-11.05139h8.95654v-10.04669h5.97119v-34.14716l-6.96631-.00977v-9.04407h5.96143v5.02338h15.93262v-4.01868h14.92822v-6.02802h-6.9668v-4.01874h6.9668v-5.02332h7.96143v-10.04675h6.96631v-14.06543h7.95166v39.18225h15.93311v-5.02338h5.9707v-20.09344h8.95703v-11.05139h-9.95215v-4.01868h-20.89893v-3.01404h30.85107v-22.10278h-10.95703v16.07477h-4.96631v-10.04675h-8.95654v-10.04675h-14.92773v-5.02332h-15.93262v5.02332h-4.97607v16.07477h-9.95215v28.13086h8.95703v6.02802h5.97119v4.01874H20.99908v9.04205h-8.95654v9.04205H1v15.07007h4.07623v10.04675H1v24.11212h4.07623v10.04675H1Zm1796.42676,137.64484v-4.02338h-9.95215v-4.01868h-20.89844v-3.01404h30.85059v-22.10278h-10.95605v16.07477h-4.9668v-10.04675h-8.95703v-10.04669h-14.92773v-5.02338h-15.93262v5.02338h-4.97559v16.07477h-9.95215v21.10278h31.85547v-7.03735h7.95215v7.03735h30.86035ZM1907.88379,6.02808h11.11621V1h-11.11621v5.02808Zm-.99512,405.88782h-4.9668v-10.04675h-8.95605v-10.04669h-14.92871v-5.02338h-15.93262v5.02338h-4.97559v16.07477h-9.95215v21.10278h31.85645v-7.03735h7.95117v7.03735h30.86133v-4.02338h-9.95215v-4.01868h-20.89941v-3.01404h30.85156v-22.10278h-10.95703v16.07477Zm-124.38965-105.49066v-5.02338h5.97168v-20.09344h8.95605v-11.05139h-9.95215v-4.01868h-20.89844v-3.01404h30.85059v-22.10278h-10.95605v16.07477h-4.9668v-10.04675h-8.95703v-10.04669h-14.92773v-5.02338h-15.93262v5.02338h-4.97559v16.07471h-9.95215v28.13086h8.95703v6.02808h5.9707v4.01868h-34.83203v9.04205h-8.95605v9.04205h-15.92383v15.07007h8.95703v10.04675h-8.95703v24.11212h8.95703v10.04675h-7.96094v14.06543h8.93945l.02637-13.05878,6.9668-.00195v-11.05145h8.95605v-10.04669h5.97168v-34.14709l-6.9668-.00983v-9.04401h5.96191v5.02332h15.93262v-4.01868h14.92773v-6.02802h-6.96582v-4.01868h6.96582v-5.02338h7.96191v-10.04675h6.96582v-14.06543h7.95215v39.18225h15.93262ZM1064.95605,1v5.02808h14.92773v9.04205h8.95703v10.04669h-8.95703v24.11218h8.95703v10.04669h-7.96191v14.06543h8.94043l.02637-13.05878,6.96582-.00195v-11.05139h8.95703v-10.04675h5.9707V5.03613l-6.96582-.01129V1h-39.81738Zm617.01855,256.19629v24.11212h8.95703v10.04675h-7.96094v14.06543h8.93945l.02637-13.05878,6.9668-.00201v-11.05139h8.95605v-10.04669h5.97168v-34.14716l-6.9668-.00977v-9.04407h5.96191v5.02338h15.93262v-4.01868h14.92773v-6.02802h-6.96582v-4.01874h6.96582v-5.02332h7.96191v-10.04675h6.96582v-14.06543h7.95215v39.18225h15.93262v-5.02338h5.97168v-20.09344h8.95605v-11.05139h-9.95215v-4.01868h-20.89844v-3.01404h30.85059v-22.10278h-10.95605v16.07477h-4.9668v-10.04675h-8.95703v-10.04675h-14.92773v-5.02332h-15.93262v5.02332h-4.97559v16.07477h-9.95215v28.13086h8.95703v6.02802h5.9707v4.01874h-34.83203v9.04205h-8.95605v9.04205h-15.92383v15.07007h8.95703v10.04675h-8.95703Zm235.87109-71.33179v-22.10278h-10.95703v16.07477h-4.9668v-10.04675h-8.95605v-10.04675h-14.92871v-5.02332h-15.93262v5.02332h-4.97559v16.07477h-9.95215v28.13086h8.95703v6.02802h5.9707v4.01874h-34.83105v9.04205h-8.95703v9.04205h-30.85059v6.02802h14.92773v9.04205h8.95605v10.04675h-8.95605v24.11212h8.95605v10.04675h-7.96094v14.06543h8.94043l.02539-13.05878,6.9668-.00201v-11.05139h8.95703v-10.04669h5.9707v-34.14716l-6.96582-.00977v-9.04407h5.96094v5.02338h15.93262v-4.01868h14.92773v-6.02802h-6.96582v-4.01874h6.96582v-5.02332h7.96191v-10.04675h6.9668v-14.06543h7.95117v39.18225h15.93262v-5.02338h5.97168v-20.09344h8.95703v-11.05139h-9.95215v-4.01868h-20.89941v-3.01404h30.85156ZM1,59.2757v14.06543h5.05475l.02637-13.05878,6.96631-.00195v-11.05139h8.95654v-10.04675h5.97119V5.03613l-6.96631-.01129V1H1v14.07013h4.07623v10.04669H1v24.11218h4.07623v10.04669H1Zm1916.8457,49.229v-22.10284h-10.95703v16.07477h-4.9668v-10.04669h-8.95605v-10.04675h-14.92871v-5.02338h-15.93262v5.02338h-4.97559v16.07477h-9.95215v28.13086h8.95703v6.02802h5.9707v4.01868h-34.83105v9.04205h-8.95703v9.04211h-30.85059v6.02802h14.92773v9.04205h8.95605v10.04675h-8.95605v24.11212h8.95605v10.04675h-7.96094v14.06537h8.94043l.02539-13.05878,6.9668-.00195v-11.05139h8.95703v-10.04675h5.9707v-34.14612l-6.96582-.01129v-9.04352h5.96094v5.02338h15.93262v-4.01868h14.92773v-6.02808h-6.96582v-4.01868h6.96582v-5.02338h7.96191v-10.04669h6.9668v-14.06543h7.95117v39.18225h15.93262v-5.02338h5.97168v-20.09344h8.95703v-11.05139h-9.95215v-4.01874h-20.89941v-3.01398h30.85156ZM1862.10449,1v4.02338h-4.97559v16.07477h-9.95215v28.13086h8.95703v6.02802h5.9707v4.01868h-34.83105v9.04205h-8.95703v9.04205h-30.85059v6.02808h14.92773v9.04205h8.95605v10.04669h-8.95605v24.11218h8.95605v10.04669h-7.96094v14.06543h8.94043l.02539-13.05878,6.9668-.00195v-11.05139h8.95703v-10.04675h5.9707v-34.14612l-6.96582-.01129v-9.04352h5.96094v5.02338h15.93262v-4.01868h14.92773v-6.02808h-6.96582v-4.01868h6.96582v-5.02338h7.96191v-10.04669h6.9668v-14.06543h7.95117v39.18225h15.93262v-5.02338h5.97168v-20.09344h8.95703v-11.05145h-9.95215v-4.01868h-20.89941v-3.01398h30.85156V9.04205h-10.95703v16.07477h-4.9668v-10.04669h-8.95605V5.02338h-14.92871V1h-15.93262ZM231.98926,429v-4.02338h-9.95166v-4.01868h-20.89893v-3.01404h30.85059v-22.10278h-10.95654v16.07477h-4.96631v-10.04675h-8.95654v-10.04669h-14.92822v-5.02338h-15.93262v5.02338h-4.97607v16.07477h-9.95166v21.10278h31.85547v-7.03735h7.95215v7.03735h30.86035ZM222.02789,1v5.02808h14.92822v9.04205h8.95654v10.04669h-8.95654v24.11218h8.95654v10.04669h-7.96143v14.06543h8.93994l.02637-13.05878,6.96631-.00195v-11.05139h8.95654v-10.04675h5.97119V5.03613l-6.96631-.01129V1h-39.81738Zm16.92822,153.71967h-16.92822v6.02802h16.92822v-6.02802Zm-21.89453,151.70557v-5.02338h5.97119v-20.09344h8.95654v-11.05139h-9.95166v-4.01868h-20.89893v-3.01404h30.85059v-22.10278h-10.95654v16.07477h-4.96631v-10.04675h-8.95654v-10.04669h-14.92822v-5.02338h-15.93262v5.02338h-4.97607v16.07471h-9.95166v28.13086h8.95654v6.02808h5.97119v4.01868h-34.83154v9.04205h-8.95703v9.04205h-30.85059v6.02802h14.92773v9.04205h8.95654v10.04675h-8.95654v24.11212h8.95654v10.04675h-7.96143v14.06543h8.94043l.02588-13.05878,6.96631-.00195v-11.05145h8.95703v-10.04669h5.97119v-34.14709l-6.9668-.00983v-9.04401h5.96191v5.02332h15.93262v-4.01868h14.92773v-6.02802h-6.96631v-4.01868h6.96631v-5.02338h7.96143v-10.04675h6.96631v-14.06543h7.95215v39.18225h15.93262ZM101.60992,1v5.02808h14.92773v9.04205h8.95654v10.04669h-8.95654v24.11218h8.95654v10.04669h-7.96143v14.06543h8.94043l.02588-13.05878,6.96631-.00195v-11.05139h8.95703v-10.04675h5.97119V5.03613l-6.9668-.01129V1h-39.81689Zm14.92773,256.19629v24.11212h8.95654v10.04675h-7.96143v14.06543h8.94043l.02588-13.05878,6.96631-.00201v-11.05139h8.95703v-10.04669h5.97119v-34.14716l-6.9668-.00977v-9.04407h5.96191v5.02338h15.93262v-4.01868h14.92773v-6.02802h-6.96631v-4.01874h6.96631v-5.02332h7.96143v-10.04675h6.96631v-14.06543h7.95215v39.18225h15.93262v-5.02338h5.97119v-20.09344h8.95654v-11.05139h-9.95166v-4.01868h-20.89893v-3.01404h30.85059v-22.10278h-10.95654v16.07477h-4.96631v-10.04675h-8.95654v-10.04675h-14.92822v-5.02332h-15.93262v5.02332h-4.97607v16.07477h-9.95166v28.13086h8.95654v6.02802h5.97119v4.01874h-34.83154v9.04205h-8.95703v9.04205h-30.85059v6.02802h14.92773v9.04205h8.95654v10.04675h-8.95654Zm0-77.35986v24.11212h8.95654v10.04675h-7.96143v14.06543h8.94043l.02588-13.05878,6.96631-.00201v-11.05139h8.95703v-10.04669h5.97119v-34.14716l-6.9668-.00977v-9.04407h5.96191v5.02338h15.93262v-4.01868h14.92773v-6.02802h-6.96631v-4.01874h6.96631v-5.02332h7.96143v-10.04675h6.96631v-14.06543h7.95215v39.18225h15.93262v-5.02338h5.97119v-20.09344h8.95654v-11.05139h-9.95166v-4.01868h-20.89893v-3.01404h30.85059v-22.10278h-10.95654v16.07477h-4.96631v-10.04675h-8.95654v-10.04675h-14.92822v-5.02332h-15.93262v5.02332h-4.97607v16.07477h-9.95166v28.13086h8.95654v6.02802h5.97119v4.01874h-34.83154v9.04205h-8.95703v9.04205h-30.85059v6.02802h14.92773v9.04205h8.95654v10.04675h-8.95654Zm0,232.07947v17.08411h25.88477v-3.01868h5.97119v-34.14709l-6.9668-.00983v-9.04401h5.96191v5.02338h15.93262v-4.01874h14.92773v-6.02802h-6.96631v-4.01868h6.96631v-5.02338h7.96143v-10.04675h6.96631v-14.06537h7.95215v39.18219h15.93262v-5.02332h5.97119v-20.09351h8.95654v-11.05139h-9.95166v-4.01868h-20.89893v-3.01404h30.85059v-22.10278h-10.95654v16.07477h-4.96631v-10.04675h-8.95654v-10.04669h-14.92822v-5.02338h-15.93262v5.02338h-4.97607v16.07477h-9.95166v28.1308h8.95654v6.02808h5.97119v4.01868h-34.83154v9.04205h-8.95703v9.04205h-30.85059v6.02802h14.92773v9.04205h8.95654v10.04675h-8.95654Zm122.41846-179.83643h-16.92822v6.02802h16.92822v-6.02802Zm0,77.3598h-16.92822v6.02802h16.92822v-6.02802Zm1668.92767-77.3598v6.02802h11.11621v-6.02802h-11.11621Zm0-77.3598v6.02802h11.11621v-6.02802h-11.11621Zm0,154.7196v6.02802h11.11621v-6.02802h-11.11621Zm0-232.07947v6.02808h11.11621v-6.02808h-11.11621Zm-200.02441,348.62152h5.97168v-34.14709l-6.9668-.00983v-9.04401h5.96191v5.02338h15.93262v-4.01874h14.92773v-6.02802h-6.96582v-4.01868h6.96582v-5.02338h7.96191v-10.04675h6.96582v-14.06537h7.95215v39.18219h15.93262v-5.02332h5.97168v-20.09351h8.95605v-11.05139h-9.95215v-4.01868h-20.89844v-3.01404h30.85059v-22.10278h-10.95605v16.07477h-4.9668v-10.04675h-8.95703v-10.04669h-14.92773v-5.02338h-15.93262v5.02338h-4.97559v16.07477h-9.95215v28.1308h8.95703v6.02808h5.9707v4.01868h-34.83203v9.04205h-8.95605v9.04205h-15.92383v15.07007h8.95703v10.04675h-8.95703v17.08411h25.88477v-3.01868Zm-1485.83148-33.15424h16.92822v-6.02802h-16.92822v6.02802Zm1696.97211-6.02802h-11.11621v6.02802h11.11621v-6.02802ZM1019.17682,1v4.02338h-4.97559v16.07477h-9.95215v28.13086h8.95703v6.02802h5.9707v4.01868h-34.83105v9.04205h-8.95703v9.04205h-30.85107v6.02808h14.92822v9.04205h8.95605v10.04669h-8.95605v24.11218h8.95605v10.04669h-7.96094v14.06543h8.93945l.02637-13.05878,6.9668-.00195v-11.05139h8.95605v-10.04675h5.97168v-34.14612l-6.9668-.01129v-9.04352h5.96191v5.02338h15.93262v-4.01868h14.92773v-6.02808h-6.96582v-4.01868h6.96582v-5.02338h7.96185v-10.04669h6.96582v-14.06543h7.95215v39.18225h15.93262v-5.02338h5.97168v-20.09344h8.95605v-11.05145h-9.95117v-4.01868h-20.89941v-3.01398h30.85059V9.04205h-10.95605v16.07477h-4.9668v-10.04669h-8.95703V5.02338h-14.92773V1h-15.93256Zm783.21674,410.91589v17.08411h25.88477v-3.01868h5.9707v-34.14709l-6.96582-.00983v-9.04401h5.96094v5.02338h15.93262v-4.01874h14.92773v-6.02802h-6.96582v-4.01868h6.96582v-5.02338h7.96191v-10.04675h6.9668v-14.06537h7.95117v39.18219h15.93262v-5.02332h5.97168v-20.09351h8.95703v-11.05139h-9.95215v-4.01868h-20.89941v-3.01404h30.85156v-22.10278h-10.95703v16.07477h-4.9668v-10.04675h-8.95605v-10.04669h-14.92871v-5.02338h-15.93262v5.02338h-4.97559v16.07477h-9.95215v28.1308h8.95703v6.02808h5.9707v4.01868h-34.83105v9.04205h-8.95703v9.04205h-30.85059v6.02802h14.92773v9.04205h8.95605v10.04675h-8.95605ZM824.1192,1v5.02808h14.92822v9.04205h8.95654v10.04669h-8.95654v24.11218h8.95654v10.04669h-7.96143v14.06543h8.93945l.02686-13.05878,6.96631-.00195v-11.05139h8.95654v-10.04675h5.97119V5.03613l-6.96631-.01129V1h-39.81738Zm-45.77881,0v4.02338h-4.97607v16.07477h-9.95166v28.13086h8.95654v6.02802h5.97119v4.01868h-34.83154v9.04205h-8.95703v9.04205h-30.85059v6.02808h14.92773v9.04205h8.95654v10.04669h-8.95654v24.11218h8.95654v10.04669h-7.96143v14.06543h8.94043l.02588-13.05878,6.96631-.00195v-11.05139h8.95703v-10.04675h5.97119v-34.14612l-6.96631-.01129v-9.04352h5.96143v5.02338h15.93262v-4.01868h14.92773v-6.02808h-6.96631v-4.01868h6.96631v-5.02338h7.96143v-10.04669h6.9668v-14.06543h7.95166v39.18225h15.93262v-5.02338h5.97119v-20.09344h8.95703v-11.05145h-9.95215v-4.01868h-20.89893v-3.01398h30.85107V9.04205h-10.95703v16.07477h-4.96631v-10.04669h-8.95654V5.02338h-14.92822V1h-15.93262Zm-64.67798,107.5047v-22.10284h-10.95654v16.07477h-4.96631v-10.04669h-8.95703v-10.04675h-14.92773v-5.02338h-15.93262v5.02338h-4.97607v16.07477h-9.95215v28.13086h8.95703v6.02802h5.97119v4.01868h-34.83203v9.04205h-8.95654v11.05145h8.96631v-6.02808h5.96143v5.02338h15.93262v-4.01868h14.92822v-6.02808h-6.96631v-4.01868h6.96631v-5.02338h7.96143v-10.04669h6.96631v-14.06543h7.95215v39.18225h15.93262v-5.02338h5.97119v-20.09344h8.95654v-11.05139h-9.95166v-4.01874h-20.89941v-3.01398h30.85107ZM657.92242,1v4.02338h-4.97607v16.07477h-9.95215v28.13086h8.95703v6.02802h5.97119v4.01868h-34.83203v9.04205h-8.95654v9.04205h-30.85107v6.02808h14.92773v9.04205h8.95703v10.04669h-8.95703v24.11218h8.95703v10.04669h-7.96143v14.06543h8.93945l.02686-13.05878,6.96631-.00195v-11.05139h8.95654v-10.04675h5.97119v-34.14612l-6.96631-.01129v-9.04352h5.96143v5.02338h15.93262v-4.01868h14.92822v-6.02808h-6.96631v-4.01868h6.96631v-5.02338h7.96143v-10.04669h6.96631v-14.06543h7.95166v39.18225h15.93311v-5.02338h5.97119v-20.09344h8.95654v-11.05145h-9.95215v-4.01868h-20.89893v-3.01398h30.85107V9.04205h-10.95654v16.07477h-4.9668v-10.04669h-8.95654V5.02338h-14.92773V1h-15.93262Zm45.77881,0v5.02808h14.92773v9.04205h8.95654v10.04669h-8.95654v24.11218h8.95654v10.04669h-7.96143v14.06543h8.94043l.02588-13.05878,6.96631-.00195v-11.05139h8.95703v-10.04675h5.97119V5.03613l-6.96631-.01129V1h-39.81738Zm240.83643,0v5.02808h14.92822v9.04205h8.95605v10.04669h-8.95605v24.11218h8.95605v10.04669h-7.96094v14.06543h8.93945l.02637-13.05878,6.9668-.00195v-11.05139h8.95605v-10.04675h5.97168V5.03613l-6.9668-.01129V1h-39.81689Zm-110.45679,107.5047v-22.10284h-10.95654v16.07477h-4.96631v-10.04669h-8.95703v-10.04675h-14.92773v-5.02338h-15.93262v5.02338h-4.97607v16.07477h-9.95215v28.13086h8.95703v6.02802h5.97119v4.01868h-34.83203v9.04205h-8.95654v11.05145h8.96631v-6.02808h5.96143v5.02338h15.93262v-4.01868h14.92822v-6.02808h-6.96631v-4.01868h6.96631v-5.02338h7.96143v-10.04669h6.96631v-14.06543h7.95215v39.18225h15.93262v-5.02338h5.97119v-20.09344h8.95654v-11.05139h-9.95166v-4.01874h-20.89941v-3.01398h30.85107Zm120.41846,0v-22.10284h-10.95654v16.07477h-4.96631v-10.04669h-8.95703v-10.04675h-14.92773v-5.02338h-15.93262v5.02338h-4.97607v16.07477h-9.95215v28.13086h8.95703v6.02802h5.97119v4.01868h-34.83203v9.04205h-8.95654v11.05145h8.96631v-6.02808h5.96143v5.02338h15.93262v-4.01868h14.92822v-6.02808h-6.96631v-4.01868h6.96631v-5.02338h7.96143v-10.04669h6.96631v-14.06543h7.95215v39.18225h15.93262v-5.02338h5.97119v-20.09344h8.95654v-11.05139h-9.95166v-4.01874h-20.89941v-3.01398h30.85107ZM898.75885,1v4.02338h-4.97607v16.07477h-9.95166v28.13086h8.95654v6.02802h5.97119v4.01868h-34.83203v9.04205h-8.95654v9.04205h-30.85107v6.02808h14.92822v9.04205h8.95654v10.04669h-8.95654v24.11218h8.95654v10.04669h-7.96143v14.06543h8.93945l.02686-13.05878,6.96631-.00195v-11.05139h8.95654v-10.04675h5.97119v-34.14612l-6.96631-.01129v-9.04352h5.96143v5.02338h15.93311v-4.01868h14.92773v-6.02808h-6.96631v-4.01868h6.96631v-5.02338h7.96143v-10.04669h6.96631v-14.06543h7.95215v39.18225h15.93262v-5.02338h5.97119v-20.09344h8.95654v-11.05145h-9.95166v-4.01868h-20.89941v-3.01398h30.85107V9.04205h-10.95654v16.07477h-4.96631v-10.04669h-8.95703V5.02338h-14.92773V1h-15.93262Zm-315.47607,0v5.02808h14.92773v9.04205h8.95703v10.04669h-8.95703v24.11218h8.95703v10.04669h-7.96143v14.06543h8.93945l.02686-13.05878,6.96631-.00195v-11.05139h8.95654v-10.04675h5.97119V5.03613l-6.96631-.01129V1h-39.81738Zm-166.19727,0v4.02338h-4.97559v16.07477h-9.95215v28.13086h8.95654v6.02802h5.97119v4.01868h-34.83154v9.04205h-8.95654v9.04205h-30.85107v6.02808h14.92773v9.04205h8.95703v10.04669h-8.95703v24.11218h8.95703v10.04669h-7.96191v14.06543h8.94043l.02588-13.05878,6.96631-.00195v-11.05139h8.95703v-10.04675h5.97119v-34.14612l-6.96631-.01129v-9.04352h5.96143v5.02338h15.93262v-4.01868h14.92773v-6.02808h-6.96631v-4.01868h6.96631v-5.02338h7.96191v-10.04669h6.96631v-14.06543h7.95166v39.18225h15.93262v-5.02338h5.97119v-20.09344h8.95703v-11.05145h-9.95215v-4.01868h-20.89893v-3.01398h30.85107V9.04205h-10.95703v16.07477h-4.96631v-10.04669h-8.95654V5.02338h-14.92773V1h-15.93311Zm-64.67773,107.50464v-22.10278h-10.95654v16.07477h-4.96631v-10.04669h-8.95703v-10.04675h-14.92773v-5.02338h-15.93262v5.02338h-4.97607v16.07477h-9.95215v28.13086h8.95703v6.02802h5.97119v4.01862h-34.83203v9.04205h-8.95654v11.05145h8.96631v-6.02808h5.96143v5.02338h15.93262v-4.01868h14.92822v-6.02808h-6.96631v-4.01868h6.96631v-5.02338h7.96143v-10.04669h6.96631v-14.06543h7.95215v39.18225h15.93262v-5.02338h5.97119v-20.09344h8.95654v-11.05139h-9.95166v-4.01874h-20.89941v-3.01398h30.85107ZM462.86432,1v5.02808h14.92822v9.04205h8.95654v10.04669h-8.95654v24.11218h8.95654v10.04669h-7.96143v14.06543h8.93994l.02637-13.05878,6.96631-.00195v-11.05139h8.95654v-10.04675h5.97119V5.03613l-6.96631-.01129V1h-39.81738Zm-120.41797,0v5.02808h14.92773v9.04205h8.95703v10.04669h-8.95703v24.11218h8.95703v10.04669h-7.96191v14.06543h8.94043l.02588-13.05878,6.96631-.00195v-11.05139h8.95703v-10.04675h5.97119V5.03613l-6.96631-.01129V1h-39.81738Zm195.05762,0v4.02338h-4.97607v16.07477h-9.95166v28.13086h8.95654v6.02802h5.97119v4.01868h-34.83154v9.04205h-8.95703v9.04205h-30.85107v6.02808h14.92822v9.04205h8.95654v10.04669h-8.95654v24.11218h8.95654v10.04669h-7.96143v14.06543h8.93994l.02637-13.05878,6.96631-.00195v-11.05139h8.95654v-10.04675h5.97119v-34.14612l-6.96631-.01129v-9.04352h5.96191v5.02338h15.93262v-4.01868h14.92773v-6.02808h-6.96631v-4.01868h6.96631v-5.02338h7.96143v-10.04669h6.96631v-14.06543h7.95215v39.18225h15.93262v-5.02338h5.97119v-20.09344h8.95654v-11.05145h-9.95166v-4.01868h-20.89893v-3.01398h30.85059V9.04205h-10.95654v16.07477h-4.96631v-10.04669h-8.95703V5.02338h-14.92773V1h-15.93262Zm-240.83643,0v4.02338h-4.97607v16.07477h-9.95215v28.13086h8.95703v6.02802h5.97119v4.01868h-34.83203v9.04205h-8.95654v9.04205h-30.85107v6.02808h14.92822v9.04205h8.95654v10.04669h-8.95654v24.11218h8.95654v10.04669h-7.96143v14.06543h8.93994l.02637-13.05878,6.96631-.00195v-11.05139h8.95654v-10.04675h5.97119v-34.14612l-6.96631-.01129v-9.04352h5.96143v5.02338h15.93262v-4.01868h14.92822v-6.02808h-6.96631v-4.01868h6.96631v-5.02338h7.96143v-10.04669h6.96631v-14.06543h7.95215v39.18225h15.93262v-5.02338h5.97119v-20.09344h8.95654v-11.05145h-9.95166v-4.01868h-20.89941v-3.01398h30.85107V9.04205h-10.95654v16.07477h-4.96631v-10.04669h-8.95703V5.02338h-14.92773V1h-15.93262Zm296.57666,107.5047v-22.10284h-10.95654v16.07477h-4.96631v-10.04669h-8.95703v-10.04675h-14.92773v-5.02338h-15.93262v5.02338h-4.97607v16.07477h-9.95215v28.13086h8.95703v6.02802h5.97119v4.01868h-34.83203v9.04205h-8.95654v11.05145h8.96631v-6.02808h5.96143v5.02338h15.93262v-4.01868h14.92822v-6.02808h-6.96631v-4.01868h6.96631v-5.02338h7.96143v-10.04669h6.96631v-14.06543h7.95215v39.18225h15.93262v-5.02338h5.97119v-20.09344h8.95654v-11.05139h-9.95166v-4.01874h-20.89941v-3.01398h30.85107Zm-120.41797,0v-22.10284h-10.95654v16.07477h-4.96631v-10.04669h-8.95703v-10.04675h-14.92773v-5.02338h-15.93262v5.02338h-4.97607v16.07477h-9.95215v28.13086h8.95703v6.02802h5.97119v4.01868h-34.83203v9.04205h-8.95654v11.05145h8.96631v-6.02808h5.96143v5.02338h15.93262v-4.01868h14.92822v-6.02808h-6.96631v-4.01868h6.96631v-5.02338h7.96143v-10.04669h6.96631v-14.06543h7.95215v39.18225h15.93262v-5.02338h5.97119v-20.09344h8.95654v-11.05139h-9.95166v-4.01874h-20.89941v-3.01398h30.85107ZM176.24933,1v4.02338h-4.97607v16.07477h-9.95215v28.13086h8.95703v6.02802h5.97119v4.01868h-34.83203v9.04205h-8.95654v9.04205h-30.85107v6.02808h14.92822v9.04205h8.95654v10.04669h-8.95654v24.11218h8.95654v10.04669h-7.96143v14.06543h8.93994l.02637-13.05878,6.96631-.00195v-11.05139h8.95654v-10.04675h5.97119v-34.14612l-6.96631-.01129v-9.04352h5.96143v5.02338h15.93262v-4.01868h14.92822v-6.02808h-6.96631v-4.01868h6.96631v-5.02338h7.96143v-10.04669h6.96631v-14.06543h7.95215v39.18225h15.93262v-5.02338h5.97119v-20.09344h8.95654v-11.05145h-9.95166v-4.01868h-20.89941v-3.01398h30.85107V9.04205h-10.95654v16.07477h-4.96631v-10.04669h-8.95703V5.02338h-14.92773V1h-15.93262Zm-64.67822,428v-4.02338h-9.95166v-4.01868h-20.89893v-3.01404h30.85059v-22.10278h-10.95654v16.07477h-4.96631v-10.04675h-8.95654v-10.04669h-14.92822v-5.02338h-15.93262v5.02338h-4.97607v16.07477h-9.95166v21.10278h31.85547v-7.03735h7.95215v7.03735h30.86035Zm1570.4035-249.16357v24.11212h8.95703v10.04675h-7.96094v14.06543h8.93945l.02637-13.05878,6.9668-.00201v-11.05139h8.95605v-10.04669h5.97168v-34.14716l-6.9668-.00977v-9.04407h5.96191v5.02338h15.93262v-4.01868h14.92773v-6.02802h-6.96582v-4.01874h6.96582v-5.02332h7.96191v-10.04675h6.96582v-14.06543h7.95215v39.18225h15.93262v-5.02338h5.97168v-20.09344h8.95605v-11.05139h-9.95215v-4.01868h-20.89844v-3.01404h30.85059v-22.10278h-10.95605v16.07477h-4.9668v-10.04675h-8.95703v-10.04675h-14.92773v-5.02332h-15.93262v5.02332h-4.97559v16.07477h-9.95215v28.13086h8.95703v6.02802h5.9707v4.01874h-34.83203v9.04205h-8.95605v9.04205h-15.92383v15.07007h8.95703v10.04675h-8.95703ZM55.83112,1v4.02332h-4.97607v16.07477h-9.95215v28.13086h8.95703v6.02802h5.97119v4.01874H20.99908v9.04205h-8.95654v9.04205H1v15.07007h4.07623v10.04675H1v24.11212h4.07623v10.04675H1v14.06543h5.05475l.02637-13.05878,6.96631-.00201v-11.05139h8.95654v-10.04669h5.97119v-34.14716l-6.96631-.00977v-9.04407h5.96143v5.02338h15.93262v-4.01868h14.92822v-6.02802h-6.9668v-4.01874h6.9668v-5.02332h7.96143v-10.04675h6.96631v-14.06543h7.95166v39.18225h15.93311v-5.02338h5.9707v-20.09344h8.95703v-11.05139h-9.95215v-4.01868h-20.89893v-3.01404h30.85107V9.04205h-10.95703v16.07477h-4.96631v-10.04675h-8.95654V5.02332h-14.92773V1h-15.93262ZM1,213.99533v14.06543h5.05475l.02637-13.05878,6.96631-.00201v-11.05139h8.95654v-10.04669h5.97119v-34.14716l-6.96631-.00977v-9.04407h5.96143v5.02338h15.93262v-4.01868h14.92822v-6.02802h-6.9668v-4.01874h6.9668v-5.02332h7.96143v-10.04675h6.96631v-14.06543h7.95166v39.18225h15.93311v-5.02338h5.9707v-20.09344h8.95703v-11.05139h-9.95215v-4.01868h-20.89893v-3.01404h30.85107v-22.10278h-10.95703v16.07477h-4.96631v-10.04675h-8.95654v-10.04675h-14.92773v-5.02332h-15.93262v5.02332h-4.97607v16.07477h-9.95215v28.13086h8.95703v6.02802h5.97119v4.01874H20.99908v9.04205h-8.95654v9.04205H1v15.07007h4.07623v10.04675H1v24.11212h4.07623v10.04675H1Z"/>
</svg>