<?xml version="1.0" encoding="UTF-8"?>
<svg id="Rock_tile" data-name="Rock tile" xmlns="http://www.w3.org/2000/svg" viewBox="0 0 1920 430">
  <defs>
    <style>
      .cls-1 {
        fill: #501700;
      }
    </style>
  </defs>
  <path class="cls-1" d="m1436.172,108.505v-22.103h-10.957v16.075h-4.966v-10.047h-8.957v-10.047h-14.928v-5.023h-15.933v5.023h-4.976v16.075h-9.952v28.131h8.957v6.028h5.971v4.019h-34.832v9.042h-8.957v11.051h8.966v-6.028h5.961v5.023h15.933v-4.019h14.928v-6.028h-6.966v-4.019h6.966v-5.023h7.961v-10.047h6.966v-14.065h7.952v39.182h15.933v-5.023h5.971v-20.093h8.957v-11.051h-9.952v-4.019h-20.899v-3.014h30.851Zm120.418,0v-22.103h-10.957v16.075h-4.966v-10.047h-8.957v-10.047h-14.928v-5.023h-15.933v5.023h-4.976v16.075h-9.952v28.131h8.957v6.028h5.971v4.019h-34.832v9.042h-8.957v11.051h8.966v-6.028h5.961v5.023h15.933v-4.019h14.928v-6.028h-6.966v-4.019h6.966v-5.023h7.961v-10.047h6.966v-14.065h7.952v39.182h15.933v-5.023h5.971v-20.093h8.957v-11.051h-9.952v-4.019h-20.899v-3.014h30.851ZM1500.85,1v4.023h-4.976v16.075h-9.952v28.131h8.957v6.028h5.971v4.019h-34.831v9.042h-8.957v9.042h-30.851v6.028h14.928v9.042h8.957v10.047h-8.957v24.112h8.957v10.047h-7.962v14.065h8.953v-13.06h6.979v-11.052h8.957v-10.047h5.971v-34.152h-6.966v-9.049h5.961v5.023h15.933v-4.019h14.928v-6.028h-6.966v-4.019h6.966v-5.023h7.962v-10.047h6.967v-14.065h7.951v39.182h15.933v-5.023h5.972v-20.093h8.957v-11.051h-9.952v-4.019h-20.899v-3.014h30.852V9.042h-10.957v16.075h-4.967v-10.047h-8.956V5.023h-14.928V1h-15.934Zm176.159,107.505v-22.103h-10.957v16.075h-4.966v-10.047h-8.957v-10.047h-14.928v-5.023h-15.933v5.023h-4.977v16.075h-9.951v28.131h8.956v6.028h5.972v4.019h-34.832v9.042h-8.957v11.051h8.967v-6.028h5.962v5.023h15.933v-4.019h14.928v-6.028h-6.967v-4.019h6.967v-5.023h7.961v-10.047h6.967v-14.065h7.952v39.182h15.933v-5.023h5.971v-20.093h8.957v-11.051h-9.952v-4.019h-20.898v-3.014h30.851ZM1426.211,1v5.028h14.928v9.042h8.957v10.047h-8.957v24.112h8.957v10.047h-7.962v14.065h8.953v-13.06h6.979v-11.052h8.957v-10.047h5.971V5.03h-6.966V1h-39.817Zm315.475,0v4.023s-4.976,0-4.976,0v16.075s-9.952,0-9.952,0v28.131s8.957,0,8.957,0v6.028s5.971,0,5.971,0v4.019s-34.831,0-34.831,0v9.042s-8.957,0-8.957,0v9.042s-30.851,0-30.851,0v6.028s14.928,0,14.928,0v9.042s8.957,0,8.957,0v10.047s-8.957,0-8.957,0v24.112s8.957,0,8.957,0v10.047s-7.962,0-7.962,0v14.065s8.953,0,8.953,0v-13.06s6.98,0,6.98,0v-11.052s8.957,0,8.957,0v-10.047s5.971,0,5.971,0v-34.152s-6.966,0-6.966,0v-9.049s5.961,0,5.961,0v5.023s15.933,0,15.933,0v-4.019s14.928,0,14.928,0v-6.028s-6.966,0-6.966,0v-4.019s6.966,0,6.966,0v-5.023s7.962,0,7.962,0v-10.047s6.967,0,6.967,0v-14.065s7.951,0,7.951,0v39.182s15.933,0,15.933,0v-5.023s5.972,0,5.972,0v-20.093s8.957,0,8.957,0v-11.051s-9.952,0-9.952,0v-4.019s-20.899,0-20.899,0v-3.014s30.852,0,30.852,0V9.042s-10.957,0-10.957,0v16.075s-4.967,0-4.967,0v-10.047s-8.956,0-8.956,0V5.023s-14.928,0-14.928,0V1s-15.934,0-15.934,0Zm-120.418-.003v4.023s-4.976,0-4.976,0v16.075s-9.952,0-9.952,0v28.131s8.957,0,8.957,0v6.028s5.971,0,5.971,0v4.019s-34.831,0-34.831,0v9.042s-8.957,0-8.957,0v9.042s-30.851,0-30.851,0v6.028s14.928,0,14.928,0v9.042s8.957,0,8.957,0v10.047s-8.957,0-8.957,0v24.112s8.957,0,8.957,0v10.047s-7.962,0-7.962,0v14.065s8.953,0,8.953,0v-13.06s6.98,0,6.98,0v-11.052s8.957,0,8.957,0v-10.047s5.971,0,5.971,0v-34.152s-6.966,0-6.966,0v-9.049s5.961,0,5.961,0v5.023s15.933,0,15.933,0v-4.019s14.928,0,14.928,0v-6.028s-6.966,0-6.966,0v-4.019s6.966,0,6.966,0v-5.023s7.962,0,7.962,0v-10.047s6.967,0,6.967,0v-14.065s7.951,0,7.951,0v39.182s15.933,0,15.933,0v-5.023s5.972,0,5.972,0v-20.093s8.957,0,8.957,0v-11.051s-9.952,0-9.952,0v-4.019s-20.899,0-20.899,0v-3.014s30.852,0,30.852,0V9.039s-10.957,0-10.957,0v16.075s-4.967,0-4.967,0v-10.047s-8.956,0-8.956,0V5.021s-14.928,0-14.928,0V.997s-15.934,0-15.934,0Zm45.779.003v5.028s14.928,0,14.928,0v9.042s8.957,0,8.957,0v10.047s-8.957,0-8.957,0v24.112s8.957,0,8.957,0v10.047s-7.962,0-7.962,0v14.065s8.953,0,8.953,0v-13.06s6.979,0,6.979,0v-11.052s8.957,0,8.957,0v-10.047s5.971,0,5.971,0V5.03s-6.966,0-6.966,0V1s-39.817,0-39.817,0Zm-286.615,0v4.023s-4.976,0-4.976,0v16.075s-9.952,0-9.952,0v28.131s8.957,0,8.957,0v6.028s5.971,0,5.971,0v4.019s-34.831,0-34.831,0v9.042s-8.957,0-8.957,0v9.042s-30.851,0-30.851,0v6.028s14.928,0,14.928,0v9.042s8.957,0,8.957,0v10.047s-8.957,0-8.957,0v24.112s8.957,0,8.957,0v10.047s-7.962,0-7.962,0v14.065s8.953,0,8.953,0v-13.06s6.98,0,6.98,0v-11.052s8.957,0,8.957,0v-10.047s5.971,0,5.971,0v-34.152s-6.966,0-6.966,0v-9.049s5.961,0,5.961,0v5.023s15.933,0,15.933,0v-4.019s14.928,0,14.928,0v-6.028s-6.966,0-6.966,0v-4.019s6.966,0,6.966,0v-5.023s7.962,0,7.962,0v-10.047s6.967,0,6.967,0v-14.065s7.951,0,7.951,0v39.182s15.933,0,15.933,0v-5.023s5.972,0,5.972,0v-20.093s8.957,0,8.957,0v-11.051s-9.952,0-9.952,0v-4.019s-20.899,0-20.899,0v-3.014s30.852,0,30.852,0V9.042s-10.957,0-10.957,0v16.075s-4.967,0-4.967,0v-10.047s-8.956,0-8.956,0V5.023s-14.928,0-14.928,0V1s-15.934,0-15.934,0Zm407.034,0v5.028s14.928,0,14.928,0v9.042s8.957,0,8.957,0v10.047h-8.957s0,24.112,0,24.112h8.957v10.047h-7.962s0,14.065,0,14.065h8.953s0-13.06,0-13.06h6.979s0-11.052,0-11.052h8.957s0-10.047,0-10.047h5.971s0-34.152,0-34.152h-6.966V.999s-39.817,0-39.817,0Zm-602.092,0v5.028s14.928,0,14.928,0v9.042s8.957,0,8.957,0v10.047s-8.957,0-8.957,0v24.112s8.957,0,8.957,0v10.047s-7.962,0-7.962,0v14.065s8.953,0,8.953,0v-13.06s6.98,0,6.98,0v-11.052s8.957,0,8.957,0v-10.047s5.971,0,5.971,0V5.03s-6.966,0-6.966,0V1s-39.817,0-39.817,0Zm9.961,107.505v-22.103h-10.957v16.075h-4.966v-10.047h-8.957v-10.047h-14.928v-5.023h-15.933v5.023h-4.976v16.075h-9.952v28.131h8.957v6.028h5.971v4.019h-34.832v9.042h-8.957v11.051h8.966v-6.028h5.961v5.023h15.933v-4.019h14.928v-6.028h-6.966v-4.019h6.966v-5.023h7.961v-10.047h6.966v-14.065h7.952v39.182h15.933v-5.023h5.971v-20.093h8.957v-11.051h-9.952v-4.019h-20.899v-3.014h30.851Zm-120.418,0v-22.103h-10.957v16.075h-4.966v-10.047h-8.957v-10.047h-14.928v-5.023h-15.933v5.023h-4.976v16.075h-9.952v28.131h8.957v6.028h5.971v4.019h-34.832v9.042h-8.957v11.051h8.966v-6.028h5.961v5.023h15.933v-4.019h14.928v-6.028h-6.966v-4.019h6.966v-5.023h7.961v-10.047h6.966v-14.065h7.952v39.182h15.933v-5.023h5.971v-20.093h8.957v-11.051h-9.952v-4.019h-20.899v-3.014h30.851ZM1139.595,1v4.023s-4.976,0-4.976,0v16.075s-9.952,0-9.952,0v28.131s8.957,0,8.957,0v6.028s5.971,0,5.971,0v4.019s-34.831,0-34.831,0v9.042s-8.957,0-8.957,0v9.042s-30.851,0-30.851,0v6.028s14.928,0,14.928,0v9.042s8.957,0,8.957,0v10.047s-8.957,0-8.957,0v24.112s8.957,0,8.957,0v10.047s-7.962,0-7.962,0v14.065s8.953,0,8.953,0v-13.06s6.98,0,6.98,0v-11.052s8.957,0,8.957,0v-10.047s5.971,0,5.971,0v-34.152s-6.966,0-6.966,0v-9.049s5.961,0,5.961,0v5.023s15.933,0,15.933,0v-4.019s14.928,0,14.928,0v-6.028s-6.966,0-6.966,0v-4.019s6.966,0,6.966,0v-5.023s7.962,0,7.962,0v-10.047s6.967,0,6.967,0v-14.065s7.951,0,7.951,0v39.182s15.933,0,15.933,0v-5.023s5.972,0,5.972,0v-20.093s8.957,0,8.957,0v-11.051s-9.952,0-9.952,0v-4.019s-20.899,0-20.899,0v-3.014s30.852,0,30.852,0V9.042s-10.957,0-10.957,0v16.075s-4.967,0-4.967,0v-10.047s-8.956,0-8.956,0V5.023s-14.928,0-14.928,0V1s-15.934,0-15.934,0Zm120.418,0v4.023s-4.976,0-4.976,0v16.075s-9.952,0-9.952,0v28.131s8.957,0,8.957,0v6.028s5.971,0,5.971,0v4.019s-34.831,0-34.831,0v9.042s-8.957,0-8.957,0v9.042s-30.851,0-30.851,0v6.028s14.928,0,14.928,0v9.042s8.957,0,8.957,0v10.047s-8.957,0-8.957,0v24.112s8.957,0,8.957,0v10.047s-7.962,0-7.962,0v14.065s8.953,0,8.953,0v-13.06s6.98,0,6.98,0v-11.052s8.957,0,8.957,0v-10.047s5.971,0,5.971,0v-34.152s-6.966,0-6.966,0v-9.049s5.961,0,5.961,0v5.023s15.933,0,15.933,0v-4.019s14.928,0,14.928,0v-6.028s-6.966,0-6.966,0v-4.019s6.966,0,6.966,0v-5.023s7.962,0,7.962,0v-10.047s6.967,0,6.967,0v-14.065s7.951,0,7.951,0v39.182s15.933,0,15.933,0v-5.023s5.972,0,5.972,0v-20.093s8.957,0,8.957,0v-11.051s-9.952,0-9.952,0v-4.019s-20.899,0-20.899,0v-3.014s30.852,0,30.852,0V9.042s-10.957,0-10.957,0v16.075s-4.967,0-4.967,0v-10.047s-8.956,0-8.956,0V5.023s-14.928,0-14.928,0V1s-15.934,0-15.934,0Zm55.74,107.505v-22.103h-10.957v16.075h-4.966v-10.047h-8.957v-10.047h-14.928v-5.023h-15.933v5.023h-4.976v16.075h-9.952v28.131h8.957v6.028h5.971v4.019h-34.832v9.042h-8.957v11.051h8.966v-6.028h5.961v5.023h15.933v-4.019h14.928v-6.028h-6.966v-4.019h6.966v-5.023h7.961v-10.047h6.966v-14.065h7.952v39.182h15.933v-5.023h5.971v-20.093h8.957v-11.051h-9.952v-4.019h-20.899v-3.014h30.851Zm-9.961-107.505v5.028s14.928,0,14.928,0v9.042s8.957,0,8.957,0v10.047s-8.957,0-8.957,0v24.112s8.957,0,8.957,0v10.047s-7.962,0-7.962,0v14.065s8.953,0,8.953,0v-13.06s6.979,0,6.979,0v-11.052s8.957,0,8.957,0v-10.047s5.971,0,5.971,0V5.03s-6.966,0-6.966,0V1s-39.817,0-39.817,0Zm612.053,262.224v-22.103h-10.957v16.075h-4.967v-10.047h-8.956v-10.047h-14.929v-5.023h-15.933v5.023h-4.976v16.075h-9.952v28.131h8.957v6.028h5.971v4.019h-34.831v9.042h-8.957v9.042h-30.851v6.028h14.928v9.042h8.956v10.047h-8.956v24.112h8.956v10.047h-7.961v14.065h8.953v-13.06h6.979v-11.052h8.957v-10.047h5.971v-34.152h-6.966v-9.049h5.961v5.023h15.933v-4.019h14.928v-6.028h-6.966v-4.019h6.966v-5.023h7.962v-10.047h6.967v-14.065h7.951v39.182h15.933v-5.023h5.972v-20.093h8.957v-11.051h-9.952v-4.019h-20.899v-3.014h30.852ZM22.004,425.981h5.971v-34.152h-6.966v-9.049h5.961v5.023h15.933v-4.019h14.928v-6.028h-6.967v-4.019h6.967v-5.023h7.961v-10.047h6.966v-14.065h7.952v39.182h15.933v-5.023h5.971v-20.094h8.957v-11.051h-9.952v-4.019h-20.899v-3.014h30.851v-22.103h-10.957v16.075h-4.966v-10.047h-8.957v-10.047h-14.928v-5.023h-15.933v5.023h-4.976v16.075h-9.952v28.131h8.957v6.028h5.971v4.019H20.999v9.042h-8.957v9.042H1v15.07h4.076v10.047H1v17.084h21.004v-3.019ZM1,368.715v14.065s5.068,0,5.068,0v-13.06s6.98,0,6.98,0v-11.052s8.957,0,8.957,0v-10.047s5.971,0,5.971,0v-34.152s-6.966,0-6.966,0v-9.049s5.961,0,5.961,0v5.023s15.933,0,15.933,0v-4.019s14.928,0,14.928,0v-6.028s-6.967,0-6.967,0v-4.019s6.967,0,6.967,0v-5.023s7.961,0,7.961,0v-10.047s6.966,0,6.966,0v-14.065s7.952,0,7.952,0v39.182s15.933,0,15.933,0v-5.023s5.971,0,5.971,0v-20.093s8.957,0,8.957,0v-11.051s-9.952,0-9.952,0v-4.019s-20.899,0-20.899,0v-3.014s30.851,0,30.851,0v-22.103s-10.957,0-10.957,0v16.075s-4.966,0-4.966,0v-10.047s-8.957,0-8.957,0v-10.047s-14.928,0-14.928,0v-5.023s-15.933,0-15.933,0v5.023s-4.976,0-4.976,0v16.075s-9.952,0-9.952,0v28.131s8.957,0,8.957,0v6.028s5.971,0,5.971,0v4.019s-34.832,0-34.832,0v9.042s-8.957,0-8.957,0v9.042s-11.043,0-11.043,0v15.07s4.076,0,4.076,0v10.047s-4.076,0-4.076,0v24.112s4.076,0,4.076,0v10.047s-4.076,0-4.076,0Zm0-77.36v14.065s5.068,0,5.068,0v-13.06s6.979,0,6.979,0v-11.052s8.957,0,8.957,0v-10.047s5.971,0,5.971,0v-34.152s-6.966,0-6.966,0v-9.049h5.961s0,5.023,0,5.023h15.933s0-4.019,0-4.019h14.928s0-6.028,0-6.028h-6.967s0-4.019,0-4.019h6.967s0-5.023,0-5.023h7.961s0-10.047,0-10.047h6.966s0-14.065,0-14.065h7.952s0,39.182,0,39.182h15.933s0-5.023,0-5.023h5.971s0-20.093,0-20.093h8.957s0-11.051,0-11.051h-9.952s0-4.019,0-4.019h-20.899s0-3.014,0-3.014h30.851s0-22.103,0-22.103h-10.957s0,16.075,0,16.075h-4.966s0-10.047,0-10.047h-8.957s0-10.047,0-10.047h-14.928s0-5.023,0-5.023h-15.933s0,5.023,0,5.023h-4.976s0,16.075,0,16.075h-9.952s0,28.131,0,28.131h8.957s0,6.028,0,6.028h5.971s0,4.019,0,4.019H20.999s0,9.042,0,9.042h-8.957s0,9.042,0,9.042H1s0,15.07,0,15.07h4.076s0,10.047,0,10.047H1s0,24.112,0,24.112h4.076s0,10.047,0,10.047H1Zm1796.427,137.645v-4.023h-9.952v-4.019h-20.898v-3.014h30.851v-22.103h-10.956v16.075h-4.967v-10.047h-8.957v-10.047h-14.928v-5.023h-15.933v5.023h-4.976v16.075h-9.952v21.103h31.855v-7.037h7.952v7.037h30.86ZM1907.884,6.028h11.116V1h-11.116v5.028Zm-.995,405.888h-4.967v-10.047h-8.956v-10.047h-14.929v-5.023h-15.933v5.023h-4.976v16.075h-9.952v21.103h31.856v-7.037h7.951v7.037h30.861v-4.023h-9.952v-4.019h-20.899v-3.014h30.852v-22.103h-10.957v16.075Zm-124.39-105.491v-5.023h5.972v-20.093h8.956v-11.051h-9.952v-4.019h-20.898v-3.014h30.851v-22.103h-10.956v16.075h-4.967v-10.047h-8.957v-10.047h-14.928v-5.023h-15.933v5.023h-4.976v16.075h-9.952v28.131h8.957v6.028h5.971v4.019h-34.832v9.042h-8.956v9.042h-15.924v15.07h8.957v10.047h-8.957v24.112h8.957v10.047h-7.961v14.065h8.953v-13.06h6.98v-11.052h8.956v-10.047h5.972v-34.152h-6.967v-9.049h5.962v5.023h15.933v-4.019h14.928v-6.028h-6.966v-4.019h6.966v-5.023h7.962v-10.047h6.966v-14.065h7.952v39.182h15.933ZM1064.956,1v5.028s14.928,0,14.928,0v9.042s8.957,0,8.957,0v10.047s-8.957,0-8.957,0v24.112s8.957,0,8.957,0v10.047s-7.962,0-7.962,0v14.065s8.953,0,8.953,0v-13.06s6.979,0,6.979,0v-11.052s8.957,0,8.957,0v-10.047s5.971,0,5.971,0V5.03s-6.966,0-6.966,0V1s-39.817,0-39.817,0Zm617.019,256.196v24.112h8.957v10.047h-7.961v14.065h8.953v-13.06h6.98v-11.052h8.956v-10.047h5.972v-34.152h-6.967v-9.049h5.962v5.023h15.933v-4.019h14.928v-6.028h-6.966v-4.019h6.966v-5.023h7.962v-10.047h6.966v-14.065h7.952v39.182h15.933v-5.023h5.972v-20.093h8.956v-11.051h-9.952v-4.019h-20.898v-3.014h30.851v-22.103h-10.956v16.075h-4.967v-10.047h-8.957v-10.047h-14.928v-5.023h-15.933v5.023h-4.976v16.075h-9.952v28.131h8.957v6.028h5.971v4.019h-34.832v9.042h-8.956v9.042h-15.924v15.07h8.957v10.047h-8.957Zm235.871-71.332v-22.103h-10.957v16.075h-4.967v-10.047h-8.956v-10.047h-14.929v-5.023h-15.933v5.023h-4.976v16.075h-9.952v28.131h8.957v6.028h5.971v4.019h-34.831v9.042h-8.957v9.042h-30.851v6.028h14.928v9.042h8.956v10.047h-8.956v24.112h8.956v10.047h-7.961v14.065h8.953v-13.06h6.979v-11.052h8.957v-10.047h5.971v-34.152h-6.966v-9.049h5.961v5.023h15.933v-4.019h14.928v-6.028h-6.966v-4.019h6.966v-5.023h7.962v-10.047h6.967v-14.065h7.951v39.182h15.933v-5.023h5.972v-20.093h8.957v-11.051h-9.952v-4.019h-20.899v-3.014h30.852ZM1,59.276v14.065h5.068v-13.06h6.979v-11.052h8.957v-10.047h5.971V5.03h-6.966V1H1v14.07h4.076v10.047H1v24.112h4.076v10.047H1Zm1916.846,49.229v-22.103h-10.957v16.075s-4.967,0-4.967,0v-10.047h-8.956s0-10.047,0-10.047h-14.929s0-5.023,0-5.023h-15.933v5.023s-4.976,0-4.976,0v16.075s-9.952,0-9.952,0v28.131h8.957s0,6.028,0,6.028h5.971s0,4.019,0,4.019h-34.831v9.042s-8.957,0-8.957,0v9.042s-30.851,0-30.851,0v6.028h14.928s0,9.042,0,9.042h8.956s0,10.047,0,10.047h-8.956v24.112h8.956s0,10.047,0,10.047h-7.961v14.065h8.953v-13.06s6.979,0,6.979,0v-11.052s8.957,0,8.957,0v-10.047s5.971,0,5.971,0v-34.152h-6.966s0-9.049,0-9.049h5.961s0,5.023,0,5.023h15.933v-4.019s14.928,0,14.928,0v-6.028h-6.966s0-4.019,0-4.019h6.966v-5.023s7.962,0,7.962,0v-10.047s6.967,0,6.967,0v-14.065s7.951,0,7.951,0v39.182h15.933v-5.023s5.972,0,5.972,0v-20.093s8.957,0,8.957,0v-11.051h-9.952s0-4.019,0-4.019h-20.899s0-3.014,0-3.014h30.852ZM1862.105.999v4.023s-4.976,0-4.976,0v16.075s-9.952,0-9.952,0v28.131s8.957,0,8.957,0v6.028s5.971,0,5.971,0v4.019s-34.831,0-34.831,0v9.042s-8.957,0-8.957,0v9.042s-30.851,0-30.851,0v6.028s14.928,0,14.928,0v9.042s8.957,0,8.957,0v10.047s-8.957,0-8.957,0v24.112s8.957,0,8.957,0v10.047s-7.962,0-7.962,0v14.065s8.953,0,8.953,0v-13.06s6.98,0,6.98,0v-11.052s8.957,0,8.957,0v-10.047s5.971,0,5.971,0v-34.152s-6.966,0-6.966,0v-9.049s5.961,0,5.961,0v5.023s15.933,0,15.933,0v-4.019s14.928,0,14.928,0v-6.028s-6.966,0-6.966,0v-4.019s6.966,0,6.966,0v-5.023s7.962,0,7.962,0v-10.047s6.967,0,6.967,0v-14.065s7.951,0,7.951,0v39.182s15.933,0,15.933,0v-5.023s5.972,0,5.972,0v-20.093s8.957,0,8.957,0v-11.051s-9.952,0-9.952,0v-4.019s-20.899,0-20.899,0v-3.014s30.852,0,30.852,0V9.041s-10.957,0-10.957,0v16.075s-4.967,0-4.967,0v-10.047s-8.956,0-8.956,0V5.022s-14.928,0-14.928,0V.999s-15.934,0-15.934,0ZM231.989,429v-4.023h-9.952v-4.019h-20.899v-3.014h30.851v-22.103h-10.957v16.075h-4.966v-10.047h-8.957v-10.047h-14.928v-5.023h-15.933v5.023h-4.976v16.075h-9.952v21.103h31.855v-7.037h7.952v7.037h30.86ZM222.028,1v5.028s14.928,0,14.928,0v9.042s8.957,0,8.957,0v10.047s-8.957,0-8.957,0v24.112s8.957,0,8.957,0v10.047s-7.962,0-7.962,0v14.065s8.953,0,8.953,0v-13.06s6.979,0,6.979,0v-11.052s8.957,0,8.957,0v-10.047s5.971,0,5.971,0V5.03s-6.966,0-6.966,0V1s-39.817,0-39.817,0Zm16.928,153.72h-16.928v6.028h16.928v-6.028Zm-21.895,151.706v-5.023h5.971v-20.093h8.957v-11.051h-9.952v-4.019h-20.899v-3.014h30.851v-22.103h-10.957v16.075h-4.966v-10.047h-8.957v-10.047h-14.928v-5.023h-15.933v5.023h-4.976v16.075h-9.952v28.131h8.957v6.028h5.971v4.019h-34.832v9.042h-8.957v9.042h-30.851v6.028h14.928v9.042h8.957v10.047h-8.957v24.112h8.957v10.047h-7.961v14.065h8.953v-13.06h6.979v-11.052h8.957v-10.047h5.971v-34.152h-6.967v-9.049h5.962v5.023h15.933v-4.019h14.928v-6.028h-6.966v-4.019h6.966v-5.023h7.961v-10.047h6.966v-14.065h7.952v39.182h15.933ZM101.61,1v5.028s14.928,0,14.928,0v9.042s8.957,0,8.957,0v10.047s-8.957,0-8.957,0v24.112s8.957,0,8.957,0v10.047s-7.962,0-7.962,0v14.065s8.953,0,8.953,0v-13.06h6.979v-11.052s8.957,0,8.957,0v-10.047s5.971,0,5.971,0V5.03h-6.966V1s-39.817,0-39.817,0Zm14.928,256.196v24.112h8.957v10.047h-7.961v14.065h8.953v-13.06h6.979v-11.052h8.957v-10.047h5.971v-34.152h-6.967v-9.049h5.962v5.023h15.933v-4.019h14.928v-6.028h-6.966v-4.019h6.966v-5.023h7.961v-10.047h6.966v-14.065h7.952v39.182h15.933v-5.023h5.971v-20.093h8.957v-11.051h-9.952v-4.019h-20.899v-3.014h30.851v-22.103h-10.957v16.075h-4.966v-10.047h-8.957v-10.047h-14.928v-5.023h-15.933v5.023h-4.976v16.075h-9.952v28.131h8.957v6.028h5.971v4.019h-34.832v9.042h-8.957v9.042h-30.851v6.028h14.928v9.042h8.957v10.047h-8.957Zm0,154.72v17.084h25.885v-3.019h5.971v-34.152h-6.967v-9.049h5.962v5.023h15.933v-4.019h14.928v-6.028h-6.966v-4.019h6.966v-5.023h7.961v-10.047h6.966v-14.065h7.952v39.182h15.933v-5.023h5.971v-20.094h8.957v-11.051h-9.952v-4.019h-20.899v-3.014h30.851v-22.103h-10.957v16.075h-4.966v-10.047h-8.957v-10.047h-14.928v-5.023h-15.933v5.023h-4.976v16.075h-9.952v28.131h8.957v6.028h5.971v4.019h-34.832v9.042h-8.957v9.042h-30.851v6.028h14.928v9.042h8.957v10.047h-8.957Zm122.418-179.836h-16.928v6.028h16.928v-6.028Zm0,77.36h-16.928v6.028h16.928v-6.028Zm1668.928-77.36v6.028h11.116v-6.028h-11.116Zm0-77.36v6.028h11.116v-6.028h-11.116Zm0,154.72v6.028h11.116v-6.028h-11.116Zm0-232.079v6.028h11.116v-6.028h-11.116Zm-200.024,348.622h5.972v-34.152h-6.967v-9.049h5.962v5.023h15.933v-4.019h14.928v-6.028h-6.966v-4.019h6.966v-5.023h7.962v-10.047h6.966v-14.065h7.952v39.182h15.933v-5.023h5.972v-20.094h8.956v-11.051h-9.952v-4.019h-20.898v-3.014h30.851v-22.103h-10.956v16.075h-4.967v-10.047h-8.957v-10.047h-14.928v-5.023h-15.933v5.023h-4.976v16.075h-9.952v28.131h8.957v6.028h5.971v4.019h-34.832v9.042h-8.956v9.042h-15.924v15.07h8.957v10.047h-8.957v17.084h25.885v-3.019Zm-1485.831-33.154h16.928v-6.028h-16.928v6.028Zm1696.972-6.028h-11.116v6.028h11.116v-6.028ZM1019.176,1v4.023h-4.976s0,16.075,0,16.075h-9.952s0,28.131,0,28.131h8.957s0,6.028,0,6.028h5.971v4.019s-34.831,0-34.831,0v9.042s-8.957,0-8.957,0v9.042s-30.851,0-30.851,0v6.028s14.928,0,14.928,0v9.042s8.957,0,8.957,0v10.047s-8.957,0-8.957,0v24.112s8.957,0,8.957,0v10.047s-7.962,0-7.962,0v14.065s8.953,0,8.953,0v-13.06s6.979,0,6.979,0v-11.052s8.957,0,8.957,0v-10.047s5.971,0,5.971,0v-34.152s-6.966,0-6.966,0v-9.049s5.961,0,5.961,0v5.023s15.933,0,15.933,0v-4.019s14.928,0,14.928,0v-6.028s-6.966,0-6.966,0v-4.019s6.966,0,6.966,0v-5.023s7.962,0,7.962,0v-10.047s6.967,0,6.967,0v-14.065s7.951,0,7.951,0v39.182s15.933,0,15.933,0v-5.023s5.972,0,5.972,0v-20.093s8.957,0,8.957,0v-11.051s-9.952,0-9.952,0v-4.019s-20.899,0-20.899,0v-3.014s30.852,0,30.852,0V9.042s-10.957,0-10.957,0v16.075s-4.967,0-4.967,0v-10.047s-8.956,0-8.956,0V5.024s-14.928,0-14.928,0V1s-15.934,0-15.934,0Zm783.217,410.916v17.084h25.885v-3.019h5.971v-34.152h-6.966v-9.049h5.961v5.023h15.933v-4.019h14.928v-6.028h-6.966v-4.019h6.966v-5.023h7.962v-10.047h6.967v-14.065h7.951v39.182h15.933v-5.023h5.972v-20.094h8.957v-11.051h-9.952v-4.019h-20.899v-3.014h30.852v-22.103h-10.957v16.075h-4.967v-10.047h-8.956v-10.047h-14.929v-5.023h-15.933v5.023h-4.976v16.075h-9.952v28.131h8.957v6.028h5.971v4.019h-34.831v9.042h-8.957v9.042h-30.851v6.028h14.928v9.042h8.956v10.047h-8.956ZM824.12,1v5.028s14.928,0,14.928,0v9.042s8.957,0,8.957,0v10.047s-8.957,0-8.957,0v24.112s8.957,0,8.957,0v10.047s-7.962,0-7.962,0v14.065s8.953,0,8.953,0v-13.06s6.979,0,6.979,0v-11.052s8.957,0,8.957,0v-10.047s5.971,0,5.971,0V5.03s-6.966,0-6.966,0V1s-39.817,0-39.817,0Zm-45.779,0v4.023s-4.976,0-4.976,0v16.075s-9.952,0-9.952,0v28.131s8.957,0,8.957,0v6.028s5.971,0,5.971,0v4.019s-34.831,0-34.831,0v9.042s-8.957,0-8.957,0v9.042s-30.851,0-30.851,0v6.028s14.928,0,14.928,0v9.042s8.957,0,8.957,0v10.047s-8.957,0-8.957,0v24.112s8.957,0,8.957,0v10.047s-7.962,0-7.962,0v14.065s8.953,0,8.953,0v-13.06s6.98,0,6.98,0v-11.052s8.957,0,8.957,0v-10.047s5.971,0,5.971,0v-34.152s-6.966,0-6.966,0v-9.049s5.961,0,5.961,0v5.023s15.933,0,15.933,0v-4.019s14.928,0,14.928,0v-6.028s-6.966,0-6.966,0v-4.019s6.966,0,6.966,0v-5.023s7.962,0,7.962,0v-10.047s6.967,0,6.967,0v-14.065s7.951,0,7.951,0v39.182s15.933,0,15.933,0v-5.023s5.972,0,5.972,0v-20.093s8.957,0,8.957,0v-11.051s-9.952,0-9.952,0v-4.019s-20.899,0-20.899,0v-3.014s30.852,0,30.852,0V9.042s-10.957,0-10.957,0v16.075s-4.967,0-4.967,0v-10.047s-8.956,0-8.956,0V5.023s-14.928,0-14.928,0V1s-15.934,0-15.934,0Zm-64.678,107.505v-22.103h-10.957v16.075h-4.966v-10.047h-8.957v-10.047h-14.928v-5.023h-15.933v5.023h-4.976v16.075h-9.952v28.131h8.957v6.028h5.971v4.019h-34.832v9.042h-8.957v11.051h8.966v-6.028h5.961v5.023h15.933v-4.019h14.928v-6.028h-6.966v-4.019h6.966v-5.023h7.961v-10.047h6.966v-14.065h7.952v39.182h15.933v-5.023h5.971v-20.093h8.957v-11.051h-9.952v-4.019h-20.899v-3.014h30.851ZM657.922,1v4.023s-4.976,0-4.976,0v16.075s-9.952,0-9.952,0v28.131s8.957,0,8.957,0v6.028s5.971,0,5.971,0v4.019s-34.831,0-34.831,0v9.042s-8.957,0-8.957,0v9.042s-30.851,0-30.851,0v6.028s14.928,0,14.928,0v9.042s8.957,0,8.957,0v10.047s-8.957,0-8.957,0v24.112s8.957,0,8.957,0v10.047s-7.962,0-7.962,0v14.065s8.953,0,8.953,0v-13.06s6.98,0,6.98,0v-11.052s8.957,0,8.957,0v-10.047s5.971,0,5.971,0v-34.152s-6.966,0-6.966,0v-9.049s5.961,0,5.961,0v5.023s15.933,0,15.933,0v-4.019s14.928,0,14.928,0v-6.028s-6.966,0-6.966,0v-4.019s6.966,0,6.966,0v-5.023s7.962,0,7.962,0v-10.047s6.967,0,6.967,0v-14.065s7.951,0,7.951,0v39.182s15.933,0,15.933,0v-5.023s5.972,0,5.972,0v-20.093s8.957,0,8.957,0v-11.051s-9.952,0-9.952,0v-4.019s-20.899,0-20.899,0v-3.014s30.852,0,30.852,0V9.042s-10.957,0-10.957,0v16.075s-4.967,0-4.967,0v-10.047s-8.956,0-8.956,0V5.023s-14.928,0-14.928,0V1s-15.934,0-15.934,0Zm45.779,0v5.028s14.928,0,14.928,0v9.042s8.957,0,8.957,0v10.047h-8.957s0,24.112,0,24.112h8.957v10.047h-7.962s0,14.065,0,14.065h8.953s0-13.06,0-13.06h6.979s0-11.052,0-11.052h8.957s0-10.047,0-10.047h5.971s0-34.152,0-34.152h-6.966V1s-39.817,0-39.817,0Zm240.837,0v5.028s14.928,0,14.928,0v9.042s8.957,0,8.957,0v10.047s-8.957,0-8.957,0v24.112s8.957,0,8.957,0v10.047s-7.962,0-7.962,0v14.065s8.953,0,8.953,0v-13.06s6.979,0,6.979,0v-11.052s8.957,0,8.957,0v-10.047s5.971,0,5.971,0V5.031s-6.966,0-6.966,0V1s-39.817,0-39.817,0Zm-110.457,107.505v-22.103h-10.957v16.075h-4.966v-10.047h-8.957v-10.047h-14.928v-5.023h-15.933v5.023h-4.976v16.075h-9.952v28.131h8.957v6.028h5.971v4.019h-34.832v9.042h-8.957v11.051h8.966v-6.028h5.961v5.023h15.933v-4.019h14.928v-6.028h-6.966v-4.019h6.966v-5.023h7.961v-10.047h6.966v-14.065h7.952v39.182h15.933v-5.023h5.971v-20.093h8.957v-11.051h-9.952v-4.019h-20.899v-3.014h30.851Zm120.418,0v-22.103h-10.957v16.075h-4.966v-10.047h-8.957v-10.047h-14.928v-5.023h-15.933v5.023h-4.976v16.075h-9.952v28.131h8.957v6.028h5.971v4.019h-34.832v9.042h-8.957v11.051h8.966v-6.028h5.961v5.023h15.933v-4.019h14.928v-6.028h-6.966v-4.019h6.966v-5.023h7.961v-10.047h6.966v-14.065h7.952v39.182h15.933v-5.023h5.971v-20.093h8.957v-11.051h-9.952v-4.019h-20.899v-3.014h30.851ZM898.759,1v4.023s-4.976,0-4.976,0v16.075s-9.952,0-9.952,0v28.131s8.957,0,8.957,0v6.028s5.971,0,5.971,0v4.019s-34.831,0-34.831,0v9.042s-8.957,0-8.957,0v9.042s-30.851,0-30.851,0v6.028s14.928,0,14.928,0v9.042s8.957,0,8.957,0v10.047s-8.957,0-8.957,0v24.112s8.957,0,8.957,0v10.047s-7.962,0-7.962,0v14.065s8.953,0,8.953,0v-13.06s6.98,0,6.98,0v-11.052s8.957,0,8.957,0v-10.047s5.971,0,5.971,0v-34.152s-6.966,0-6.966,0v-9.049s5.961,0,5.961,0v5.023s15.933,0,15.933,0v-4.019s14.928,0,14.928,0v-6.028s-6.966,0-6.966,0v-4.019s6.966,0,6.966,0v-5.023s7.962,0,7.962,0v-10.047s6.967,0,6.967,0v-14.065s7.951,0,7.951,0v39.182s15.933,0,15.933,0v-5.023s5.972,0,5.972,0v-20.093s8.957,0,8.957,0v-11.051s-9.952,0-9.952,0v-4.019s-20.899,0-20.899,0v-3.014s30.852,0,30.852,0V9.042s-10.957,0-10.957,0v16.075s-4.967,0-4.967,0v-10.047s-8.956,0-8.956,0V5.023s-14.928,0-14.928,0V1s-15.934,0-15.934,0Zm-315.476,0v5.028s14.928,0,14.928,0v9.042s8.957,0,8.957,0v10.047s-8.957,0-8.957,0v24.112s8.957,0,8.957,0v10.047s-7.962,0-7.962,0v14.065s8.953,0,8.953,0v-13.06s6.979,0,6.979,0v-11.052s8.957,0,8.957,0v-10.047s5.971,0,5.971,0V5.03s-6.966,0-6.966,0V1s-39.817,0-39.817,0Zm-166.197,0v4.023s-4.976,0-4.976,0v16.075s-9.952,0-9.952,0v28.131s8.957,0,8.957,0v6.028s5.971,0,5.971,0v4.019s-34.831,0-34.831,0v9.042s-8.957,0-8.957,0v9.042s-30.851,0-30.851,0v6.028s14.928,0,14.928,0v9.042s8.957,0,8.957,0v10.047s-8.957,0-8.957,0v24.112s8.957,0,8.957,0v10.047s-7.962,0-7.962,0v14.065s8.953,0,8.953,0v-13.06s6.98,0,6.98,0v-11.052s8.957,0,8.957,0v-10.047s5.971,0,5.971,0v-34.152s-6.966,0-6.966,0v-9.049s5.961,0,5.961,0v5.023s15.933,0,15.933,0v-4.019s14.928,0,14.928,0v-6.028s-6.966,0-6.966,0v-4.019s6.966,0,6.966,0v-5.023s7.962,0,7.962,0v-10.047s6.967,0,6.967,0v-14.065s7.951,0,7.951,0v39.182s15.933,0,15.933,0v-5.023s5.972,0,5.972,0v-20.093s8.957,0,8.957,0v-11.051s-9.952,0-9.952,0v-4.019s-20.899,0-20.899,0v-3.014s30.852,0,30.852,0V9.042s-10.957,0-10.957,0v16.075s-4.967,0-4.967,0v-10.047s-8.956,0-8.956,0V5.023s-14.928,0-14.928,0V1s-15.934,0-15.934,0Zm-64.678,107.505v-22.103h-10.957v16.075h-4.966v-10.047h-8.957v-10.047h-14.928v-5.023h-15.933v5.023h-4.976v16.075h-9.952v28.131h8.957v6.028h5.971v4.019h-34.832v9.042h-8.957v11.051h8.966v-6.028h5.961v5.023h15.933v-4.019h14.928v-6.028h-6.966v-4.019h6.966v-5.023h7.961v-10.047h6.966v-14.065h7.952v39.182h15.933v-5.023h5.971v-20.093h8.957v-11.051h-9.952v-4.019h-20.899v-3.014h30.851ZM462.864,1v5.028s14.928,0,14.928,0v9.042s8.957,0,8.957,0v10.047s-8.957,0-8.957,0v24.112s8.957,0,8.957,0v10.047s-7.962,0-7.962,0v14.065s8.953,0,8.953,0v-13.06s6.979,0,6.979,0v-11.052s8.957,0,8.957,0v-10.047s5.971,0,5.971,0V5.03s-6.966,0-6.966,0V1s-39.817,0-39.817,0Zm-120.418,0v5.028s14.928,0,14.928,0v9.042s8.957,0,8.957,0v10.047h-8.957s0,24.112,0,24.112h8.957v10.047h-7.962s0,14.065,0,14.065h8.953s0-13.06,0-13.06h6.979s0-11.052,0-11.052h8.957s0-10.047,0-10.047h5.971s0-34.152,0-34.152h-6.966V1s-39.817,0-39.817,0Zm195.057,0v4.023s-4.976,0-4.976,0v16.075s-9.952,0-9.952,0v28.131s8.957,0,8.957,0v6.028s5.971,0,5.971,0v4.019s-34.831,0-34.831,0v9.042s-8.957,0-8.957,0v9.042s-30.851,0-30.851,0v6.028s14.928,0,14.928,0v9.042s8.957,0,8.957,0v10.047s-8.957,0-8.957,0v24.112s8.957,0,8.957,0v10.047s-7.962,0-7.962,0v14.065s8.953,0,8.953,0v-13.06s6.98,0,6.98,0v-11.052s8.957,0,8.957,0v-10.047s5.971,0,5.971,0v-34.152s-6.966,0-6.966,0v-9.049s5.961,0,5.961,0v5.023s15.933,0,15.933,0v-4.019s14.928,0,14.928,0v-6.028s-6.966,0-6.966,0v-4.019s6.966,0,6.966,0v-5.023s7.962,0,7.962,0v-10.047s6.967,0,6.967,0v-14.065s7.951,0,7.951,0v39.182s15.933,0,15.933,0v-5.023s5.972,0,5.972,0v-20.093s8.957,0,8.957,0v-11.051s-9.952,0-9.952,0v-4.019s-20.899,0-20.899,0v-3.014s30.852,0,30.852,0V9.042s-10.957,0-10.957,0v16.075s-4.967,0-4.967,0v-10.047s-8.956,0-8.956,0V5.023s-14.928,0-14.928,0V1s-15.934,0-15.934,0Zm-240.836-.002v4.023s-4.976,0-4.976,0v16.075s-9.952,0-9.952,0v28.131s8.957,0,8.957,0v6.028s5.971,0,5.971,0v4.019s-34.831,0-34.831,0v9.042s-8.957,0-8.957,0v9.042s-30.851,0-30.851,0v6.028s14.928,0,14.928,0v9.042s8.957,0,8.957,0v10.047s-8.957,0-8.957,0v24.112s8.957,0,8.957,0v10.047s-7.962,0-7.962,0v14.065s8.953,0,8.953,0v-13.06s6.98,0,6.98,0v-11.052s8.957,0,8.957,0v-10.047s5.971,0,5.971,0v-34.152s-6.966,0-6.966,0v-9.049s5.961,0,5.961,0v5.023s15.933,0,15.933,0v-4.019s14.928,0,14.928,0v-6.028s-6.966,0-6.966,0v-4.019s6.966,0,6.966,0v-5.023s7.962,0,7.962,0v-10.047s6.967,0,6.967,0v-14.065s7.951,0,7.951,0v39.182s15.933,0,15.933,0v-5.023s5.972,0,5.972,0v-20.093s8.957,0,8.957,0v-11.051s-9.952,0-9.952,0v-4.019s-20.899,0-20.899,0v-3.014s30.852,0,30.852,0V9.04s-10.957,0-10.957,0v16.075s-4.967,0-4.967,0v-10.047s-8.956,0-8.956,0V5.022s-14.928,0-14.928,0V.998s-15.934,0-15.934,0Zm296.577,107.506v-22.103h-10.957v16.075h-4.966v-10.047h-8.957v-10.047h-14.928v-5.023h-15.933v5.023h-4.976v16.075h-9.952v28.131h8.957v6.028h5.971v4.019h-34.832v9.042h-8.957v11.051h8.966v-6.028h5.961v5.023h15.933v-4.019h14.928v-6.028h-6.966v-4.019h6.966v-5.023h7.961v-10.047h6.966v-14.065h7.952v39.182h15.933v-5.023h5.971v-20.093h8.957v-11.051h-9.952v-4.019h-20.899v-3.014h30.851Zm-120.418,0v-22.103h-10.957v16.075h-4.966v-10.047h-8.957v-10.047h-14.928v-5.023h-15.933v5.023h-4.976v16.075h-9.952v28.131h8.957v6.028h5.971v4.019h-34.832v9.042h-8.957v11.051h8.966v-6.028h5.961v5.023h15.933v-4.019h14.928v-6.028h-6.966v-4.019h6.966v-5.023h7.961v-10.047h6.966v-14.065h7.952v39.182h15.933v-5.023h5.971v-20.093h8.957v-11.051h-9.952v-4.019h-20.899v-3.014h30.851ZM176.249.998v4.023s-4.976,0-4.976,0v16.075s-9.952,0-9.952,0v28.131s8.957,0,8.957,0v6.028s5.971,0,5.971,0v4.019s-34.831,0-34.831,0v9.042s-8.957,0-8.957,0v9.042s-30.851,0-30.851,0v6.028s14.928,0,14.928,0v9.042s8.957,0,8.957,0v10.047s-8.957,0-8.957,0v24.112s8.957,0,8.957,0v10.047s-7.962,0-7.962,0v14.065s8.953,0,8.953,0v-13.06h6.98v-11.052s8.957,0,8.957,0v-10.047s5.971,0,5.971,0v-34.152s-6.966,0-6.966,0v-9.049s5.961,0,5.961,0v5.023s15.933,0,15.933,0v-4.019s14.928,0,14.928,0v-6.028s-6.966,0-6.966,0v-4.019s6.966,0,6.966,0v-5.023s7.962,0,7.962,0v-10.047s6.967,0,6.967,0v-14.065s7.951,0,7.951,0v39.182s15.933,0,15.933,0v-5.023s5.972,0,5.972,0v-20.093s8.957,0,8.957,0v-11.051s-9.952,0-9.952,0v-4.019s-20.899,0-20.899,0v-3.014s30.852,0,30.852,0V9.04s-10.957,0-10.957,0v16.075s-4.967,0-4.967,0v-10.047s-8.956,0-8.956,0V5.022s-14.928,0-14.928,0V.998s-15.934,0-15.934,0Zm-64.678,428.002v-4.023h-9.952v-4.019h-20.899v-3.014h30.851v-22.103h-10.957v16.075h-4.966v-10.047h-8.957v-10.047h-14.928v-5.023h-15.933v5.023h-4.976v16.075h-9.952v21.103h31.855v-7.037h7.952v7.037h30.86Zm1570.404-249.164v24.112h8.957v10.047h-7.961v14.065h8.953v-13.06h6.98v-11.052h8.956v-10.047h5.972v-34.152h-6.967v-9.049h5.962v5.023h15.933v-4.019h14.928v-6.028h-6.966v-4.019h6.966v-5.023h7.962v-10.047h6.966v-14.065h7.952v39.182h15.933v-5.023h5.972v-20.093h8.956v-11.051h-9.952v-4.019h-20.898v-3.014h30.851v-22.103h-10.956v16.075h-4.967v-10.047h-8.957v-10.047h-14.928v-5.023h-15.933v5.023h-4.976v16.075h-9.952v28.131h8.957v6.028h5.971v4.019h-34.832v9.042h-8.956v9.042h-15.924v15.07h8.957v10.047h-8.957ZM55.831,1v4.023h-4.976v16.075h-9.952v28.131h8.957v6.028h5.971v4.019H20.999v9.042h-8.957v9.042H1v15.07h4.076v10.047H1v24.112h4.076v10.047H1v14.065h5.068v-13.06h6.979v-11.052h8.957v-10.047h5.971v-34.152h-6.966v-9.049h5.961v5.023h15.933v-4.019h14.928v-6.028h-6.967v-4.019h6.967v-5.023h7.961v-10.047h6.966v-14.065h7.952v39.182h15.933v-5.023h5.971v-20.093h8.957v-11.051h-9.952v-4.019h-20.899v-3.014h30.851V9.042h-10.957v16.075h-4.966v-10.047h-8.957V5.023h-14.928V1h-15.933Zm161.23,150.706v-5.023h5.971v-20.093h8.957v-11.051h-9.952v-4.019h-20.899v-3.014h30.851v-22.103h-10.957v16.075h-4.966v-10.047h-8.957v-10.047h-14.928v-5.023h-15.933v5.023h-4.976v16.075h-9.952v28.131h8.957v6.028h5.971v4.019h-34.832v9.042h-8.957v9.042h-30.851v6.028h14.928v9.042h8.957v10.047h-8.957v24.112h8.957v10.047h-7.961v14.065h8.953v-13.06h6.979v-11.052h8.957v-10.047h5.971v-34.152h-6.967v-9.049h5.962v5.023h15.933v-4.019h14.928v-6.028h-6.966v-4.019h6.966v-5.023h7.961v-10.047h6.966v-14.065h7.952v39.182h15.933ZM1,213.995v14.065h5.068v-13.06s6.979,0,6.979,0v-11.052s8.957,0,8.957,0v-10.047s5.971,0,5.971,0v-34.152h-6.966v-9.049h5.961s0,5.023,0,5.023h15.933v-4.019s14.928,0,14.928,0v-6.028h-6.967s0-4.019,0-4.019h6.967v-5.023s7.961,0,7.961,0v-10.047s6.966,0,6.966,0v-14.065s7.952,0,7.952,0v39.182s15.933,0,15.933,0v-5.023s5.971,0,5.971,0v-20.093s8.957,0,8.957,0v-11.051h-9.952s0-4.019,0-4.019h-20.899s0-3.014,0-3.014h30.851s0-22.103,0-22.103h-10.957v16.075s-4.966,0-4.966,0v-10.047h-8.957s0-10.047,0-10.047h-14.928s0-5.023,0-5.023h-15.933v5.023s-4.976,0-4.976,0v16.075s-9.952,0-9.952,0v28.131h8.957s0,6.028,0,6.028h5.971s0,4.019,0,4.019H20.999s0,9.042,0,9.042h-8.957v9.042s-11.043,0-11.043,0v15.07h4.076s0,10.047,0,10.047H1v24.112h4.076s0,10.047,0,10.047H1ZM1546.628,1v5.028s14.928,0,14.928,0v9.042s8.957,0,8.957,0v10.047s-8.957,0-8.957,0v24.112s8.957,0,8.957,0v10.047s-7.962,0-7.962,0v14.065s8.953,0,8.953,0v-13.06s6.979,0,6.979,0v-11.052s8.957,0,8.957,0v-10.047s5.971,0,5.971,0V5.03s-6.966,0-6.966,0V1s-39.817,0-39.817,0Z"/>
</svg>