<?xml version="1.0" encoding="UTF-8"?>
<svg id="Old_man" xmlns="http://www.w3.org/2000/svg" viewBox="0 0 1920 430">
  <defs>
    <style>
      .cls-1 {
        fill: #eb9f23;
      }

      .cls-2 {
        fill: none;
      }

      .cls-3 {
        fill: #b53220;
      }

      .cls-4 {
        fill: #fefefe;
      }
    </style>
  </defs>
  <polygon class="cls-2" points="998.382 392.16 998.382 387.097 990.757 387.097 990.757 376.972 983.132 376.972 983.132 361.785 990.757 361.785 990.757 376.972 998.382 376.972 998.382 382.035 1006.007 382.035 1006.007 376.972 1013.632 376.972 1013.632 366.847 1021.257 366.847 1021.257 351.66 1013.632 351.66 1013.632 351.66 1013.632 346.597 1006.007 346.597 1006.007 341.535 998.382 341.535 998.382 336.472 990.757 336.472 990.757 316.222 983.132 316.222 983.132 311.16 937.382 311.16 937.382 316.222 929.757 316.222 929.757 336.472 922.132 336.472 922.132 341.535 914.507 341.535 914.507 346.597 906.882 346.597 906.882 351.66 899.257 351.66 899.257 366.847 906.882 366.847 906.882 376.972 914.507 376.972 914.507 382.035 922.132 382.035 922.132 376.972 929.757 376.972 929.757 361.785 937.382 361.785 937.382 376.972 929.757 376.972 929.757 387.097 922.132 387.097 922.132 392.16 998.382 392.16"/>
  <path class="cls-1" d="m983.132,392.16v-5.062l-7.625-30.375,38.125,10.125h7.625v-15.188h-7.625l-30.5-15.188,7.625-5.062v-10.125l-7.625-5.062v-5.062h-45.75v5.062l-7.625,5.062v10.125l7.625,5.062-30.5,15.188h-7.625v15.188h7.625l38.125-10.125-7.625,30.375v5.062h15.25l7.625-5.074,7.679,5.074h15.196Z"/>
  <path class="cls-3" d="m1006.007,346.597v-5.062h-7.625v-5.062h-7.625v-5.062h-7.625l-7.625,10.125h-30.5l-7.625-10.125h-7.625v5.062h-7.625v5.062h-7.625v5.062h-7.625v30.375h7.625v5.062h7.625v-5.062h7.625v-15.188h7.625v15.188h-7.625v10.125h-7.625v5.062h15.25v-5.062h15.25v5.062h15.25v-5.062h15.25v5.062h15.25v-5.062h-7.625v-10.125h-7.625v-15.188h7.625v15.188h7.625v5.062h7.625v-5.062h7.625v-30.375h-7.625Z"/>
  <path class="cls-4" d="m998.382,346.597v10.125h-7.625v-5.062h-7.625v-5.062h-7.625v15.188h-7.625v5.062h-15.25v-5.062h-7.625v-15.188h-7.625v5.062h-7.625v5.062h-7.625v-10.125h7.625v-10.125h7.625v-5.062h7.625v5.062h30.5v-5.062h7.625v5.062h7.625v10.125h7.625Zm-68.625-25.312v-5.062h7.625v5.062h-7.625Zm15.25-5.062h7.625v5.062h-7.625v-5.062Zm22.875,5.062v-5.062h7.625v5.062h-7.625Zm22.875-5.062v5.062h-7.625v-5.062h7.625Z"/>
  <path d="m945.007,341.534h30.5v5.062h-30.5v-5.062Zm7.625-20.25h-7.625v10.125h7.625v-10.125Zm15.25,0v10.125h7.625v-10.125h-7.625Z"/>
</svg>