<?xml version="1.0" encoding="UTF-8"?>
<svg xmlns="http://www.w3.org/2000/svg" viewBox="0 0 1920 430">
  <defs>
    <style>
      .d {
        fill: #5c94fc;
      }

      .e {
        fill: #161b21;
      }

      .f {
        fill: #fcfcfc;
      }
    </style>
  </defs>
  <g id="reveal1_left">
    <path class="reveal_background" d="m659.67417,341.59794h-6.52307v-13.88187c0-.54759-.44116-.99156-.9854-.99156h-6.52307v-3.96625c0-.54759-.44116-.99156-.9854-.99156h-14.03154v-3.96625c0-.54759-.44116-.99156-.9854-.99156h-6.52301v-3.96625c0-.54759-.44116-.99156-.9854-.99156h-45.05084c-.54425,0-.9854.44398-.9854.99156v3.96625h-6.52301c-.54425,0-.9854.44398-.9854.99156v3.96625h-14.03154c-.54425,0-.9854.44398-.9854.99156v3.96625h-6.52307c-.54425,0-.9854.44398-.9854.99156v13.88187h-6.52307c-.54425,0-.9854.44398-.9854.99156v19.83125c0,.54765.44116.99156.9854.99156h6.52307v8.92406c0,.54765.44116.99156.9854.99156h6.52307v8.92406c0,.54765.44116.99156.9854.99156h6.52307v3.96625c0,.54765.44116.99156.9854.99156h6.52307v3.96625c0,.54765.44116.99156.9854.99156h22.52536c.54425,0,.9854-.44392.9854-.99156v-3.96625h13.04614v3.96625c0,.54765.44116.99156.9854.99156h22.52536c.54425,0,.9854-.44392.9854-.99156v-3.96625h6.52307c.54425,0,.9854-.44392.9854-.99156v-3.96625h6.52307c.54425,0,.9854-.44392.9854-.99156v-8.92406h6.52307c.54425,0,.9854-.44392.9854-.99156v-8.92406h6.52307c.54425,0,.9854-.44392.9854-.99156v-19.83125c0-.54759-.44116-.99156-.9854-.99156Z"/>
    <polygon class="reveal_white" points="562.06411 382.252 554.55564 372.33638 547.04718 372.33638 547.04718 362.42077 539.53871 362.42077 539.53871 342.58953 547.04718 342.58953 547.04718 327.7161 554.55564 327.7161 554.55564 322.7583 569.57257 322.7583 569.57257 317.80049 577.08103 317.80049 577.08103 312.84268 622.13182 312.84268 622.13182 317.80049 629.64028 317.80049 629.64028 322.7583 644.65721 322.7583 644.65721 327.7161 652.16568 327.7161 652.16568 342.58953 659.67414 342.58953 659.67414 362.42077 652.16568 362.42077 652.16568 372.33638 644.65721 372.33638 637.14875 382.252 629.64028 387.20981 629.64028 392.16762 607.11489 392.16762 607.11489 387.20981 592.09796 387.20981 592.09796 392.16762 569.57257 392.16762 569.57257 387.20981 562.06411 382.252"/>
    <path class="reveal_blue" d="m637.14875,387.20981h-7.50846v-4.95781h7.50846v4.95781Zm-67.57618,0h-7.50846v-4.95781h-7.50846v-14.87343h7.50846v14.87343h7.50846v4.95781Zm75.08464-4.95781h-7.50846v-14.87343h7.50846v14.87343Zm-30.03386,0h-30.03386v-4.95781h-7.50846v-9.91562h7.50846v4.95781h7.50846v4.95781h15.01693v-4.95781h7.50846v-4.95781h7.50846v9.91562h-7.50846v4.95781Zm15.01693-29.74685h-7.50846v-4.95781h7.50846v4.95781Zm-52.55925,0h-7.50846v-4.95781h-7.50846v-14.87343h7.50846v14.87343h7.50846v4.95781Zm60.06771-4.95781h-7.50846v-14.87343h-7.50846v-4.95781h7.50846v4.95781h7.50846v14.87343Zm-60.06771-14.87343h-7.50846v-4.95781h7.50846v4.95781Z"/>
  </g>
  <g id="reveal2_left">
    <path class="reveal_background" d="m629.64028,316.80889h-14.03154v-3.96625c0-.54765-.44116-.99156-.9854-.99156h-30.03383c-.54425,0-.9854.44392-.9854.99156v3.96625h-14.03154c-.54425,0-.9854.44392-.9854.99156v9.91562c0,.54759.44116.99156.9854.99156h7.50847c.54425,0,.9854-.44398.9854-.99156v-3.96625h5.53767c-.0006,2.17638.00043,6.72678,0,8.92408,0,.54756.44116.99154.98541.99154h6.52307v3.96625c0,.54759.44116.99156.9854.99156h15.01695c.54425,0,.9854-.44398.9854-.99156v-3.96625h6.52301c.54425,0,.9854-.44398.9854-.99156-.00157-2.20255.00113-6.74214,0-8.92406h5.53767v3.96625c0,.54759.44116.99156.9854.99156h7.50847c.54425,0,.9854-.44398.9854-.99156v-9.91562c0-.54765-.44116-.99156-.9854-.99156Zm-23.51076,4.95781h-13.04614v-2.97469h13.04614v2.97469Z"/>
    <path class="reveal_background" d="m583.60409,357.46294c0-.54765.44116-.99156.9854-.99156,8.38161,0,21.65222,0,30.03383,0,.54425,0,.9854.44392.9854.99156v14.87343c0,.54759-.44116.99156-.9854.99156h-6.52301v3.96625c0,.54759-.44116.99156-.9854.99156h-15.01695c-.54425,0-.9854-.44398-.9854-.99156v-3.96625h-6.52307c-.54425,0-.9854-.44398-.9854-.99156v-14.87343Z"/>
    <path class="reveal_background" d="m659.67411,346.55575h-6.52301v-3.96625c0-.54765-.44116-.99156-.9854-.99156h-6.52307v-3.96625c0-.54765-.44116-.99156-.9854-.99156h-6.52307v-2.97469h6.52307c.54425,0,.9854-.44398.9854-.99156v-9.91562c0-.54765-.44116-.99156-.9854-.99156h-7.50847c-.54425,0-.9854.44392-.9854.99156v8.92406h-6.52307c-.54425,0-.9854.44392-.9854.99156v18.83968h-5.53767v-8.92406c0-.54765-.44116-.99156-.9854-.99156h-15.01689c-.54425,0-.9854.44392-.9854.99156v4.95781c0,.54759.44116.99156.9854.99156h6.52301v3.96625c0,.54759.44116.99156.9854.99156h6.52307v8.92406c0,.54759.44116.99156.9854.99156h7.50847c.54425,0,.9854-.44398.9854-.99156v-8.92406h5.53767v17.84812h-5.53767v-3.96625c0-.54765-.44116-.99156-.9854-.99156h-7.50847c-.54425,0-.9854.44392-.9854.99156v4.95781c0,.54759.44116.99156.9854.99156h6.52307v2.97469h-6.52307c-.54425,0-.9854.44392-.9854.99156v3.96625h-43.07997v-3.96625c0-.54765-.44116-.99156-.9854-.99156h-6.52307v-2.97469h6.52307c.54425,0,.9854-.44398.9854-.99156v-4.95781c0-.54765-.44116-.99156-.9854-.99156h-7.50847c-.54425,0-.9854.44392-.9854.99156v3.96625h-5.53767v-17.84812h5.53767v8.92406c0,.54759.44116.99156.9854.99156h7.50847c.54425,0,.9854-.44398.9854-.99156v-8.92406h6.52307c.54425,0,.9854-.44398.9854-.99156v-3.96625h6.52307c.54425,0,.9854-.44398.9854-.99156v-4.95781c0-.54765-.44116-.99156-.9854-.99156h-15.01695c-.54425,0-.9854.44392-.9854.99156v8.92406h-5.53767v-18.83968c0-.54765-.44116-.99156-.9854-.99156h-6.52307v-8.92406c0-.54765-.44116-.99156-.9854-.99156h-7.50841c-.54425,0-.9854.44392-.9854.99156v9.91562c0,.54759.44116.99156.9854.99156h6.52301v2.97469h-6.52301c-.54425,0-.9854.44392-.9854.99156v3.96625h-6.52307c-.54425,0-.9854.44392-.9854.99156v3.96625h-6.52307c-.54425,0-.9854.44392-.9854.99156v9.91562c0,.54759.44116.99156.9854.99156h6.52307v3.96625c0,.54759.44116.99156.9854.99156h6.52307v2.97469h-6.52307c-.54425,0-.9854.44392-.9854.99156v4.95781c0,.54759.44116.99156.9854.99156h6.52307v3.96625c0,.54759.44116.99156.9854.99156h6.52301v8.92406c0,.54759.44116.99156.9854.99156h6.52307v3.96625c0,.54759.44116.99156.9854.99156h7.50847c.54425,0,.9854-.44398.9854-.99156v-3.96625h5.53767v3.96625c0,.54759.44116.99156.9854.99156h7.50847c.54425,0,.9854-.44398.9854-.99156v-3.96625h13.04614v3.96625c0,.54759.44116.99156.9854.99156h7.50841c.54425,0,.9854-.44398.9854-.99156v-3.96625h5.53767v3.96625c0,.54759.44116.99156.9854.99156h7.50847c.54425,0,.9854-.44398.9854-.99156v-3.96625h6.52307c.54425,0,.9854-.44398.9854-.99156v-8.92406h6.52307c.54425,0,.9854-.44398.9854-.99156v-3.96625h6.52307c.54425,0,.9854-.44398.9854-.99156v-4.95781c0-.54765-.44116-.99156-.9854-.99156h-6.52307v-2.97469h6.52307c.54425,0,.9854-.44398.9854-.99156v-3.96625h6.52301c.54425,0,.9854-.44398.9854-.99156v-9.91562c0-.54765-.44116-.99156-.9854-.99156Zm-98.59543,4.95781h-13.04608v-2.97469h13.04608v2.97469Zm15.01695,34.70468h-5.53767v-2.97469h5.53767v2.97469Zm52.55925,0h-5.53767v-2.97469h5.53767v2.97469Zm22.52542-34.70468h-13.04614v-2.97469h13.04614v2.97469Z"/>
    <path class="reveal_white" d="m629.64028,392.16762h-7.50846v-4.95781h-7.50846v4.95781h-7.50846v-4.95781h-15.01693v4.95781h-7.50846v-4.95781h-7.50846v-4.95781h-7.50846v4.95781h7.50846v4.95781h-7.50846v-4.95781h-7.50846v-9.91562h-7.50846v-4.95781h-7.50846v-4.95781h7.50846v-14.87343h7.50846v19.83123h7.50846v4.95781h7.50846v4.95781h45.05079v4.95781h7.50846v4.95781Zm7.50846-4.95781h-7.50846v-4.95781h-7.50846v-4.95781h7.50846v-4.95781h-7.50846v-4.95781h7.50846v4.95781h7.50846v-19.83123h-7.50846v-19.83123h7.50846v4.95781h7.50846v4.95781h7.50846v4.95781h7.50846v9.91562h-7.50846v-9.91562h-15.01693v4.95781h7.50846v14.87343h7.50846v4.95781h-7.50846v4.95781h-7.50846v9.91562Zm-30.03386-9.91562h-15.01693v-4.95781h-7.50846v-9.91562h7.50846v-4.95781h15.01693v4.95781h7.50846v9.91562h-7.50846v4.95781Zm-30.03386-4.95781h-7.50846v-4.95781h7.50846v4.95781Zm52.55925-9.91562h-7.50846v-9.91562h-7.50846v-4.95781h-7.50846v-4.95781h15.01693v9.91562h7.50846v9.91562Zm-52.55925,0h-7.50846v-9.91562h-7.50846v-4.95781h-15.01693v-4.95781h7.50846v-4.95781h7.50846v-4.95781h-7.50846v-9.91562h7.50846v9.91562h7.50846v19.83123h7.50846v9.91562Zm-30.03386-4.95781h-7.50846v-9.91562h7.50846v9.91562Zm37.54232-4.95781h-7.50846v-9.91562h15.01693v4.95781h-7.50846v4.95781Zm22.52539-14.87343h-15.01693v-4.95781h-7.50846v-4.95781h7.50846v-4.95781h-15.01693v4.95781h-7.50846v-9.91562h15.01693v-4.95781h30.03386v4.95781h15.01693v9.91562h-7.50846v-4.95781h-15.01693v-4.95781h-15.01693v4.95781h15.01693v4.95781h7.50846v4.95781h-7.50846v4.95781Zm37.54232-4.95781h-7.50846v-9.91562h7.50846v9.91562Z"/>
    <path class="reveal_blue" d="m652.16568,362.42077h-7.50846v-9.91562h7.50846v9.91562Zm-37.54232,0h-7.50846v-4.95781h7.50846v4.95781Zm-22.52539,0h-7.50846v-4.95781h7.50846v4.95781Zm-37.54232,0h-7.50846v-9.91562h7.50846v9.91562Zm60.06771-34.70466h-7.50846v-4.95781h7.50846v4.95781Zm-22.52539,0h-7.50846v-4.95781h7.50846v4.95781Z"/>
  </g>
  <g id="reveal3_left">
    <path class="reveal_background" d="m614.62333,311.8511h-7.50841c-.54425,0-.9854.44395-.9854.99156v4.95781c0,.54765.44116.99156.9854.99156h7.50841c.54425,0,.9854-.44392.9854-.99156v-4.95781c0-.54762-.44116-.99156-.9854-.99156h0Zm-22.52536,0h-7.50847c-.54425,0-.9854.44395-.9854.99156v4.95781c0,.54765.44116.99156.9854.99156h7.50847c.54425,0,.9854-.44392.9854-.99156v-4.95781c0-.54762-.44116-.99156-.9854-.99156h0Zm37.54231,9.91562h-7.50847c-.54425,0-.9854.44395-.9854.99156v4.95781c0,.54765.44116.99156.9854.99156h7.50847c.54425,0,.9854-.44392.9854-.99156v-4.95781c0-.54762-.44116-.99156-.9854-.99156h0Zm-52.55925,0h-7.50847c-.54425,0-.9854.44395-.9854.99156v4.95781c0,.54765.44116.99156.9854.99156h7.50847c.54425,0,.9854-.44392.9854-.99156v-4.95781c0-.54762-.44116-.99156-.9854-.99156h0Zm67.5762,4.95781h-7.50847c-.54425,0-.9854.44395-.9854.99156v4.95781c0,.54765.44116.99156.9854.99156h7.50847c.54425,0,.9854-.44392.9854-.99156v-4.95781c0-.54762-.44116-.99156-.9854-.99156h0Zm-82.59314,0h-7.50841c-.54425,0-.9854.44395-.9854.99156v4.95781c0,.54765.44116.99156.9854.99156h7.50841c.54425,0,.9854-.44392.9854-.99156v-4.95781c0-.54762-.44116-.99156-.9854-.99156h0Zm52.55925,4.95781h-30.03383c-.54425,0-.9854.44395-.9854.99156v4.95781c0,.54765.44116.99156.9854.99156h30.03383c.54425,0,.9854-.44392.9854-.99156v-4.95781c0-.54762-.44116-.99156-.9854-.99156h0Zm22.52542,4.95781h-7.50847c-.54425,0-.9854.44395-.9854.99156v4.95781c0,.54765.44116.99156.9854.99156h6.52307v3.96625c0,.54765.44116.99156.9854.99156h7.50847c.54425,0,.9854-.44392.9854-.99156v-4.95781c0-.54762-.44116-.99156-.9854-.99156h-6.52307v-3.96625c0-.54762-.44116-.99156-.9854-.99156h0Zm-67.5762,0h-7.50847c-.54425,0-.9854.44395-.9854.99156v3.96625h-6.52301c-.54425,0-.9854.44395-.9854.99156v4.95781c0,.54765.44116.99156.9854.99156h7.50841c.54425,0,.9854-.44392.9854-.99156v-3.96625h6.52307c.54425,0,.9854-.44392.9854-.99156v-4.95781c0-.54762-.44116-.99156-.9854-.99156h0Zm60.06773,9.91562h-7.50847c-.54425,0-.9854.44395-.9854.99156v4.95781c0,.54765.44116.99156.9854.99156h7.50847c.54425,0,.9854-.44392.9854-.99156v-4.95781c0-.54762-.44116-.99156-.9854-.99156h0Zm-15.01695,0h-7.50841c-.54425,0-.9854.44395-.9854.99156v4.95781c0,.54765.44116.99156.9854.99156h7.50841c.54425,0,.9854-.44392.9854-.99156v-4.95781c0-.54762-.44116-.99156-.9854-.99156h0Zm-22.52536,0h-7.50847c-.54425,0-.9854.44395-.9854.99156v4.95781c0,.54765.44116.99156.9854.99156h7.50847c.54425,0,.9854-.44392.9854-.99156v-4.95781c0-.54762-.44116-.99156-.9854-.99156h0Zm-15.01695,0h-7.50847c-.54425,0-.9854.44395-.9854.99156v4.95781c0,.54765.44116.99156.9854.99156h7.50847c.54425,0,.9854-.44392.9854-.99156v-4.95781c0-.54762-.44116-.99156-.9854-.99156h0Zm82.59308,4.95781h-7.50841c-.54425,0-.9854.44395-.9854.99156v4.95781c0,.54765.44116.99156.9854.99156h7.50841c.54425,0,.9854-.44392.9854-.99156v-4.95781c0-.54762-.44116-.99156-.9854-.99156h0Zm-112.62692,0h-7.50847c-.54425,0-.9854.44395-.9854.99156v4.95781c0,.54765.44116.99156.9854.99156h7.50847c.54425,0,.9854-.44392.9854-.99156v-4.95781c0-.54762-.44116-.99156-.9854-.99156h0Zm82.59308,4.95781h-7.50847c-.54425,0-.9854.44395-.9854.99156v4.95781c0,.54765.44116.99156.9854.99156h7.50847c.54425,0,.9854-.44392.9854-.99156v-4.95781c0-.54762-.44116-.99156-.9854-.99156h0Zm-22.52536,0h-15.01695c-.54425,0-.9854.44395-.9854.99156v4.95781c0,.54765.44116.99156.9854.99156h15.01695c.54425,0,.9854-.44392.9854-.99156v-4.95781c0-.54762-.44116-.99156-.9854-.99156h0Zm-30.03389,0h-7.50847c-.54425,0-.9854.44395-.9854.99156v4.95781c0,.54765.44116.99156.9854.99156h7.50847c.54425,0,.9854-.44392.9854-.99156v-4.95781c0-.54762-.44116-.99156-.9854-.99156h0Zm67.5762,4.95781h-7.50847c-.54425,0-.9854.44395-.9854.99156v4.95778c0,.54762.44116.99156.9854.99156h7.50847c.54425,0,.9854-.44395.9854-.99156v-4.95778c0-.54762-.44116-.99156-.9854-.99156h0Zm-82.59314,0h-7.50841c-.54425,0-.9854.44395-.9854.99156v4.95778c0,.54762.44116.99156.9854.99156h7.50841c.54425,0,.9854-.44395.9854-.99156v-4.95778c0-.54762-.44116-.99156-.9854-.99156h0Zm45.05084,4.95778h-15.01695c-.54425,0-.9854.44395-.9854.99156v4.95781c0,.54762.44116.99156.9854.99156h15.01695c.54425,0,.9854-.44395.9854-.99156v-4.95781c0-.54762-.44116-.99156-.9854-.99156h0Zm37.54231,4.95781h-7.50847c-.54425,0-.9854.44395-.9854.99156v4.95781c0,.54762.44116.99156.9854.99156h7.50847c.54425,0,.9854-.44395.9854-.99156v-4.95781c0-.54762-.44116-.99156-.9854-.99156h0Zm-82.59314,0h-7.50841c-.54425,0-.9854.44395-.9854.99156v4.95781c0,.54762.44116.99156.9854.99156h7.50841c.54425,0,.9854-.44395.9854-.99156v-4.95781c0-.54762-.44116-.99156-.9854-.99156h0Zm60.06773,4.95781h-7.50847c-.54425,0-.9854.44395-.9854.99156v4.95781c0,.54762.44116.99156.9854.99156h7.50847c.54425,0,.9854-.44395.9854-.99156v-4.95781c0-.54762-.44116-.99156-.9854-.99156h0Zm-37.54231,0h-7.50847c-.54425,0-.9854.44395-.9854.99156v4.95781c0,.54762.44116.99156.9854.99156h7.50847c.54425,0,.9854-.44395.9854-.99156v-4.95781c0-.54762-.44116-.99156-.9854-.99156h0Zm22.52542,4.95781h-15.01695c-.54425,0-.9854.44395-.9854.99156v3.96625h-14.03154c-.54425,0-.9854.44395-.9854.99156v4.95781c0,.54762.44116.99156.9854.99156h15.01695c.54425,0,.9854-.44395.9854-.99156v-3.96625h13.04614v3.96625c0,.54762.44116.99156.9854.99156h15.01689c.54425,0,.9854-.44395.9854-.99156v-4.95781c0-.54762-.44116-.99156-.9854-.99156h-14.03148v-3.96625c0-.54762-.44116-.99156-.9854-.99156h0Z"/>
    <path class="reveal_white" d="m622.13182,392.16762h-15.01693v-4.95781h-15.01693v-4.95781h15.01693v4.95781h15.01693v4.95781Zm-30.03386,0h-15.01693v-4.95781h15.01693v4.95781Zm30.03386-9.91562h-7.50846v-4.95781h7.50846v4.95781Zm-37.54232,0h-7.50846v-4.95781h7.50846v4.95781Zm60.06771-4.95781h-7.50846v-4.95781h7.50846v4.95781Zm-82.59311,0h-7.50846v-4.95781h7.50846v4.95781Zm45.05079-4.95781h-15.01693v-4.95781h15.01693v4.95781Zm37.54232-4.95781h-7.50846v-4.95781h7.50846v4.95781Zm-82.59311,0h-7.50846v-4.95781h7.50846v4.95781Zm67.57618-4.95781h-7.50846v-4.95781h7.50846v4.95781Zm-22.52539,0h-15.01693v-4.95781h15.01693v4.95781Zm-30.03386,0h-7.50846v-4.95781h7.50846v4.95781Zm82.59311-4.95781h-7.50846v-4.95781h7.50846v4.95781Zm-112.62696,0h-7.50846v-4.95781h7.50846v4.95781Zm82.59311-4.95781h-7.50846v-4.95781h7.50846v4.95781Zm-15.01693,0h-7.50846v-4.95781h7.50846v4.95781Zm-22.52539,0h-7.50846v-4.95781h7.50846v4.95781Zm-15.01693,0h-7.50846v-4.95781h7.50846v4.95781Zm67.57618-4.95781h-7.50846v-4.95781h-7.50846v-4.95781h7.50846v4.95781h7.50846v4.95781Zm-82.59311,0h-7.50846v-4.95781h7.50846v4.95781Zm7.50846-4.95781h-7.50846v-4.95781h7.50846v4.95781Zm45.05079-4.95781h-30.03386v-4.95781h30.03386v4.95781Zm30.03386-4.95781h-7.50846v-4.95781h7.50846v4.95781Zm-82.59311,0h-7.50846v-4.95781h7.50846v4.95781Zm67.57618-4.95781h-7.50846v-4.95781h7.50846v4.95781Zm-52.55925,0h-7.50846v-4.95781h7.50846v4.95781Zm37.54232-9.91562h-7.50846v-4.95781h7.50846v4.95781Zm-22.52539,0h-7.50846v-4.95781h7.50846v4.95781Z"/>
  </g>
</svg>