<svg xmlns="http://www.w3.org/2000/svg" viewBox="0 0 512 512"><path d="M72.47 397.24 124.5 293.2l26.82 13.4-52.03 104.06-26.82-13.4Z" fill="#dadaeb"/><path d="m360.26 306.57 26.82-13.41 52.03 104.05-26.82 13.41-52.03-104.05Zm-95.92 90.76 52.03-104.06 26.82 13.41-52.03 104.06-26.82-13.41Zm.05-282.6 26.82-13.42 52.03 104.06-26.82 13.4-52.03-104.05Z" fill="#b5b4d9"/><path d="m168.48 205.41 52.03-104.05 26.82 13.41-52.03 104.05-26.82-13.4Z" fill="#dadaeb"/><path d="m256 0-30.17 64.09L256 128.18A64.09 64.09 0 1 0 256 0Z" fill="#625fb2"/><path d="M191.91 64.09c0 35.4 28.7 64.09 64.09 64.09V0a64.09 64.09 0 0 0-64.09 64.09ZM64.1 383.82l-30.17 64.1L64.1 512a64.09 64.09 0 1 0 0-128.18Z" fill="#7e7bc6"/><path d="M0 447.91C0 483.31 28.7 512 64.09 512V383.82A64.09 64.09 0 0 0 0 447.92Z" fill="#9997cf"/><path d="m447.91 383.82-30.17 64.1L447.91 512a64.09 64.09 0 1 0 0-128.18Z" fill="#eca647"/><path d="M383.82 447.91c0 35.4 28.7 64.09 64.1 64.09V383.82a64.09 64.09 0 0 0-64.1 64.1Z" fill="#edcb4c"/><path d="m256 383.82-30.17 64.1L256 512a64.09 64.09 0 1 0 0-128.18Z" fill="#eca647"/><path d="M191.91 447.91c0 35.4 28.7 64.09 64.09 64.09V383.82a64.09 64.09 0 0 0-64.09 64.1Z" fill="#edcb4c"/><path d="M351.96 191.91 321.79 256l30.17 64.09a64.09 64.09 0 1 0 0-128.18Z" fill="#ea3838"/><path d="M287.87 256c0 35.4 28.69 64.09 64.09 64.09V191.9a64.09 64.09 0 0 0-64.1 64.09Z" fill="#ec564c"/><path d="M160.04 191.91 129.88 256l30.17 64.09a64.09 64.09 0 1 0 0-128.18Z" fill="#47449d"/><path d="M95.96 256c0 35.4 28.69 64.09 64.09 64.09V191.9A64.09 64.09 0 0 0 95.95 256Z" fill="#625fb2"/></svg>