<svg xmlns="http://www.w3.org/2000/svg" viewBox="0 0 512 512"><path fill="#38c1a1" d="M217.91.55H104.77c-8.6 0-15.57 6.97-15.57 15.57v198.32c0 8.6 6.97 15.57 15.57 15.57h113.14c8.6 0 15.57-6.97 15.57-15.57V16.12c0-8.6-6.97-15.57-15.57-15.57Zm-31.27 177.7h-50.6V52.3h50.6v125.94ZM290.9 67.18a15.57 15.57 0 0 1 0-22.01l40.61-40.6A15.56 15.56 0 0 1 342.53 0h16.14c8.6 0 15.57 6.97 15.57 15.57v167.6h25.15c8.6 0 15.57 6.97 15.57 15.56v15.71c0 8.6-6.97 15.57-15.57 15.57h-97.15c-8.6 0-15.57-6.97-15.57-15.57v-15.7c0-8.6 6.97-15.57 15.57-15.57h25.15V74.93l-3.36 3.36a15.57 15.57 0 0 1-22.01 0l-11.1-11.1Zm116.32 215.36H294.09c-8.6 0-15.57 6.97-15.57 15.57v198.32c0 8.6 6.97 15.57 15.57 15.57h113.14c8.6 0 15.57-6.97 15.57-15.57V298.11c0-8.6-6.97-15.57-15.57-15.57Zm-31.27 177.7h-50.6V334.3h50.6v125.94Zm-150.31 20.49v15.7c0 8.6-6.97 15.57-15.57 15.57h-97.15c-8.6 0-15.57-6.97-15.57-15.57v-15.7c0-8.6 6.97-15.57 15.57-15.57h25.15V356.92l-3.36 3.36a15.56 15.56 0 0 1-22 .01h-.02l-11.1-11.12a15.57 15.57 0 0 1 0-22l40.6-40.62a15.56 15.56 0 0 1 11.01-4.56h16.14c8.6 0 15.57 6.97 15.57 15.57v167.6h25.15c8.6 0 15.57 6.96 15.58 15.56Z"/></svg>