<svg xmlns="http://www.w3.org/2000/svg" viewBox="0 0 606.43 500"><g fill="#4bbf76"><path d="M397.62 201.54c16.49-19.89 42.25-33.18 67.12-33.18 29.22 0 51.16 11.56 77.87 35.24l6.14 5.6 47.36-67.26-2.36-2.6c-32.84-36-79.86-56.66-129.01-56.66-56.69 0-109.64 32.8-134.85 63.27-18.66 22.56-32.63 49.5-47.41 78.02-25.36 48.89-45.4 83.74-74.13 99.01l-.04.07-.05-.02c-10.6 5.62-22.4 8.6-36.08 8.6a84.7 84.7 0 0 1-59.4-23.9C96.91 292.3 88.18 271.8 88.18 250c0-45.01 37.68-81.64 84-81.64 32.05 0 57.95 12.5 76.96 37.14l.99 1.27 43.4-75.18a175.16 175.16 0 0 0-121.35-48.9C77.24 82.68 0 157.73 0 249.98 0 342.25 77.24 417.3 172.18 417.3c108.77 0 155.17-89.46 189.08-154.86 12.62-24.34 23.54-45.43 36.36-60.9"/><path d="M551.16 284.26c-18.39 28.62-50.05 47.54-86.06 47.54l-.98-.02-.76.02a92.42 92.42 0 0 1-44.9-11.44 103.67 103.67 0 0 1-32.3-26.38l-42.88 74.28c31.65 31.07 74.49 48.7 120.08 48.7 50.96 0 98.72-21.94 131.04-60.2l12.03-13.07-55.27-59.43"/></g></svg>