<svg xmlns="http://www.w3.org/2000/svg" xml:space="preserve" viewBox="0 0 306 344.35"><path fill="#00599C" d="M302.1 258.26c2.4-4.16 3.9-8.84 3.9-13.05V99.14c0-4.2-1.49-8.9-3.9-13.05L153 172.18l149.1 86.08z"/><path fill="#004482" d="m166.25 341.2 126.5-73.04c3.64-2.1 6.96-5.74 9.36-9.9L153 172.18 3.9 258.25c2.4 4.16 5.7 7.8 9.35 9.9l126.5 73.03c7.29 4.21 19.21 4.21 26.5 0z"/><path fill="#659AD2" d="M302.1 86.09c-2.4-4.16-5.7-7.8-9.35-9.9L166.25 3.16c-7.29-4.21-19.21-4.21-26.5 0L13.25 76.19C5.96 80.39 0 90.72 0 99.14v146.07c0 4.2 1.5 8.9 3.9 13.05L153 172.18l149.1-86.1z"/><path fill="#FFF" d="M153 274.18c-56.24 0-102-45.76-102-102s45.76-102 102-102c36.3 0 70.14 19.53 88.33 50.96L197.2 146.7a51.22 51.22 0 0 0-44.2-25.52c-28.12 0-51 22.87-51 51 0 28.12 22.88 51 51 51a51.22 51.22 0 0 0 44.2-25.52l44.13 25.54A102.37 102.37 0 0 1 153 274.18z"/><path fill="#FFF" d="M255 166.5h-11.33v-11.32h-11.34v11.33H221v11.33h11.33v11.34h11.34v-11.34H255zm42.5 0h-11.33v-11.32h-11.34v11.33H263.5v11.33h11.33v11.34h11.34v-11.34h11.33z"/></svg>