<svg xmlns="http://www.w3.org/2000/svg" viewBox="0 0 256 256"><path d="M128 0C57.42 0 0 57.42 0 128s57.42 128 128 128 128-57.42 128-128S198.58 0 128 0" fill="#fff"/><path d="M123.32 130.3c-1.15 2.5-2.42 5.3-3.73 8.27-4.65 10.53-9.8 23.33-11.67 31.54a47.37 47.37 0 0 0-1.09 10.56c0 1.58.09 3.25.22 4.95a61.27 61.27 0 0 0 21.07 3.76 61.37 61.37 0 0 0 19.28-3.15 36.26 36.26 0 0 1-4.02-4.25c-8.22-10.49-12.8-25.85-20.06-51.68M92.97 78.22a61.17 61.17 0 0 0-26.01 50 61.16 61.16 0 0 0 25.3 49.49c3.76-15.64 13.17-29.96 27.28-58.66-.84-2.3-1.8-4.82-2.86-7.46-3.91-9.81-9.55-21.2-14.59-26.36a40.59 40.59 0 0 0-9.12-7" fill="#91dc47"/><path d="M181.4 198.37c-8.1-1.02-14.8-2.24-20.64-4.3A73.49 73.49 0 0 1 79.7 72.97c-4.1-1-8.4-1.57-12.77-1.57-21.56.2-44.32 12.14-53.8 44.37-.88 4.69-.67 8.23-.67 12.44 0 63.88 51.8 115.67 115.67 115.67 39.12 0 73.68-19.43 94.61-49.16-11.32 2.82-22.2 4.17-31.52 4.2-3.5 0-6.78-.2-9.82-.56" fill="#63b132"/><path d="M159.66 175.95c.71.36 2.33.94 4.58 1.57a61.17 61.17 0 0 0 25.05-49.3 61.25 61.25 0 0 0-61.17-61.17 61.31 61.31 0 0 0-19.2 3.13c12.41 14.15 18.39 34.38 24.16 56.51l.01.03c.01.01 1.85 6.14 5 14.27 3.14 8.12 7.6 18.17 12.47 25.5 3.2 4.9 6.7 8.43 9.1 9.46" fill="#90b4fe"/><path d="M128.12 12.54a115.5 115.5 0 0 0-94 48.32 58.75 58.75 0 0 1 31.8-9.22c13.46.04 24.03 4.2 29.1 7.06 1.22.7 2.39 1.46 3.53 2.24a73.5 73.5 0 0 1 103.07 67.27 73.26 73.26 0 0 1-21.87 52.3c3.31.37 6.84.6 10.45.58 12.81 0 26.66-2.82 37.04-11.55 6.77-5.7 12.44-14.05 15.58-26.57.62-4.83.97-9.75.97-14.75 0-63.88-51.78-115.68-115.67-115.68" fill="#5881d8"/></svg>