<svg xmlns="http://www.w3.org/2000/svg" viewBox="0 0 512 512"><path fill="#ff9800" d="m464.971 103.029-72-72a24 24 0 0 0-33.942 0l-72 72a24 24 0 0 0 33.942 33.942L352 105.941v86.439a71.091 71.091 0 0 1-44.912 66.329A118.932 118.932 0 0 0 256 297.822a118.929 118.929 0 0 0-51.089-39.113A71.091 71.091 0 0 1 160 192.38v-86.439l31.029 31.03a24 24 0 0 0 33.942-33.942l-72-72a24 24 0 0 0-33.942 0l-72 72a24 24 0 0 0 33.942 33.942L112 105.941v86.439a119.434 119.434 0 0 0 75.088 110.9A71.1 71.1 0 0 1 232 369.606V464a24 24 0 0 0 48 0v-94.394a71.1 71.1 0 0 1 44.911-66.329A119.433 119.433 0 0 0 400 192.38v-86.439l31.029 31.03a24 24 0 0 0 33.942-33.942Z"/><path d="M256 496a32.037 32.037 0 0 1-32-32v-94.4a63.135 63.135 0 0 0-39.882-58.9A127.441 127.441 0 0 1 104 192.37v-67.127l-17.373 17.373a32 32 0 0 1-45.254-45.257l72-72a32.038 32.038 0 0 1 45.254 0l72 72a32 32 0 1 1-45.254 45.257L168 125.243v67.127a63.132 63.132 0 0 0 39.881 58.9A127.278 127.278 0 0 1 256 285.166a127.3 127.3 0 0 1 48.118-33.893A63.133 63.133 0 0 0 344 192.37v-67.127l-17.373 17.373a32 32 0 1 1-45.254-45.257l72-72a32.038 32.038 0 0 1 45.254 0l72 72a32 32 0 1 1-45.254 45.257L408 125.243v67.127a127.44 127.44 0 0 1-80.119 118.33A63.134 63.134 0 0 0 288 369.6V464a32.037 32.037 0 0 1-32 32ZM112 97.928a8 8 0 0 1 8 8v86.442a111.444 111.444 0 0 0 70.059 103.473A79.056 79.056 0 0 1 240 369.6V464a16 16 0 0 0 32 0v-94.4a79.057 79.057 0 0 1 49.94-73.759A111.443 111.443 0 0 0 392 192.37v-86.442a8 8 0 0 1 13.657-5.657l31.029 31.029a16 16 0 0 0 22.628-22.629l-72-72a16.02 16.02 0 0 0-22.628 0l-72 72a16 16 0 1 0 22.628 22.629l31.029-31.03A8 8 0 0 1 360 105.928v86.442a79.054 79.054 0 0 1-49.941 73.759 111.306 111.306 0 0 0-47.659 36.492 8 8 0 0 1-6.4 3.195 8 8 0 0 1-6.4-3.195 111.3 111.3 0 0 0-47.664-36.492A79.055 79.055 0 0 1 152 192.37v-86.442a8 8 0 0 1 13.657-5.657l31.029 31.029a16 16 0 0 0 22.628-22.629l-72-72a16.02 16.02 0 0 0-22.628 0l-72 72A16 16 0 1 0 75.314 131.3l31.029-31.03A8 8 0 0 1 112 97.928Z"/></svg>