<svg xmlns="http://www.w3.org/2000/svg" viewBox="0 0 100 100"><path fill="#bddbff" d="M92.857 12.5C92.857 5.596 73.67 0 50.001 0S7.143 5.596 7.143 12.5 26.331 25 50 25s42.856-5.596 42.856-12.5Z"/><path fill="#9bc9ff" d="M50 50c23.66 0 42.856-5.589 42.856-12.5v-25C92.856 19.411 73.66 25 50 25S7.143 19.411 7.143 12.5v25C7.143 44.411 26.339 50 50 50Z"/><path fill="#57a4ff" d="M50 75c23.66 0 42.856-5.589 42.856-12.5v-25C92.856 44.411 73.66 50 50 50S7.143 44.411 7.143 37.5v25C7.143 69.411 26.339 75 50 75Z"/><path fill="#2488ff" d="M92.857 62.5c0 6.911-19.196 12.5-42.856 12.5S7.144 69.411 7.144 62.5v25c0 6.911 19.196 12.5 42.857 12.5s42.856-5.589 42.856-12.5v-25Z"/></svg>