<?xml version="1.0" encoding="UTF-8"?>
<svg id="a" data-name="Слой 1" xmlns="http://www.w3.org/2000/svg" viewBox="0 0 100 100">
  <path d="M92.857,12.5c0-6.904-19.187-12.5-42.856-12.5S7.143,5.596,7.143,12.5s19.188,12.5,42.857,12.5,42.856-5.596,42.856-12.5h0Z" fill="#bddbff"/>
  <path d="M50,50c23.66,0,42.856-5.589,42.856-12.5V12.5c0,6.911-19.196,12.5-42.856,12.5S7.143,19.411,7.143,12.5v25c0,6.911,19.196,12.5,42.857,12.5Z" fill="#9bc9ff"/>
  <path d="M50,75c23.66,0,42.856-5.589,42.856-12.5v-25c0,6.911-19.196,12.5-42.856,12.5S7.143,44.411,7.143,37.5v25c0,6.911,19.196,12.5,42.857,12.5Z" fill="#57a4ff"/>
  <path d="M92.857,62.5c0,6.911-19.196,12.5-42.856,12.5s-42.857-5.589-42.857-12.5v25c0,6.911,19.196,12.5,42.857,12.5s42.856-5.589,42.856-12.5v-25Z" fill="#2488ff"/>
</svg>