<svg xmlns="http://www.w3.org/2000/svg" viewBox="0 0 737.52 1000"><path d="M237.5 773.34s-38.18 22.22 27.22 29.73c79.25 9.05 119.73 7.75 207.04-8.77 0 0 22.99 14.4 55.08 26.85-195.78 83.89-443.09-4.85-289.33-47.8Zm-23.92-109.47s-42.85 31.7 22.61 38.48c84.66 8.74 151.5 9.46 267.2-12.8 0 0 15.98 16.2 41.12 25.07-236.67 69.22-500.27 5.45-330.93-50.75Z" fill="#3174b9" fill-rule="evenodd"/><path d="M415.24 478.14c48.26 55.55-12.65 105.52-12.65 105.52s122.49-63.22 66.23-142.42c-52.53-73.82-92.82-110.5 125.27-236.97 0 0-342.35 85.47-178.85 273.87Z" fill="#ca3132" fill-rule="evenodd"/><path d="M674.16 854.32s28.27 23.31-31.14 41.34c-112.97 34.22-470.3 44.54-569.55 1.36-35.66-15.53 31.24-37.06 52.28-41.6 21.95-4.75 34.48-3.89 34.48-3.89-39.68-27.93-256.46 54.88-110.1 78.64 399.11 64.7 727.54-29.14 624.03-75.85Zm-418.28-303.9s-181.73 43.19-64.34 58.88c49.58 6.63 148.34 5.1 240.41-2.62 75.23-6.31 150.73-19.82 150.73-19.82s-26.5 11.37-45.7 24.46c-184.59 48.56-541.1 25.94-438.46-23.69 86.79-41.98 157.36-37.2 157.36-37.2Zm326.05 182.23c187.62-97.47 100.87-191.16 40.3-178.53-14.8 3.1-21.45 5.76-21.45 5.76s5.53-8.64 16.03-12.36c119.8-42.1 211.9 124.2-38.62 190.06-.01 0 2.87-2.6 3.74-4.93Z" fill="#3174b9" fill-rule="evenodd"/><path d="M468.82 0s103.88 103.95-98.56 263.75c-162.35 128.23-37.01 201.32-.05 284.86-94.78-85.5-164.3-160.78-117.67-230.83C321 214.96 510.74 165.1 468.82 0Z" fill="#ca3132" fill-rule="evenodd"/><path d="M274.34 996.86c180.06 11.51 456.62-6.4 463.19-91.61 0 0-12.6 32.3-148.83 57.92-153.71 28.94-343.32 25.57-455.74 7.01 0 0 23.04 19.07 141.38 26.68Z" fill="#3174b9" fill-rule="evenodd"/></svg>