<svg xmlns="http://www.w3.org/2000/svg" viewBox="0 0 512 512"><path d="M512 180.7v-60.23h-30.12v30.12h-45.17v-75.3h-75.3V30.13h15.06V0H331.3v75.3h-30.12V15.05h-30.12v60.23h-30.12V15.06h-30.12v60.23h-30.11V0h-60.24v30.12h30.12v45.17h-75.3v75.3H30.12v-30.12H0v60.23h75.3v31.13H15.05v30.11h60.23v29.12H15.06v30.12h60.23v30.11H0v60.24h30.12v-30.12h45.17v75.3h75.3v45.17h-30.12V512h60.23v-75.3h30.12v60.24h30.12v-60.23h30.12v60.23h30.12v-60.23h30.11V512h60.24v-30.12h-30.12v-45.17h75.3v-75.3h45.17v30.12H512V331.3h-75.3v-30.12h60.24v-30.12h-60.23v-29.12h60.23v-30.11h-60.23V180.7H512ZM406.59 406.6h-75.3v-90.36h-108a45.25 45.25 0 0 0-42.58-30.11c-24.92 0-45.18 20.26-45.18 45.17s20.26 45.18 45.18 45.18a45.25 45.25 0 0 0 42.58-30.12h77.89v60.24H105.4V105.4h75.3v120.47h77.88A45.25 45.25 0 0 0 301.18 256c24.9 0 45.17-20.26 45.17-45.18s-20.26-45.17-45.17-45.17a45.25 45.25 0 0 0-42.59 30.12h-47.77V105.4H406.6V406.6Zm-210.83-75.3a15.07 15.07 0 1 1-15.06-15.06c8.3 0 15.06 6.76 15.06 15.06Zm90.36-120.47a15.07 15.07 0 0 1 30.12 0c0 8.3-6.76 15.06-15.06 15.06s-15.06-6.75-15.06-15.06Z" fill="#ffb446"/></svg>