<svg xmlns="http://www.w3.org/2000/svg" viewBox="0 -0.5 16 16" shape-rendering="crispEdges">
<metadata>Made with Pixels to Svg https://codepen.io/shshaw/pen/XbxvNj</metadata>
<path stroke="#d82800" d="M9 0h1M13 0h1M5 1h1M8 1h1M13 1h1M2 2h1M4 2h1M7 2h2M10 2h1M2 3h1M4 3h1M6 3h5M4 4h7M12 4h1M2 5h1M4 5h2M7 5h3M11 5h2M14 5h1M1 6h4M6 6h4M11 6h4M1 7h4M6 7h1M8 7h6M15 7h1M1 8h3M6 8h1M8 8h1M10 8h4M15 8h1M0 9h1M2 9h1M9 9h1M11 9h5M0 10h3M4 10h1M12 10h4M0 11h3M13 11h2M1 12h3M13 12h2M1 13h3M12 13h2M2 14h4M11 14h3M5 15h7" />
<path stroke="#fc9838" d="M3 1h1M13 3h1M1 5h1M6 5h1M5 6h1M10 6h1M5 7h1M7 7h1M4 8h2M7 8h1M9 8h1M3 9h6M10 9h1M3 10h1M5 10h2M8 10h4M3 11h2M6 11h1M8 11h1M10 11h3M4 12h2M11 12h2M4 13h2M10 13h2M6 14h5" />
<path stroke="#fcfcfc" d="M7 10h1M5 11h1M7 11h1M9 11h1M6 12h5M6 13h4" />
</svg>