<svg xmlns="http://www.w3.org/2000/svg" viewBox="0 -0.5 16 16" shape-rendering="crispEdges">
<metadata>Made with Pixels to Svg https://codepen.io/shshaw/pen/XbxvNj</metadata>
<path stroke="#fcfcfc" d="M5 0h6M4 1h8M2 2h12M1 3h3M5 3h6M12 3h3M1 4h2M4 4h8M13 4h2M1 5h2M4 5h8M13 5h2M0 6h3M4 6h8M13 6h3M0 7h4M5 7h6M12 7h4M0 8h16M0 9h16M1 10h14M1 11h1M3 11h2M6 11h4M11 11h2M14 11h1M3 12h2M7 12h2M11 12h2M3 13h3M10 13h3M4 14h8M4 15h3M9 15h3" />
<path stroke="#5c94fc" d="M4 3h1M11 3h1M3 4h1M12 4h1M3 5h1M12 5h1M3 6h1M12 6h1M4 7h1M11 7h1M2 11h1M5 11h1M10 11h1M13 11h1M2 12h1M5 12h2M9 12h2M13 12h1M2 13h1M6 13h4M13 13h1M3 14h1M12 14h1" />
</svg>