<svg xmlns="http://www.w3.org/2000/svg" viewBox="0 -0.5 16 16" shape-rendering="crispEdges">
<metadata>Made with Pixels to Svg https://codepen.io/shshaw/pen/XbxvNj</metadata>
<path stroke="#fcfcfc" d="M6 0h4M4 1h3M9 1h3M2 2h1M4 2h1M7 2h2M11 2h1M13 2h1M2 3h1M6 3h4M13 3h1M3 4h1M7 4h2M12 4h1M2 5h2M12 5h2M1 6h3M5 6h2M9 6h2M12 6h3M0 7h1M3 7h1M5 7h1M10 7h1M12 7h1M15 7h1M0 8h1M2 8h1M4 8h1M11 8h1M13 8h1M15 8h1M2 9h1M4 9h1M7 9h2M11 9h1M13 9h1M2 10h1M6 10h4M13 10h1M1 11h2M4 11h1M6 11h4M11 11h1M13 11h2M2 12h2M7 12h2M12 12h2M3 13h2M11 13h2M3 14h1M5 14h6M12 14h1M4 15h1M6 15h1M9 15h1M11 15h1" />
<path stroke="#5c94fc" d="M6 2h1M9 2h1M1 8h1M14 8h1M1 9h1M6 9h1M9 9h1M14 9h1" />
</svg>