<svg xmlns="http://www.w3.org/2000/svg" viewBox="-25 -25 300 300"><defs><style>.cls-1{fill:#0a66c2;fill-rule:evenodd;}</style></defs><g id="Слой_2" data-name="Слой 2"><g id="svg1291"><path id="path1903" class="cls-1" d="M231.89,0h-213C8.65,0,0,8.06,0,18V232c0,9.94,5.68,18,15.87,18H228.92c10.2,0,21.08-8.06,21.08-18V18A17.92,17.92,0,0,0,231.89,0ZM95.24,95.24h33.65v17.15h.37c5.13-9.25,20.29-18.64,39-18.64,36,0,46,19.1,46,54.46v66.08H178.57V154.73c0-15.84-6.32-29.73-21.11-29.73-18,0-26.51,12.15-26.51,32.11v57.18H95.24ZM35.71,214.29H71.43v-119H35.71ZM75.89,53.57A22.32,22.32,0,1,1,53.57,31.26,22.3,22.3,0,0,1,75.89,53.57Z"/></g></g></svg>