<svg xmlns="http://www.w3.org/2000/svg" viewBox="0 -0.5 16 16" shape-rendering="crispEdges">
<metadata>Made with Pixels to Svg https://codepen.io/shshaw/pen/XbxvNj</metadata>
<path stroke="#eb9f23" d="M5 0h6M5 1h1M7 1h2M10 1h1M4 2h2M7 2h2M10 2h2M4 3h2M7 3h2M10 3h2M6 4h4M0 8h1M15 8h1M0 9h1M15 9h1M0 10h1M15 10h1M5 15h2M9 15h2" />
<path stroke="#fefefe" d="M4 1h1M6 1h1M9 1h1M11 1h1M5 4h1M10 4h1M4 5h8M4 6h2M10 6h2M3 7h2M6 7h4M11 7h2M3 8h1M6 8h4M12 8h1M6 9h4M7 10h2" />
<path stroke="#000000" d="M6 2h1M9 2h1M6 3h1M9 3h1M6 6h4" />
<path stroke="#b53220" d="M4 4h1M11 4h1M3 5h1M12 5h1M2 6h2M12 6h2M1 7h2M5 7h1M10 7h1M13 7h2M1 8h2M4 8h2M10 8h2M13 8h2M1 9h5M10 9h5M1 10h3M5 10h2M9 10h2M12 10h3M1 11h3M5 11h6M12 11h3M1 12h3M5 12h6M12 12h3M2 13h1M4 13h8M13 13h1M4 14h8M3 15h2M7 15h2M11 15h2" />
</svg>