<?xml version="1.0" encoding="UTF-8"?>
<svg id="Rock_tile" data-name="Rock tile" xmlns="http://www.w3.org/2000/svg" viewBox="0 0 1920 430">
  <defs>
    <style>
      .cls-1 {
        fill: #501700;
        fill: #501700;
        stroke: #270d03;
        <!-- stroke-width: 1px; -->

        <!-- stroke: #0D1117; -->
        stroke-width: 2px;
        paint-order: stroke fill;
      }
    </style>
  </defs>
  <path class="cls-1" d="m1436.1721,108.5047v-22.1028h-10.9565v16.0748h-4.9663v-10.0467h-8.957v-10.0468h-14.9277v-5.0234h-15.9326v5.0234h-4.9761v16.0748h-9.9521v28.1309h8.957v6.028h5.9712v4.0187h-34.832v9.0421h-8.9565v11.0515h8.9663v-6.0281h5.9614v5.0234h15.9326v-4.0187h14.9282v-6.0281h-6.9663v-4.0187h6.9663v-5.0234h7.9614v-10.0467h6.9663v-14.0654h7.9521v39.1823h15.9326v-5.0234h5.9712v-20.0934h8.9565v-11.0514h-9.9517v-4.0187h-20.8994v-3.014h30.8511Zm120.4181,0v-22.1028h-10.9565v16.0748h-4.9663v-10.0467h-8.957v-10.0468h-14.9277v-5.0234h-15.9326v5.0234h-4.9761v16.0748h-9.9521v28.1309h8.957v6.028h5.9712v4.0187h-34.832v9.0421h-8.9565v11.0515h8.9663v-6.0281h5.9614v5.0234h15.9326v-4.0187h14.9282v-6.0281h-6.9663v-4.0187h6.9663v-5.0234h7.9614v-10.0467h6.9663v-14.0654h7.9521v39.1823h15.9326v-5.0234h5.9712v-20.0934h8.9565v-11.0514h-9.9517v-4.0187h-20.8994v-3.014h30.8511ZM1500.8496,1v4.0234h-4.9756v16.0748h-9.9521v28.1309h8.957v6.028h5.9707v4.0187h-34.8311v9.0421h-8.957v9.0421h-30.8506v6.0281h14.9277v9.0421h8.957v10.0467h-8.957v24.1122h8.957v10.0467h-7.9619v14.0654h8.9531v-13.0588l6.9795-.002v-11.0514h8.957v-10.0468h5.9707v-34.1461l-6.9658-.0113v-9.0435h5.9609v5.0234h15.9326v-4.0187h14.9277v-6.0281h-6.9658v-4.0187h6.9658v-5.0234h7.9619v-10.0467h6.9668v-14.0654h7.9512v39.1823h15.9326v-5.0234h5.9717v-20.0934h8.957v-11.0515h-9.9521v-4.0187h-20.8994v-3.014h30.8516V9.0421h-10.957v16.0748h-4.9668v-10.0467h-8.9561V5.0234h-14.9277V1h-15.9336Zm176.1592,107.5047v-22.1028h-10.957v16.0748h-4.9658v-10.0467h-8.957v-10.0468h-14.9277v-5.0234h-15.9326v5.0234h-4.9766v16.0748h-9.9512v28.1309h8.9561v6.028h5.9717v4.0187h-34.832v9.0421h-8.957v11.0515h8.9668v-6.0281h5.9619v5.0234h15.9326v-4.0187h14.9277v-6.0281h-6.9668v-4.0187h6.9668v-5.0234h7.9609v-10.0467h6.9668v-14.0654h7.9521v39.1823h15.9326v-5.0234h5.9707v-20.0934h8.957v-11.0514h-9.9521v-4.0187h-20.8984v-3.014h30.8506ZM1426.2109,1v5.0281h14.9277v9.0421h8.957v10.0467h-8.957v24.1122h8.957v10.0467h-7.9619v14.0654h8.9404l.0254-13.0588,6.9668-.002v-11.0514h8.957v-10.0468h5.9707V5.0361l-6.9658-.0113V1h-39.8174Zm315.4756,0v4.0234h-4.9756v16.0748h-9.9521v28.1309h8.957v6.028h5.9707v4.0187h-34.832v9.0421h-8.9561v9.0421h-30.8516v6.0281h14.9277v9.0421h8.957v10.0467h-8.957v24.1122h8.957v10.0467h-7.9609v14.0654h8.9395l.0264-13.0588,6.9668-.002v-11.0514h8.9561v-10.0468h5.9717v-34.1461l-6.9668-.0113v-9.0435h5.9619v5.0234h15.9326v-4.0187h14.9277v-6.0281h-6.9658v-4.0187h6.9658v-5.0234h7.9619v-10.0467h6.9658v-14.0654h7.9521v39.1823h15.9326v-5.0234h5.9717v-20.0934h8.9561v-11.0515h-9.9521v-4.0187h-20.8984v-3.014h30.8506V9.0421h-10.9561v16.0748h-4.9668v-10.0467h-8.957V5.0234h-14.9277V1h-15.9326Zm-120.418,0v4.0234h-4.9766v16.0748h-9.9512v28.1309h8.9561v6.028h5.9717v4.0187h-34.832v9.0421h-8.957v9.0421h-30.8506v6.0281h14.9277v9.0421h8.957v10.0467h-8.957v24.1122h8.957v10.0467h-7.9619v14.0654h8.9404l.0264-13.0588,6.9658-.002v-11.0514h8.957v-10.0468h5.9707v-34.1461l-6.9658-.0113v-9.0435h5.9619v5.0234h15.9326v-4.0187h14.9277v-6.0281h-6.9668v-4.0187h6.9668v-5.0234h7.9609v-10.0467h6.9668v-14.0654h7.9521v39.1823h15.9326v-5.0234h5.9707v-20.0934h8.957v-11.0515h-9.9521v-4.0187h-20.8984v-3.014h30.8506V9.0421h-10.957v16.0748h-4.9658v-10.0467h-8.957V5.0234h-14.9277V1h-15.9326Zm45.7783,0v5.0281h14.9277v9.0421h8.957v10.0467h-8.957v24.1122h8.957v10.0467h-7.9609v14.0654h8.9395l.0264-13.0588,6.9668-.002v-11.0514h8.9561v-10.0468h5.9717V5.0361l-6.9668-.0113V1h-39.8174Zm-286.6152,0v4.0234h-4.9756v16.0748h-9.9521v28.1309h8.957v6.028h5.9707v4.0187h-34.832v9.0421h-8.9561v9.0421h-30.8516v6.0281h14.9287v9.0421h8.9561v10.0467h-8.9561v24.1122h8.9561v10.0467h-7.9609v14.0654h8.9395l.0264-13.0588,6.9668-.002v-11.0514h8.9561v-10.0468h5.9717v-34.1461l-6.9668-.0113v-9.0435h5.9619v5.0234h15.9326v-4.0187h14.9277v-6.0281h-6.9658v-4.0187h6.9658v-5.0234h7.9619v-10.0467h6.9658v-14.0654h7.9521v39.1823h15.9326v-5.0234h5.9717v-20.0934h8.9561v-11.0515h-9.9512v-4.0187h-20.8994v-3.014h30.8506V9.0421h-10.9561v16.0748h-4.9668v-10.0467h-8.957V5.0234h-14.9277V1h-15.9326Zm407.0342,0v5.0281h14.9277v9.0421h8.9561v10.0467h-8.9561v24.1122h8.9561v10.0467h-7.9609v14.0654h8.9404l.0254-13.0588,6.9668-.002v-11.0514h8.957v-10.0468h5.9707V5.0361l-6.9658-.0113V1h-39.8174Zm-602.0918,0v5.0281h14.9277v9.0421h8.957v10.0467h-8.957v24.1122h8.957v10.0467h-7.9619v14.0654h8.9404l.0264-13.0588,6.9658-.002v-11.0514h8.957v-10.0468h5.9717V5.0361l-6.9668-.0113V1h-39.8174Zm9.9614,107.5047v-22.1028h-10.9565v16.0748h-4.9663v-10.0467h-8.957v-10.0468h-14.9277v-5.0234h-15.9326v5.0234h-4.9761v16.0748h-9.9521v28.1309h8.957v6.028h5.9712v4.0187h-34.832v9.0421h-8.9565v11.0515h8.9663v-6.0281h5.9614v5.0234h15.9326v-4.0187h14.9282v-6.0281h-6.9663v-4.0187h6.9663v-5.0234h7.9614v-10.0467h6.9663v-14.0654h7.9521v39.1823h15.9326v-5.0234h5.9712v-20.0934h8.9565v-11.0514h-9.9517v-4.0187h-20.8994v-3.014h30.8511Zm-120.418,0v-22.1028h-10.9565v16.0748h-4.9663v-10.0467h-8.957v-10.0468h-14.9277v-5.0234h-15.9327v5.0234h-4.9761v16.0748h-9.9521v28.1309h8.957v6.028h5.9712v4.0187h-34.832v9.0421h-8.9565v11.0515h8.9663v-6.0281h5.9614v5.0234h15.9326v-4.0187h14.9282v-6.0281h-6.9663v-4.0187h6.9663v-5.0234h7.9615v-10.0467h6.9663v-14.0654h7.9521v39.1823h15.9326v-5.0234h5.9712v-20.0934h8.9565v-11.0514h-9.9517v-4.0187h-20.8994v-3.014h30.8511ZM1139.5957,1v4.0234h-4.9766v16.0748h-9.9521v28.1309h8.957v6.028h5.9717v4.0187h-34.832v9.0421h-8.957v9.0421h-30.8506v6.0281h14.9277v9.0421h8.957v10.0467h-8.957v24.1122h8.957v10.0467h-7.9619v14.0654h8.9404l.0264-13.0588,6.9658-.002v-11.0514h8.957v-10.0468h5.9707v-34.1461l-6.9658-.0113v-9.0435h5.9609v5.0234h15.9326v-4.0187h14.9287v-6.0281h-6.9668v-4.0187h6.9668v-5.0234h7.9609v-10.0467h6.9668v-14.0654h7.9512v39.1823h15.9336v-5.0234h5.9707v-20.0934h8.957v-11.0515h-9.9521v-4.0187h-20.8994v-3.014h30.8516V9.0421h-10.957v16.0748h-4.9668v-10.0467h-8.9561V5.0234h-14.9277V1h-15.9326Zm120.418,0v4.0234h-4.9766v16.0748h-9.9512v28.1309h8.9561v6.028h5.9717v4.0187h-34.832v9.0421h-8.957v9.0421h-30.8506v6.0281h14.9277v9.0421h8.957v10.0467h-8.957v24.1122h8.957v10.0467h-7.9619v14.0654h8.9404l.0264-13.0588,6.9658-.002v-11.0514h8.957v-10.0468h5.9717v-34.1461l-6.9668-.0113v-9.0435h5.9619v5.0234h15.9326v-4.0187h14.9277v-6.0281h-6.9668v-4.0187h6.9668v-5.0234h7.9609v-10.0467h6.9668v-14.0654h7.9521v39.1823h15.9326v-5.0234h5.9707v-20.0934h8.957v-11.0515h-9.9521v-4.0187h-20.8984v-3.014h30.8506V9.0421h-10.957v16.0748h-4.9658v-10.0467h-8.957V5.0234h-14.9277V1h-15.9326Zm55.74,107.5047v-22.1028h-10.9565v16.0748h-4.9663v-10.0467h-8.957v-10.0468h-14.9277v-5.0234h-15.9326v5.0234h-4.9761v16.0748h-9.9521v28.1309h8.957v6.028h5.9712v4.0187h-34.832v9.0421h-8.9565v11.0515h8.9663v-6.0281h5.9614v5.0234h15.9326v-4.0187h14.9282v-6.0281h-6.9663v-4.0187h6.9663v-5.0234h7.9614v-10.0467h6.9663v-14.0654h7.9521v39.1823h15.9326v-5.0234h5.9712v-20.0934h8.9565v-11.0514h-9.9517v-4.0187h-20.8994v-3.014h30.8511Zm-9.9617-107.5047v5.0281h14.9287v9.0421h8.9561v10.0467h-8.9561v24.1122h8.9561v10.0467h-7.9609v14.0654h8.9395l.0264-13.0588,6.9668-.002v-11.0514h8.9561v-10.0468h5.9717V5.0361l-6.9668-.0113V1h-39.8174Zm612.0537,262.2243v-22.1028h-10.957v16.0748h-4.9668v-10.0468h-8.9561v-10.0467h-14.9287v-5.0234h-15.9326v5.0234h-4.9756v16.0747h-9.9521v28.1309h8.957v6.0281h5.9707v4.0187h-34.8311v9.0421h-8.957v9.0421h-30.8506v6.028h14.9277v9.0421h8.9561v10.0468h-8.9561v24.1121h8.9561v10.0468h-7.9609v14.0654h8.9404l.0254-13.0588,6.9668-.002v-11.0515h8.957v-10.0467h5.9707v-34.1471l-6.9658-.0098v-9.044h5.9609v5.0233h15.9326v-4.0187h14.9277v-6.028h-6.9658v-4.0187h6.9658v-5.0234h7.9619v-10.0468h6.9668v-14.0654h7.9512v39.1823h15.9326v-5.0234h5.9717v-20.0934h8.957v-11.0514h-9.9521v-4.0187h-20.8994v-3.014h30.8516ZM22.004,425.9813h5.9712v-34.1471l-6.9663-.0098v-9.044h5.9614v5.0234h15.9326v-4.0187h14.9282v-6.028h-6.9668v-4.0187h6.9668v-5.0234h7.9614v-10.0468h6.9663v-14.0654h7.9517v39.1822h15.9331v-5.0233h5.9707v-20.0935h8.957v-11.0514h-9.9521v-4.0187h-20.8989v-3.014h30.8511v-22.1028h-10.957v16.0748h-4.9663v-10.0468h-8.9565v-10.0467h-14.9277v-5.0234h-15.9326v5.0234h-4.9761v16.0748h-9.9521v28.1308h8.957v6.0281h5.9712v4.0187H20.9991v9.0421h-8.9565v9.0421H1v15.0701h4.0762v10.0468H1v17.0841h21.004v-3.0187ZM1,368.715v14.0654h5.0547l.0264-13.0588,6.9663-.002v-11.0515h8.9565v-10.0467h5.9712v-34.1471l-6.9663-.0098v-9.044h5.9614v5.0233h15.9326v-4.0187h14.9282v-6.028h-6.9668v-4.0187h6.9668v-5.0234h7.9614v-10.0468h6.9663v-14.0654h7.9517v39.1823h15.9331v-5.0234h5.9707v-20.0934h8.957v-11.0514h-9.9521v-4.0187h-20.8989v-3.014h30.8511v-22.1028h-10.957v16.0748h-4.9663v-10.0468h-8.9565v-10.0467h-14.9277v-5.0234h-15.9326v5.0234h-4.9761v16.0747h-9.9521v28.1309h8.957v6.0281h5.9712v4.0187H20.9991v9.0421h-8.9565v9.0421H1v15.0701h4.0762v10.0468H1v24.1121h4.0762v10.0468H1Zm0-77.3598v14.0654h5.0547l.0264-13.0588,6.9663-.002v-11.0514h8.9565v-10.0467h5.9712v-34.1472l-6.9663-.0098v-9.0441h5.9614v5.0234h15.9326v-4.0187h14.9282v-6.028h-6.9668v-4.0187h6.9668v-5.0233h7.9614v-10.0468h6.9663v-14.0654h7.9517v39.1823h15.9331v-5.0234h5.9707v-20.0934h8.957v-11.0514h-9.9521v-4.0187h-20.8989v-3.014h30.8511v-22.1028h-10.957v16.0748h-4.9663v-10.0468h-8.9565v-10.0468h-14.9277v-5.0233h-15.9326v5.0233h-4.9761v16.0748h-9.9521v28.1309h8.957v6.028h5.9712v4.0187H20.9991v9.0421h-8.9565v9.0421H1v15.0701h4.0762v10.0468H1v24.1121h4.0762v10.0468H1Zm1796.4268,137.6448v-4.0234h-9.9521v-4.0187h-20.8984v-3.014h30.8506v-22.1028h-10.9561v16.0748h-4.9668v-10.0468h-8.957v-10.0467h-14.9277v-5.0234h-15.9326v5.0234h-4.9756v16.0748h-9.9521v21.1028h31.8555v-7.0374h7.9521v7.0374h30.8604ZM1907.8838,6.0281h11.1162V1h-11.1162v5.0281Zm-.9951,405.8878h-4.9668v-10.0468h-8.9561v-10.0467h-14.9287v-5.0234h-15.9326v5.0234h-4.9756v16.0748h-9.9521v21.1028h31.8564v-7.0374h7.9512v7.0374h30.8613v-4.0234h-9.9521v-4.0187h-20.8994v-3.014h30.8516v-22.1028h-10.957v16.0748Zm-124.3896-105.4907v-5.0234h5.9717v-20.0934h8.9561v-11.0514h-9.9521v-4.0187h-20.8984v-3.014h30.8506v-22.1028h-10.9561v16.0748h-4.9668v-10.0468h-8.957v-10.0467h-14.9277v-5.0234h-15.9326v5.0234h-4.9756v16.0747h-9.9521v28.1309h8.957v6.0281h5.9707v4.0187h-34.832v9.0421h-8.9561v9.0421h-15.9238v15.0701h8.957v10.0468h-8.957v24.1121h8.957v10.0468h-7.9609v14.0654h8.9395l.0264-13.0588,6.9668-.002v-11.0515h8.9561v-10.0467h5.9717v-34.1471l-6.9668-.0098v-9.044h5.9619v5.0233h15.9326v-4.0187h14.9277v-6.028h-6.9658v-4.0187h6.9658v-5.0234h7.9619v-10.0468h6.9658v-14.0654h7.9521v39.1823h15.9326ZM1064.9561,1v5.0281h14.9277v9.0421h8.957v10.0467h-8.957v24.1122h8.957v10.0467h-7.9619v14.0654h8.9404l.0264-13.0588,6.9658-.002v-11.0514h8.957v-10.0468h5.9707V5.0361l-6.9658-.0113V1h-39.8174Zm617.0186,256.1963v24.1121h8.957v10.0468h-7.9609v14.0654h8.9395l.0264-13.0588,6.9668-.002v-11.0514h8.9561v-10.0467h5.9717v-34.1472l-6.9668-.0098v-9.0441h5.9619v5.0234h15.9326v-4.0187h14.9277v-6.028h-6.9658v-4.0187h6.9658v-5.0233h7.9619v-10.0468h6.9658v-14.0654h7.9521v39.1823h15.9326v-5.0234h5.9717v-20.0934h8.9561v-11.0514h-9.9521v-4.0187h-20.8984v-3.014h30.8506v-22.1028h-10.9561v16.0748h-4.9668v-10.0468h-8.957v-10.0468h-14.9277v-5.0233h-15.9326v5.0233h-4.9756v16.0748h-9.9521v28.1309h8.957v6.028h5.9707v4.0187h-34.832v9.0421h-8.9561v9.0421h-15.9238v15.0701h8.957v10.0468h-8.957Zm235.8711-71.3318v-22.1028h-10.957v16.0748h-4.9668v-10.0468h-8.9561v-10.0468h-14.9287v-5.0233h-15.9326v5.0233h-4.9756v16.0748h-9.9521v28.1309h8.957v6.028h5.9707v4.0187h-34.8311v9.0421h-8.957v9.0421h-30.8506v6.028h14.9277v9.0421h8.9561v10.0468h-8.9561v24.1121h8.9561v10.0468h-7.9609v14.0654h8.9404l.0254-13.0588,6.9668-.002v-11.0514h8.957v-10.0467h5.9707v-34.1472l-6.9658-.0098v-9.0441h5.9609v5.0234h15.9326v-4.0187h14.9277v-6.028h-6.9658v-4.0187h6.9658v-5.0233h7.9619v-10.0468h6.9668v-14.0654h7.9512v39.1823h15.9326v-5.0234h5.9717v-20.0934h8.957v-11.0514h-9.9521v-4.0187h-20.8994v-3.014h30.8516ZM1,59.2757v14.0654h5.0547l.0264-13.0588,6.9663-.002v-11.0514h8.9565v-10.0468h5.9712V5.0361l-6.9663-.0113V1H1v14.0701h4.0762v10.0467H1v24.1122h4.0762v10.0467H1Zm1916.8457,49.229v-22.1028h-10.957v16.0748h-4.9668v-10.0467h-8.9561v-10.0468h-14.9287v-5.0234h-15.9326v5.0234h-4.9756v16.0748h-9.9521v28.1309h8.957v6.028h5.9707v4.0187h-34.8311v9.0421h-8.957v9.0421h-30.8506v6.028h14.9277v9.0421h8.9561v10.0468h-8.9561v24.1121h8.9561v10.0468h-7.9609v14.0654h8.9404l.0254-13.0588,6.9668-.002v-11.0514h8.957v-10.0468h5.9707v-34.1461l-6.9658-.0113v-9.0435h5.9609v5.0234h15.9326v-4.0187h14.9277v-6.0281h-6.9658v-4.0187h6.9658v-5.0234h7.9619v-10.0467h6.9668v-14.0654h7.9512v39.1823h15.9326v-5.0234h5.9717v-20.0934h8.957v-11.0514h-9.9521v-4.0187h-20.8994v-3.014h30.8516ZM1862.1045,1v4.0234h-4.9756v16.0748h-9.9521v28.1309h8.957v6.028h5.9707v4.0187h-34.8311v9.0421h-8.957v9.0421h-30.8506v6.0281h14.9277v9.0421h8.9561v10.0467h-8.9561v24.1122h8.9561v10.0467h-7.9609v14.0654h8.9404l.0254-13.0588,6.9668-.002v-11.0514h8.957v-10.0468h5.9707v-34.1461l-6.9658-.0113v-9.0435h5.9609v5.0234h15.9326v-4.0187h14.9277v-6.0281h-6.9658v-4.0187h6.9658v-5.0234h7.9619v-10.0467h6.9668v-14.0654h7.9512v39.1823h15.9326v-5.0234h5.9717v-20.0934h8.957v-11.0515h-9.9521v-4.0187h-20.8994v-3.014h30.8516V9.0421h-10.957v16.0748h-4.9668v-10.0467h-8.9561V5.0234h-14.9287V1h-15.9326ZM231.9893,429v-4.0234h-9.9517v-4.0187h-20.8989v-3.014h30.8506v-22.1028h-10.9565v16.0748h-4.9663v-10.0468h-8.9565v-10.0467h-14.9282v-5.0234h-15.9326v5.0234h-4.9761v16.0748h-9.9517v21.1028h31.8555v-7.0374h7.9521v7.0374h30.8604ZM222.0279,1v5.0281h14.9282v9.0421h8.9565v10.0467h-8.9565v24.1122h8.9565v10.0467h-7.9614v14.0654h8.9399l.0264-13.0588,6.9663-.002v-11.0514h8.9565v-10.0468h5.9712V5.0361l-6.9663-.0113V1h-39.8174Zm16.9282,153.7197h-16.9282v6.028h16.9282v-6.028Zm-21.8945,151.7056v-5.0234h5.9712v-20.0934h8.9565v-11.0514h-9.9517v-4.0187h-20.8989v-3.014h30.8506v-22.1028h-10.9565v16.0748h-4.9663v-10.0468h-8.9565v-10.0467h-14.9282v-5.0234h-15.9326v5.0234h-4.9761v16.0747h-9.9517v28.1309h8.9565v6.0281h5.9712v4.0187h-34.8315v9.0421h-8.957v9.0421h-30.8506v6.028h14.9277v9.0421h8.9565v10.0468h-8.9565v24.1121h8.9565v10.0468h-7.9614v14.0654h8.9404l.0259-13.0588,6.9663-.002v-11.0515h8.957v-10.0467h5.9712v-34.1471l-6.9668-.0098v-9.044h5.9619v5.0233h15.9326v-4.0187h14.9277v-6.028h-6.9663v-4.0187h6.9663v-5.0234h7.9614v-10.0468h6.9663v-14.0654h7.9521v39.1823h15.9326ZM101.6099,1v5.0281h14.9277v9.0421h8.9565v10.0467h-8.9565v24.1122h8.9565v10.0467h-7.9614v14.0654h8.9404l.0259-13.0588,6.9663-.002v-11.0514h8.957v-10.0468h5.9712V5.0361l-6.9668-.0113V1h-39.8169Zm14.9277,256.1963v24.1121h8.9565v10.0468h-7.9614v14.0654h8.9404l.0259-13.0588,6.9663-.002v-11.0514h8.957v-10.0467h5.9712v-34.1472l-6.9668-.0098v-9.0441h5.9619v5.0234h15.9326v-4.0187h14.9277v-6.028h-6.9663v-4.0187h6.9663v-5.0233h7.9614v-10.0468h6.9663v-14.0654h7.9521v39.1823h15.9326v-5.0234h5.9712v-20.0934h8.9565v-11.0514h-9.9517v-4.0187h-20.8989v-3.014h30.8506v-22.1028h-10.9565v16.0748h-4.9663v-10.0468h-8.9565v-10.0468h-14.9282v-5.0233h-15.9326v5.0233h-4.9761v16.0748h-9.9517v28.1309h8.9565v6.028h5.9712v4.0187h-34.8315v9.0421h-8.957v9.0421h-30.8506v6.028h14.9277v9.0421h8.9565v10.0468h-8.9565Zm0,154.7196v17.0841h25.8848v-3.0187h5.9712v-34.1471l-6.9668-.0098v-9.044h5.9619v5.0234h15.9326v-4.0187h14.9277v-6.028h-6.9663v-4.0187h6.9663v-5.0234h7.9614v-10.0468h6.9663v-14.0654h7.9521v39.1822h15.9326v-5.0233h5.9712v-20.0935h8.9565v-11.0514h-9.9517v-4.0187h-20.8989v-3.014h30.8506v-22.1028h-10.9565v16.0748h-4.9663v-10.0468h-8.9565v-10.0467h-14.9282v-5.0234h-15.9326v5.0234h-4.9761v16.0748h-9.9517v28.1308h8.9565v6.0281h5.9712v4.0187h-34.8315v9.0421h-8.957v9.0421h-30.8506v6.028h14.9277v9.0421h8.9565v10.0468h-8.9565Zm122.4185-179.8364h-16.9282v6.028h16.9282v-6.028Zm0,77.3598h-16.9282v6.028h16.9282v-6.028Zm1668.9277-77.3598v6.028h11.1162v-6.028h-11.1162Zm0-77.3598v6.028h11.1162v-6.028h-11.1162Zm0,154.7196v6.028h11.1162v-6.028h-11.1162Zm0-232.0795v6.0281h11.1162v-6.0281h-11.1162Zm-200.0244,348.6215h5.9717v-34.1471l-6.9668-.0098v-9.044h5.9619v5.0234h15.9326v-4.0187h14.9277v-6.028h-6.9658v-4.0187h6.9658v-5.0234h7.9619v-10.0468h6.9658v-14.0654h7.9521v39.1822h15.9326v-5.0233h5.9717v-20.0935h8.9561v-11.0514h-9.9521v-4.0187h-20.8984v-3.014h30.8506v-22.1028h-10.9561v16.0748h-4.9668v-10.0468h-8.957v-10.0467h-14.9277v-5.0234h-15.9326v5.0234h-4.9756v16.0748h-9.9521v28.1308h8.957v6.0281h5.9707v4.0187h-34.832v9.0421h-8.9561v9.0421h-15.9238v15.0701h8.957v10.0468h-8.957v17.0841h25.8848v-3.0187Zm-1485.8315-33.1542h16.9282v-6.028h-16.9282v6.028Zm1696.9721-6.028h-11.1162v6.028h11.1162v-6.028ZM1019.1768,1v4.0234h-4.9756v16.0748h-9.9521v28.1309h8.957v6.028h5.9707v4.0187h-34.8311v9.0421h-8.957v9.0421h-30.8511v6.0281h14.9282v9.0421h8.9561v10.0467h-8.9561v24.1122h8.9561v10.0467h-7.9609v14.0654h8.9395l.0264-13.0588,6.9668-.002v-11.0514h8.9561v-10.0468h5.9717v-34.1461l-6.9668-.0113v-9.0435h5.9619v5.0234h15.9326v-4.0187h14.9277v-6.0281h-6.9658v-4.0187h6.9658v-5.0234h7.9619v-10.0467h6.9658v-14.0654h7.9521v39.1823h15.9326v-5.0234h5.9717v-20.0934h8.9561v-11.0515h-9.9512v-4.0187h-20.8994v-3.014h30.8506V9.0421h-10.9561v16.0748h-4.9668v-10.0467h-8.957V5.0234h-14.9277V1h-15.9326Zm783.2167,410.9159v17.0841h25.8848v-3.0187h5.9707v-34.1471l-6.9658-.0098v-9.044h5.9609v5.0234h15.9326v-4.0187h14.9277v-6.028h-6.9658v-4.0187h6.9658v-5.0234h7.9619v-10.0468h6.9668v-14.0654h7.9512v39.1822h15.9326v-5.0233h5.9717v-20.0935h8.957v-11.0514h-9.9521v-4.0187h-20.8994v-3.014h30.8516v-22.1028h-10.957v16.0748h-4.9668v-10.0468h-8.9561v-10.0467h-14.9287v-5.0234h-15.9326v5.0234h-4.9756v16.0748h-9.9521v28.1308h8.957v6.0281h5.9707v4.0187h-34.8311v9.0421h-8.957v9.0421h-30.8506v6.028h14.9277v9.0421h8.9561v10.0468h-8.9561ZM824.1192,1v5.0281h14.9282v9.0421h8.9565v10.0467h-8.9565v24.1122h8.9565v10.0467h-7.9614v14.0654h8.9395l.0269-13.0588,6.9663-.002v-11.0514h8.9565v-10.0468h5.9712V5.0361l-6.9663-.0113V1h-39.8174Zm-45.7788,0v4.0234h-4.9761v16.0748h-9.9517v28.1309h8.9565v6.028h5.9712v4.0187h-34.8315v9.0421h-8.957v9.0421h-30.8506v6.0281h14.9277v9.0421h8.9565v10.0467h-8.9565v24.1122h8.9565v10.0467h-7.9614v14.0654h8.9404l.0259-13.0588,6.9663-.002v-11.0514h8.957v-10.0468h5.9712v-34.1461l-6.9663-.0113v-9.0435h5.9614v5.0234h15.9326v-4.0187h14.9277v-6.0281h-6.9663v-4.0187h6.9663v-5.0234h7.9614v-10.0467h6.9668v-14.0654h7.9517v39.1823h15.9326v-5.0234h5.9712v-20.0934h8.957v-11.0515h-9.9521v-4.0187h-20.8989v-3.014h30.8511V9.0421h-10.957v16.0748h-4.9663v-10.0467h-8.9565V5.0234h-14.9282V1h-15.9326Zm-64.678,107.5047v-22.1028h-10.9565v16.0748h-4.9663v-10.0467h-8.957v-10.0468h-14.9277v-5.0234h-15.9326v5.0234h-4.9761v16.0748h-9.9521v28.1309h8.957v6.028h5.9712v4.0187h-34.832v9.0421h-8.9565v11.0515h8.9663v-6.0281h5.9614v5.0234h15.9326v-4.0187h14.9282v-6.0281h-6.9663v-4.0187h6.9663v-5.0234h7.9614v-10.0467h6.9663v-14.0654h7.9521v39.1823h15.9326v-5.0234h5.9712v-20.0934h8.9565v-11.0514h-9.9517v-4.0187h-20.8994v-3.014h30.8511ZM657.9224,1v4.0234h-4.9761v16.0748h-9.9521v28.1309h8.957v6.028h5.9712v4.0187h-34.832v9.0421h-8.9565v9.0421h-30.8511v6.0281h14.9277v9.0421h8.957v10.0467h-8.957v24.1122h8.957v10.0467h-7.9614v14.0654h8.9395l.0269-13.0588,6.9663-.002v-11.0514h8.9565v-10.0468h5.9712v-34.1461l-6.9663-.0113v-9.0435h5.9614v5.0234h15.9326v-4.0187h14.9282v-6.0281h-6.9663v-4.0187h6.9663v-5.0234h7.9614v-10.0467h6.9663v-14.0654h7.9517v39.1823h15.9331v-5.0234h5.9712v-20.0934h8.9565v-11.0515h-9.9521v-4.0187h-20.8989v-3.014h30.8511V9.0421h-10.9565v16.0748h-4.9668v-10.0467h-8.9565V5.0234h-14.9277V1h-15.9326Zm45.7788,0v5.0281h14.9277v9.0421h8.9565v10.0467h-8.9565v24.1122h8.9565v10.0467h-7.9614v14.0654h8.9404l.0259-13.0588,6.9663-.002v-11.0514h8.957v-10.0468h5.9712V5.0361l-6.9663-.0113V1h-39.8174Zm240.8364,0v5.0281h14.9282v9.0421h8.9561v10.0467h-8.9561v24.1122h8.9561v10.0467h-7.9609v14.0654h8.9395l.0264-13.0588,6.9668-.002v-11.0514h8.9561v-10.0468h5.9717V5.0361l-6.9668-.0113V1h-39.8169Zm-110.4568,107.5047v-22.1028h-10.9565v16.0748h-4.9663v-10.0467h-8.957v-10.0468h-14.9277v-5.0234h-15.9326v5.0234h-4.9761v16.0748h-9.9521v28.1309h8.957v6.028h5.9712v4.0187h-34.832v9.0421h-8.9565v11.0515h8.9663v-6.0281h5.9614v5.0234h15.9326v-4.0187h14.9282v-6.0281h-6.9663v-4.0187h6.9663v-5.0234h7.9614v-10.0467h6.9663v-14.0654h7.9521v39.1823h15.9326v-5.0234h5.9712v-20.0934h8.9565v-11.0514h-9.9517v-4.0187h-20.8994v-3.014h30.8511Zm120.4185,0v-22.1028h-10.9565v16.0748h-4.9663v-10.0467h-8.957v-10.0468h-14.9277v-5.0234h-15.9326v5.0234h-4.9761v16.0748h-9.9521v28.1309h8.957v6.028h5.9712v4.0187h-34.832v9.0421h-8.9565v11.0515h8.9663v-6.0281h5.9614v5.0234h15.9326v-4.0187h14.9282v-6.0281h-6.9663v-4.0187h6.9663v-5.0234h7.9614v-10.0467h6.9663v-14.0654h7.9521v39.1823h15.9326v-5.0234h5.9712v-20.0934h8.9565v-11.0514h-9.9517v-4.0187h-20.8994v-3.014h30.8511ZM898.7589,1v4.0234h-4.9761v16.0748h-9.9517v28.1309h8.9565v6.028h5.9712v4.0187h-34.832v9.0421h-8.9565v9.0421h-30.8511v6.0281h14.9282v9.0421h8.9565v10.0467h-8.9565v24.1122h8.9565v10.0467h-7.9614v14.0654h8.9395l.0269-13.0588,6.9663-.002v-11.0514h8.9565v-10.0468h5.9712v-34.1461l-6.9663-.0113v-9.0435h5.9614v5.0234h15.9331v-4.0187h14.9277v-6.0281h-6.9663v-4.0187h6.9663v-5.0234h7.9614v-10.0467h6.9663v-14.0654h7.9521v39.1823h15.9326v-5.0234h5.9712v-20.0934h8.9565v-11.0515h-9.9517v-4.0187h-20.8994v-3.014h30.8511V9.0421h-10.9565v16.0748h-4.9663v-10.0467h-8.957V5.0234h-14.9277V1h-15.9326Zm-315.4761,0v5.0281h14.9277v9.0421h8.957v10.0467h-8.957v24.1122h8.957v10.0467h-7.9614v14.0654h8.9395l.0269-13.0588,6.9663-.002v-11.0514h8.9565v-10.0468h5.9712V5.0361l-6.9663-.0113V1h-39.8174Zm-166.1973,0v4.0234h-4.9756v16.0748h-9.9521v28.1309h8.9565v6.028h5.9712v4.0187h-34.8315v9.0421h-8.9565v9.0421h-30.8511v6.0281h14.9277v9.0421h8.957v10.0467h-8.957v24.1122h8.957v10.0467h-7.9619v14.0654h8.9404l.0259-13.0588,6.9663-.002v-11.0514h8.957v-10.0468h5.9712v-34.1461l-6.9663-.0113v-9.0435h5.9614v5.0234h15.9326v-4.0187h14.9277v-6.0281h-6.9663v-4.0187h6.9663v-5.0234h7.9619v-10.0467h6.9663v-14.0654h7.9517v39.1823h15.9326v-5.0234h5.9712v-20.0934h8.957v-11.0515h-9.9521v-4.0187h-20.8989v-3.014h30.8511V9.0421h-10.957v16.0748h-4.9663v-10.0467h-8.9565V5.0234h-14.9277V1h-15.9331Zm-64.6777,107.5046v-22.1028h-10.9565v16.0748h-4.9663v-10.0467h-8.957v-10.0468h-14.9277v-5.0234h-15.9326v5.0234h-4.9761v16.0748h-9.9521v28.1309h8.957v6.028h5.9712v4.0186h-34.832v9.0421h-8.9565v11.0515h8.9663v-6.0281h5.9614v5.0234h15.9326v-4.0187h14.9282v-6.0281h-6.9663v-4.0187h6.9663v-5.0234h7.9614v-10.0467h6.9663v-14.0654h7.9521v39.1823h15.9326v-5.0234h5.9712v-20.0934h8.9565v-11.0514h-9.9517v-4.0187h-20.8994v-3.014h30.8511ZM462.8643,1v5.0281h14.9282v9.0421h8.9565v10.0467h-8.9565v24.1122h8.9565v10.0467h-7.9614v14.0654h8.9399l.0264-13.0588,6.9663-.002v-11.0514h8.9565v-10.0468h5.9712V5.0361l-6.9663-.0113V1h-39.8174Zm-120.418,0v5.0281h14.9277v9.0421h8.957v10.0467h-8.957v24.1122h8.957v10.0467h-7.9619v14.0654h8.9404l.0259-13.0588,6.9663-.002v-11.0514h8.957v-10.0468h5.9712V5.0361l-6.9663-.0113V1h-39.8174Zm195.0576,0v4.0234h-4.9761v16.0748h-9.9517v28.1309h8.9565v6.028h5.9712v4.0187h-34.8315v9.0421h-8.957v9.0421h-30.8511v6.0281h14.9282v9.0421h8.9565v10.0467h-8.9565v24.1122h8.9565v10.0467h-7.9614v14.0654h8.9399l.0264-13.0588,6.9663-.002v-11.0514h8.9565v-10.0468h5.9712v-34.1461l-6.9663-.0113v-9.0435h5.9619v5.0234h15.9326v-4.0187h14.9277v-6.0281h-6.9663v-4.0187h6.9663v-5.0234h7.9614v-10.0467h6.9663v-14.0654h7.9521v39.1823h15.9326v-5.0234h5.9712v-20.0934h8.9565v-11.0515h-9.9517v-4.0187h-20.8989v-3.014h30.8506V9.0421h-10.9565v16.0748h-4.9663v-10.0467h-8.957V5.0234h-14.9277V1h-15.9326Zm-240.8364,0v4.0234h-4.9761v16.0748h-9.9521v28.1309h8.957v6.028h5.9712v4.0187h-34.832v9.0421h-8.9565v9.0421h-30.8511v6.0281h14.9282v9.0421h8.9565v10.0467h-8.9565v24.1122h8.9565v10.0467h-7.9614v14.0654h8.9399l.0264-13.0588,6.9663-.002v-11.0514h8.9565v-10.0468h5.9712v-34.1461l-6.9663-.0113v-9.0435h5.9614v5.0234h15.9326v-4.0187h14.9282v-6.0281h-6.9663v-4.0187h6.9663v-5.0234h7.9614v-10.0467h6.9663v-14.0654h7.9521v39.1823h15.9326v-5.0234h5.9712v-20.0934h8.9565v-11.0515h-9.9517v-4.0187h-20.8994v-3.014h30.8511V9.0421h-10.9565v16.0748h-4.9663v-10.0467h-8.957V5.0234h-14.9277V1h-15.9326Zm296.5767,107.5047v-22.1028h-10.9565v16.0748h-4.9663v-10.0467h-8.957v-10.0468h-14.9277v-5.0234h-15.9326v5.0234h-4.9761v16.0748h-9.9521v28.1309h8.957v6.028h5.9712v4.0187h-34.832v9.0421h-8.9565v11.0515h8.9663v-6.0281h5.9614v5.0234h15.9326v-4.0187h14.9282v-6.0281h-6.9663v-4.0187h6.9663v-5.0234h7.9614v-10.0467h6.9663v-14.0654h7.9521v39.1823h15.9326v-5.0234h5.9712v-20.0934h8.9565v-11.0514h-9.9517v-4.0187h-20.8994v-3.014h30.8511Zm-120.418,0v-22.1028h-10.9565v16.0748h-4.9663v-10.0467h-8.957v-10.0468h-14.9277v-5.0234h-15.9326v5.0234h-4.9761v16.0748h-9.9521v28.1309h8.957v6.028h5.9712v4.0187h-34.832v9.0421h-8.9565v11.0515h8.9663v-6.0281h5.9614v5.0234h15.9326v-4.0187h14.9282v-6.0281h-6.9663v-4.0187h6.9663v-5.0234h7.9614v-10.0467h6.9663v-14.0654h7.9521v39.1823h15.9326v-5.0234h5.9712v-20.0934h8.9565v-11.0514h-9.9517v-4.0187h-20.8994v-3.014h30.8511ZM176.2493,1v4.0234h-4.9761v16.0748h-9.9521v28.1309h8.957v6.028h5.9712v4.0187h-34.832v9.0421h-8.9565v9.0421h-30.8511v6.0281h14.9282v9.0421h8.9565v10.0467h-8.9565v24.1122h8.9565v10.0467h-7.9614v14.0654h8.9399l.0264-13.0588,6.9663-.002v-11.0514h8.9565v-10.0468h5.9712v-34.1461l-6.9663-.0113v-9.0435h5.9614v5.0234h15.9326v-4.0187h14.9282v-6.0281h-6.9663v-4.0187h6.9663v-5.0234h7.9614v-10.0467h6.9663v-14.0654h7.9521v39.1823h15.9326v-5.0234h5.9712v-20.0934h8.9565v-11.0515h-9.9517v-4.0187h-20.8994v-3.014h30.8511V9.0421h-10.9565v16.0748h-4.9663v-10.0467h-8.957V5.0234h-14.9277V1h-15.9326Zm-64.6782,428v-4.0234h-9.9517v-4.0187h-20.8989v-3.014h30.8506v-22.1028h-10.9565v16.0748h-4.9663v-10.0468h-8.9565v-10.0467h-14.9282v-5.0234h-15.9326v5.0234h-4.9761v16.0748h-9.9517v21.1028h31.8555v-7.0374h7.9521v7.0374h30.8604Zm1570.4035-249.1636v24.1121h8.957v10.0468h-7.9609v14.0654h8.9395l.0264-13.0588,6.9668-.002v-11.0514h8.9561v-10.0467h5.9717v-34.1472l-6.9668-.0098v-9.0441h5.9619v5.0234h15.9326v-4.0187h14.9277v-6.028h-6.9658v-4.0187h6.9658v-5.0233h7.9619v-10.0468h6.9658v-14.0654h7.9521v39.1823h15.9326v-5.0234h5.9717v-20.0934h8.9561v-11.0514h-9.9521v-4.0187h-20.8984v-3.014h30.8506v-22.1028h-10.9561v16.0748h-4.9668v-10.0468h-8.957v-10.0468h-14.9277v-5.0233h-15.9326v5.0233h-4.9756v16.0748h-9.9521v28.1309h8.957v6.028h5.9707v4.0187h-34.832v9.0421h-8.9561v9.0421h-15.9238v15.0701h8.957v10.0468h-8.957ZM55.8311,1v4.0233h-4.9761v16.0748h-9.9521v28.1309h8.957v6.028h5.9712v4.0187H20.9991v9.0421h-8.9565v9.0421H1v15.0701h4.0762v10.0468H1v24.1121h4.0762v10.0468H1v14.0654h5.0547l.0264-13.0588,6.9663-.002v-11.0514h8.9565v-10.0467h5.9712v-34.1472l-6.9663-.0098v-9.0441h5.9614v5.0234h15.9326v-4.0187h14.9282v-6.028h-6.9668v-4.0187h6.9668v-5.0233h7.9614v-10.0468h6.9663v-14.0654h7.9517v39.1823h15.9331v-5.0234h5.9707v-20.0934h8.957v-11.0514h-9.9521v-4.0187h-20.8989v-3.014h30.8511V9.0421h-10.957v16.0748h-4.9663v-10.0468h-8.9565V5.0233h-14.9277V1h-15.9326Zm161.2305,150.7056v-5.0234h5.9712v-20.0934h8.9565v-11.0514h-9.9517v-4.0187h-20.8989v-3.014h30.8506v-22.1028h-10.9565v16.0748h-4.9663v-10.0468h-8.9565v-10.0467h-14.9282v-5.0234h-15.9326v5.0234h-4.9761v16.0747h-9.9517v28.1309h8.9565v6.0281h5.9712v4.0187h-34.8315v9.0421h-8.957v9.0421h-30.8506v6.028h14.9277v9.0421h8.9565v10.0468h-8.9565v24.1121h8.9565v10.0468h-7.9614v14.0654h8.9404l.0259-13.0588,6.9663-.002v-11.0515h8.957v-10.0467h5.9712v-34.1471l-6.9668-.0098v-9.044h5.9619v5.0233h15.9326v-4.0187h14.9277v-6.028h-6.9663v-4.0187h6.9663v-5.0234h7.9614v-10.0468h6.9663v-14.0654h7.9521v39.1823h15.9326ZM1,213.9953v14.0654h5.0547l.0264-13.0588,6.9663-.002v-11.0515h8.9565v-10.0467h5.9712v-34.1471l-6.9663-.0098v-9.044h5.9614v5.0233h15.9326v-4.0187h14.9282v-6.028h-6.9668v-4.0187h6.9668v-5.0234h7.9614v-10.0468h6.9663v-14.0654h7.9517v39.1823h15.9331v-5.0234h5.9707v-20.0934h8.957v-11.0514h-9.9521v-4.0187h-20.8989v-3.014h30.8511v-22.1028h-10.957v16.0748h-4.9663v-10.0468h-8.9565v-10.0467h-14.9277v-5.0234h-15.9326v5.0234h-4.9761v16.0747h-9.9521v28.1309h8.957v6.0281h5.9712v4.0187H20.9991v9.0421h-8.9565v9.0421H1v15.0701h4.0762v10.0468H1v24.1121h4.0762v10.0468H1ZM1546.6284,1v5.0281h14.9277v9.0421h8.957v10.0467h-8.957v24.1122h8.957v10.0467h-7.9609v14.0654h8.9395l.0264-13.0588,6.9668-.002v-11.0514h8.9561v-10.0468h5.9717V5.0361l-6.9668-.0113V1h-39.8174Z"/>
</svg>