<?xml version='1.0' encoding='utf-8'?>
<svg xmlns="http://www.w3.org/2000/svg" id="Rock_tile" viewBox="0 0 1920 430">
  <defs>
    <style>
      .cls-1 {
        fill: #501700;
        fill: #501700;
        stroke: #270d03;
        

        
        stroke-width: 2px;
        stroke-linecap: round;
        paint-order: stroke fill;
      }
    </style>
  </defs>
  <path stroke-linecap="round" stroke-linejoin="round" class="cls-1" d="m1436.172,108.505v-22.103h-10.956v16.075h-4.966v-10.047h-8.957v-10.047h-14.928v-5.023h-15.933v5.023h-4.976v16.075h-9.952v28.131h8.957v6.028h5.971v4.019h-34.832v9.042h-8.956v11.052h8.966v-6.028h5.961v5.023h15.933v-4.019h14.928v-6.028h-6.966v-4.019h6.966v-5.023h7.961v-10.047h6.966v-14.065h7.952v39.182h15.933v-5.023h5.971v-20.093h8.956v-11.051h-9.952v-4.019h-20.899v-3.014h30.851Zm120.418,0v-22.103h-10.956v16.075h-4.966v-10.047h-8.957v-10.047h-14.928v-5.023h-15.933v5.023h-4.976v16.075h-9.952v28.131h8.957v6.028h5.971v4.019h-34.832v9.042h-8.956v11.052h8.966v-6.028h5.961v5.023h15.933v-4.019h14.928v-6.028h-6.966v-4.019h6.966v-5.023h7.961v-10.047h6.966v-14.065h7.952v39.182h15.933v-5.023h5.971v-20.093h8.956v-11.051h-9.952v-4.019h-20.899v-3.014h30.851ZM1500.850,1v4.023h-4.976v16.075h-9.952v28.131h8.957v6.028h5.971v4.019h-34.831v9.042h-8.957v9.042h-30.851v6.028h14.928v9.042h8.957v10.047h-8.957v24.112h8.957v10.047h-7.962v14.065h8.953v-13.059l6.980,0v-11.051h8.957v-10.047h5.971v-34.146l-6.966,0v-9.044h5.961v5.023h15.933v-4.019h14.928v-6.028h-6.966v-4.019h6.966v-5.023h7.962v-10.047h6.967v-14.065h7.951v39.182h15.933v-5.023h5.972v-20.093h8.957v-11.052h-9.952v-4.019h-20.899v-3.014h30.852V9.042h-10.957v16.075h-4.967v-10.047h-8.956V5.023h-14.928V1h-15.934Zm176.159,107.505v-22.103h-10.957v16.075h-4.966v-10.047h-8.957v-10.047h-14.928v-5.023h-15.933v5.023h-4.977v16.075h-9.951v28.131h8.956v6.028h5.972v4.019h-34.832v9.042h-8.957v11.052h8.967v-6.028h5.962v5.023h15.933v-4.019h14.928v-6.028h-6.967v-4.019h6.967v-5.023h7.961v-10.047h6.967v-14.065h7.952v39.182h15.933v-5.023h5.971v-20.093h8.957v-11.051h-9.952v-4.019h-20.898v-3.014h30.851ZM1426.211,1v5.028h14.928v9.042h8.957v10.047h-8.957v24.112h8.957v10.047h-7.962v14.065h8.940l0-13.059,6.967,0v-11.051h8.957v-10.047h5.971V5.036l-6.966,0V1h-39.817Zm315.476,0v4.023h-4.976v16.075h-9.952v28.131h8.957v6.028h5.971v4.019h-34.832v9.042h-8.956v9.042h-30.852v6.028h14.928v9.042h8.957v10.047h-8.957v24.112h8.957v10.047h-7.961v14.065h8.940l0-13.059,6.967,0v-11.051h8.956v-10.047h5.972v-34.146l-6.967,0v-9.044h5.962v5.023h15.933v-4.019h14.928v-6.028h-6.966v-4.019h6.966v-5.023h7.962v-10.047h6.966v-14.065h7.952v39.182h15.933v-5.023h5.972v-20.093h8.956v-11.052h-9.952v-4.019h-20.898v-3.014h30.851V9.042h-10.956v16.075h-4.967v-10.047h-8.957V5.023h-14.928V1h-15.933Zm-120.418,0v4.023h-4.977v16.075h-9.951v28.131h8.956v6.028h5.972v4.019h-34.832v9.042h-8.957v9.042h-30.851v6.028h14.928v9.042h8.957v10.047h-8.957v24.112h8.957v10.047h-7.962v14.065h8.940l0-13.059,6.966,0v-11.051h8.957v-10.047h5.971v-34.146l-6.966,0v-9.044h5.962v5.023h15.933v-4.019h14.928v-6.028h-6.967v-4.019h6.967v-5.023h7.961v-10.047h6.967v-14.065h7.952v39.182h15.933v-5.023h5.971v-20.093h8.957v-11.052h-9.952v-4.019h-20.898v-3.014h30.851V9.042h-10.957v16.075h-4.966v-10.047h-8.957V5.023h-14.928V1h-15.933Zm45.778,0v5.028h14.928v9.042h8.957v10.047h-8.957v24.112h8.957v10.047h-7.961v14.065h8.940l0-13.059,6.967,0v-11.051h8.956v-10.047h5.972V5.036l-6.967,0V1h-39.817Zm-286.615,0v4.023h-4.976v16.075h-9.952v28.131h8.957v6.028h5.971v4.019h-34.832v9.042h-8.956v9.042h-30.852v6.028h14.929v9.042h8.956v10.047h-8.956v24.112h8.956v10.047h-7.961v14.065h8.940l0-13.059,6.967,0v-11.051h8.956v-10.047h5.972v-34.146l-6.967,0v-9.044h5.962v5.023h15.933v-4.019h14.928v-6.028h-6.966v-4.019h6.966v-5.023h7.962v-10.047h6.966v-14.065h7.952v39.182h15.933v-5.023h5.972v-20.093h8.956v-11.052h-9.951v-4.019h-20.899v-3.014h30.851V9.042h-10.956v16.075h-4.967v-10.047h-8.957V5.023h-14.928V1h-15.933Zm407.034,0v5.028h14.928v9.042h8.956v10.047h-8.956v24.112h8.956v10.047h-7.961v14.065h8.940l0-13.059,6.967,0v-11.051h8.957v-10.047h5.971V5.036l-6.966,0V1h-39.817Zm-602.092,0v5.028h14.928v9.042h8.957v10.047h-8.957v24.112h8.957v10.047h-7.962v14.065h8.940l0-13.059,6.966,0v-11.051h8.957v-10.047h5.972V5.036l-6.967,0V1h-39.817Zm9.961,107.505v-22.103h-10.956v16.075h-4.966v-10.047h-8.957v-10.047h-14.928v-5.023h-15.933v5.023h-4.976v16.075h-9.952v28.131h8.957v6.028h5.971v4.019h-34.832v9.042h-8.956v11.052h8.966v-6.028h5.961v5.023h15.933v-4.019h14.928v-6.028h-6.966v-4.019h6.966v-5.023h7.961v-10.047h6.966v-14.065h7.952v39.182h15.933v-5.023h5.971v-20.093h8.956v-11.051h-9.952v-4.019h-20.899v-3.014h30.851Zm-120.418,0v-22.103h-10.956v16.075h-4.966v-10.047h-8.957v-10.047h-14.928v-5.023h-15.933v5.023h-4.976v16.075h-9.952v28.131h8.957v6.028h5.971v4.019h-34.832v9.042h-8.956v11.052h8.966v-6.028h5.961v5.023h15.933v-4.019h14.928v-6.028h-6.966v-4.019h6.966v-5.023h7.962v-10.047h6.966v-14.065h7.952v39.182h15.933v-5.023h5.971v-20.093h8.956v-11.051h-9.952v-4.019h-20.899v-3.014h30.851ZM1139.596,1v4.023h-4.977v16.075h-9.952v28.131h8.957v6.028h5.972v4.019h-34.832v9.042h-8.957v9.042h-30.851v6.028h14.928v9.042h8.957v10.047h-8.957v24.112h8.957v10.047h-7.962v14.065h8.940l0-13.059,6.966,0v-11.051h8.957v-10.047h5.971v-34.146l-6.966,0v-9.044h5.961v5.023h15.933v-4.019h14.929v-6.028h-6.967v-4.019h6.967v-5.023h7.961v-10.047h6.967v-14.065h7.951v39.182h15.934v-5.023h5.971v-20.093h8.957v-11.052h-9.952v-4.019h-20.899v-3.014h30.852V9.042h-10.957v16.075h-4.967v-10.047h-8.956V5.023h-14.928V1h-15.933Zm120.418,0v4.023h-4.977v16.075h-9.951v28.131h8.956v6.028h5.972v4.019h-34.832v9.042h-8.957v9.042h-30.851v6.028h14.928v9.042h8.957v10.047h-8.957v24.112h8.957v10.047h-7.962v14.065h8.940l0-13.059,6.966,0v-11.051h8.957v-10.047h5.972v-34.146l-6.967,0v-9.044h5.962v5.023h15.933v-4.019h14.928v-6.028h-6.967v-4.019h6.967v-5.023h7.961v-10.047h6.967v-14.065h7.952v39.182h15.933v-5.023h5.971v-20.093h8.957v-11.052h-9.952v-4.019h-20.898v-3.014h30.851V9.042h-10.957v16.075h-4.966v-10.047h-8.957V5.023h-14.928V1h-15.933Zm55.740,107.505v-22.103h-10.956v16.075h-4.966v-10.047h-8.957v-10.047h-14.928v-5.023h-15.933v5.023h-4.976v16.075h-9.952v28.131h8.957v6.028h5.971v4.019h-34.832v9.042h-8.956v11.052h8.966v-6.028h5.961v5.023h15.933v-4.019h14.928v-6.028h-6.966v-4.019h6.966v-5.023h7.961v-10.047h6.966v-14.065h7.952v39.182h15.933v-5.023h5.971v-20.093h8.956v-11.051h-9.952v-4.019h-20.899v-3.014h30.851Zm-9.962-107.505v5.028h14.929v9.042h8.956v10.047h-8.956v24.112h8.956v10.047h-7.961v14.065h8.940l0-13.059,6.967,0v-11.051h8.956v-10.047h5.972V5.036l-6.967,0V1h-39.817Zm612.054,262.224v-22.103h-10.957v16.075h-4.967v-10.047h-8.956v-10.047h-14.929v-5.023h-15.933v5.023h-4.976v16.075h-9.952v28.131h8.957v6.028h5.971v4.019h-34.831v9.042h-8.957v9.042h-30.851v6.028h14.928v9.042h8.956v10.047h-8.956v24.112h8.956v10.047h-7.961v14.065h8.940l0-13.059,6.967,0v-11.052h8.957v-10.047h5.971v-34.147l-6.966,0v-9.044h5.961v5.023h15.933v-4.019h14.928v-6.028h-6.966v-4.019h6.966v-5.023h7.962v-10.047h6.967v-14.065h7.951v39.182h15.933v-5.023h5.972v-20.093h8.957v-11.051h-9.952v-4.019h-20.899v-3.014h30.852ZM22.004,425.981h5.971v-34.147l-6.966,0v-9.044h5.961v5.023h15.933v-4.019h14.928v-6.028h-6.967v-4.019h6.967v-5.023h7.961v-10.047h6.966v-14.065h7.952v39.182h15.933v-5.023h5.971v-20.094h8.957v-11.051h-9.952v-4.019h-20.899v-3.014h30.851v-22.103h-10.957v16.075h-4.966v-10.047h-8.956v-10.047h-14.928v-5.023h-15.933v5.023h-4.976v16.075h-9.952v28.131h8.957v6.028h5.971v4.019H20.999v9.042h-8.956v9.042H1v15.070h4.076v10.047H1v17.084h21.004v-3.019ZM1,368.715v14.065h5.055l0-13.059,6.966,0v-11.052h8.956v-10.047h5.971v-34.147l-6.966,0v-9.044h5.961v5.023h15.933v-4.019h14.928v-6.028h-6.967v-4.019h6.967v-5.023h7.961v-10.047h6.966v-14.065h7.952v39.182h15.933v-5.023h5.971v-20.093h8.957v-11.051h-9.952v-4.019h-20.899v-3.014h30.851v-22.103h-10.957v16.075h-4.966v-10.047h-8.956v-10.047h-14.928v-5.023h-15.933v5.023h-4.976v16.075h-9.952v28.131h8.957v6.028h5.971v4.019H20.999v9.042h-8.956v9.042H1v15.070h4.076v10.047H1v24.112h4.076v10.047H1Zm0-77.360v14.065h5.055l0-13.059,6.966,0v-11.051h8.956v-10.047h5.971v-34.147l-6.966,0v-9.044h5.961v5.023h15.933v-4.019h14.928v-6.028h-6.967v-4.019h6.967v-5.023h7.961v-10.047h6.966v-14.065h7.952v39.182h15.933v-5.023h5.971v-20.093h8.957v-11.051h-9.952v-4.019h-20.899v-3.014h30.851v-22.103h-10.957v16.075h-4.966v-10.047h-8.956v-10.047h-14.928v-5.023h-15.933v5.023h-4.976v16.075h-9.952v28.131h8.957v6.028h5.971v4.019H20.999v9.042h-8.956v9.042H1v15.070h4.076v10.047H1v24.112h4.076v10.047H1Zm1796.427,137.645v-4.023h-9.952v-4.019h-20.898v-3.014h30.851v-22.103h-10.956v16.075h-4.967v-10.047h-8.957v-10.047h-14.928v-5.023h-15.933v5.023h-4.976v16.075h-9.952v21.103h31.856v-7.037h7.952v7.037h30.860ZM1907.884,6.028h11.116V1h-11.116v5.028Zm-.995,405.888h-4.967v-10.047h-8.956v-10.047h-14.929v-5.023h-15.933v5.023h-4.976v16.075h-9.952v21.103h31.856v-7.037h7.951v7.037h30.861v-4.023h-9.952v-4.019h-20.899v-3.014h30.852v-22.103h-10.957v16.075Zm-124.390-105.491v-5.023h5.972v-20.093h8.956v-11.051h-9.952v-4.019h-20.898v-3.014h30.851v-22.103h-10.956v16.075h-4.967v-10.047h-8.957v-10.047h-14.928v-5.023h-15.933v5.023h-4.976v16.075h-9.952v28.131h8.957v6.028h5.971v4.019h-34.832v9.042h-8.956v9.042h-15.924v15.070h8.957v10.047h-8.957v24.112h8.957v10.047h-7.961v14.065h8.940l0-13.059,6.967,0v-11.052h8.956v-10.047h5.972v-34.147l-6.967,0v-9.044h5.962v5.023h15.933v-4.019h14.928v-6.028h-6.966v-4.019h6.966v-5.023h7.962v-10.047h6.966v-14.065h7.952v39.182h15.933ZM1064.956,1v5.028h14.928v9.042h8.957v10.047h-8.957v24.112h8.957v10.047h-7.962v14.065h8.940l0-13.059,6.966,0v-11.051h8.957v-10.047h5.971V5.036l-6.966,0V1h-39.817Zm617.019,256.196v24.112h8.957v10.047h-7.961v14.065h8.940l0-13.059,6.967,0v-11.051h8.956v-10.047h5.972v-34.147l-6.967,0v-9.044h5.962v5.023h15.933v-4.019h14.928v-6.028h-6.966v-4.019h6.966v-5.023h7.962v-10.047h6.966v-14.065h7.952v39.182h15.933v-5.023h5.972v-20.093h8.956v-11.051h-9.952v-4.019h-20.898v-3.014h30.851v-22.103h-10.956v16.075h-4.967v-10.047h-8.957v-10.047h-14.928v-5.023h-15.933v5.023h-4.976v16.075h-9.952v28.131h8.957v6.028h5.971v4.019h-34.832v9.042h-8.956v9.042h-15.924v15.070h8.957v10.047h-8.957Zm235.871-71.332v-22.103h-10.957v16.075h-4.967v-10.047h-8.956v-10.047h-14.929v-5.023h-15.933v5.023h-4.976v16.075h-9.952v28.131h8.957v6.028h5.971v4.019h-34.831v9.042h-8.957v9.042h-30.851v6.028h14.928v9.042h8.956v10.047h-8.956v24.112h8.956v10.047h-7.961v14.065h8.940l0-13.059,6.967,0v-11.051h8.957v-10.047h5.971v-34.147l-6.966,0v-9.044h5.961v5.023h15.933v-4.019h14.928v-6.028h-6.966v-4.019h6.966v-5.023h7.962v-10.047h6.967v-14.065h7.951v39.182h15.933v-5.023h5.972v-20.093h8.957v-11.051h-9.952v-4.019h-20.899v-3.014h30.852ZM1,59.276v14.065h5.055l0-13.059,6.966,0v-11.051h8.956v-10.047h5.971V5.036l-6.966,0V1H1v14.070h4.076v10.047H1v24.112h4.076v10.047H1Zm1916.846,49.229v-22.103h-10.957v16.075h-4.967v-10.047h-8.956v-10.047h-14.929v-5.023h-15.933v5.023h-4.976v16.075h-9.952v28.131h8.957v6.028h5.971v4.019h-34.831v9.042h-8.957v9.042h-30.851v6.028h14.928v9.042h8.956v10.047h-8.956v24.112h8.956v10.047h-7.961v14.065h8.940l0-13.059,6.967,0v-11.051h8.957v-10.047h5.971v-34.146l-6.966,0v-9.044h5.961v5.023h15.933v-4.019h14.928v-6.028h-6.966v-4.019h6.966v-5.023h7.962v-10.047h6.967v-14.065h7.951v39.182h15.933v-5.023h5.972v-20.093h8.957v-11.051h-9.952v-4.019h-20.899v-3.014h30.852ZM1862.104,1v4.023h-4.976v16.075h-9.952v28.131h8.957v6.028h5.971v4.019h-34.831v9.042h-8.957v9.042h-30.851v6.028h14.928v9.042h8.956v10.047h-8.956v24.112h8.956v10.047h-7.961v14.065h8.940l0-13.059,6.967,0v-11.051h8.957v-10.047h5.971v-34.146l-6.966,0v-9.044h5.961v5.023h15.933v-4.019h14.928v-6.028h-6.966v-4.019h6.966v-5.023h7.962v-10.047h6.967v-14.065h7.951v39.182h15.933v-5.023h5.972v-20.093h8.957v-11.052h-9.952v-4.019h-20.899v-3.014h30.852V9.042h-10.957v16.075h-4.967v-10.047h-8.956V5.023h-14.929V1h-15.933ZM231.989,429v-4.023h-9.952v-4.019h-20.899v-3.014h30.851v-22.103h-10.956v16.075h-4.966v-10.047h-8.956v-10.047h-14.928v-5.023h-15.933v5.023h-4.976v16.075h-9.952v21.103h31.856v-7.037h7.952v7.037h30.860ZM222.028,1v5.028h14.928v9.042h8.956v10.047h-8.956v24.112h8.956v10.047h-7.961v14.065h8.940l0-13.059,6.966,0v-11.051h8.956v-10.047h5.971V5.036l-6.966,0V1h-39.817Zm16.928,153.720h-16.928v6.028h16.928v-6.028Zm-21.894,151.706v-5.023h5.971v-20.093h8.956v-11.051h-9.952v-4.019h-20.899v-3.014h30.851v-22.103h-10.956v16.075h-4.966v-10.047h-8.956v-10.047h-14.928v-5.023h-15.933v5.023h-4.976v16.075h-9.952v28.131h8.956v6.028h5.971v4.019h-34.832v9.042h-8.957v9.042h-30.851v6.028h14.928v9.042h8.956v10.047h-8.956v24.112h8.956v10.047h-7.961v14.065h8.940l0-13.059,6.966,0v-11.052h8.957v-10.047h5.971v-34.147l-6.967,0v-9.044h5.962v5.023h15.933v-4.019h14.928v-6.028h-6.966v-4.019h6.966v-5.023h7.961v-10.047h6.966v-14.065h7.952v39.182h15.933ZM101.610,1v5.028h14.928v9.042h8.956v10.047h-8.956v24.112h8.956v10.047h-7.961v14.065h8.940l0-13.059,6.966,0v-11.051h8.957v-10.047h5.971V5.036l-6.967,0V1h-39.817Zm14.928,256.196v24.112h8.956v10.047h-7.961v14.065h8.940l0-13.059,6.966,0v-11.051h8.957v-10.047h5.971v-34.147l-6.967,0v-9.044h5.962v5.023h15.933v-4.019h14.928v-6.028h-6.966v-4.019h6.966v-5.023h7.961v-10.047h6.966v-14.065h7.952v39.182h15.933v-5.023h5.971v-20.093h8.956v-11.051h-9.952v-4.019h-20.899v-3.014h30.851v-22.103h-10.956v16.075h-4.966v-10.047h-8.956v-10.047h-14.928v-5.023h-15.933v5.023h-4.976v16.075h-9.952v28.131h8.956v6.028h5.971v4.019h-34.832v9.042h-8.957v9.042h-30.851v6.028h14.928v9.042h8.956v10.047h-8.956Zm0,154.720v17.084h25.885v-3.019h5.971v-34.147l-6.967,0v-9.044h5.962v5.023h15.933v-4.019h14.928v-6.028h-6.966v-4.019h6.966v-5.023h7.961v-10.047h6.966v-14.065h7.952v39.182h15.933v-5.023h5.971v-20.094h8.956v-11.051h-9.952v-4.019h-20.899v-3.014h30.851v-22.103h-10.956v16.075h-4.966v-10.047h-8.956v-10.047h-14.928v-5.023h-15.933v5.023h-4.976v16.075h-9.952v28.131h8.956v6.028h5.971v4.019h-34.832v9.042h-8.957v9.042h-30.851v6.028h14.928v9.042h8.956v10.047h-8.956Zm122.418-179.836h-16.928v6.028h16.928v-6.028Zm0,77.360h-16.928v6.028h16.928v-6.028Zm1668.928-77.360v6.028h11.116v-6.028h-11.116Zm0-77.360v6.028h11.116v-6.028h-11.116Zm0,154.720v6.028h11.116v-6.028h-11.116Zm0-232.080v6.028h11.116v-6.028h-11.116Zm-200.024,348.622h5.972v-34.147l-6.967,0v-9.044h5.962v5.023h15.933v-4.019h14.928v-6.028h-6.966v-4.019h6.966v-5.023h7.962v-10.047h6.966v-14.065h7.952v39.182h15.933v-5.023h5.972v-20.094h8.956v-11.051h-9.952v-4.019h-20.898v-3.014h30.851v-22.103h-10.956v16.075h-4.967v-10.047h-8.957v-10.047h-14.928v-5.023h-15.933v5.023h-4.976v16.075h-9.952v28.131h8.957v6.028h5.971v4.019h-34.832v9.042h-8.956v9.042h-15.924v15.070h8.957v10.047h-8.957v17.084h25.885v-3.019Zm-1485.832-33.154h16.928v-6.028h-16.928v6.028Zm1696.972-6.028h-11.116v6.028h11.116v-6.028ZM1019.177,1v4.023h-4.976v16.075h-9.952v28.131h8.957v6.028h5.971v4.019h-34.831v9.042h-8.957v9.042h-30.851v6.028h14.928v9.042h8.956v10.047h-8.956v24.112h8.956v10.047h-7.961v14.065h8.940l0-13.059,6.967,0v-11.051h8.956v-10.047h5.972v-34.146l-6.967,0v-9.044h5.962v5.023h15.933v-4.019h14.928v-6.028h-6.966v-4.019h6.966v-5.023h7.962v-10.047h6.966v-14.065h7.952v39.182h15.933v-5.023h5.972v-20.093h8.956v-11.052h-9.951v-4.019h-20.899v-3.014h30.851V9.042h-10.956v16.075h-4.967v-10.047h-8.957V5.023h-14.928V1h-15.933Zm783.217,410.916v17.084h25.885v-3.019h5.971v-34.147l-6.966,0v-9.044h5.961v5.023h15.933v-4.019h14.928v-6.028h-6.966v-4.019h6.966v-5.023h7.962v-10.047h6.967v-14.065h7.951v39.182h15.933v-5.023h5.972v-20.094h8.957v-11.051h-9.952v-4.019h-20.899v-3.014h30.852v-22.103h-10.957v16.075h-4.967v-10.047h-8.956v-10.047h-14.929v-5.023h-15.933v5.023h-4.976v16.075h-9.952v28.131h8.957v6.028h5.971v4.019h-34.831v9.042h-8.957v9.042h-30.851v6.028h14.928v9.042h8.956v10.047h-8.956ZM824.119,1v5.028h14.928v9.042h8.956v10.047h-8.956v24.112h8.956v10.047h-7.961v14.065h8.940l0-13.059,6.966,0v-11.051h8.956v-10.047h5.971V5.036l-6.966,0V1h-39.817Zm-45.779,0v4.023h-4.976v16.075h-9.952v28.131h8.956v6.028h5.971v4.019h-34.832v9.042h-8.957v9.042h-30.851v6.028h14.928v9.042h8.956v10.047h-8.956v24.112h8.956v10.047h-7.961v14.065h8.940l0-13.059,6.966,0v-11.051h8.957v-10.047h5.971v-34.146l-6.966,0v-9.044h5.961v5.023h15.933v-4.019h14.928v-6.028h-6.966v-4.019h6.966v-5.023h7.961v-10.047h6.967v-14.065h7.952v39.182h15.933v-5.023h5.971v-20.093h8.957v-11.052h-9.952v-4.019h-20.899v-3.014h30.851V9.042h-10.957v16.075h-4.966v-10.047h-8.956V5.023h-14.928V1h-15.933Zm-64.678,107.505v-22.103h-10.956v16.075h-4.966v-10.047h-8.957v-10.047h-14.928v-5.023h-15.933v5.023h-4.976v16.075h-9.952v28.131h8.957v6.028h5.971v4.019h-34.832v9.042h-8.956v11.052h8.966v-6.028h5.961v5.023h15.933v-4.019h14.928v-6.028h-6.966v-4.019h6.966v-5.023h7.961v-10.047h6.966v-14.065h7.952v39.182h15.933v-5.023h5.971v-20.093h8.956v-11.051h-9.952v-4.019h-20.899v-3.014h30.851ZM657.922,1v4.023h-4.976v16.075h-9.952v28.131h8.957v6.028h5.971v4.019h-34.832v9.042h-8.956v9.042h-30.851v6.028h14.928v9.042h8.957v10.047h-8.957v24.112h8.957v10.047h-7.961v14.065h8.940l0-13.059,6.966,0v-11.051h8.956v-10.047h5.971v-34.146l-6.966,0v-9.044h5.961v5.023h15.933v-4.019h14.928v-6.028h-6.966v-4.019h6.966v-5.023h7.961v-10.047h6.966v-14.065h7.952v39.182h15.933v-5.023h5.971v-20.093h8.956v-11.052h-9.952v-4.019h-20.899v-3.014h30.851V9.042h-10.956v16.075h-4.967v-10.047h-8.956V5.023h-14.928V1h-15.933Zm45.779,0v5.028h14.928v9.042h8.956v10.047h-8.956v24.112h8.956v10.047h-7.961v14.065h8.940l0-13.059,6.966,0v-11.051h8.957v-10.047h5.971V5.036l-6.966,0V1h-39.817Zm240.836,0v5.028h14.928v9.042h8.956v10.047h-8.956v24.112h8.956v10.047h-7.961v14.065h8.940l0-13.059,6.967,0v-11.051h8.956v-10.047h5.972V5.036l-6.967,0V1h-39.817Zm-110.457,107.505v-22.103h-10.956v16.075h-4.966v-10.047h-8.957v-10.047h-14.928v-5.023h-15.933v5.023h-4.976v16.075h-9.952v28.131h8.957v6.028h5.971v4.019h-34.832v9.042h-8.956v11.052h8.966v-6.028h5.961v5.023h15.933v-4.019h14.928v-6.028h-6.966v-4.019h6.966v-5.023h7.961v-10.047h6.966v-14.065h7.952v39.182h15.933v-5.023h5.971v-20.093h8.956v-11.051h-9.952v-4.019h-20.899v-3.014h30.851Zm120.418,0v-22.103h-10.956v16.075h-4.966v-10.047h-8.957v-10.047h-14.928v-5.023h-15.933v5.023h-4.976v16.075h-9.952v28.131h8.957v6.028h5.971v4.019h-34.832v9.042h-8.956v11.052h8.966v-6.028h5.961v5.023h15.933v-4.019h14.928v-6.028h-6.966v-4.019h6.966v-5.023h7.961v-10.047h6.966v-14.065h7.952v39.182h15.933v-5.023h5.971v-20.093h8.956v-11.051h-9.952v-4.019h-20.899v-3.014h30.851ZM898.759,1v4.023h-4.976v16.075h-9.952v28.131h8.956v6.028h5.971v4.019h-34.832v9.042h-8.956v9.042h-30.851v6.028h14.928v9.042h8.956v10.047h-8.956v24.112h8.956v10.047h-7.961v14.065h8.940l0-13.059,6.966,0v-11.051h8.956v-10.047h5.971v-34.146l-6.966,0v-9.044h5.961v5.023h15.933v-4.019h14.928v-6.028h-6.966v-4.019h6.966v-5.023h7.961v-10.047h6.966v-14.065h7.952v39.182h15.933v-5.023h5.971v-20.093h8.956v-11.052h-9.952v-4.019h-20.899v-3.014h30.851V9.042h-10.956v16.075h-4.966v-10.047h-8.957V5.023h-14.928V1h-15.933Zm-315.476,0v5.028h14.928v9.042h8.957v10.047h-8.957v24.112h8.957v10.047h-7.961v14.065h8.940l0-13.059,6.966,0v-11.051h8.956v-10.047h5.971V5.036l-6.966,0V1h-39.817Zm-166.197,0v4.023h-4.976v16.075h-9.952v28.131h8.956v6.028h5.971v4.019h-34.832v9.042h-8.956v9.042h-30.851v6.028h14.928v9.042h8.957v10.047h-8.957v24.112h8.957v10.047h-7.962v14.065h8.940l0-13.059,6.966,0v-11.051h8.957v-10.047h5.971v-34.146l-6.966,0v-9.044h5.961v5.023h15.933v-4.019h14.928v-6.028h-6.966v-4.019h6.966v-5.023h7.962v-10.047h6.966v-14.065h7.952v39.182h15.933v-5.023h5.971v-20.093h8.957v-11.052h-9.952v-4.019h-20.899v-3.014h30.851V9.042h-10.957v16.075h-4.966v-10.047h-8.956V5.023h-14.928V1h-15.933Zm-64.678,107.505v-22.103h-10.956v16.075h-4.966v-10.047h-8.957v-10.047h-14.928v-5.023h-15.933v5.023h-4.976v16.075h-9.952v28.131h8.957v6.028h5.971v4.019h-34.832v9.042h-8.956v11.052h8.966v-6.028h5.961v5.023h15.933v-4.019h14.928v-6.028h-6.966v-4.019h6.966v-5.023h7.961v-10.047h6.966v-14.065h7.952v39.182h15.933v-5.023h5.971v-20.093h8.956v-11.051h-9.952v-4.019h-20.899v-3.014h30.851ZM462.864,1v5.028h14.928v9.042h8.956v10.047h-8.956v24.112h8.956v10.047h-7.961v14.065h8.940l0-13.059,6.966,0v-11.051h8.956v-10.047h5.971V5.036l-6.966,0V1h-39.817Zm-120.418,0v5.028h14.928v9.042h8.957v10.047h-8.957v24.112h8.957v10.047h-7.962v14.065h8.940l0-13.059,6.966,0v-11.051h8.957v-10.047h5.971V5.036l-6.966,0V1h-39.817Zm195.058,0v4.023h-4.976v16.075h-9.952v28.131h8.956v6.028h5.971v4.019h-34.832v9.042h-8.957v9.042h-30.851v6.028h14.928v9.042h8.956v10.047h-8.956v24.112h8.956v10.047h-7.961v14.065h8.940l0-13.059,6.966,0v-11.051h8.956v-10.047h5.971v-34.146l-6.966,0v-9.044h5.962v5.023h15.933v-4.019h14.928v-6.028h-6.966v-4.019h6.966v-5.023h7.961v-10.047h6.966v-14.065h7.952v39.182h15.933v-5.023h5.971v-20.093h8.956v-11.052h-9.952v-4.019h-20.899v-3.014h30.851V9.042h-10.956v16.075h-4.966v-10.047h-8.957V5.023h-14.928V1h-15.933Zm-240.836,0v4.023h-4.976v16.075h-9.952v28.131h8.957v6.028h5.971v4.019h-34.832v9.042h-8.956v9.042h-30.851v6.028h14.928v9.042h8.956v10.047h-8.956v24.112h8.956v10.047h-7.961v14.065h8.940l0-13.059,6.966,0v-11.051h8.956v-10.047h5.971v-34.146l-6.966,0v-9.044h5.961v5.023h15.933v-4.019h14.928v-6.028h-6.966v-4.019h6.966v-5.023h7.961v-10.047h6.966v-14.065h7.952v39.182h15.933v-5.023h5.971v-20.093h8.956v-11.052h-9.952v-4.019h-20.899v-3.014h30.851V9.042h-10.956v16.075h-4.966v-10.047h-8.957V5.023h-14.928V1h-15.933Zm296.577,107.505v-22.103h-10.956v16.075h-4.966v-10.047h-8.957v-10.047h-14.928v-5.023h-15.933v5.023h-4.976v16.075h-9.952v28.131h8.957v6.028h5.971v4.019h-34.832v9.042h-8.956v11.052h8.966v-6.028h5.961v5.023h15.933v-4.019h14.928v-6.028h-6.966v-4.019h6.966v-5.023h7.961v-10.047h6.966v-14.065h7.952v39.182h15.933v-5.023h5.971v-20.093h8.956v-11.051h-9.952v-4.019h-20.899v-3.014h30.851Zm-120.418,0v-22.103h-10.956v16.075h-4.966v-10.047h-8.957v-10.047h-14.928v-5.023h-15.933v5.023h-4.976v16.075h-9.952v28.131h8.957v6.028h5.971v4.019h-34.832v9.042h-8.956v11.052h8.966v-6.028h5.961v5.023h15.933v-4.019h14.928v-6.028h-6.966v-4.019h6.966v-5.023h7.961v-10.047h6.966v-14.065h7.952v39.182h15.933v-5.023h5.971v-20.093h8.956v-11.051h-9.952v-4.019h-20.899v-3.014h30.851ZM176.249,1v4.023h-4.976v16.075h-9.952v28.131h8.957v6.028h5.971v4.019h-34.832v9.042h-8.956v9.042h-30.851v6.028h14.928v9.042h8.956v10.047h-8.956v24.112h8.956v10.047h-7.961v14.065h8.940l0-13.059,6.966,0v-11.051h8.956v-10.047h5.971v-34.146l-6.966,0v-9.044h5.961v5.023h15.933v-4.019h14.928v-6.028h-6.966v-4.019h6.966v-5.023h7.961v-10.047h6.966v-14.065h7.952v39.182h15.933v-5.023h5.971v-20.093h8.956v-11.052h-9.952v-4.019h-20.899v-3.014h30.851V9.042h-10.956v16.075h-4.966v-10.047h-8.957V5.023h-14.928V1h-15.933Zm-64.678,428v-4.023h-9.952v-4.019h-20.899v-3.014h30.851v-22.103h-10.956v16.075h-4.966v-10.047h-8.956v-10.047h-14.928v-5.023h-15.933v5.023h-4.976v16.075h-9.952v21.103h31.856v-7.037h7.952v7.037h30.860Zm1570.404-249.164v24.112h8.957v10.047h-7.961v14.065h8.940l0-13.059,6.967,0v-11.051h8.956v-10.047h5.972v-34.147l-6.967,0v-9.044h5.962v5.023h15.933v-4.019h14.928v-6.028h-6.966v-4.019h6.966v-5.023h7.962v-10.047h6.966v-14.065h7.952v39.182h15.933v-5.023h5.972v-20.093h8.956v-11.051h-9.952v-4.019h-20.898v-3.014h30.851v-22.103h-10.956v16.075h-4.967v-10.047h-8.957v-10.047h-14.928v-5.023h-15.933v5.023h-4.976v16.075h-9.952v28.131h8.957v6.028h5.971v4.019h-34.832v9.042h-8.956v9.042h-15.924v15.070h8.957v10.047h-8.957ZM55.831,1v4.023h-4.976v16.075h-9.952v28.131h8.957v6.028h5.971v4.019H20.999v9.042h-8.956v9.042H1v15.070h4.076v10.047H1v24.112h4.076v10.047H1v14.065h5.055l0-13.059,6.966,0v-11.051h8.956v-10.047h5.971v-34.147l-6.966,0v-9.044h5.961v5.023h15.933v-4.019h14.928v-6.028h-6.967v-4.019h6.967v-5.023h7.961v-10.047h6.966v-14.065h7.952v39.182h15.933v-5.023h5.971v-20.093h8.957v-11.051h-9.952v-4.019h-20.899v-3.014h30.851V9.042h-10.957v16.075h-4.966v-10.047h-8.956V5.023h-14.928V1h-15.933Zm161.230,150.706v-5.023h5.971v-20.093h8.956v-11.051h-9.952v-4.019h-20.899v-3.014h30.851v-22.103h-10.956v16.075h-4.966v-10.047h-8.956v-10.047h-14.928v-5.023h-15.933v5.023h-4.976v16.075h-9.952v28.131h8.956v6.028h5.971v4.019h-34.832v9.042h-8.957v9.042h-30.851v6.028h14.928v9.042h8.956v10.047h-8.956v24.112h8.956v10.047h-7.961v14.065h8.940l0-13.059,6.966,0v-11.052h8.957v-10.047h5.971v-34.147l-6.967,0v-9.044h5.962v5.023h15.933v-4.019h14.928v-6.028h-6.966v-4.019h6.966v-5.023h7.961v-10.047h6.966v-14.065h7.952v39.182h15.933ZM1,213.995v14.065h5.055l0-13.059,6.966,0v-11.052h8.956v-10.047h5.971v-34.147l-6.966,0v-9.044h5.961v5.023h15.933v-4.019h14.928v-6.028h-6.967v-4.019h6.967v-5.023h7.961v-10.047h6.966v-14.065h7.952v39.182h15.933v-5.023h5.971v-20.093h8.957v-11.051h-9.952v-4.019h-20.899v-3.014h30.851v-22.103h-10.957v16.075h-4.966v-10.047h-8.956v-10.047h-14.928v-5.023h-15.933v5.023h-4.976v16.075h-9.952v28.131h8.957v6.028h5.971v4.019H20.999v9.042h-8.956v9.042H1v15.070h4.076v10.047H1v24.112h4.076v10.047H1ZM1546.628,1v5.028h14.928v9.042h8.957v10.047h-8.957v24.112h8.957v10.047h-7.961v14.065h8.940l0-13.059,6.967,0v-11.051h8.956v-10.047h5.972V5.036l-6.967,0V1h-39.817Z" />
</svg>