<svg xmlns="http://www.w3.org/2000/svg" viewBox="-25 -25 300 300"><path d="M231.89 0h-213C8.65 0 0 8.06 0 18v214c0 9.94 5.68 18 15.87 18h213.05c10.2 0 21.08-8.06 21.08-18V18a17.92 17.92 0 0 0-18.11-18ZM95.24 95.24h33.65v17.15h.37c5.13-9.25 20.29-18.64 39-18.64 36 0 46 19.1 46 54.46v66.08h-35.69v-59.56c0-15.84-6.32-29.73-21.11-29.73-18 0-26.51 12.15-26.51 32.11v57.18H95.24ZM35.71 214.29h35.72v-119H35.71ZM75.89 53.57a22.32 22.32 0 1 1-22.32-22.31 22.3 22.3 0 0 1 22.32 22.31Z" style="fill:#0a66c2;fill-rule:evenodd"/></svg>